<?xml version="1.0" encoding="UTF-8"?>
<!DOCTYPE svg PUBLIC "-//W3C//DTD SVG 1.1//EN" "http://www.w3.org/Graphics/SVG/1.1/DTD/svg11.dtd">
<!-- Creator: CorelDRAW -->
<svg xmlns="http://www.w3.org/2000/svg" xml:space="preserve" width="11.6078mm" height="8.4667mm" version="1.1" style="shape-rendering:geometricPrecision; text-rendering:geometricPrecision; image-rendering:optimizeQuality; fill-rule:evenodd; clip-rule:evenodd"
viewBox="0 0 48.41 35.31"
 xmlns:xlink="http://www.w3.org/1999/xlink"
 xmlns:xodm="http://www.corel.com/coreldraw/odm/2003">
 <defs>
  <style type="text/css">
   <![CDATA[
    .fil0 {fill:#34305D;fill-rule:nonzero}
    .fil2 {fill:#0F1F7A;fill-rule:nonzero}
    .fil1 {fill:url(#id0)}
   ]]>
  </style>
  <linearGradient id="id0" gradientUnits="userSpaceOnUse" x1="6.97" y1="9.09" x2="41.01" y2="9.09">
   <stop offset="0" style="stop-opacity:1; stop-color:#B0CB1F"/>
   <stop offset="1" style="stop-opacity:1; stop-color:#21A73F"/>
  </linearGradient>
 </defs>
 <g id="Layer_x0020_1">
  <metadata id="CorelCorpID_0Corel-Layer"/>
  <g id="_2460206433056">
   <path class="fil0" d="M27.44 35.31l2.4 -14.16 3.63 0 2.86 6.37 3.04 -6.37 2.45 0c0.7,0 1.29,0.51 1.4,1.2l1.94 12.95 -3.67 0 -1.04 -8.15 -3.23 5.88c-0.39,0.66 -1.35,0.66 -1.73,-0.01l-3.19 -5.88 -1.21 8.15 -3.65 0zm-8.75 -3.12l0.74 0c0.89,0 2.14,-0.08 3.1,-1.02 0.47,-0.45 1.08,-1.34 1.08,-2.91 0,-1.32 -0.4,-2.44 -1.1,-3.1 -0.87,-0.81 -2.02,-0.89 -2.93,-0.89l-0.89 0 0 7.92zm-3.67 1.14l0 -12.18 4.82 0c1.42,0 3.8,0.19 5.62,1.95 1.66,1.59 1.97,3.63 1.97,5.16 0,1.87 -0.47,3.52 -1.85,4.9 -1.12,1.12 -3.01,2.14 -5.43,2.14l-3.16 0c-1.09,0 -1.98,-0.89 -1.98,-1.98zm-6.01 -3.2l-1.59 -4.58 -1.55 4.58 3.14 0zm0.98 2.8l-5.14 0 -0.95 2.38 -3.88 0 5.08 -13.25c0.21,-0.55 0.73,-0.91 1.32,-0.91l3.04 0 5.33 14.16 -3.93 0 -0.87 -2.38z"/>
   <path class="fil1" d="M24.61 0c-6.66,0 -12.34,3.01 -14.67,9.12l-3.08 8.06c-0.2,0.52 0.21,1.1 0.78,1.1l15.84 0c6.62,0 12.39,-3.92 14.71,-9.99l2.9 -7.03c0.23,-0.6 -0.24,-1.26 -0.89,-1.26l-15.58 0zm-11.72 10.38c1.89,-4.96 6.48,-7.23 11.89,-7.23l12.17 0 -1.69 3.86c-1.89,4.94 -6.59,8.14 -11.98,8.14l-10.71 0c2.24,-2.57 5.7,-4.41 9.78,-4.41l2.17 0c1.74,0 4.16,-1.01 4.79,-3.14l-7.13 0c-3.47,0 -6.71,1.07 -9.35,2.97l0.07 -0.18z"/>
   <path class="fil2" d="M47.94 23.99c-0.32,0.32 -0.7,0.48 -1.15,0.48 -0.45,0 -0.83,-0.16 -1.15,-0.48 -0.31,-0.32 -0.47,-0.7 -0.47,-1.15 0,-0.45 0.16,-0.83 0.48,-1.15 0.32,-0.32 0.7,-0.47 1.15,-0.47 0.45,0 0.83,0.16 1.15,0.47 0.32,0.31 0.48,0.7 0.48,1.15 0,0.45 -0.16,0.83 -0.48,1.15zm-2.14 -2.14l0 0c-0.27,0.27 -0.41,0.6 -0.41,0.99 0,0.39 0.14,0.72 0.41,1 0.27,0.27 0.6,0.41 0.99,0.41 0.39,0 0.72,-0.14 0.99,-0.41 0.27,-0.27 0.41,-0.61 0.41,-1 0,-0.39 -0.14,-0.72 -0.41,-0.99 -0.27,-0.27 -0.6,-0.41 -0.99,-0.41 -0.39,0 -0.71,0.14 -0.99,0.41zm0.96 0.09l0 0c0.22,0 0.38,0.02 0.49,0.06 0.18,0.08 0.28,0.23 0.28,0.45 0,0.16 -0.06,0.28 -0.17,0.35 -0.06,0.04 -0.15,0.07 -0.26,0.09 0.14,0.02 0.24,0.08 0.31,0.17 0.07,0.09 0.1,0.19 0.1,0.28l0 0.13c0,0.04 0,0.09 0.01,0.13 0,0.05 0.01,0.08 0.01,0.09l0.01 0.02 -0.29 0c-0,-0.01 -0,-0.01 -0,-0.02 -0,-0.01 -0,-0.01 -0.01,-0.02l-0.01 -0.06 0 -0.14c0,-0.21 -0.06,-0.34 -0.17,-0.41 -0.07,-0.04 -0.18,-0.06 -0.35,-0.06l-0.25 0 0 0.7 -0.31 0 0 -1.78 0.62 0zm0.34 0.28l0 0c-0.08,-0.05 -0.21,-0.07 -0.38,-0.07l-0.27 0 0 0.65 0.29 0c0.13,0 0.23,-0.01 0.3,-0.04 0.12,-0.05 0.18,-0.14 0.18,-0.28 0,-0.13 -0.04,-0.22 -0.12,-0.26z"/>
  </g>
 </g>
</svg>
