<?xml version="1.0" encoding="UTF-8"?>
<!DOCTYPE svg PUBLIC "-//W3C//DTD SVG 1.1//EN" "http://www.w3.org/Graphics/SVG/1.1/DTD/svg11.dtd">
<!-- Creator: CorelDRAW -->
<svg xmlns="http://www.w3.org/2000/svg" xml:space="preserve" width="22.3984mm" height="8.4667mm" version="1.1" style="shape-rendering:geometricPrecision; text-rendering:geometricPrecision; image-rendering:optimizeQuality; fill-rule:evenodd; clip-rule:evenodd"
viewBox="0 0 170.91 64.61"
 xmlns:xlink="http://www.w3.org/1999/xlink"
 xmlns:xodm="http://www.corel.com/coreldraw/odm/2003">
 <defs>
  <style type="text/css">
   <![CDATA[
    .fil0 {fill:#2B2A29;fill-rule:nonzero}
   ]]>
  </style>
 </defs>
 <g id="Layer_x0020_1">
  <metadata id="CorelCorpID_0Corel-Layer"/>
  <path class="fil0" d="M170.91 54.15l-2.65 7.71c-0.35,1.02 -0.69,1.72 -1.01,2.09 -0.38,0.44 -0.87,0.66 -1.48,0.66 -0.25,0 -0.56,-0.04 -0.91,-0.13l0 -1.14c0.27,0.07 0.52,0.1 0.73,0.1 0.3,0 0.54,-0.11 0.7,-0.31 0.17,-0.21 0.38,-0.67 0.63,-1.37l-0.45 0 -2.79 -7.6 1.52 0 2.15 6.46 2.15 -6.46 1.4 0zm-12.96 7.6l-1.4 0 0 -7.6 1.16 0 0.16 0.97c0.57,-0.79 1.34,-1.18 2.31,-1.18 0.9,0 1.58,0.28 2.06,0.83 0.42,0.5 0.63,1.17 0.63,2.03l0 4.96 -1.4 0 0 -4.94c0,-1.12 -0.54,-1.68 -1.62,-1.68 -0.57,0 -1.03,0.19 -1.39,0.58 -0.33,0.35 -0.5,0.8 -0.5,1.34l0 4.69 0 0zm-6.97 -0.97c0.6,0 1.11,-0.19 1.55,-0.59 0.39,-0.36 0.59,-0.77 0.59,-1.24l0 -0.98 -1.89 0.34c-0.69,0.12 -1.17,0.3 -1.42,0.54 -0.2,0.2 -0.31,0.46 -0.31,0.79 0,0.37 0.13,0.65 0.38,0.85 0.25,0.2 0.62,0.29 1.1,0.29zm-1.33 -4.52l-1.49 0c0.08,-0.76 0.44,-1.35 1.08,-1.77 0.58,-0.38 1.3,-0.57 2.18,-0.57 1.04,0 1.84,0.27 2.4,0.82 0.47,0.47 0.7,1.07 0.7,1.81l0 5.19 -1.16 0 -0.17 -1.04c-0.6,0.84 -1.44,1.26 -2.54,1.26 -0.87,0 -1.55,-0.24 -2.03,-0.7 -0.4,-0.39 -0.6,-0.88 -0.6,-1.48 0,-0.75 0.26,-1.33 0.77,-1.74 0.46,-0.36 1.16,-0.62 2.11,-0.79l2.22 -0.38 0 -0.38c0,-0.5 -0.17,-0.87 -0.51,-1.12 -0.3,-0.22 -0.72,-0.34 -1.24,-0.34 -1.03,0 -1.6,0.41 -1.71,1.23l0 -0zm-4.19 1.59c0,-0.96 -0.24,-1.67 -0.72,-2.15 -0.38,-0.39 -0.88,-0.58 -1.49,-0.58 -0.71,0 -1.28,0.26 -1.7,0.77 -0.4,0.5 -0.6,1.15 -0.6,1.96 0,0.98 0.24,1.72 0.72,2.24 0.4,0.45 0.93,0.67 1.58,0.67 0.73,0 1.29,-0.27 1.67,-0.8 0.36,-0.5 0.54,-1.2 0.54,-2.11l0 0zm-5.83 -3.71l1.16 0 0.22 0.99c0.62,-0.81 1.48,-1.21 2.57,-1.21 1.09,0 1.94,0.39 2.54,1.17 0.54,0.7 0.81,1.63 0.81,2.79 0,1.38 -0.37,2.43 -1.1,3.16 -0.62,0.61 -1.4,0.92 -2.35,0.92 -1.08,0 -1.9,-0.4 -2.44,-1.2l0 3.61 -1.4 0 0 -10.24zm-11.56 7.6l-1.4 0 0 -7.6 1.16 0 0.15 0.89c0.52,-0.74 1.26,-1.11 2.24,-1.11 1.06,0 1.81,0.4 2.24,1.2 0.51,-0.8 1.33,-1.2 2.47,-1.2 0.85,0 1.5,0.26 1.96,0.77 0.41,0.48 0.61,1.13 0.61,1.96l0 5.09 -1.4 0 0 -4.99c0,-1.09 -0.49,-1.64 -1.48,-1.64 -0.59,0 -1.05,0.23 -1.4,0.69 -0.28,0.37 -0.42,0.81 -0.42,1.3l0 4.64 -1.4 0 0 -4.99c0,-1.09 -0.49,-1.64 -1.48,-1.64 -0.55,0 -1,0.21 -1.36,0.64 -0.31,0.36 -0.47,0.79 -0.47,1.3l0 4.68 0 0zm-9.04 -3.8c0,0.98 0.25,1.72 0.75,2.24 0.41,0.43 0.93,0.64 1.56,0.64 0.74,0 1.31,-0.28 1.71,-0.83 0.37,-0.51 0.56,-1.19 0.56,-2.05 0,-0.99 -0.24,-1.75 -0.73,-2.25 -0.4,-0.42 -0.92,-0.63 -1.55,-0.63 -0.73,0 -1.3,0.28 -1.71,0.83 -0.39,0.51 -0.58,1.19 -0.58,2.05zm-1.46 0c0,-1.39 0.41,-2.45 1.24,-3.16 0.66,-0.57 1.5,-0.86 2.51,-0.86 1.18,0 2.11,0.38 2.78,1.13 0.64,0.7 0.96,1.67 0.96,2.89 0,1.38 -0.4,2.42 -1.21,3.14 -0.66,0.59 -1.51,0.88 -2.54,0.88 -1.18,0 -2.11,-0.39 -2.79,-1.17 -0.63,-0.71 -0.95,-1.66 -0.95,-2.85zm-2.6 1.36l1.54 0c-0.12,0.82 -0.5,1.48 -1.15,1.97 -0.6,0.46 -1.32,0.69 -2.18,0.69 -1.12,0 -2.01,-0.39 -2.68,-1.16 -0.61,-0.71 -0.92,-1.65 -0.92,-2.81 0,-1.34 0.37,-2.39 1.11,-3.13 0.63,-0.63 1.46,-0.95 2.47,-0.95 0.94,0 1.71,0.25 2.31,0.74 0.53,0.44 0.86,1.01 0.98,1.73l-1.55 0c-0.1,-0.41 -0.3,-0.73 -0.59,-0.95 -0.3,-0.22 -0.67,-0.34 -1.12,-0.34 -0.69,0 -1.22,0.27 -1.59,0.82 -0.35,0.51 -0.53,1.21 -0.53,2.12 0,0.94 0.23,1.66 0.7,2.15 0.37,0.39 0.85,0.59 1.43,0.59 0.51,0 0.92,-0.15 1.24,-0.44 0.28,-0.25 0.46,-0.6 0.53,-1.04zm-40.21 -4.23l-0.76 -0.25c-0.45,-0.15 -1.27,-0.38 -1.27,-1.05 0,-0.53 0.6,-0.91 1.71,-0.91 0.95,0 2.12,0.33 2.16,0.34l0 -2.37c-0.08,-0.02 -1.35,-0.35 -2.7,-0.35 -2.55,0 -4.09,1.39 -4.09,3.46 0,1.83 1.29,2.75 2.83,3.24 0.17,0.06 0.42,0.14 0.59,0.2 0.68,0.22 1.23,0.54 1.23,1.1 0,0.63 -0.63,1.04 -2.01,1.04 -1.21,0 -2.37,-0.35 -2.61,-0.41l0 2.55c0.14,0.03 1.52,0.3 2.99,0.3 2.12,0 4.54,-0.93 4.54,-3.72 0,-1.35 -0.82,-2.59 -2.61,-3.17zm22.38 4.06c-1.64,0 -2.87,-1.3 -2.87,-2.92 0,-1.6 1.22,-2.91 2.87,-2.91 1.64,0 2.86,1.31 2.86,2.91 0,1.61 -1.22,2.92 -2.86,2.92zm0 -8.64c-3.37,0 -5.79,2.56 -5.79,5.73 0,3.17 2.42,5.74 5.79,5.74 3.37,0 5.79,-2.57 5.79,-5.74 0,-3.16 -2.42,-5.73 -5.79,-5.73zm-45.97 5.73c0,3.57 2.73,5.74 5.84,5.74 1.24,0 2.18,-0.29 2.53,-0.39l0 -2.97c-0.12,0.06 -1.03,0.59 -2.32,0.59 -1.85,0 -3.04,-1.31 -3.04,-2.96 0,-1.69 1.24,-2.95 3.04,-2.95 1.32,0 2.21,0.54 2.32,0.6l0 -2.97c-0.26,-0.08 -1.22,-0.39 -2.53,-0.39 -3.37,0 -5.84,2.42 -5.84,5.73zm28.89 0c0,3.57 2.73,5.74 5.85,5.74 1.23,0 2.18,-0.29 2.52,-0.39l0 -2.97c-0.12,0.06 -1.03,0.59 -2.33,0.59 -1.85,0 -3.03,-1.31 -3.03,-2.96 0,-1.69 1.24,-2.95 3.03,-2.95 1.32,0 2.21,0.54 2.33,0.6l0 -2.97c-0.26,-0.08 -1.22,-0.39 -2.52,-0.39 -3.37,0 -5.85,2.42 -5.85,5.73zm-16.72 5.54l2.77 0 0 -11.07 -2.77 0 0 11.07zm-22.59 -0.97c0.6,0 1.11,-0.19 1.55,-0.59 0.39,-0.36 0.59,-0.77 0.59,-1.24l0 -0.98 -1.89 0.33c-0.69,0.12 -1.17,0.3 -1.42,0.54 -0.2,0.2 -0.31,0.46 -0.31,0.79 0,0.37 0.13,0.65 0.38,0.85 0.25,0.2 0.62,0.29 1.1,0.29l0 0zm-1.33 -4.52l-1.49 0c0.08,-0.76 0.44,-1.35 1.08,-1.77 0.58,-0.38 1.3,-0.57 2.18,-0.57 1.04,0 1.84,0.27 2.4,0.82 0.47,0.47 0.7,1.07 0.7,1.81l0 5.19 -1.15 0 -0.18 -1.04c-0.6,0.84 -1.44,1.26 -2.54,1.26 -0.87,0 -1.55,-0.23 -2.03,-0.7 -0.4,-0.39 -0.6,-0.88 -0.6,-1.48 0,-0.75 0.26,-1.33 0.78,-1.74 0.46,-0.36 1.16,-0.62 2.11,-0.79l2.22 -0.38 0 -0.38c0,-0.5 -0.17,-0.87 -0.51,-1.13 -0.3,-0.22 -0.72,-0.34 -1.24,-0.34 -1.03,0 -1.6,0.41 -1.71,1.23zm131.5 -29.4l0 -4.22 -20.6 -10.34 0 4.63 15.97 7.77 -15.97 7.87 0 4.53 20.6 -10.24zm-26.49 9.24l-10.36 -12.88 8.76 -9.37 -5.15 -2.22 -9.12 10.56 -0.72 0 0 -22.2 -6.85 0 0 37.81 6.85 0 0 -13.7 10.25 14.22 6.34 -2.22zm-28.13 1.69l0 -14.62c0,-1 -0.01,-1.85 -0.03,-2.55 -0.02,-0.7 -0.06,-1.31 -0.13,-1.83 -0.07,-0.51 -0.15,-0.97 -0.26,-1.36 -0.1,-0.39 -0.22,-0.78 -0.36,-1.16 -0.62,-1.54 -1.63,-2.74 -3.02,-3.58 -1.39,-0.84 -3.11,-1.26 -5.14,-1.26 -1.82,0 -3.42,0.32 -4.8,0.96 -1.38,0.63 -2.72,1.68 -4.03,3.12l-0.01 -3.45 -6.85 0 0 25.74 6.85 0 0 -13.9c0,-1.2 0.04,-2.14 0.13,-2.8 0.09,-0.67 0.25,-1.29 0.49,-1.88 0.45,-1.03 1.13,-1.81 2.04,-2.34 0.91,-0.53 2.01,-0.8 3.29,-0.8 2,0 3.4,0.72 4.19,2.16 0.31,0.55 0.53,1.17 0.64,1.85 0.12,0.69 0.18,1.68 0.18,2.98l0 14.72 6.8 0zm-29.31 0.01l0 -25.8 -6.79 0 0 13.88c0,1.24 -0.05,2.19 -0.16,2.86 -0.1,0.67 -0.28,1.28 -0.52,1.83 -0.96,2.13 -2.72,3.2 -5.28,3.2 -2,0 -3.4,-0.72 -4.19,-2.17 -0.31,-0.55 -0.53,-1.17 -0.65,-1.86 -0.12,-0.69 -0.18,-1.69 -0.18,-2.99l0 -14.76 -6.79 0 0 14.66c0,1 0.01,1.84 0.03,2.53 0.02,0.69 0.06,1.3 0.13,1.83 0.07,0.53 0.15,1.01 0.23,1.42 0.09,0.41 0.21,0.81 0.39,1.19 0.62,1.58 1.62,2.78 3.02,3.59 1.39,0.81 3.11,1.21 5.14,1.21 1.82,0 3.42,-0.32 4.8,-0.95 1.38,-0.64 2.72,-1.68 4.03,-3.12l0.02 3.45 6.79 0zm-35.82 -0.01l6.8 0 0 -37.81 -6.8 0 0 37.81zm-10.15 -13.17c0,-2.82 -0.57,-5.05 -1.71,-6.68 -1.14,-1.63 -2.7,-2.45 -4.67,-2.45 -2.07,0 -3.72,0.87 -4.93,2.61 -1.21,1.74 -1.82,4.08 -1.82,7.04 0,2.89 0.6,5.16 1.79,6.81 1.19,1.65 2.83,2.48 4.9,2.48 1.24,0 2.27,-0.32 3.09,-0.95 0.81,-0.64 1.47,-1.44 1.97,-2.42 0.5,-0.98 0.85,-2.05 1.06,-3.2 0.21,-1.15 0.31,-2.23 0.31,-3.22zm7.2 -0.26c0,2.03 -0.31,3.89 -0.93,5.59 -0.62,1.7 -1.48,3.19 -2.58,4.46 -1.1,1.27 -2.41,2.26 -3.93,2.97 -1.52,0.7 -3.15,1.05 -4.91,1.05 -0.79,0 -1.53,-0.07 -2.22,-0.2 -0.69,-0.14 -1.34,-0.37 -1.96,-0.7 -0.62,-0.33 -1.23,-0.75 -1.83,-1.27 -0.6,-0.52 -1.23,-1.15 -1.89,-1.91l0 16.33 -6.62 0 0 -38.64 6.62 0 0.04 3.76c1.21,-1.51 2.51,-2.62 3.92,-3.32 1.41,-0.7 3.05,-1.06 4.9,-1.06 1.69,0 3.22,0.32 4.62,0.95 1.39,0.63 2.6,1.52 3.61,2.65 1.01,1.13 1.8,2.49 2.35,4.07 0.55,1.58 0.83,3.33 0.83,5.25zm-29.98 6.33c0,1.14 -0.24,2.18 -0.72,3.15 -0.48,0.96 -1.15,1.78 -2.01,2.45 -0.86,0.67 -1.88,1.19 -3.06,1.57 -1.19,0.38 -2.48,0.57 -3.89,0.57 -1.68,0 -3.19,-0.23 -4.53,-0.69 -1.34,-0.46 -2.68,-1.22 -4.02,-2.29l2.22 -3.6c1.06,0.89 2.03,1.54 2.88,1.96 0.86,0.41 1.73,0.62 2.63,0.62 1.1,0 1.98,-0.28 2.65,-0.85 0.67,-0.57 1,-1.33 1,-2.29 0,-0.41 -0.06,-0.8 -0.18,-1.16 -0.12,-0.36 -0.34,-0.73 -0.67,-1.11 -0.33,-0.38 -0.77,-0.79 -1.34,-1.24 -0.57,-0.45 -1.3,-1 -2.19,-1.65 -0.69,-0.48 -1.35,-0.98 -2.01,-1.5 -0.65,-0.52 -1.24,-1.07 -1.78,-1.65 -0.53,-0.58 -0.96,-1.24 -1.29,-1.96 -0.33,-0.72 -0.49,-1.55 -0.49,-2.48 0,-1.07 0.22,-2.04 0.67,-2.91 0.44,-0.88 1.05,-1.62 1.82,-2.24 0.77,-0.62 1.69,-1.1 2.77,-1.44 1.08,-0.34 2.25,-0.52 3.52,-0.52 1.34,0 2.63,0.18 3.89,0.54 1.25,0.36 2.41,0.88 3.48,1.56l-2.01 3.23c-1.37,-0.96 -2.82,-1.44 -4.33,-1.44 -0.93,0 -1.69,0.24 -2.29,0.72 -0.6,0.48 -0.9,1.08 -0.9,1.81 0,0.69 0.26,1.31 0.8,1.86 0.53,0.55 1.44,1.32 2.75,2.32 1.31,0.96 2.4,1.81 3.26,2.53 0.86,0.72 1.54,1.4 2.04,2.04 0.5,0.64 0.85,1.28 1.03,1.94 0.19,0.65 0.29,1.38 0.29,2.17z"/>
 </g>
</svg>
