<?xml version="1.0" encoding="UTF-8"?>
<!DOCTYPE svg PUBLIC "-//W3C//DTD SVG 1.1//EN" "http://www.w3.org/Graphics/SVG/1.1/DTD/svg11.dtd">
<!-- Creator: CorelDRAW -->
<svg xmlns="http://www.w3.org/2000/svg" xml:space="preserve" width="46.1746mm" height="8.4667mm" version="1.1" style="shape-rendering:geometricPrecision; text-rendering:geometricPrecision; image-rendering:optimizeQuality; fill-rule:evenodd; clip-rule:evenodd"
viewBox="0 0 896.97 164.47"
 xmlns:xlink="http://www.w3.org/1999/xlink"
 xmlns:xodm="http://www.corel.com/coreldraw/odm/2003">
 <defs>
  <style type="text/css">
   <![CDATA[
    .fil0 {fill:#0B5ED7;fill-rule:nonzero}
   ]]>
  </style>
 </defs>
 <g id="Layer_x0020_1">
  <metadata id="CorelCorpID_0Corel-Layer"/>
  <g>
   <path class="fil0" d="M304.29 3.3l-48.19 0 0 62.75 -50.16 0 0 -62.75 -48.19 0 0 157.88 48.19 0 0 -62.1 50.16 0 0 62.1 48.19 0 0 -157.88zm167.63 126.15l0 -126.15 -48.19 0 0 157.88 87.14 0 7.25 -31.72 -46.19 0zm-83.82 -126.15l-48.19 0 0 157.88 48.19 0 0 -157.88zm195.36 0l-48.17 0 0 157.88 48.17 0 0 -157.88zm237.59 40.29c0,-8.59 8.59,-12.56 22.43,-12.56 15.19,0 31.7,3.32 42.92,7.96l-3.95 -34.37c-12.56,-2.65 -23.78,-4.62 -44.22,-4.62 -38.95,0 -65.35,15.37 -65.35,47.56 0,55.48 75.27,44.26 75.27,70.02 0,9.89 -7.29,15.17 -25.1,15.17 -15.82,0 -40.27,-5.27 -54.79,-12.54l5.29 36.35c14.51,5.29 34.3,7.92 50.16,7.92 40.25,0 73.25,-13.22 73.25,-52.86 0,-52.81 -75.92,-42.92 -75.92,-68.02l0 0zm-135.93 79.93c44.85,0 73.25,-23.13 73.25,-63.42 0,-44.24 -30.35,-60.1 -79.87,-60.1 -19.14,0 -42.24,1.32 -58.74,3.3l0 157.88 48.19 0 0 -37.65 17.16 0zm25.73 -62.75c0,20.46 -9.9,34.35 -35,34.35l-7.9 0 0 -65.24c2.8,-0.16 5.43,-0.16 7.9,-0.16 23.76,0 35,11.22 35,31.05l0 0zm-645.5 62.75c44.87,0 73.25,-23.13 73.25,-63.42 0,-44.24 -30.35,-60.1 -79.85,-60.1 -19.16,0 -42.24,1.32 -58.76,3.3l0 157.88 48.19 0 0 -37.65 17.16 0zm25.75 -62.75c0,20.46 -9.92,34.35 -35,34.35l-7.92 0 0 -65.24c2.8,-0.16 5.45,-0.16 7.92,-0.16 23.76,0 35,11.22 35,31.05z"/>
  </g>
 </g>
</svg>
