<?xml version="1.0" encoding="UTF-8"?>
<!DOCTYPE svg PUBLIC "-//W3C//DTD SVG 1.1//EN" "http://www.w3.org/Graphics/SVG/1.1/DTD/svg11.dtd">
<!-- Creator: CorelDRAW -->
<svg xmlns="http://www.w3.org/2000/svg" xml:space="preserve" width="22.5789mm" height="8.4666mm" version="1.1" style="shape-rendering:geometricPrecision; text-rendering:geometricPrecision; image-rendering:optimizeQuality; fill-rule:evenodd; clip-rule:evenodd"
viewBox="0 0 371 139.12"
 xmlns:xlink="http://www.w3.org/1999/xlink"
 xmlns:xodm="http://www.corel.com/coreldraw/odm/2003">
 <defs>
  <style type="text/css">
   <![CDATA[
    .fil0 {fill:#EF4044}
    .fil1 {fill:white}
   ]]>
  </style>
 </defs>
 <g id="Layer_x0020_1">
  <metadata id="CorelCorpID_0Corel-Layer"/>
  <g id="hindware.svg">
   <g>
    <polygon class="fil0" points="-0,0 371,0 371,139.12 -0,139.12 "/>
    <path class="fil1" d="M44.22 39.76l7.93 0 0 25.29c6.46,-12.58 27.38,-9.18 27.38,7.58l0 26.17 -7.76 0 0 -25.33c-1.14,-14.98 -19.85,-11.58 -19.85,1.32l0 24.28 -7.63 0 -0.07 -59.29 0 0z"/>
    <polygon class="fil1" points="84.92,58.43 92.63,58.43 92.63,98.52 84.92,98.52 "/>
    <path class="fil1" d="M106.01 58.16l0 6.89c6.47,-12.58 27.38,-9.18 27.38,7.58l0 26.17 -7.76 0 0 -25.33c-1.16,-14.98 -19.86,-11.58 -19.86,1.32l0 24.28 -7.63 0 -0.05 -40.89 7.92 -0 0 -0z"/>
    <path class="fil1" d="M154.12 57.58c5.34,0 10.05,2.76 13.26,6.96l0 -25.03 7.7 0 0 59.02 -7.7 0 0 -5.86c-3.27,4.27 -8,6.96 -13.26,6.96 -9.87,0 -17.85,-9.41 -17.85,-21.03 0,-11.6 7.99,-21.01 17.85,-21.01l0 0zm2 5.6c5.26,0 9.74,4.22 11.39,10.11l0 9.97c-1.65,5.88 -6.13,10.1 -11.39,10.1 -6.65,0 -12.06,-6.76 -12.06,-15.09 0,-8.34 5.41,-15.09 12.06,-15.09l0 0z"/>
    <path class="fil1" d="M176.36 58.36l12.23 40.29 7.47 0 10.13 -32.25 10.22 32.34 6.76 0 13.02 -40.13 -7.64 0 -8.93 32.89 -9.81 -33.3 -6.6 0 -10.69 33.22 -7.97 -33.05c0.01,-0 -8.27,-0.09 -8.2,-0l0 0z"/>
    <path class="fil1" d="M279.83 58.16l0 6.89c2.64,-5.13 7.37,-8.46 12.73,-7.6l-0.88 6.78c-4.6,-0.45 -10.9,3.03 -12.07,10.54l0 24.28 -7.63 0 -0.05 -40.89 7.9 -0 0 -0z"/>
    <path class="fil1" d="M238.88 66.32l2.66 -7.6c13.59,-2.47 24.02,-0.93 24.81,12.86l0 27.11 -7.61 0 0 -18.73 -8.37 0c-14.79,0.93 -7.69,19.82 5.93,10.65l-2.51 7.01c-20.71,6.67 -27.76,-19.97 -7.37,-22.48 3.47,-0.43 9.03,-0.3 12.7,-0.3 1.61,-11.85 -9.05,-14.69 -20.25,-8.52l0 0z"/>
    <path class="fil1" d="M283.71 79.79l6.54 0c1.01,16.15 12.1,22.14 34.37,16.85l-1.81 -5.79c-16.81,4.08 -25.15,0.39 -25.11,-10.98l29.02 0c1.73,-30.55 -33.05,-28.28 -35.78,-5.34l-5.49 0c0.01,-0 -1.65,5.42 -1.73,5.26l0 0zm14.06 -5.34l21.5 0c-0.04,-16.37 -19.37,-15.2 -21.5,0l0 0z"/>
   </g>
  </g>
 </g>
</svg>
