<?xml version="1.0" encoding="UTF-8"?>
<!DOCTYPE svg PUBLIC "-//W3C//DTD SVG 1.1//EN" "http://www.w3.org/Graphics/SVG/1.1/DTD/svg11.dtd">
<!-- Creator: CorelDRAW -->
<svg xmlns="http://www.w3.org/2000/svg" xml:space="preserve" width="39.9697mm" height="8.4667mm" version="1.1" style="shape-rendering:geometricPrecision; text-rendering:geometricPrecision; image-rendering:optimizeQuality; fill-rule:evenodd; clip-rule:evenodd"
viewBox="0 0 1957.05 414.56"
 xmlns:xlink="http://www.w3.org/1999/xlink"
 xmlns:xodm="http://www.corel.com/coreldraw/odm/2003">
 <defs>
  <style type="text/css">
   <![CDATA[
    .fil0 {fill:black;fill-rule:nonzero}
    .fil2 {fill:#ED1B2F;fill-rule:nonzero}
    .fil1 {fill:white;fill-rule:nonzero}
   ]]>
  </style>
 </defs>
 <g id="Layer_x0020_1">
  <metadata id="CorelCorpID_0Corel-Layer"/>
  <g id="_2460215227008">
   <rect class="fil0" x="-0" y="253.69" width="1957.05" height="160.86"/>
   <g>
    <path class="fil1" d="M269.94 383.02l13.37 0 0 -36.09 33.92 0c18.92,0 29.28,-11.2 29.28,-28.15 0,-16.76 -10.36,-25.86 -30.16,-25.86l-46.42 0 0 90.1zm13.37 -47.7l0 -30.79 34.55 0c10.23,0 15.29,5.9 15.29,14.5 0,9.07 -4.43,16.29 -17.67,16.29l-32.16 0z"/>
    <g>
     <path class="fil1" d="M363.15 337.99c0,23.1 13.87,47.32 50.08,47.32 36.22,0 50.09,-24.23 50.09,-47.32 0,-23.1 -13.87,-47.33 -50.09,-47.33 -36.21,0 -50.08,24.23 -50.08,47.33l0 0zm86.8 0c0,23.85 -16.13,35.71 -36.72,35.71 -20.55,0 -36.72,-11.86 -36.72,-35.71 0,-23.85 16.16,-35.71 36.72,-35.71 20.59,0 36.72,11.86 36.72,35.71z"/>
    </g>
   </g>
   <polygon class="fil1" points="544.32,308.33 544.07,308.33 519.21,383.02 504.43,383.02 474.81,292.92 489.3,292.92 512.41,366.1 512.66,366.1 536.75,292.92 552.63,292.92 577.39,366.1 577.65,366.1 600.59,292.92 614.46,292.92 583.92,383.02 569.33,383.02 "/>
   <polygon class="fil1" points="630.87,292.95 703.27,292.95 703.27,304.53 644.24,304.53 644.24,330.67 701.51,330.67 701.51,342.25 644.24,342.25 644.24,371.41 704.56,371.41 704.56,383.02 630.87,383.02 "/>
   <g>
    <path class="fil1" d="M727.75 383.02l13.37 0 0 -38.22 34.93 -0c11.11,0 16.54,4.9 17.42,21.06 0.66,10.86 0.66,14.65 2.8,17.17l14.12 0c-3.05,-3.52 -3.52,-7.69 -4.3,-24.48 -0.5,-10.58 -5.18,-18.05 -13.12,-19.14l0 -0.25c9.82,-3.17 15.15,-11.23 15.15,-22.19 0,-11.49 -6.56,-23.98 -24.6,-23.98l-55.76 0 0 90.03zm13.37 -49.83l0 -28.65 37.72 0c10.7,0 15.88,5.81 15.88,14.38 0,6.31 -3.14,14.24 -16.26,14.24l-37.34 0 0 0.03z"/>
    <path class="fil1" d="M880.8 383.02l13.37 0 0 -36.09 33.96 0c18.92,0 29.25,-11.2 29.25,-28.15 0,-16.76 -10.33,-25.86 -30.13,-25.86l-46.45 0 0 90.1zm13.37 -47.7l0 -30.79 34.55 0c10.23,0 15.28,5.9 15.28,14.5 0,9.07 -4.43,16.29 -17.67,16.29l-32.16 0z"/>
    <path class="fil1" d="M979.43 383.02l13.37 0 0 -38.22 34.96 -0c11.08,0 16.51,4.9 17.42,21.06 0.63,10.86 0.63,14.65 2.76,17.17l14.13 0c-3.02,-3.52 -3.52,-7.69 -4.3,-24.48 -0.5,-10.58 -5.18,-18.05 -13.12,-19.14l0 -0.25c9.86,-3.17 15.16,-11.23 15.16,-22.19 0,-11.49 -6.56,-23.98 -24.6,-23.98l-55.76 0 0 90.03zm13.37 -49.83l0 -28.65 37.72 0c10.7,0 15.91,5.81 15.91,14.38 0,6.31 -3.17,14.24 -16.29,14.24l-37.34 0 0 0.03z"/>
    <g>
     <path class="fil1" d="M1077.34 337.99c0,23.1 13.87,47.32 50.08,47.32 36.22,0 50.09,-24.23 50.09,-47.32 0,-23.1 -13.87,-47.33 -50.09,-47.33 -36.21,0 -50.08,24.23 -50.08,47.33l0 0zm86.8 0c0,23.85 -16.13,35.71 -36.72,35.71 -20.55,0 -36.72,-11.86 -36.72,-35.71 0,-23.85 16.16,-35.71 36.72,-35.71 20.59,0 36.72,11.86 36.72,35.71z"/>
    </g>
    <path class="fil1" d="M1199.61 383.02l46.44 0c27.62,0 38.6,-21.18 38.6,-46.29 0,-26.14 -12.37,-43.78 -39.36,-43.78l-45.66 0 0 90.07 -0.03 0zm13.37 -11.61l0 -66.84 29.87 0c23.22,0 28.4,16.51 28.4,32.41 0,16.01 -3.92,34.43 -25.86,34.43l-32.42 0z"/>
    <path class="fil1" d="M1307.34 292.95l13.37 0 0 57.65c0,16.29 10.86,23.1 27.37,23.1 16.51,0 27.37,-6.81 27.37,-23.1l0 -57.65 13.37 0 0 56.02c0,24.1 -13.37,36.34 -40.73,36.34 -27.37,0 -40.73,-12.24 -40.73,-36.34l0 -56.02z"/>
    <path class="fil1" d="M1489.64 325.34c-2.01,-12.49 -11.86,-23.1 -30.78,-23.1 -21.31,0 -34.84,12.24 -34.84,36.84 0,17.01 9.23,34.58 34.08,34.58 15.79,0 27.74,-7.59 31.54,-25.11l13.37 0c-2.13,19.93 -19.3,36.72 -45.04,36.72 -22.72,0 -47.32,-12.49 -47.32,-47.57 0,-26.23 16.41,-47.04 47.2,-47.04 18.04,0 42.9,7.69 45.16,34.68l-13.37 0z"/>
   </g>
   <polygon class="fil1" points="1550.43,304.53 1516.38,304.53 1516.38,292.95 1597.88,292.95 1597.88,304.53 1563.8,304.53 1563.8,383.02 1550.43,383.02 "/>
   <g>
    <path class="fil1" d="M1620.97 353.36c0.25,16.13 15.41,20.33 29,20.33 14.24,0 24.35,-5.43 24.35,-15.28 0,-8.19 -6.4,-11.61 -16.76,-13.37l-20.46 -3.39c-10.7,-1.79 -26.74,-6.06 -26.74,-23.6 0,-16.41 12.99,-27.37 36.09,-27.37 18.04,0 37.09,6.56 38.38,28.25l-13.37 0c-1.13,-7.06 -5.18,-16.63 -26.74,-16.63 -9.86,0 -20.97,4.18 -20.97,14.78 0,5.55 3.64,9.98 14.78,11.86l22.06 3.79c7.09,1.25 27.12,4.68 27.12,23.1 0,22.94 -20.55,29.5 -38.73,29.5 -20.33,0 -41.39,-7.06 -41.39,-31.91l13.37 0 0 -0.06z"/>
    <path class="fil2" d="M1679.28 119.31l86.02 0 -43.44 -66.18 -42.58 66.18zm-142.1 103.66l0 -28.78 30 -3.32c10.41,-1.26 14.78,-10.45 16.1,-12.59l74.75 -118c6.05,-9.25 0.12,-17.42 -7.69,-18.29l-39.29 -4.43 0 -29.09 170.34 0c9.57,0 15.62,6.31 19.58,11.8l99.51 147.53c7.78,11.83 13.84,21.09 23.88,22.31l31.29 3.39 0 29.5 -191.65 0 0 -29.09 24.32 -2.92c11.74,-1.29 21.31,-6.31 11.74,-20.24l-9.1 -13.46 -136.01 0 -10.41 16.44c-6.5,10.11 0,15.97 9.98,17.29l24.35 2.92 0 29.09 -141.69 0 0 -0.06z"/>
    <g>
     <path class="fil2" d="M1376.41 181.67l-56.48 0 0 -132.34 56.48 0c53.85,0 76.51,12.24 76.51,66.19 0,54.35 -22.66,66.15 -76.51,66.15l0 0zm33.9 -173.23l-219.14 0 -0.03 29.09 27.43 2.73c10.29,1.48 14.43,8.63 14.43,18.36l0 115.46c0,8.03 -3.48,15.57 -12.61,16.88l-29.37 3.7 0 28.25 219.3 0.06c100.8,0 144.23,-47.61 144.23,-110.44 0,-56.45 -43.44,-104.1 -144.23,-104.1z"/>
    </g>
    <path class="fil2" d="M1.35 222.97l177.31 0 0 -28.68 -30.41 -3.36c-6.97,-0.85 -13.93,-5.08 -13.93,-19.39l0 -34.58 136.48 0 0 32.89c0,9.73 -1.76,18.99 -13.46,20.21l-30.88 3.39 0 29.5 177.31 0 0 -29.5 -31.29 -3.39c-6.09,-0.85 -13.06,-5.46 -13.06,-17.7l0 -111.72c0,-11.36 4.33,-18.96 13.43,-19.81l30.88 -3.35 0 -29.09 -177.31 0 0 28.69 30.88 3.77c10.39,1.25 13.46,9.25 13.46,19.8l0 33.33 -136.42 0 0 -33.74c0,-12.65 5.24,-18.55 14.37,-19.39l29.97 -3.36 0 -29.09 -176.87 0 0 29.09 29.56 3.36c11.74,1.25 14.78,9.69 14.34,20.65l0 108.74c0,12.24 -3.49,19.36 -14.78,20.65l-29.59 3.36 0 28.74z"/>
    <g>
     <path class="fil2" d="M593.24 41.33c-50.4,0 -79.05,18.14 -79.05,73.75 0,56.49 28.65,74.6 79.05,74.6 50.4,0 79.11,-18.11 79.11,-74.6 0,-55.61 -28.68,-73.75 -79.11,-73.75l0 0zm-180.76 73.34c0,-67.44 56.05,-114.67 181.2,-114.67 124.27,0 180.35,47.23 180.35,114.67 0,69.1 -56.08,115.86 -180.35,115.86 -125.15,0.03 -181.2,-46.73 -181.2,-115.86z"/>
    </g>
    <path class="fil2" d="M783.92 222.97l141.66 0 0 -28.68 -30.41 -3.36c-8.73,-0.85 -13.9,-7.91 -13.9,-17.7l0 -109.14 117.74 150.44c3.93,5.08 11.27,8.41 18.23,8.41l111.25 0 0 -162.69c0,-7.62 2.07,-18.08 13.46,-19.39l30.85 -3.36 0 -29.09 -141.66 0 0 28.68 30.85 3.77c10.89,1.29 13.43,10.14 13.43,20.21l0 106.23 -116.89 -149.63c-4.33,-5.49 -9.98,-9.29 -18.23,-9.29l-156.41 0 0 29.09 29.53 3.36c10.42,1.54 14.38,6.62 14.38,20.65l0 108.74c0,12.9 -3.64,19.08 -14.78,20.65l-29.09 3.36 0 28.74z"/>
   </g>
  </g>
 </g>
</svg>
