<?xml version="1.0" encoding="UTF-8"?>
<!DOCTYPE svg PUBLIC "-//W3C//DTD SVG 1.1//EN" "http://www.w3.org/Graphics/SVG/1.1/DTD/svg11.dtd">
<!-- Creator: CorelDRAW -->
<svg xmlns="http://www.w3.org/2000/svg" xml:space="preserve" width="29.7185mm" height="8.6667mm" version="1.1" style="shape-rendering:geometricPrecision; text-rendering:geometricPrecision; image-rendering:optimizeQuality; fill-rule:evenodd; clip-rule:evenodd"
viewBox="0 0 1243.29 362.58"
 xmlns:xlink="http://www.w3.org/1999/xlink"
 xmlns:xodm="http://www.corel.com/coreldraw/odm/2003">
 <defs>
  <style type="text/css">
   <![CDATA[
    .str0 {stroke:#2B2A29;stroke-width:8.37;stroke-miterlimit:22.9256}
    .fil2 {fill:#FEFEFE}
    .fil0 {fill:#2B2A29}
    .fil3 {fill:#649F40}
    .fil1 {fill:#FEFEFE;fill-rule:nonzero}
   ]]>
  </style>
 </defs>
 <g id="Layer_x0020_1">
  <metadata id="CorelCorpID_0Corel-Layer"/>
  <g id="_2460557857360">
   <rect class="fil0 str0" x="4.18" y="4.18" width="1234.92" height="354.21"/>
   <g>
    <path class="fil1" d="M634.29 145.16l-28.06 0 -58.38 -50.34c-2.08,-2.08 -3.12,-4.23 -3.12,-6.43l0 -2.43c0,-2.32 0.98,-4.46 2.95,-6.43l56.47 -47.21 27.37 0 -64.1 54.68 66.87 58.15zm-97.53 0l-20.96 0 0 -112.83 20.96 0 0 112.83z"/>
    <polygon class="fil1" points="675.53,145.16 654.57,145.16 654.57,32.33 675.53,32.33 "/>
    <path class="fil1" d="M807.6 145.16l-4.33 0c-1.96,0 -3.75,-0.35 -5.37,-1.04 -1.62,-0.69 -3.81,-2.54 -6.58,-5.55l-74.15 -78.12 0 84.71 -20.27 0 0 -103.97c0,-2.78 0.84,-4.95 2.51,-6.51 1.68,-1.56 4.07,-2.34 7.19,-2.34l5.02 0c2.31,0 4.42,0.32 6.32,0.95 1.91,0.64 4.02,2.23 6.33,4.77l70.68 74.47 0 -80.19 20.27 0 0 104.84c0,5.32 -2.54,7.98 -7.62,7.98z"/>
    <path class="fil2" d="M937.07 96.55l-71.38 0 0 -17.01 71.38 0 0 17.01zm1.38 48.6l-104.99 0 0 -49.64 20.96 0 0 29.5 84.03 0 0 20.14zm-104.99 -65.95l0 -46.88 104.81 0 0 20.14 -83.86 0 0 26.75 -20.96 0z"/>
    <polygon class="fil1" points="1013.26,145.16 992.29,145.16 992.29,52.47 947.77,52.47 947.77,32.33 1057.61,32.33 1057.61,52.47 1013.26,52.47 "/>
    <polygon class="fil1" points="1094.05,145.16 1073.09,145.16 1073.09,32.33 1094.05,32.33 "/>
    <path class="fil1" d="M1223 145.16l-53.53 0c-8.09,0 -15.68,-1.36 -22.78,-4.08 -7.1,-2.72 -13.25,-6.56 -18.45,-11.54 -5.2,-4.98 -9.24,-10.99 -12.13,-18.05 -2.89,-7.06 -4.33,-14.64 -4.33,-22.74 0,-8.1 1.44,-15.68 4.33,-22.74 2.89,-7.06 6.93,-13.08 12.13,-18.05 5.2,-4.98 11.35,-8.82 18.45,-11.54 7.1,-2.72 14.7,-4.08 22.78,-4.08l53.53 0 0 20.14 -54.74 0c-4.97,0 -9.65,0.87 -14.04,2.6 -4.38,1.74 -8.17,4.23 -11.35,7.46 -3.18,3.24 -5.66,7.12 -7.45,11.63 -1.79,4.51 -2.69,9.38 -2.69,14.58 0,6.59 1.5,12.78 4.5,18.57 3,5.79 7.36,10.18 13.08,13.19 5.71,3.01 11.69,4.51 17.93,4.51l54.74 0 0 20.14z"/>
    <path class="fil1" d="M637.74 332.36l-62.39 0c-8.61,0 -16.7,-1.39 -24.27,-4.17 -7.57,-2.78 -14.12,-6.72 -19.66,-11.81 -5.53,-5.1 -9.84,-11.25 -12.92,-18.47 -3.07,-7.22 -4.61,-14.98 -4.61,-23.26 0,-8.29 1.54,-16.04 4.61,-23.27 3.08,-7.22 7.38,-13.38 12.92,-18.47 5.54,-5.09 12.09,-9.03 19.66,-11.81 7.56,-2.79 15.65,-4.18 24.27,-4.18l62.39 0 0 20.6 -63.68 0c-5.29,0 -10.27,0.89 -14.95,2.66 -4.68,1.77 -8.71,4.32 -12.09,7.63 -3.38,3.31 -6.03,7.28 -7.94,11.9 -1.9,4.61 -2.86,9.59 -2.86,14.92 0,6.75 1.6,13.08 4.8,19 3.2,5.92 7.84,10.42 13.94,13.5 6.09,3.08 12.46,4.62 19.1,4.62l42.45 0 0 -29.13 -46.14 0 0 -17.41 67.37 0 0 67.14z"/>
    <path class="fil1" d="M789.14 332.36l-29.07 0 -26.49 -32.5 -42.32 0 0 -18.83 48.21 0c6.5,0 11.77,-2.01 15.82,-6.04 4.05,-4.03 6.07,-9.3 6.07,-15.81 0,-2.96 -0.68,-6.16 -2.02,-9.59 -1.35,-3.43 -3.83,-6.31 -7.45,-8.62 -3.62,-2.31 -7.76,-3.46 -12.42,-3.46l-59.43 0 0 94.84 -22.08 0 0 -115.44 81.51 0c6.25,0 12.11,1.01 17.57,3.02 5.46,2.02 10.15,4.86 14.07,8.53 3.92,3.67 6.99,8.08 9.2,13.23 2.2,5.15 3.31,10.69 3.31,16.61 0,8.76 -2.3,16.52 -6.9,23.26 -4.6,6.75 -10.76,11.72 -18.49,14.92l30.91 35.87z"/>
    <path class="fil1" d="M906.19 282.63l-70.45 0 0 -17.41 70.45 0 0 17.41zm1.37 49.73l-103.63 0 0 -115.44 103.46 0 0 20.6 -82.77 0 0 74.24 82.93 0 0 20.6z"/>
    <path class="fil1" d="M1155.09 332.36l-4.41 0c-2,0 -3.82,-0.36 -5.47,-1.06 -1.65,-0.71 -3.88,-2.61 -6.71,-5.69l-75.54 -79.93 0 86.67 -20.65 0 0 -106.39c0,-2.84 0.85,-5.06 2.56,-6.66 1.71,-1.6 4.15,-2.4 7.33,-2.4l5.12 0c2.36,0 4.5,0.33 6.44,0.98 1.94,0.65 4.09,2.28 6.44,4.88l72.01 76.19 0 -82.06 20.65 0 0 107.27c0,5.45 -2.59,8.17 -7.76,8.17z"/>
    <polygon class="fil3" points="924.53,217.39 1026.32,217.39 1026.32,235.81 924.53,235.81 "/>
    <polygon class="fil3" points="924.53,264.21 945.57,264.21 945.57,282.62 924.53,282.62 "/>
    <polygon class="fil3" points="924.53,312.95 1025.83,312.95 1025.83,331.36 924.53,331.36 "/>
    <polygon class="fil3" points="959.58,264.21 1023.09,264.21 1023.09,282.62 959.58,282.62 "/>
    <path class="fil3" d="M327.25 29.99l129.86 0 -61.36 144.88c-3.64,8.6 -13.66,15.63 -22.26,15.63l-128.39 0 61.98 -146.35c3.3,-7.79 12.37,-14.17 20.16,-14.17z"/>
    <path class="fil2" d="M239.18 204.68l146.87 0 -43.51 106.77c-4.74,11.62 -18.11,21.13 -29.74,21.13l-125.74 0 52.12 -127.9z"/>
    <path class="fil2" d="M154.68 31.9l143.45 -0.83c-17.34,4.47 -81.33,181.49 -123.44,283.75 -3.71,9 -13.97,16.45 -23.02,16.45l-131.39 0 113.54 -284.46c3.28,-8.2 12.66,-14.86 20.86,-14.91z"/>
   </g>
  </g>
 </g>
</svg>
