<?xml version="1.0" encoding="UTF-8"?>
<!DOCTYPE svg PUBLIC "-//W3C//DTD SVG 1.1//EN" "http://www.w3.org/Graphics/SVG/1.1/DTD/svg11.dtd">
<!-- Creator: CorelDRAW -->
<svg xmlns="http://www.w3.org/2000/svg" xml:space="preserve" width="39.092mm" height="8.4667mm" version="1.1" style="shape-rendering:geometricPrecision; text-rendering:geometricPrecision; image-rendering:optimizeQuality; fill-rule:evenodd; clip-rule:evenodd"
viewBox="0 0 1101.84 238.64"
 xmlns:xlink="http://www.w3.org/1999/xlink"
 xmlns:xodm="http://www.corel.com/coreldraw/odm/2003">
 <defs>
  <style type="text/css">
   <![CDATA[
    .fil0 {fill:black;fill-rule:nonzero}
   ]]>
  </style>
 </defs>
 <g id="Layer_x0020_1">
  <metadata id="CorelCorpID_0Corel-Layer"/>
  <g id="_2458988945904">
   <path id="path41" class="fil0" d="M1079.58 194.12c6.15,0 11.71,2.49 15.74,6.52 4.03,4.02 6.52,9.59 6.52,15.74 0,6.15 -2.49,11.71 -6.52,15.74 -4.03,4.03 -9.59,6.52 -15.74,6.52 -6.15,0 -11.71,-2.49 -15.74,-6.52 -4.03,-4.02 -6.53,-9.59 -6.53,-15.74 0,-6.15 2.49,-11.71 6.53,-15.74 4.02,-4.03 9.59,-6.52 15.74,-6.52zm12.66 9.61c-3.24,-3.24 -7.71,-5.24 -12.66,-5.24 -4.94,0 -9.42,2 -12.66,5.24 -3.24,3.24 -5.24,7.71 -5.24,12.65 0,4.94 2,9.41 5.24,12.65 3.24,3.24 7.71,5.24 12.66,5.24 4.94,0 9.41,-2 12.66,-5.24 3.24,-3.24 5.24,-7.71 5.24,-12.65 0,-4.94 -2,-9.42 -5.24,-12.65z" inkscape:connector-curvature="0"/>
   <g>
    <polygon id="path4" class="fil0" points="397.64,6.6 458.15,6.6 458.15,83.17 517.84,83.17 517.84,6.6 578.35,6.6 578.35,226.01 517.84,226.01 517.84,143.68 458.15,143.68 458.15,226.01 397.64,226.01 " inkscape:connector-curvature="0"/>
    <path id="path6" class="fil0" d="M593.99 6.6l60.51 0 0 162.8 66.68 0 0 56.6c-42.4,0 -84.8,0 -127.19,0l0 -219.4z" inkscape:connector-curvature="0"/>
    <path id="path8" class="fil0" d="M733.54 6.6c40.75,0 81.5,0 122.26,0l0 50.42 -61.75 0 0 33.76 61.75 0 0 50.43 -61.75 0 0 34.37 61.75 0 0 50.43c-40.75,0 -81.5,0 -122.26,0l0 -219.4z" inkscape:connector-curvature="0"/>
    <g inkscape:connector-curvature="0">
     <path id="path10" class="fil0" d="M869.38 6.6l60.51 0c11.18,0.25 22.32,1.04 33.34,3.09 34.58,7.37 62.57,44.65 53.51,80.3 -4.12,20.89 -19.35,36.87 -36.22,49.16 21.03,28.73 41.59,57.8 62.16,86.85l-65.04 0c-16.44,-21.16 -32.11,-43.09 -47.75,-64.67l0 64.67 -60.51 0 0 -219.4zm60.51 50.72l0 42.81c9.94,-0.45 21.41,1.71 28.82,-6.05 9.06,-6.96 9.06,-22.53 0.41,-29.91 -7.82,-7.39 -18.96,-6.29 -29.23,-6.86l0 0zm0 0l0 0 0 0z"/>
    </g>
    <path id="path12" class="fil0" d="M389 114.25c0,-63.09 -50.72,-114.25 -113.26,-114.25 -62.54,0 -113.26,51.16 -113.26,114.25 0,63.09 50.72,114.25 113.26,114.25 62.54,0 113.26,-51.15 113.26,-114.25zm-113.26 -56.16c28,0 50.7,25.15 50.7,56.16 0,31.02 -22.7,56.16 -50.7,56.16 -28,0 -50.7,-25.15 -50.7,-56.16 0,-31.01 22.7,-56.16 50.7,-56.16z" inkscape:connector-curvature="0"/>
    <g inkscape:connector-curvature="0">
     <path id="path14" class="fil0" d="M194.7 6.69c-28.53,34.94 -57.61,69.45 -86.03,104.47l98.79 114.85 -79.86 0 -67.1 -78.6 0 78.6 -60.51 0 0 -219.4 60.51 0 0 64.76 57.35 -64.67 76.85 0 0 0zm0 0l0 0 0 0z"/>
    </g>
    <path id="path43" class="fil0" d="M1088.91 227.67l-4.3 0 -3.51 -9.28 -5.72 0 0 9.28 -4.07 0 0 -22.58 9.79 0c2.72,0 4.73,0.61 6,1.85 1.28,1.23 1.92,2.82 1.92,4.77 0,2.9 -1.36,4.9 -4.07,5.99l3.96 9.97zm-13.53 -12.54l5.06 0c1.46,0 2.56,-0.3 3.28,-0.92 0.72,-0.61 1.07,-1.47 1.07,-2.55 0,-0.99 -0.35,-1.8 -1.06,-2.4 -0.7,-0.61 -1.69,-0.92 -2.96,-0.92l-5.39 0 0 6.8z" inkscape:connector-curvature="0"/>
   </g>
  </g>
 </g>
</svg>
