<?xml version="1.0" encoding="UTF-8"?>
<!DOCTYPE svg PUBLIC "-//W3C//DTD SVG 1.1//EN" "http://www.w3.org/Graphics/SVG/1.1/DTD/svg11.dtd">
<!-- Creator: CorelDRAW -->
<svg xmlns="http://www.w3.org/2000/svg" xml:space="preserve" width="35.2202mm" height="8.4668mm" version="1.1" style="shape-rendering:geometricPrecision; text-rendering:geometricPrecision; image-rendering:optimizeQuality; fill-rule:evenodd; clip-rule:evenodd"
viewBox="0 0 563.1 135.37"
 xmlns:xlink="http://www.w3.org/1999/xlink"
 xmlns:xodm="http://www.corel.com/coreldraw/odm/2003">
 <defs>
  <style type="text/css">
   <![CDATA[
    .str1 {stroke:#FEFEFE;stroke-width:1.6;stroke-miterlimit:10}
    .str0 {stroke:#096A31;stroke-width:1.6;stroke-miterlimit:10}
    .fil0 {fill:#096A31;fill-rule:nonzero}
   ]]>
  </style>
 </defs>
 <g id="Layer_x0020_1">
  <metadata id="CorelCorpID_0Corel-Layer"/>
  <g id="_2460212922784">
   <path class="fil0" d="M80.71 37.08c2.09,1.15 4.03,2.27 6.02,3.3 3.17,1.63 6.47,2.87 10.04,3.32 2.97,0.38 5.83,0.03 8.5,-1.34 2.65,-1.35 4.54,-3.4 5.25,-6.35 1.09,-4.49 -1.38,-9.74 -5.55,-11.88 -2.71,-1.39 -5.59,-1.59 -8.52,-1.02 -7.9,1.54 -12.71,6.61 -15.74,13.97zm-26.15 10.01c-0.08,-0.11 -0.11,-0.2 -0.17,-0.23 -3.99,-2.54 -7.98,-5.1 -12.53,-6.57 -2.76,-0.9 -5.59,-1.4 -8.49,-1.27 -4.24,0.19 -7.89,1.71 -10.27,5.38 -2.47,3.79 -2.6,7.84 -0.79,11.96 0.14,0.32 0.34,0.63 0.53,0.92 1.65,2.54 4.12,3.53 7.06,2.72 1.21,-0.33 2.36,-0.88 3.55,-1.3 1.18,-0.42 2.36,-0.9 3.57,-1.19 2.23,-0.53 4.22,0.08 5.91,1.62 1.78,1.63 2.78,3.69 3.28,6.02 1.53,7.19 -1.53,13.03 -7.17,16.48 -2.77,1.69 -5.78,2.69 -9,3.02 -10.62,1.1 -18.38,-3.51 -23.99,-12.19 -3.06,-4.74 -4.85,-10.02 -5.59,-15.57 -0.54,-4.13 -0.71,-8.33 0.14,-12.49 0.67,-3.29 2.14,-6.25 3.75,-9.15 2.17,-3.9 4.88,-7.36 8.4,-10.14 3.97,-3.14 8.53,-4.88 13.48,-5.62 2.1,-0.31 4.24,-0.46 6.36,-0.48 5.5,-0.06 10.79,1.14 15.96,2.95 3.99,1.4 7.81,3.19 11.53,5.18 0.38,0.2 0.76,0.4 1.24,0.65 0.24,-0.36 0.46,-0.67 0.66,-0.99 0.86,-1.37 1.71,-2.74 2.59,-4.1 4.67,-7.26 11.07,-12.42 19.01,-15.77 3.77,-1.59 7.66,-2.78 11.7,-3.22 11.01,-1.2 20.47,2.2 28.19,10.15 2.89,2.97 4.63,6.64 5.75,10.61 1.75,6.26 2.08,12.56 0.69,18.94 -1.24,5.67 -4.22,10.22 -8.75,13.8 -4.16,3.29 -8.92,5.28 -14.09,6.4 -3.78,0.82 -7.6,0.96 -11.42,0.66 -5.78,-0.46 -11.18,-2.23 -16.21,-5.12 -1.23,-0.71 -2.51,-1.33 -3.77,-1.97 -0.38,-0.19 -0.8,-0.3 -1.36,-0.5 -0.13,0.48 -0.27,0.87 -0.34,1.28 -0.96,5.29 -1.37,10.63 -1.16,16.01 0.32,8.09 1.64,15.98 4.93,23.45 1.47,3.34 3.33,6.44 5.88,9.09 2.82,2.94 6.28,4.52 10.29,5.06 3.3,0.44 6.45,0.02 9.5,-1.24 4.01,-1.66 6.44,-4.83 8.05,-8.71 1.03,-2.5 1.57,-5.12 1.71,-7.81 0.17,-3.07 0.22,-6.15 0.51,-9.2 0.15,-1.63 0.51,-3.29 1.11,-4.81 1.5,-3.78 4.33,-6.14 8.43,-6.5 3.69,-0.32 6.79,1.12 9.13,4.04 1.64,2.04 2.57,4.44 3.13,6.95 3.86,17.2 -4.27,35.55 -20.07,43.69 -3.79,1.95 -7.83,3.09 -12.01,3.77 -2.85,0.46 -5.72,0.68 -8.6,0.68 -10.59,-0 -19.51,-3.88 -26.76,-11.59 -5.02,-5.34 -8.6,-11.55 -11.28,-18.32 -2.11,-5.34 -3.42,-10.88 -4.27,-16.55 -0.75,-5.04 -1.14,-10.1 -1.1,-15.19 0.07,-7.71 0.89,-15.34 3.01,-22.78 0.09,-0.3 0.14,-0.61 0.2,-0.87z"/>
   <path class="fil0" d="M166.76 44.9c0.94,0.29 1.49,-0.02 1.96,-0.45 0.46,-0.43 0.87,-0.91 1.29,-1.38 3.06,-3.5 6.58,-6.35 11.08,-7.81 3.08,-1 6.23,-1.38 9.45,-0.94 1.29,0.17 2.59,0.3 3.84,0.64 2.93,0.82 5.18,2.62 6.8,5.18 1.64,2.57 2.49,5.43 3.05,8.39 0.95,5.02 1.11,10.1 1.18,15.19 0.06,4.38 0.12,8.75 0.19,13.13 0,0.35 0.05,0.7 0.09,1.1 0.7,0.15 1.35,0.28 1.99,0.44 1.27,0.32 2.48,0.8 3.53,1.61 1.52,1.17 2.36,2.71 2.54,4.62 0.23,2.37 -0.3,4.52 -1.67,6.49 -2,2.86 -4.38,5.38 -6.82,7.85 -2.97,3.01 -5.97,5.97 -8.96,8.95 -0.31,0.31 -0.63,0.6 -0.95,0.88 -2.23,1.98 -4.75,2.16 -7.39,1.05 -3.17,-1.33 -5.91,-5.3 -4.53,-9.82 0.38,-1.23 0.86,-2.48 1.54,-3.57 2.22,-3.54 3,-7.46 3.01,-11.52 0.02,-6.43 -0.09,-12.85 -0.24,-19.28 -0.03,-1.4 -0.37,-2.81 -0.65,-4.2 -0.67,-3.37 -2.87,-5.17 -6.17,-5.62 -2,-0.27 -4.01,-0.16 -5.96,0.52 -2.3,0.79 -3.88,2.36 -5.01,4.44 -1.35,2.5 -1.99,5.21 -2.43,7.99 -0.61,3.88 -0.66,7.78 -0.43,11.68 0.13,2.27 0.53,4.53 0.91,6.79 0.28,1.68 1.29,2.96 2.73,3.84 0.97,0.6 1.98,1.15 3.03,1.61 3.93,1.74 4.74,5.88 4.28,9.26 -0.25,1.82 -1.34,3.14 -3.03,3.8 -1.31,0.51 -2.7,0.89 -4.09,1.08 -1.67,0.23 -3.38,0.23 -5.08,0.29 -5.28,0.18 -10.57,0.37 -15.85,0.51 -1.93,0.05 -3.87,0.05 -5.76,-0.45 -3.21,-0.84 -4.64,-2.51 -5.02,-5.77 -0.36,-3.11 0.71,-5.49 3.41,-7.1 0.98,-0.59 1.95,-1.2 2.98,-1.71 2.9,-1.44 4.16,-3.88 4.25,-6.98 0.07,-2.2 0.04,-4.42 -0.02,-6.62 -0.12,-4.34 -0.32,-8.67 -0.46,-13 -0.26,-8.08 -0.47,-16.16 -0.75,-24.23 -0.17,-4.77 -0.43,-9.53 -0.66,-14.3 -0.05,-1.21 -0.11,-1.28 -1.3,-1.27 -0.83,0 -1.67,0.01 -2.48,0.13 -3.89,0.59 -6.12,-2.33 -6.24,-5.27 -0.12,-2.92 0.77,-5.35 2.8,-7.38 0.87,-0.86 1.8,-1.66 2.73,-2.45 2.26,-1.92 4.56,-3.77 6.78,-5.73 2.18,-1.92 4.56,-3.52 7.12,-4.84 2.19,-1.14 3.72,-0.83 5.44,0.92 1.9,1.94 2.97,4.28 3.03,6.99 0.06,2.8 -0,5.6 -0.03,8.4 -0.04,4.34 -0.18,8.67 -0.14,13 0.03,3.54 0.23,7.09 0.44,10.63 0.09,1.44 0.43,2.86 0.65,4.28z"/>
   <path class="fil0" d="M398.19 77.05c0.29,-0.52 0.52,-0.87 0.69,-1.25 0.72,-1.62 1.49,-3.22 2.13,-4.87 1.44,-3.79 2.94,-7.56 4.62,-11.26 0.68,-1.5 1.11,-3.11 1.58,-4.69 0.47,-1.58 -0.06,-2.97 -1.13,-4.14 -0.67,-0.72 -1.44,-1.34 -2.16,-2.01 -0.72,-0.67 -1.49,-1.3 -2.15,-2.03 -1.84,-2.04 -2.25,-4.45 -1.57,-7.06 0.41,-1.58 1.39,-2.71 2.83,-3.47 1.31,-0.69 2.74,-1.05 4.19,-1.14 2,-0.13 4.02,-0.12 6.03,-0.12 1.58,-0 3.16,0.06 4.74,0.1 2.8,0.07 5.61,0.08 8.4,0.26 1.4,0.09 2.8,0.41 4.16,0.79 1.56,0.43 2.56,1.53 3.02,3.07 0.96,3.23 0.67,6.25 -1.64,8.87 -0.88,1 -1.82,1.98 -2.81,2.87 -3.06,2.75 -5.24,6.1 -6.65,9.93 -1.85,5.07 -3.66,10.16 -5.42,15.26 -3.19,9.23 -6.31,18.49 -9.51,27.72 -1.81,5.22 -3.89,10.32 -6.66,15.12 -1.69,2.91 -3.63,5.63 -6,8.04 -3.56,3.64 -7.88,6.02 -12.67,7.55 -3.8,1.21 -7.64,0.94 -11.42,-0.16 -2.39,-0.7 -4.67,-1.68 -6.87,-2.86 -3.53,-1.88 -5.96,-4.72 -7.49,-8.38 -1.44,-3.46 -2.05,-7.02 -1.41,-10.75 0.8,-4.6 3.63,-7.48 8.24,-8.24 1.27,-0.21 2.6,-0.26 3.87,-0.12 1.91,0.21 3.51,1.22 4.73,2.68 0.98,1.18 1.85,2.46 2.69,3.73 0.85,1.28 1.57,2.65 2.45,3.91 0.65,0.93 1.46,1.75 2.22,2.6 0.41,0.47 0.91,0.52 1.5,0.3 1.46,-0.52 2.7,-1.37 3.51,-2.68 1.94,-3.12 3.66,-6.35 4.93,-9.81 0.65,-1.78 0.47,-3.47 -0.32,-5.15 -1.06,-2.24 -2.13,-4.48 -3.15,-6.75 -4.64,-10.32 -9.21,-20.66 -13.9,-30.95 -1.24,-2.72 -2.74,-5.33 -4.23,-7.92 -1.22,-2.13 -2.81,-3.99 -4.55,-5.73 -1.03,-1.03 -2.02,-2.11 -2.94,-3.24 -1.48,-1.83 -1.65,-3.96 -1.14,-6.16 0.34,-1.47 1.33,-2.47 2.68,-3.13 1.63,-0.79 3.38,-1.13 5.15,-1.15 3.63,-0.03 7.26,0.09 10.89,0.1 2.41,0 4.81,-0.1 7.22,-0.14 1.97,-0.03 3.94,-0.01 5.88,0.48 2.95,0.74 4.6,2.69 4.7,5.73 0.03,1.09 -0.09,2.2 -0.27,3.28 -0.2,1.24 -0.82,2.3 -1.73,3.17 -0.6,0.57 -1.24,1.1 -1.86,1.64 -0.54,0.47 -1.09,0.91 -1.61,1.4 -1.41,1.32 -1.87,2.95 -1.55,4.84 0.3,1.81 0.87,3.53 1.66,5.16 1.88,3.86 3.56,7.81 5.18,11.79 0.55,1.34 1.34,2.58 2.05,3.85 0.2,0.36 0.52,0.67 0.88,1.12z"/>
   <path class="fil0" d="M333.29 73.59c-0.56,-0.11 -0.9,-0.23 -1.25,-0.24 -5.04,-0.28 -10.01,0.03 -14.78,1.87 -2.48,0.96 -4.63,2.38 -6.1,4.66 -0.94,1.45 -1.32,3.03 -0.91,4.74 0.82,3.39 4.48,5.28 7.81,4.01 0.81,-0.31 1.53,-0.81 2.32,-1.18 0.81,-0.39 1.63,-0.8 2.49,-1.06 1.6,-0.49 2.99,-0.01 4.02,1.27 0.61,0.75 1.13,1.62 1.5,2.52 1.04,2.51 1.26,5.13 0.67,7.77 -0.7,3.14 -2.62,5.42 -5.32,7.08 -2.47,1.52 -5.2,2.28 -8.05,2.52 -3.24,0.27 -6.45,0.02 -9.61,-0.89 -5.54,-1.6 -9.61,-4.97 -12.22,-10.08 -2.73,-5.36 -3.61,-11.03 -2.26,-16.88 1.52,-6.54 5.46,-11.35 11.34,-14.58 3.63,-1.99 7.55,-3.17 11.58,-4.01 4.44,-0.92 8.94,-1.45 13.47,-1.7 1.42,-0.08 2.83,-0.18 4.25,-0.24 0.62,-0.03 0.94,-0.3 0.98,-0.92 0.1,-1.5 0.11,-2.99 -0.35,-4.45 -1.15,-3.69 -4.78,-6.43 -9.53,-5.24 -1.7,0.43 -3.28,1.14 -4.73,2.11 -1.9,1.27 -3.72,2.67 -5.64,3.91 -1.55,1 -3.14,1.98 -4.82,2.74 -2.43,1.1 -4.97,1.14 -7.48,0.12 -0.54,-0.22 -1.12,-0.47 -1.53,-0.86 -2.2,-2.1 -3.75,-4.57 -4.04,-7.67 -0.2,-2.14 0.47,-4.05 1.76,-5.74 1.51,-1.99 3.5,-3.39 5.67,-4.57 3.38,-1.85 7,-3.04 10.72,-3.98 4.1,-1.04 8.26,-1.75 12.49,-1.81 5.87,-0.09 11.57,0.78 16.72,3.85 5.3,3.17 8.28,7.84 8.92,14 0.46,4.4 0.47,8.81 0.31,13.23 -0.16,4.69 -0.26,9.38 -0.33,14.07 -0.04,2.29 0.17,4.56 0.68,6.81 0.38,1.7 1.25,3.04 2.69,4.02 0.71,0.49 1.43,0.99 2.12,1.5 1.76,1.3 2.66,3.06 2.83,5.23 0.13,1.63 -0.02,3.22 -0.53,4.78 -0.78,2.38 -2.29,3.86 -4.87,4.21 -4.79,0.66 -9.57,0.9 -14.39,0.28 -2.42,-0.31 -4.06,-1.57 -5.02,-3.78 -0.67,-1.53 -1.04,-3.16 -1.13,-4.81 -0.15,-2.67 -0.2,-5.35 -0.2,-8.03 0,-3.51 0.13,-7.02 0.12,-10.52 -0,-1.33 -0.24,-2.65 -0.37,-4.04z"/>
   <path class="fil0" d="M260.31 59.05c1.38,-4.39 -1.06,-9.18 -5.22,-10.46 -1.82,-0.56 -3.62,-0.39 -5.33,0.28 -1.46,0.57 -2.89,1.27 -4.22,2.1 -1.9,1.2 -3.69,2.57 -5.53,3.86 -1.55,1.09 -3.17,2.07 -4.97,2.7 -1.51,0.53 -3.06,0.75 -4.65,0.55 -2.59,-0.34 -4.54,-1.6 -5.91,-3.87 -0.95,-1.57 -1.75,-3.15 -1.96,-5.01 -0.21,-1.88 0.19,-3.6 1.15,-5.2 0.89,-1.48 2.11,-2.65 3.49,-3.67 2.86,-2.11 6.09,-3.45 9.44,-4.56 4.21,-1.39 8.52,-2.32 12.92,-2.75 5.83,-0.58 11.59,-0.2 17.09,2.04 4.58,1.86 8.23,4.77 10.43,9.31 1.05,2.16 1.57,4.46 1.78,6.82 0.47,5.24 0.31,10.48 0.13,15.72 -0.17,4.81 -0.48,9.62 -0.07,14.42 0.11,1.29 0.39,2.56 0.66,3.84 0.3,1.46 1.14,2.58 2.33,3.45 0.54,0.39 1.08,0.8 1.65,1.16 2.97,1.86 3.86,4.65 3.55,7.94 -0.08,0.9 -0.34,1.78 -0.6,2.64 -0.72,2.37 -2.26,3.79 -4.78,4.15 -3.45,0.49 -6.9,0.78 -10.37,0.61 -1.34,-0.07 -2.67,-0.2 -4.01,-0.33 -2.54,-0.24 -4.2,-1.64 -5.14,-3.95 -0.83,-2.03 -1.17,-4.18 -1.18,-6.36 -0.02,-4.37 0.14,-8.75 0.12,-13.12 -0.01,-2.32 -0.25,-4.64 -0.37,-6.96 -0.03,-0.63 -0.32,-0.93 -0.93,-0.98 -0.16,-0.01 -0.31,-0.06 -0.47,-0.07 -4.76,-0.25 -9.46,0.01 -14.01,1.62 -1.95,0.69 -3.8,1.58 -5.26,3.09 -0.71,0.73 -1.38,1.54 -1.87,2.42 -1.24,2.23 -0.93,4.85 0.66,6.6 1.62,1.79 4.3,2.45 6.61,1.53 0.87,-0.35 1.67,-0.89 2.53,-1.29 0.78,-0.36 1.57,-0.72 2.4,-0.96 1.32,-0.39 2.53,-0.02 3.48,0.93 0.6,0.6 1.13,1.33 1.51,2.09 1.33,2.63 1.6,5.43 1.07,8.29 -0.59,3.22 -2.52,5.55 -5.23,7.27 -2.48,1.58 -5.26,2.36 -8.15,2.61 -3.44,0.29 -6.84,-0.01 -10.17,-1.05 -5.18,-1.61 -9,-4.81 -11.5,-9.57 -2.96,-5.62 -3.93,-11.59 -2.32,-17.75 1.8,-6.91 6.23,-11.73 12.64,-14.78 3.65,-1.74 7.52,-2.8 11.49,-3.54 4.08,-0.75 8.18,-1.24 12.32,-1.45 1.26,-0.07 2.52,-0.14 3.78,-0.23 0.35,-0.02 0.69,-0.09 0.99,-0.13z"/>
   <path class="fil0" d="M535.58 38.82c1.09,-1.05 2.07,-2.02 3.07,-2.97 1.21,-1.13 2.58,-1.97 4.27,-2.1 2.94,-0.23 5.54,0.49 7.17,3.14 0.84,1.36 1.46,2.87 2.04,4.38 1.23,3.2 2.35,6.43 3.54,9.65 0.56,1.52 1.02,3.06 1.2,4.68 0.36,3.28 -1.45,5.94 -4.66,6.69 -1.46,0.34 -2.95,0.26 -4.26,-0.48 -1.37,-0.77 -2.7,-1.63 -3.93,-2.61 -1.61,-1.27 -3.07,-2.72 -4.64,-4.04 -2.33,-1.96 -4.81,-3.72 -7.6,-4.97 -1.72,-0.77 -3.5,-1.2 -5.4,-1.05 -1.98,0.15 -3.63,0.89 -4.44,2.81 -0.83,2 -0.47,3.87 0.96,5.5 1,1.14 2.26,2 3.67,2.54 2.57,0.99 5.15,1.97 7.79,2.75 5.56,1.63 10.63,4.16 15.17,7.76 2.61,2.07 4.72,4.56 6.27,7.47 0.71,1.33 1.14,2.86 1.45,4.34 0.56,2.59 0.73,5.23 0.22,7.87 -1.52,7.85 -7.47,15.49 -16.97,17.65 -4.4,1 -8.79,0.75 -13.09,-0.54 -1.27,-0.38 -2.43,-1.11 -3.61,-1.73 -0.8,-0.42 -1.56,-0.91 -2.4,-1.41 -0.26,0.26 -0.49,0.46 -0.67,0.69 -0.55,0.72 -1.12,1.43 -1.62,2.19 -2.1,3.19 -8.43,3.87 -11.37,0.34 -1.08,-1.29 -1.86,-2.74 -2.49,-4.27 -0.37,-0.91 -0.67,-1.85 -0.98,-2.78 -1.26,-3.77 -2.49,-7.55 -3.75,-11.33 -0.66,-1.99 -1.21,-3.99 -1.02,-6.13 0.31,-3.61 3.24,-6.41 6.86,-6.62 2.7,-0.16 4.97,0.7 6.83,2.62 1.12,1.16 2.18,2.39 3.23,3.61 2.27,2.64 4.69,5.12 7.55,7.13 1.59,1.12 3.28,2.06 5.23,2.38 1.89,0.31 3.77,0.32 5.6,-0.38 4.19,-1.62 4.26,-5.65 2.82,-8.05 -0.81,-1.35 -1.98,-2.34 -3.3,-3.17 -1.81,-1.14 -3.78,-1.93 -5.81,-2.62 -2.83,-0.95 -5.72,-1.78 -8.5,-2.89 -4.32,-1.72 -8.28,-4.07 -11.55,-7.45 -2.96,-3.06 -4.62,-6.76 -5.12,-10.94 -0.83,-6.92 1.8,-12.5 7.03,-16.91 3.71,-3.13 8.07,-4.78 12.91,-4.92 4,-0.12 7.71,1 11.04,3.29 0.39,0.27 0.77,0.54 1.26,0.88z"/>
   <path class="fil0" d="M477.4 69.9c-0.03,-2.49 -0.25,-4.95 -0.86,-7.37 -0.66,-2.62 -1.64,-5.1 -3.39,-7.2 -1.38,-1.66 -3.08,-2.85 -5.25,-3.14 -1.32,-0.17 -2.68,-0.28 -4,-0.16 -3,0.27 -5.56,1.51 -7.22,4.12 -0.79,1.25 -1.51,2.61 -1.98,4 -2,5.98 -1.99,12.07 -0.6,18.17 0.59,2.59 1.61,5 3.14,7.21 2.99,4.29 10.32,5.37 14.51,1.18 1.33,-1.33 2.36,-2.84 3.15,-4.53 1.82,-3.89 2.45,-8.03 2.5,-12.28zm18.19 -0.29c-0.07,6.68 -1.03,13.19 -3.53,19.43 -1.75,4.37 -4.18,8.31 -7.54,11.62 -5.62,5.54 -12.41,8.02 -20.27,7.75 -2.65,-0.09 -5.26,-0.45 -7.81,-1.15 -4.63,-1.28 -8.41,-3.9 -11.62,-7.4 -4.36,-4.76 -7.11,-10.39 -8.62,-16.61 -2.42,-9.99 -1.94,-19.86 1.51,-29.54 1.58,-4.44 4.06,-8.36 7.41,-11.7 4.54,-4.53 10,-7.18 16.39,-7.91 4.93,-0.56 9.76,-0.18 14.43,1.57 6.44,2.42 11.21,6.79 14.6,12.7 2.63,4.58 4.12,9.53 4.63,14.77 0.21,2.15 0.28,4.32 0.42,6.48z"/>
   <path class="fil0 str0" d="M556.12 32.07c2.1,0.15 4.87,-1.74 4.96,-5.26 0.07,-2.9 -2.33,-5.3 -5.11,-5.26 -2.72,0.04 -4.95,2.4 -4.95,5.28 0.01,3.05 2.49,5.41 5.1,5.24zm-6.33 -4.9c-0.02,-3.75 2.37,-6.54 5.79,-6.98 1.37,-0.18 2.65,0.24 3.8,1 2.29,1.52 3.36,4.34 2.75,7.17 -0.58,2.68 -2.65,4.7 -5.39,5.08 -2.07,0.29 -3.81,-0.51 -5.2,-2.02 -1.18,-1.28 -1.66,-2.85 -1.75,-4.25z"/>
   <path class="fil0 str1" d="M555.36 26.23c1.21,0.1 1.8,-0.22 1.85,-0.94 0.04,-0.64 -0.56,-1.18 -1.26,-1.15 -0.75,0.03 -0.87,0.45 -0.58,2.09zm2.3 0.41c0.37,1.15 0.68,2.13 1,3.12 -0.89,0.33 -1.34,0.17 -1.48,-0.63 -0.06,-0.32 -0.15,-0.63 -0.25,-0.94 -0.26,-0.71 -0.71,-1.04 -1.64,-0.74 -0.05,0.73 -0.09,1.49 -0.14,2.24 -1,0.26 -1.11,0.23 -1.14,-0.49 -0.05,-1.71 -0.02,-3.42 -0.05,-5.12 -0.01,-0.59 0.33,-0.87 0.84,-0.89 0.73,-0.03 1.49,-0.07 2.2,0.1 1.46,0.35 1.89,1.63 1.05,2.88 -0.13,0.19 -0.3,0.35 -0.4,0.45z"/>
  </g>
 </g>
</svg>
