<?xml version="1.0" encoding="UTF-8"?>
<!DOCTYPE svg PUBLIC "-//W3C//DTD SVG 1.1//EN" "http://www.w3.org/Graphics/SVG/1.1/DTD/svg11.dtd">
<!-- Creator: CorelDRAW -->
<svg xmlns="http://www.w3.org/2000/svg" xml:space="preserve" width="49.6508mm" height="8.4667mm" version="1.1" style="shape-rendering:geometricPrecision; text-rendering:geometricPrecision; image-rendering:optimizeQuality; fill-rule:evenodd; clip-rule:evenodd"
viewBox="0 0 877.4 149.62"
 xmlns:xlink="http://www.w3.org/1999/xlink"
 xmlns:xodm="http://www.corel.com/coreldraw/odm/2003">
 <defs>
  <style type="text/css">
   <![CDATA[
    .fil0 {fill:black;fill-rule:nonzero}
    .fil1 {fill:url(#id0);fill-rule:nonzero}
   ]]>
  </style>
  <linearGradient id="id0" gradientUnits="userSpaceOnUse" x1="558.58" y1="332.44" x2="558.61" y2="332.44">
   <stop offset="0" style="stop-opacity:1; stop-color:#780096"/>
   <stop offset="1" style="stop-opacity:1; stop-color:#FF0082"/>
  </linearGradient>
 </defs>
 <g id="Layer_x0020_1">
  <metadata id="CorelCorpID_0Corel-Layer"/>
  <g id="_2460566844832">
   <polygon id="Fill-1" class="fil0" points="187.62,65.83 169.54,65.83 169.54,51.31 220.98,51.31 220.98,65.83 202.9,65.83 202.9,126.95 187.62,126.95 "/>
   <path id="Fill-2" class="fil0" d="M248.1 94.48c0,-7.51 -2.29,-11.71 -7.89,-11.71 -5.6,0 -8.4,4.46 -8.91,11.71l16.81 0zm-31.96 4.33c0,-17.19 8.79,-28.14 23.69,-28.14 15.41,0 23.81,12.22 21.9,33.74l-30.18 0c1.27,7.77 5.99,10.82 13.62,10.82 4.58,0.13 9.04,-0.76 13.24,-2.29l0 11.08c-4.84,2.04 -10.06,2.93 -15.28,2.8 -17.45,0 -26.99,-10.57 -26.99,-28.01z"/>
   <g>
    <polygon id="Fill-4" class="fil0" points="269.11,125.04 284.14,125.04 284.14,44.06 269.11,44.06 "/>
   </g>
   <g>
    <path id="Fill-6" class="fil0" d="M322.72 94.23c0,-7.51 -2.29,-11.71 -7.9,-11.71 -5.6,0 -8.4,4.46 -8.91,11.71l16.81 0zm-31.96 4.2c0,-17.19 8.79,-28.14 23.81,-28.14 15.28,0 23.81,12.22 21.9,33.74l-30.18 0c1.27,7.77 5.99,10.82 13.62,10.82 4.46,0.13 9.04,-0.77 13.24,-2.29l0 11.08c-4.84,2.04 -10.06,2.93 -15.28,2.8 -17.45,0.13 -27.12,-10.57 -27.12,-28.01l0 0z"/>
   </g>
   <g>
    <path id="Fill-7" class="fil0" d="M358.25 108.11c1.78,3.31 4.58,5.47 8.15,5.47 6.37,0 8.91,-5.47 8.91,-15.15 0,-9.68 -2.42,-15.15 -8.91,-15.15 -3.57,0 -6.37,2.16 -8.15,5.47l0 19.36zm12.61 18.46c-4.84,0.13 -9.42,-1.91 -12.61,-5.48l0 28.4 -15.03 0 0 -77.8 13.5 0 0 5.48c3.18,-4.46 8.28,-7 13.75,-6.88 14.52,0 19.74,13.11 19.74,28.14 0,16.43 -5.98,28.14 -19.35,28.14l0 0z"/>
   </g>
   <g>
    <path id="Fill-8" class="fil0" d="M426.63 94.23c0,-7.51 -2.29,-11.71 -7.9,-11.71 -5.6,0 -8.4,4.46 -8.91,11.71l16.81 0zm-31.83 4.2c0,-17.19 8.78,-28.14 23.81,-28.14 15.28,0 23.69,12.22 21.9,33.74l-30.18 0c1.27,7.77 5.99,10.82 13.62,10.82 4.46,0.13 9.04,-0.77 13.24,-2.29l0 11.08c-4.84,2.04 -10.06,2.93 -15.28,2.8 -17.57,0.13 -27.12,-10.57 -27.12,-28.01z"/>
   </g>
   <g>
    <path id="Fill-9" class="fil0" d="M446.49 71.82l13.5 0 0 8.15c3.18,-6.75 9.3,-9.93 17.32,-9.17l0 15.15c-7.13,-0.89 -12.86,1.66 -15.79,9.17l0 30.18 -15.02 0 0 -53.48z"/>
   </g>
   <g>
    <path id="Fill-10" class="fil0" d="M489.79 84.68l-7 0 0 -12.86 7 0 0 -7c0,-13.88 8.91,-18.84 18.46,-18.84 3.31,-0.13 6.62,0.51 9.68,1.78l0 12.22c-1.91,-0.76 -3.95,-1.15 -6.11,-1.15 -4.2,0 -7.13,2.04 -7.13,6.49l0 6.49 10.82 0 0 12.86 -10.69 0 0 40.49 -15.03 0 0 -40.49z"/>
   </g>
   <g>
    <g>
     <path id="Fill-11" class="fil0" d="M532.7 98.43c0,9.81 2.55,15.15 9.04,15.15 6.49,0 8.91,-5.35 8.91,-15.15 0,-9.8 -2.55,-15.28 -8.91,-15.28 -6.37,0 -9.04,5.48 -9.04,15.28l0 0zm33.23 0c0,17.57 -8.66,28.14 -24.07,28.14 -15.41,0 -24.19,-10.57 -24.19,-28.14 0,-17.57 8.66,-28.14 24.19,-28.14 15.53,0 24.07,10.44 24.07,28.14z"/>
    </g>
   </g>
   <g>
    <path id="Fill-12" class="fil0" d="M571.28 71.82l13.5 0 0 8.15c3.18,-6.75 9.3,-9.93 17.32,-9.17l0 15.15c-7.13,-0.89 -12.86,1.66 -15.79,9.17l0 30.18 -15.03 0 0 -53.48z"/>
   </g>
   <g>
    <path id="Fill-13" class="fil0" d="M678.11 87.48l0 37.69 -14.9 0 0 -34.63c0,-4.33 -2.04,-6.49 -5.6,-6.49 -3.18,0 -5.6,1.78 -7.51,4.84l0 36.16 -14.64 0 0 -34.51c0,-4.33 -2.16,-6.49 -5.6,-6.49 -3.06,0 -5.6,1.78 -7.51,4.97l0 36.04 -14.77 0 0 -53.35 13.37 0 0 4.97c3.18,-4.2 8.28,-6.62 13.5,-6.49 5.86,0 10.19,2.42 12.73,6.49 3.56,-4.33 8.91,-6.62 14.52,-6.49 11.08,0.13 16.3,7.77 16.43,17.32z"/>
   </g>
   <g>
    <g>
     <path id="Fill-14" class="fil0" d="M713.51 113.33l0 -10.19c-1.78,-0.38 -3.56,-0.64 -5.35,-0.64 -5.48,0 -9.17,1.78 -9.17,7.13 0,4.84 2.93,6.88 6.49,6.88 3.06,-0 5.86,-1.02 8.02,-3.18l0 0zm19.99 1.15l0 10.44c-2.29,0.64 -4.71,1.02 -7.13,1.02 -4.2,0 -7.9,-1.27 -10.19,-4.08 -4.08,3.18 -9.17,4.97 -14.39,4.84 -9.17,0 -17.19,-5.35 -17.19,-16.55 0,-11.46 8.4,-17.06 20.37,-17.06 2.93,0 5.86,0.38 8.66,1.02l0 -2.93c0,-4.33 -2.04,-8.15 -9.42,-8.15 -5.6,0 -11.08,1.15 -16.3,3.31l0 -12.73c5.73,-2.04 11.72,-3.06 17.7,-3.06 14.9,0 22.67,6.49 22.67,21.77l0 18.97c0,2.67 1.4,3.56 3.44,3.56 0.64,-0.13 1.15,-0.25 1.78,-0.38z"/>
    </g>
   </g>
   <g>
    <path id="Fill-15" class="fil0" d="M739.11 71.82l13.37 0 0 4.97c3.56,-4.33 8.91,-6.62 14.52,-6.49 8.53,0 16.3,5.86 16.3,16.94l0 37.82 -15.02 0 0 -34.51c0,-4.58 -2.29,-6.49 -6.11,-6.49 -3.44,0.13 -6.62,2.16 -8.02,5.35l0 35.65 -15.02 0 0 -53.22z"/>
   </g>
   <g>
    <path id="Fill-16" class="fil0" d="M789.53 98.94c0,-18.34 10.82,-28.52 25.59,-28.52 4.08,-0.13 8.15,0.64 11.72,2.42l0 12.61c-2.93,-1.53 -6.11,-2.29 -9.42,-2.16 -7.9,0 -12.73,5.73 -12.73,15.28 0,9.55 4.33,15.15 12.1,15.15 3.69,0 7.26,-0.76 10.7,-2.16l0 12.86c-4.08,1.66 -8.53,2.55 -12.99,2.29 -14.52,-0.25 -24.83,-10.06 -24.96,-27.76z"/>
   </g>
   <g>
    <path id="Fill-17" class="fil0" d="M863.38 94.23c0,-7.51 -2.29,-11.71 -7.9,-11.71 -5.6,0 -8.4,4.46 -8.91,11.71l16.81 0zm-31.96 4.2c0,-17.19 8.79,-28.14 23.81,-28.14 15.28,0 23.81,12.22 21.9,33.74l-30.18 0c1.27,7.77 5.98,10.82 13.62,10.82 4.45,0.13 9.04,-0.77 13.24,-2.29l0 11.08c-4.84,2.04 -10.06,2.93 -15.28,2.8 -17.45,0.13 -27.12,-10.57 -27.12,-28.01z"/>
   </g>
   <g>
    <path id="Fill-40" class="fil1" d="M92.25 0l-86.97 0c-2.93,0 -5.22,2.29 -5.22,5.22l0 25.72c-0.25,1.66 0.38,3.18 1.4,4.46l30.05 29.8c0.25,0.25 0.64,0.38 0.89,0.13 0.13,-0.13 0.25,-0.25 0.25,-0.51l0 -30.43c0,-0.64 -0.51,-1.15 -1.15,-1.15l-23.69 -0c-1.53,0 -2.8,-1.27 -2.8,-2.8l0 -22.79c0,-1.53 1.27,-2.8 2.8,-2.8 0,0 0,0 0,0l79.59 0c1.53,0 2.8,1.27 2.8,2.8 0,0 0,0 0,0l0 22.67c0,1.53 -1.27,2.8 -2.8,2.8l-23.81 0c-0.64,0 -1.15,0.51 -1.15,1.15l0 88.12c0,1.53 -1.27,2.8 -2.8,2.8 0,0 0,0 0,0l-23.56 0c-0.38,0 -0.77,0.25 -0.77,0.77 0,0.13 0,0.38 0.13,0.51l20.88 20.63c1.4,1.53 3.44,2.55 5.6,2.55l22.67 -0c2.16,0 3.82,-1.66 3.95,-3.69 0,0 0,0 0,-0.13l0 -52.46c0,-0.64 0.51,-1.15 1.15,-1.15 0,0 0,0 0,0l2.55 0c25.47,0 50.17,-15.41 50.17,-46.22 0,-27.5 -19.1,-45.97 -50.17,-45.97z"/>
   </g>
  </g>
 </g>
</svg>
