<?xml version="1.0" encoding="UTF-8"?>
<!DOCTYPE svg PUBLIC "-//W3C//DTD SVG 1.1//EN" "http://www.w3.org/Graphics/SVG/1.1/DTD/svg11.dtd">
<!-- Creator: CorelDRAW -->
<svg xmlns="http://www.w3.org/2000/svg" xml:space="preserve" width="16.3824mm" height="8.4668mm" version="1.1" style="shape-rendering:geometricPrecision; text-rendering:geometricPrecision; image-rendering:optimizeQuality; fill-rule:evenodd; clip-rule:evenodd"
viewBox="0 0 153.15 79.15"
 xmlns:xlink="http://www.w3.org/1999/xlink"
 xmlns:xodm="http://www.corel.com/coreldraw/odm/2003">
 <defs>
  <style type="text/css">
   <![CDATA[
    .fil2 {fill:#FEFEFE}
    .fil3 {fill:#E53032}
    .fil0 {fill:#FEFEFE;fill-rule:nonzero}
    .fil1 {fill:#234A8C;fill-rule:nonzero}
    .fil4 {fill:url(#id0)}
   ]]>
  </style>
  <linearGradient id="id0" gradientUnits="userSpaceOnUse" x1="154.85" y1="59.3" x2="88.02" y2="70.08">
   <stop offset="0" style="stop-opacity:1; stop-color:#1BB2CA"/>
   <stop offset="0.0117647" style="stop-opacity:1; stop-color:#1BB2CA"/>
   <stop offset="0.0196078" style="stop-opacity:1; stop-color:#1BB2CA"/>
   <stop offset="0.0313725" style="stop-opacity:1; stop-color:#1BB2CA"/>
   <stop offset="0.0392157" style="stop-opacity:1; stop-color:#1BB2CA"/>
   <stop offset="0.0509804" style="stop-opacity:1; stop-color:#1BB2CA"/>
   <stop offset="0.0588235" style="stop-opacity:1; stop-color:#1BB2CA"/>
   <stop offset="0.0705882" style="stop-opacity:1; stop-color:#1BB2CA"/>
   <stop offset="0.0784314" style="stop-opacity:1; stop-color:#1BB2CA"/>
   <stop offset="0.0901961" style="stop-opacity:1; stop-color:#1BB2CA"/>
   <stop offset="0.101961" style="stop-opacity:1; stop-color:#1BB2CA"/>
   <stop offset="0.109804" style="stop-opacity:1; stop-color:#1BB2CA"/>
   <stop offset="0.121569" style="stop-opacity:1; stop-color:#1BB2CA"/>
   <stop offset="0.129412" style="stop-opacity:1; stop-color:#1BB2CA"/>
   <stop offset="0.141176" style="stop-opacity:1; stop-color:#1BB2CA"/>
   <stop offset="0.14902" style="stop-opacity:1; stop-color:#1BB2CA"/>
   <stop offset="0.160784" style="stop-opacity:1; stop-color:#1BB2CA"/>
   <stop offset="0.168627" style="stop-opacity:1; stop-color:#1BB2CA"/>
   <stop offset="0.180392" style="stop-opacity:1; stop-color:#1BB2CA"/>
   <stop offset="0.188235" style="stop-opacity:1; stop-color:#1BB2CA"/>
   <stop offset="0.2" style="stop-opacity:1; stop-color:#1BB2CA"/>
   <stop offset="0.211765" style="stop-opacity:1; stop-color:#1BB2CA"/>
   <stop offset="0.219608" style="stop-opacity:1; stop-color:#1BB2CA"/>
   <stop offset="0.231373" style="stop-opacity:1; stop-color:#1BB2CA"/>
   <stop offset="0.239216" style="stop-opacity:1; stop-color:#1BB2CA"/>
   <stop offset="0.25098" style="stop-opacity:1; stop-color:#1AB1C4"/>
   <stop offset="0.258824" style="stop-opacity:1; stop-color:#20B1BF"/>
   <stop offset="0.270588" style="stop-opacity:1; stop-color:#20B0B9"/>
   <stop offset="0.278431" style="stop-opacity:1; stop-color:#21B0B4"/>
   <stop offset="0.290196" style="stop-opacity:1; stop-color:#20AFAE"/>
   <stop offset="0.301961" style="stop-opacity:1; stop-color:#23AFA9"/>
   <stop offset="0.309804" style="stop-opacity:1; stop-color:#21AEA3"/>
   <stop offset="0.321569" style="stop-opacity:1; stop-color:#20AE9D"/>
   <stop offset="0.329412" style="stop-opacity:1; stop-color:#1EAD97"/>
   <stop offset="0.341176" style="stop-opacity:1; stop-color:#21AD91"/>
   <stop offset="0.34902" style="stop-opacity:1; stop-color:#1FAC8C"/>
   <stop offset="0.360784" style="stop-opacity:1; stop-color:#1DAC87"/>
   <stop offset="0.368627" style="stop-opacity:1; stop-color:#22AC82"/>
   <stop offset="0.380392" style="stop-opacity:1; stop-color:#1EAB7C"/>
   <stop offset="0.388235" style="stop-opacity:1; stop-color:#1DAB77"/>
   <stop offset="0.4" style="stop-opacity:1; stop-color:#1DAA71"/>
   <stop offset="0.411765" style="stop-opacity:1; stop-color:#19AA6C"/>
   <stop offset="0.419608" style="stop-opacity:1; stop-color:#1EAA67"/>
   <stop offset="0.431373" style="stop-opacity:1; stop-color:#1DA962"/>
   <stop offset="0.439216" style="stop-opacity:1; stop-color:#1DA95D"/>
   <stop offset="0.45098" style="stop-opacity:1; stop-color:#21A958"/>
   <stop offset="0.458824" style="stop-opacity:1; stop-color:#20A853"/>
   <stop offset="0.470588" style="stop-opacity:1; stop-color:#3EAB51"/>
   <stop offset="0.478431" style="stop-opacity:1; stop-color:#51AE50"/>
   <stop offset="0.490196" style="stop-opacity:1; stop-color:#62B14D"/>
   <stop offset="0.501961" style="stop-opacity:1; stop-color:#72B44B"/>
   <stop offset="0.509804" style="stop-opacity:1; stop-color:#7EB748"/>
   <stop offset="0.521569" style="stop-opacity:1; stop-color:#8BBA46"/>
   <stop offset="0.529412" style="stop-opacity:1; stop-color:#97BD44"/>
   <stop offset="0.541176" style="stop-opacity:1; stop-color:#A2BF41"/>
   <stop offset="0.54902" style="stop-opacity:1; stop-color:#ACC23E"/>
   <stop offset="0.560784" style="stop-opacity:1; stop-color:#B5C43C"/>
   <stop offset="0.568627" style="stop-opacity:1; stop-color:#BDC639"/>
   <stop offset="0.580392" style="stop-opacity:1; stop-color:#C6C936"/>
   <stop offset="0.588235" style="stop-opacity:1; stop-color:#CECB33"/>
   <stop offset="0.6" style="stop-opacity:1; stop-color:#D6CD2F"/>
   <stop offset="0.611765" style="stop-opacity:1; stop-color:#DDCF2D"/>
   <stop offset="0.619608" style="stop-opacity:1; stop-color:#E5D128"/>
   <stop offset="0.631373" style="stop-opacity:1; stop-color:#EBD224"/>
   <stop offset="0.639216" style="stop-opacity:1; stop-color:#F3D420"/>
   <stop offset="0.65098" style="stop-opacity:1; stop-color:#F9D61A"/>
   <stop offset="0.658824" style="stop-opacity:1; stop-color:#F8D11E"/>
   <stop offset="0.670588" style="stop-opacity:1; stop-color:#F8CC20"/>
   <stop offset="0.678431" style="stop-opacity:1; stop-color:#F8C723"/>
   <stop offset="0.690196" style="stop-opacity:1; stop-color:#F7C225"/>
   <stop offset="0.701961" style="stop-opacity:1; stop-color:#F7BD27"/>
   <stop offset="0.709804" style="stop-opacity:1; stop-color:#F7B728"/>
   <stop offset="0.721569" style="stop-opacity:1; stop-color:#F6B52A"/>
   <stop offset="0.729412" style="stop-opacity:1; stop-color:#F6B12A"/>
   <stop offset="0.741176" style="stop-opacity:1; stop-color:#F5AE2B"/>
   <stop offset="0.74902" style="stop-opacity:1; stop-color:#F6AB2C"/>
   <stop offset="0.760784" style="stop-opacity:1; stop-color:#F5A72C"/>
   <stop offset="0.768627" style="stop-opacity:1; stop-color:#F5A52C"/>
   <stop offset="0.780392" style="stop-opacity:1; stop-color:#F4A12E"/>
   <stop offset="0.788235" style="stop-opacity:1; stop-color:#F49E2E"/>
   <stop offset="0.8" style="stop-opacity:1; stop-color:#F49B2E"/>
   <stop offset="0.811765" style="stop-opacity:1; stop-color:#F4972F"/>
   <stop offset="0.819608" style="stop-opacity:1; stop-color:#F39430"/>
   <stop offset="0.831373" style="stop-opacity:1; stop-color:#F18A31"/>
   <stop offset="0.839216" style="stop-opacity:1; stop-color:#EF8032"/>
   <stop offset="0.85098" style="stop-opacity:1; stop-color:#EE7533"/>
   <stop offset="0.858824" style="stop-opacity:1; stop-color:#EC6A33"/>
   <stop offset="0.870588" style="stop-opacity:1; stop-color:#EB6334"/>
   <stop offset="0.878431" style="stop-opacity:1; stop-color:#EB6033"/>
   <stop offset="0.890196" style="stop-opacity:1; stop-color:#EA5C34"/>
   <stop offset="0.901961" style="stop-opacity:1; stop-color:#EA5733"/>
   <stop offset="0.909804" style="stop-opacity:1; stop-color:#E95433"/>
   <stop offset="0.921569" style="stop-opacity:1; stop-color:#E95033"/>
   <stop offset="0.929412" style="stop-opacity:1; stop-color:#E84C33"/>
   <stop offset="0.941176" style="stop-opacity:1; stop-color:#E84833"/>
   <stop offset="0.94902" style="stop-opacity:1; stop-color:#E84533"/>
   <stop offset="0.960784" style="stop-opacity:1; stop-color:#E74133"/>
   <stop offset="0.968627" style="stop-opacity:1; stop-color:#E73C33"/>
   <stop offset="0.980392" style="stop-opacity:1; stop-color:#E63832"/>
   <stop offset="0.988235" style="stop-opacity:1; stop-color:#E63433"/>
   <stop offset="1" style="stop-opacity:1; stop-color:#E53032"/>
  </linearGradient>
 </defs>
 <g id="Layer_x0020_1">
  <metadata id="CorelCorpID_0Corel-Layer"/>
  <g id="_2460347540528">
   <path class="fil0" d="M38.11 0l-38.11 0.01 -0.01 38.1c0.01,2.52 2.07,4.57 4.59,4.57l38.11 0 0 -38.11c-0.01,-2.52 -2.07,-4.57 -4.59,-4.57z"/>
   <path class="fil1" d="M38.11 0.78l-37.33 0.01 -0 37.32c0.01,2.09 1.72,3.79 3.81,3.79l37.33 0 0 -37.33c-0.01,-2.09 -1.72,-3.79 -3.81,-3.79z"/>
   <path class="fil2" d="M18.59 9.17l0 -1.43 0 0 0 -0.65c0,-0.43 -0.32,-0.8 -0.76,-0.8l-11.21 0c-0.42,0 -0.76,0.34 -0.76,0.76l0 28.53c0,0.42 0.34,0.76 0.76,0.76l27.54 0c0.44,0 0.61,-0.21 0.53,-0.64l-0.2 -1.14c-0.54,-3.1 2.84,-8.98 2.59,-15.08 -0.19,-4.6 -2.97,-8.46 -6.99,-10.49 -3.62,-1.83 -7.91,-1.75 -11.49,0.17zm0 25.65l0 -11.93c0,-3.59 4.38,-4.43 4.95,-0.45 0.47,3.24 -2.55,8.86 -4.64,12.44 -0.12,0.2 -0.31,0.17 -0.31,-0.07z"/>
   <path class="fil3" d="M7.36 9.38l9.7 0 0 2.78c2.01,-1.94 4.71,-2.94 7.41,-2.96 4.69,-0.03 9.23,3.2 10.62,7.71 1.98,6.41 -2.84,13.61 -2.1,17.95l-12.31 0c3.37,-5.71 4.69,-10.1 4.35,-12.58 -0.54,-3.98 -4.08,-4.99 -6.52,-2.92 -1.3,1.1 -1.47,2.45 -1.47,4.05l0 11.45 -9.7 0 0 -25.48z"/>
   <path class="fil4" d="M145.77 49.32l-0.04 0 -0.01 0 -0.01 0 -0.01 0 -0.01 0 -0.01 0 -0.01 0 -0.01 0c-0.11,0 -0.23,0 -0.34,0 0.96,0.12 1.92,0.27 2.85,0.52 0.47,0.11 0.92,0.27 1.36,0.44 0.43,0.18 0.86,0.39 1.24,0.64 0.37,0.26 0.71,0.56 0.95,0.91 0.03,0.04 0.06,0.09 0.09,0.13l0.07 0.14 0.07 0.14 0.06 0.14 0.06 0.14 0.03 0.15c0.02,0.1 0.05,0.2 0.06,0.3l0.01 0.31c0.01,0.1 -0.02,0.21 -0.03,0.31 -0.01,0.21 -0.08,0.41 -0.13,0.62 -0.07,0.2 -0.15,0.41 -0.24,0.61 -0.11,0.2 -0.19,0.4 -0.32,0.59 -0.94,1.55 -2.35,2.86 -3.8,4.05 -1.48,1.18 -3.04,2.28 -4.67,3.28 -0.81,0.5 -1.64,0.99 -2.47,1.45 -0.83,0.47 -1.67,0.93 -2.52,1.38 -1.7,0.89 -3.43,1.72 -5.18,2.5 -1.75,0.78 -3.51,1.54 -5.3,2.24 -1.78,0.71 -3.59,1.37 -5.4,2 -1.81,0.63 -3.64,1.21 -5.48,1.75 -1.84,0.55 -3.69,1.03 -5.56,1.48 -3.72,0.89 -7.51,1.55 -11.29,1.78 -0.95,0.06 -1.89,0.07 -2.83,0.04 -0.94,-0.03 -1.86,-0.13 -2.76,-0.29 -0.89,-0.17 -1.76,-0.44 -2.48,-0.87l-0.25 -0.18 -0.13 -0.09c-0.04,-0.03 -0.07,-0.07 -0.11,-0.1l-0.22 -0.2 -0.17 -0.23c-0.2,-0.32 -0.37,-0.67 -0.39,-1.07 -0.02,-0.1 -0.02,-0.2 -0.01,-0.3 0.01,-0.1 -0,-0.2 0.01,-0.31 0.04,-0.21 0.05,-0.42 0.13,-0.63l0.09 -0.32 0.13 -0.31c0.08,-0.21 0.19,-0.41 0.29,-0.62 0.43,-0.81 1.01,-1.57 1.62,-2.31 0.61,-0.73 1.29,-1.42 1.99,-2.08 0.69,-0.68 1.44,-1.3 2.17,-1.93 -1.64,1.05 -3.22,2.19 -4.64,3.57 -0.71,0.69 -1.37,1.43 -1.93,2.29 -0.13,0.22 -0.28,0.43 -0.39,0.67l-0.18 0.35 -0.14 0.37c-0.11,0.24 -0.16,0.52 -0.23,0.78 -0.03,0.13 -0.04,0.28 -0.05,0.42 -0.02,0.14 -0.03,0.28 -0.02,0.43 0.01,0.14 0.01,0.29 0.03,0.43l0.1 0.43c0.03,0.15 0.1,0.28 0.15,0.41 0.06,0.13 0.11,0.28 0.2,0.39l0.24 0.37c0.09,0.11 0.19,0.21 0.29,0.32 0.05,0.05 0.1,0.11 0.15,0.16l0.16 0.13 0.33 0.27c0.91,0.64 1.91,1 2.9,1.26 0.99,0.26 2,0.41 3,0.49 1,0.08 2,0.12 2.99,0.1 0.99,-0 1.98,-0.06 2.97,-0.12 0.98,-0.08 1.97,-0.19 2.94,-0.32 1.95,-0.26 3.89,-0.6 5.81,-1 3.84,-0.82 7.62,-1.9 11.32,-3.17 1.85,-0.64 3.68,-1.33 5.5,-2.06 1.81,-0.74 3.61,-1.53 5.38,-2.38 1.77,-0.85 3.51,-1.75 5.22,-2.71 0.43,-0.24 0.85,-0.48 1.28,-0.73 0.43,-0.24 0.85,-0.5 1.26,-0.76 0.83,-0.52 1.66,-1.06 2.47,-1.61 1.62,-1.12 3.2,-2.31 4.67,-3.65 1.44,-1.36 2.86,-2.81 3.81,-4.67 0.13,-0.23 0.21,-0.48 0.32,-0.72 0.09,-0.25 0.17,-0.51 0.23,-0.77 0.04,-0.27 0.11,-0.53 0.1,-0.81 -0,-0.14 0.02,-0.27 -0,-0.41l-0.05 -0.42c-0.02,-0.14 -0.07,-0.27 -0.11,-0.41l-0.06 -0.2 -0.09 -0.19 -0.09 -0.19 -0.11 -0.17 -0.11 -0.17c-0.04,-0.06 -0.09,-0.1 -0.13,-0.16 -0.35,-0.42 -0.79,-0.73 -1.24,-0.98 -0.46,-0.24 -0.93,-0.41 -1.41,-0.56 -0.48,-0.13 -0.96,-0.24 -1.45,-0.31 -0.83,-0.12 -1.67,-0.17 -2.5,-0.18z"/>
   <g>
    <g>
     <path class="fil1" d="M62.96 12.47c0.57,-2.92 1.13,-5.79 1.69,-8.67 1.62,-0 3.17,-0 4.79,-0 -1.12,5.27 -2.23,10.51 -3.35,15.8 -0.89,0 -1.77,0.01 -2.64,0 -0.6,-0 -1.3,0.17 -1.77,-0.09 -0.44,-0.25 -0.65,-0.94 -0.94,-1.45 -1.23,-2.15 -2.44,-4.31 -3.67,-6.47 -0.09,-0.16 -0.18,-0.31 -0.31,-0.55 -0.62,2.92 -1.22,5.73 -1.81,8.55 -1.6,0 -3.15,0 -4.75,0 0.24,-1.14 0.47,-2.26 0.7,-3.37 0.85,-4 1.71,-8 2.54,-12.01 0.07,-0.34 0.19,-0.45 0.54,-0.44 1.23,0.02 2.47,0.02 3.71,-0 0.33,-0.01 0.5,0.11 0.65,0.38 1.45,2.63 2.91,5.25 4.37,7.88 0.07,0.13 0.15,0.27 0.24,0.44z"/>
     <path class="fil1" d="M140.15 19.52c-1.43,0 -2.82,0.01 -4.21,-0.01 -0.15,-0 -0.34,-0.18 -0.42,-0.33 -1.47,-2.56 -2.93,-5.13 -4.4,-7.7 -0.08,-0.14 -0.17,-0.28 -0.3,-0.5 -0.62,2.9 -1.21,5.71 -1.81,8.54 -1.59,0 -3.14,0 -4.75,0 0.21,-1 0.41,-1.98 0.61,-2.95 0.88,-4.14 1.77,-8.27 2.63,-12.41 0.08,-0.37 0.23,-0.46 0.58,-0.45 1.2,0.02 2.41,0.02 3.61,-0 0.36,-0.01 0.56,0.1 0.73,0.41 1.45,2.63 2.91,5.25 4.36,7.88 0.07,0.12 0.13,0.24 0.22,0.42 0.57,-2.93 1.13,-5.81 1.69,-8.69 1.63,-0 3.17,-0 4.79,-0 -1.12,5.28 -2.23,10.54 -3.35,15.81z"/>
     <path class="fil1" d="M118.94 10.99c0.05,-1.52 -0.91,-2.67 -2.38,-2.85 -2.41,-0.3 -4.69,1.51 -4.96,3.93 -0.16,1.49 0.68,2.72 2.1,3.05 2.44,0.57 5.16,-1.57 5.24,-4.12zm-5.29 8.88c-1.9,-0.02 -3.68,-0.36 -5.22,-1.56 -1.39,-1.09 -2.05,-2.57 -2.12,-4.29 -0.22,-5.13 3.67,-9.5 8.54,-10.39 2.07,-0.38 4.13,-0.34 6.05,0.63 2.11,1.07 3.13,2.84 3.29,5.19 0.32,4.66 -3.74,9.77 -8.98,10.29 -0.52,0.05 -1.04,0.09 -1.57,0.13z"/>
     <path class="fil1" d="M83.11 11.07c1.59,0.32 2.86,-0.38 3.21,-1.72 0.25,-0.96 -0.05,-1.76 -0.81,-1.93 -0.45,-0.1 -0.94,-0.04 -1.41,-0.01 -0.1,0.01 -0.23,0.18 -0.26,0.3 -0.25,1.11 -0.48,2.21 -0.73,3.36zm-6.78 8.51c0.22,-1.04 0.43,-2.03 0.63,-3.02 0.85,-4 1.7,-8 2.53,-12.01 0.09,-0.43 0.24,-0.64 0.7,-0.7 2.19,-0.27 4.38,-0.56 6.59,-0.3 1.13,0.13 2.22,0.39 3.17,1.05 1.18,0.82 1.58,2 1.56,3.37 -0.03,3.79 -3.56,7.22 -7.54,7.22 -0.43,0 -0.86,-0.04 -1.29,-0.12 -0.3,-0.05 -0.44,-0.01 -0.5,0.32 -0.25,1.28 -0.53,2.56 -0.82,3.83 -0.03,0.13 -0.17,0.33 -0.27,0.33 -1.57,0.02 -3.14,0.02 -4.77,0.02z"/>
     <path class="fil1" d="M97.65 11.14c0.37,0 0.66,0.01 0.95,-0 1.1,-0.03 2.01,-0.75 2.28,-1.81 0.25,-0.98 -0.08,-1.79 -0.87,-1.94 -0.43,-0.08 -0.89,-0.03 -1.33,0.01 -0.1,0.01 -0.26,0.16 -0.28,0.28 -0.26,1.12 -0.49,2.24 -0.76,3.47zm-0.83 3.95c-0.26,1.23 -0.53,2.49 -0.8,3.75 -0.03,0.15 -0.04,0.32 -0.1,0.45 -0.06,0.11 -0.19,0.26 -0.28,0.26 -1.56,0.02 -3.11,0.01 -4.74,0.02 0.18,-0.88 0.35,-1.72 0.53,-2.55 0.88,-4.17 1.77,-8.33 2.64,-12.5 0.09,-0.41 0.22,-0.61 0.68,-0.67 2.21,-0.27 4.41,-0.59 6.64,-0.29 0.86,0.12 1.73,0.34 2.52,0.69 1.51,0.65 2.24,2.1 2.2,3.74 -0.1,3.69 -3.3,6.69 -6.43,7.09 -0.9,0.11 -1.84,0.02 -2.84,0.02z"/>
     <path class="fil1" d="M68.65 19.57c0.18,-0.85 0.34,-1.68 0.52,-2.5 0.91,-4.29 1.83,-8.57 2.73,-12.86 0.07,-0.33 0.17,-0.46 0.53,-0.45 1.54,0.02 3.09,0.01 4.72,0 -1.12,5.31 -2.24,10.56 -3.35,15.81 -1.73,0 -3.41,0 -5.14,0z"/>
     <path class="fil1" d="M101.02 30.54c-0.62,2.9 -1.21,5.71 -1.81,8.54 -1.58,0 -3.13,0 -4.75,0 1.12,-5.28 2.23,-10.53 3.35,-15.81 1.48,-0 2.93,-0.01 4.38,0.01 0.14,0 0.32,0.21 0.41,0.37 1.47,2.62 2.92,5.25 4.38,7.87 0.07,0.13 0.14,0.26 0.24,0.44 0.57,-2.92 1.13,-5.79 1.69,-8.67 1.62,-0 3.17,-0 4.79,-0 -1.12,5.27 -2.23,10.51 -3.35,15.8 -0.99,0 -1.95,0.01 -2.92,0 -0.51,-0 -1.1,0.13 -1.49,-0.08 -0.37,-0.21 -0.55,-0.79 -0.79,-1.22 -1.28,-2.25 -2.55,-4.5 -3.83,-6.75 -0.08,-0.14 -0.17,-0.28 -0.29,-0.49z"/>
     <path class="fil1" d="M79.79 32.94c-0.17,-1.38 -0.32,-2.67 -0.5,-4.11 -0.78,1.43 -1.48,2.73 -2.21,4.09 0.22,0.01 0.36,0.02 0.49,0.02 0.72,0 1.44,-0 2.22,-0zm3.37 -9.66c1.03,5.27 2.05,10.51 3.07,15.79 -1.85,0 -3.67,0 -5.52,0 -0.11,-0.77 -0.21,-1.53 -0.32,-2.32 -0.16,-0.01 -0.29,-0.03 -0.43,-0.03 -1.56,-0 -3.12,0.01 -4.68,-0 -0.3,-0 -0.48,0.08 -0.62,0.36 -0.3,0.59 -0.63,1.17 -0.97,1.73 -0.08,0.13 -0.26,0.28 -0.4,0.29 -1.61,0.02 -3.21,0.02 -4.89,0.02 0.08,-0.16 0.13,-0.27 0.2,-0.38 3.11,-5.04 6.21,-10.07 9.33,-15.11 0.09,-0.15 0.28,-0.33 0.43,-0.33 1.57,-0.03 3.15,-0.02 4.79,-0.02z"/>
     <path class="fil1" d="M64.16 30.61c1.54,0.35 2.85,-0.36 3.21,-1.7 0.26,-0.98 -0.06,-1.79 -0.84,-1.95 -0.44,-0.09 -0.91,-0.02 -1.37,0 -0.09,0 -0.23,0.12 -0.25,0.21 -0.26,1.15 -0.5,2.3 -0.75,3.45zm-6.78 8.52c0.22,-1.04 0.43,-2.03 0.63,-3.02 0.85,-4 1.7,-8 2.53,-12.01 0.09,-0.43 0.24,-0.64 0.7,-0.7 2.19,-0.27 4.38,-0.56 6.59,-0.3 1.13,0.13 2.22,0.39 3.17,1.04 1.18,0.82 1.58,2 1.56,3.37 -0.03,3.79 -3.56,7.22 -7.54,7.22 -0.43,0 -0.86,-0.04 -1.29,-0.12 -0.3,-0.05 -0.43,-0.01 -0.5,0.32 -0.25,1.28 -0.53,2.56 -0.82,3.83 -0.03,0.13 -0.17,0.33 -0.27,0.33 -1.57,0.02 -3.14,0.02 -4.77,0.02z"/>
     <path class="fil1" d="M92.09 39.08c-1.73,0 -3.41,0 -5.14,0 0.17,-0.85 0.34,-1.68 0.52,-2.5 0.91,-4.29 1.83,-8.57 2.73,-12.86 0.07,-0.33 0.17,-0.46 0.53,-0.45 1.54,0.02 3.08,0.01 4.72,0 -1.12,5.31 -2.24,10.56 -3.35,15.81z"/>
     <path class="fil1" d="M127.93 23.25c-4,0 -8.01,0.01 -12.01,0 -0,0 -0.01,0 -0.01,0l-0.52 0c-0.12,0 -0.22,0.08 -0.25,0.2l-0.93 4.03 0 -0 0 0c1.17,-0 2.29,-0 3.44,-0 0.16,0 0.29,0.15 0.25,0.31 -0.78,3.69 -1.54,7.32 -2.32,10.97 -0.03,0.16 0.09,0.31 0.25,0.31 1.63,-0 3.21,-0 4.8,-0 0.03,-0.11 0.07,-0.21 0.1,-0.32 0.77,-3.63 1.54,-7.25 2.29,-10.88 0.07,-0.35 0.22,-0.41 0.52,-0.41 0.84,0.01 1.69,0 2.53,0.01l0 0 0.07 0c0.11,0 0.21,-0 0.32,0 0.04,0 0.08,-0 0.11,-0l0.18 -0c0.12,-0 0.22,-0.08 0.25,-0.2l0.93 -4.01 -0 0z"/>
    </g>
    <g>
     <path class="fil1" d="M113.99 55.48c0.06,-0.06 0.15,-0.09 0.18,-0.09 0.03,0.06 -0.15,0.21 -0.24,0.21 -0.06,0 -0.03,-0.06 0.06,-0.12zm-0.55 1.65l-0.15 0.09c0,0.03 0.03,0.03 0.06,0.03 0.03,0 0.06,-0.03 0.06,-0.06 0,-0.03 0,-0.06 0.03,-0.06zm-0.4 -0.95c0,-0.03 0,-0.03 -0.03,-0.06l0.58 -0.4c0,0.03 0.03,0.03 0.06,0.03 0.06,0 -0.61,0.46 -0.61,0.43zm-0.09 -0.03c0.03,-0.03 0.06,-0.03 0.06,-0.03l-0.12 0.09c0,0 0.03,-0.06 0.06,-0.06zm-0.22 0.58c0.03,0.03 0.03,0.06 -0.03,0.06 -0.03,-0 -0.06,-0.03 -0.06,-0.06 0,-0.03 0,-0.09 0.03,-0.09 0,0 0.06,0.06 0.06,0.09zm-0.52 0.34c0.03,0 0.03,-0.03 0.03,-0.03l0.12 -0.06c-0.03,0 -0.03,-0.03 -0.06,-0.03 -0.03,0 -0.09,0.03 -0.09,0.09l0 0.03zm-0.09 0.06c-0.06,-0.03 -0.12,-0.03 -0.12,0.03 0.03,0 0.09,-0.03 0.12,-0.03zm-1.43 -5.39c0,-0.03 -0.03,0 -0.03,0.09 0,0.09 0.03,0.09 0.06,0.03 0,-0.03 0,-0.09 -0.03,-0.12zm-0.28 0.8c-0.09,-0.06 -0.18,0.06 -0.15,0.18 0.03,0.09 0.06,0.09 0.12,0 0.03,-0.06 0.06,-0.15 0.03,-0.18zm2.75 4.84c-0.03,-0.03 -0.03,-0.03 -0.06,-0.03l-0.18 0.09c-0.03,0.03 -0.12,0.09 -0.15,0.15 -0.03,0.03 -0.06,0.06 -0.15,0.09l-0.31 0.34 -0.18 0.18 -0.12 0.03c-0.03,0.06 -0.12,-0.09 -0.24,-0.03 -0.15,0.06 -0.31,0.18 -0.37,0.24 -0.06,0.06 -0.12,0.12 -0.18,0.12 -0.06,0 -0.15,0.06 -0.22,0.15 -0.09,0.09 -0.18,0.15 -0.24,0.15 -0.06,0 -0.09,0.03 -0.09,0.06 0,0.03 -0.06,0.06 -0.09,0.06 -0.06,0 -0.18,0.09 -0.28,0.18 -0.12,0.09 -0.15,0.12 -0.06,0.09 0.15,-0.03 0.24,0.06 0.12,0.12 -0.06,0.03 0,0.03 0.12,0 0.12,0 0.28,-0.09 0.37,-0.18 0.09,-0.09 0.25,-0.18 0.31,-0.21 0.25,-0.15 0.34,-0.4 0.77,-0.67l0.24 -0.09 0.06 -0.06c0.15,-0.15 0.46,-0.4 0.64,-0.52 0.18,-0.12 0.34,-0.24 0.31,-0.27zm-3.02 -4.45c0.03,-0.03 0.06,-0.06 0.06,-0.09 0,0 -0.03,-0.03 -0.06,-0.03 -0.03,0 -0.06,0.03 -0.06,0.09 0,0.03 0.03,0.06 0.06,0.03zm0.12 0.77c0,0 -0.09,0.06 -0.15,0.15 -0.09,0.09 -0.09,0.15 -0.06,0.15 0.06,0 0.12,-0.06 0.15,-0.15 0.06,-0.09 0.09,-0.15 0.06,-0.15zm-0.27 -1.07c0.09,-0.06 0.15,-0.15 0.12,-0.15 -0.03,-0.15 0.12,-0.4 0.22,-0.37 0.12,0.06 0.31,-0.27 0.22,-0.4 0,-0.03 0.06,-0.03 0.15,-0.03 0.09,0 0.24,-0.09 0.43,-0.37l0.28 -0.37 -0.18 -0.03c-0.18,-0.03 -0.49,0.18 -0.49,0.37 0.03,0.06 0.03,0.06 0.09,-0.03 0.06,-0.15 0.06,-0.15 0.03,0 0,0.09 -0.06,0.12 -0.18,0.12 -0.09,0 -0.15,0.03 -0.15,0.09 -0,0.06 -0.06,0.15 -0.15,0.21 -0.15,0.09 -0.15,0.12 -0.03,0.09 0.12,-0.06 0.12,-0.03 0.03,0.06 -0.03,0.06 -0.12,0.09 -0.15,0.06 -0.03,-0.03 -0.03,0 -0.03,0.06 0.03,0.06 0,0.15 -0.06,0.24 -0.06,0.06 -0.09,0.09 -0.06,0.09 0.03,0 -0.03,0.09 -0.12,0.18 -0.18,0.21 -0.12,0.34 0.06,0.15zm-0.16 2.36c-0.03,0.03 -0.06,0.09 -0.06,0.12 0,0.12 0.06,0.09 0.09,-0.03 0.03,-0.09 0.03,-0.12 -0.03,-0.09zm-0.12 -1.19c0,0.09 0.03,0.06 0.09,-0.06 0.03,-0.06 0,-0.09 -0.03,-0.06 -0.03,0.03 -0.06,0.06 -0.06,0.12zm0 -0.52c0,0.09 0.03,0.09 0.09,-0.06 0.03,-0.06 0,-0.09 -0.03,-0.06 -0.03,0.03 -0.06,0.09 -0.06,0.12zm-0.18 0.37c-0.03,0 -0.06,0.03 -0.12,0.09 -0.06,0.06 -0.09,0.12 -0.06,0.12 0.03,0 0.09,-0.06 0.12,-0.12 0.06,-0.06 0.09,-0.09 0.06,-0.09zm0.36 5.91c-0.03,-0.03 -0.12,0.06 -0.24,0.15 -0.12,0.12 -0.24,0.18 -0.31,0.18 -0.03,0 -0.09,0.06 -0.12,0.12 -0.03,0.12 0.03,0.15 0.18,0.03l0.03 -0.03c-0.03,0.06 0.03,0.09 0.12,0.06 0.12,-0.03 0.4,-0.46 0.34,-0.52zm-0.51 -6.68c0.09,-0.15 0.18,-0.31 0.18,-0.34 0,-0.06 -0.28,0.31 -0.37,0.49 -0.12,0.24 -0.06,0.18 0.18,-0.15zm-0.37 4.1c-0.06,-0.06 -0.09,-0.03 -0.22,0.37 -0.12,0.43 -0.09,0.43 0.09,0 0.09,-0.18 0.12,-0.37 0.12,-0.37zm-0.71 1.77c-0.06,0.03 -0.22,0.52 -0.22,0.67 0,0.12 0.06,-0.03 0.18,-0.37 0.06,-0.18 0.06,-0.34 0.03,-0.31zm-0.46 1.47c-0.03,0.03 -0.06,0.09 -0.06,0.12 0,0.03 0.03,0.06 0.06,0.03 0.06,-0.03 0.09,-0.09 0.09,-0.12 0,-0.03 -0.03,-0.06 -0.09,-0.03zm-0.24 -2.45c0.03,-0.15 0.09,-0.31 0.12,-0.34 0.06,-0.06 0.06,0 0.03,0.18 -0.03,0.12 -0.09,0.28 -0.12,0.31 -0.06,0.06 -0.06,0.03 -0.03,-0.15zm1.66 -1.99c0.22,-0.4 0.37,-0.76 0.37,-0.83 0,-0.03 0.03,-0.06 0.06,-0.09 0.03,0 0.15,-0.18 0.22,-0.37l0.15 -0.37 -0.15 0.18c-0.12,0.09 -0.18,0.18 -0.18,0.21 -0,0.03 -0.22,0.49 -0.49,1.01 -0.25,0.52 -0.62,1.35 -0.8,1.81l-0.49 1.16c-0.06,0.12 -0.12,0.37 -0.15,0.49 -0.12,0.46 -0.12,0.49 -0.22,0.7 -0.03,0.09 -0.06,0.24 -0.03,0.34 0.03,0.12 0.12,-0.03 0.31,-0.58l0.28 -0.86c0,-0.03 0.06,-0.15 0.12,-0.27 0.06,-0.12 0.12,-0.31 0.15,-0.43 0.12,-0.43 0.52,-1.41 0.86,-2.11zm-1.63 5.36c0,-0.09 0,-0.09 -0.06,0 -0.06,0.06 -0.09,0.18 -0.09,0.24 0,0.09 0.03,0.09 0.09,0 0.03,-0.06 0.06,-0.18 0.06,-0.24zm-0.46 -2.21c0.09,0 0.09,-0.03 0.03,-0.06 -0.06,0 -0.12,0 -0.12,0.03 -0.03,0 0,0.03 0.09,0.03zm0.06 2.39c-0.09,0.09 -0.28,0.37 -0.28,0.46 0,0.09 0.09,0 0.25,-0.21 0.15,-0.28 0.18,-0.4 0.03,-0.24zm0.32 -6.28c0.03,-0.09 0.18,-0.24 0.31,-0.37 0.12,-0.12 0.25,-0.24 0.25,-0.27 0,0 0.12,-0.15 0.28,-0.31 0.55,-0.58 0.77,-0.83 0.71,-0.83 -0.12,0 -1.35,1.28 -1.35,1.38 -0,0.06 -0.06,0.06 -0.09,0.06 -0.03,-0.03 -0.06,-0.03 -0.06,0 0,0.09 -0.18,0.31 -0.58,0.73 -0.09,0.12 -0.15,0.24 -0.15,0.27 0,0.06 0.03,0.03 0.06,-0.03 0.03,-0.06 0.06,-0.06 0.09,-0.03 0,0.03 0.06,-0.06 0.15,-0.18 0.09,-0.15 0.18,-0.27 0.25,-0.27 0.03,0 0.09,-0.06 0.15,-0.15zm-0.1 4.2c0.03,-0.15 0.09,-0.28 0.12,-0.31 0.03,0 0.06,-0.06 0.06,-0.12 0,-0.09 0.06,-0.21 0.12,-0.34 0.06,-0.12 0.09,-0.24 0.09,-0.27 0,-0.03 0.09,-0.24 0.19,-0.46 0.09,-0.21 0.22,-0.49 0.25,-0.61 0.03,-0.12 0.09,-0.31 0.15,-0.37 0.06,-0.09 0.09,-0.27 0.12,-0.37 0,-0.12 0.06,-0.31 0.12,-0.4l0.25 -0.4c0.15,-0.24 0.15,-0.4 0,-0.27 -0.18,0.15 -0.49,0.8 -0.43,0.89 0.03,0.06 0.03,0.09 -0.03,0.06 -0.09,-0.06 -0.28,0.21 -0.37,0.58 -0.09,0.34 -0.22,0.52 -0.28,0.43 -0.03,-0.03 -0.03,-0.06 0,-0.09 0.09,-0.06 0.15,-0.28 0.03,-0.21 -0.06,0.06 -0.15,0.24 -0.34,0.67 -0.03,0.09 -0.06,0.34 -0.06,0.58 0,0.31 -0.03,0.46 -0.09,0.46 -0.09,0.03 -0.09,0 -0.03,-0.09 0.06,-0.09 0.09,-0.21 0.09,-0.31 0,-0.06 -0.06,-0.03 -0.12,0.12 -0.12,0.31 -0.12,0.37 -0,0.37 0.09,0 0.09,0.03 0.03,0.21l-0.15 0.24c-0.06,0.03 -0.03,0.06 0.03,0.06 0.06,0 0.06,0.03 -0.03,0.12 -0.12,0.06 -0.12,0.09 -0.06,0.09 0.09,0 0.09,0.03 0.03,0.06 -0.12,0.09 -0.18,0.34 -0.18,0.55 0.03,0.21 -0.09,0.27 -0.15,0.12 -0.03,-0.06 -0.03,0 -0.03,0.09 0.03,0.27 0.09,0.27 0.31,0.03 0.15,-0.18 0.25,-0.4 0.19,-0.49 -0.03,-0.03 0.03,-0.09 0.06,-0.18 0.06,-0.12 0.12,-0.31 0.12,-0.46zm-1.14 5.14c0,-0.09 0.03,-0.12 0.03,-0.09 0.03,0.06 0.03,0.15 0,0.18 0,0.06 -0.03,0.03 -0.03,-0.09zm0 -1.84l0.22 -0.21c0.12,-0.12 0.24,-0.31 0.28,-0.4 0.03,-0.12 0.03,-0.18 0,-0.18 -0.12,-0 -0.34,0.24 -0.34,0.37 -0,0.09 -0.03,0.12 -0.06,0.12 -0.03,-0.03 -0.06,0.03 -0.06,0.12l-0.03 0.18zm-0.16 2.45c0,-0.06 0.03,-0.18 0.06,-0.24 0.09,-0.12 0.09,0 0,0.18 -0.03,0.09 -0.06,0.12 -0.06,0.06zm0.98 -2.05c-0.06,0.06 -0.34,1.29 -0.43,1.96 -0.03,0.15 -0.06,0.37 -0.12,0.49l-0.09 0.37c-0.09,0.43 -0.31,1.19 -0.37,1.41 -0.06,0.12 -0.09,0.24 -0.06,0.24 0.06,0 0.09,-0.09 0.12,-0.15 0.28,-0.86 0.65,-2.36 0.83,-3.31 0.03,-0.31 0.12,-0.67 0.16,-0.83 0.03,-0.18 0.03,-0.21 -0.03,-0.18zm-1.05 4.59c0,-0.03 -0.03,-0.03 -0.09,0 -0.03,0 -0.06,0.06 -0.06,0.09 0,0.06 0.03,0.06 0.06,0.03 0.06,0 0.09,-0.06 0.09,-0.12zm0.39 -11.36c0,-0.06 -0.09,0.03 -0.18,0.15l-0.28 0.3c-0.03,0.03 -0.06,0.09 -0.06,0.15 0,0.06 0.49,-0.52 0.52,-0.61zm-0.63 11.94c-0.03,-0.03 -0.06,-0 -0.09,0.09 -0.03,0.09 -0.03,0.09 0.03,0.03 0.06,-0.06 0.09,-0.12 0.06,-0.12zm-0.1 -11.12c-0.06,0.03 -0.06,0.09 -0.03,0.09 0.06,0 0.09,-0.03 0.12,-0.09 0.09,-0.12 0.03,-0.12 -0.09,0zm-0.05 11.48c-0.15,0.06 -0.22,0.34 -0.09,0.34 0.06,0 0.09,-0.03 0.06,-0.09 -0.03,-0.03 0,-0.12 0.06,-0.18 0.06,-0.09 0.06,-0.09 -0.03,-0.06zm-0.28 0.61c-0.03,0 -0.06,0.03 -0.06,0.09 0,0.03 0.03,0.06 0.06,0.06 0.03,0 0.06,-0.03 0.06,-0.06 0,-0.06 -0.03,-0.09 -0.06,-0.09zm-0.2 -5.76c0,0.06 0.4,-0.27 0.58,-0.46 0.09,-0.09 0.15,-0.21 0.12,-0.21 -0.03,-0.06 -0.71,0.61 -0.71,0.67zm0.44 -6.12c0,-0.09 -0.12,0.06 -0.37,0.34 -0.15,0.21 -0.03,0.15 0.18,-0.06 0.09,-0.12 0.18,-0.24 0.18,-0.27zm-0.59 5.27c0.03,0 0.06,-0.06 0.09,-0.12 0.09,-0.18 0.03,-0.21 -0.09,-0.03 -0.03,0.09 -0.06,0.15 0,0.15zm-0.22 5.11c-0.09,0.09 -0.22,0.55 -0.12,0.46 0.03,-0.03 0.06,-0.15 0.12,-0.27 0.03,-0.15 0.03,-0.22 0,-0.18zm-0.24 -3.71c0,0.03 0.06,0.03 0.12,-0.03 0.06,-0.06 0.09,-0.12 0.06,-0.12 -0.03,-0.06 -0.18,0.06 -0.18,0.15zm-0.21 -1.1c0,-0.09 0.34,-0.31 0.43,-0.31 0.03,0 -0.03,0.06 -0.12,0.18 -0.18,0.18 -0.31,0.21 -0.31,0.12zm0.08 8.33c-0.09,0.06 -0.25,0.34 -0.22,0.34 0.03,0 0.09,-0.09 0.15,-0.18 0.09,-0.09 0.09,-0.18 0.06,-0.15zm-0.21 -1.81c-0.06,0.09 -0.06,0.15 -0.03,0.15 0.03,0 0.09,-0.03 0.12,-0.12 0.06,-0.18 0,-0.18 -0.09,-0.03zm0.15 -0.55c0.09,-0.06 0.18,-0.18 0.18,-0.21 0.03,-0.15 -0.03,-0.12 -0.22,0.12l-0.18 0.24 0.22 -0.15zm-0.25 2.85c-0.03,-0.06 -0.06,-0.06 -0.06,-0.03 0,0.09 0.06,0.18 0.12,0.15 0.03,-0.03 0,-0.09 -0.06,-0.12zm-0.52 -1.59c-0.03,0.03 -0.06,0.06 -0.06,0.09 0,0 0.03,0.03 0.06,0.03 0.03,0 0.09,-0.03 0.09,-0.09 0,-0.03 -0.06,-0.03 -0.09,-0.03zm-0.15 0.24c-0.03,0 -0.06,0.06 -0.06,0.09 0,0.06 0.03,0.06 0.06,0.03 0.06,0 0.09,-0.06 0.09,-0.09 0,-0.06 -0.03,-0.06 -0.09,-0.03zm-0.22 0.4c-0.03,-0.06 -0.06,-0.03 -0.09,0.06 -0.03,0.12 -0.03,0.15 0.03,0.09 0.06,-0.03 0.06,-0.12 0.06,-0.15zm-0.42 -6.19c0,0.03 0.03,0.06 0.06,0.06 0.06,0 0.06,-0.03 0.03,-0.06 -0.03,-0.06 -0.06,-0.09 -0.06,-0.09 -0.03,0 -0.03,0.03 -0.03,0.09zm0.22 -4.62c0,-0.09 -0.21,-0.03 -0.24,0.09 -0.03,0.09 -0.03,0.09 0.09,0.03 0.09,-0.06 0.15,-0.09 0.15,-0.12zm2.47 8.33c0.06,-0.06 0.09,-0.18 0.06,-0.21 -0.03,-0.12 0.09,-0.49 0.18,-0.55 0.12,-0.09 0.31,-0.64 0.37,-1.13 0.03,-0.28 0.12,-0.55 0.15,-0.61 0.03,-0.03 0.06,-0.12 0.06,-0.15 -0.03,-0.09 0.09,-0.8 0.22,-1.07 0.03,-0.15 0.06,-0.31 0.06,-0.34 -0.03,-0.03 0,-0.24 0.06,-0.46l0.12 -0.43c0,-0.03 -0.09,0.03 -0.15,0.09 -0.09,0.09 -0.15,0.21 -0.15,0.34 0,0.09 -0.03,0.24 -0.09,0.34 -0.03,0.12 -0.06,0.06 -0.03,-0.15l0.06 -0.28 -0.28 0.24c-0.21,0.24 -0.28,0.34 -0.28,0.61 -0.03,0.18 -0.06,0.37 -0.09,0.4 -0.03,0.03 -0.03,-0.03 0,-0.15 0.03,-0.12 0.03,-0.18 -0.03,-0.18 -0.06,0 -0.09,0.24 -0.09,0.73 0,0.06 -0.03,0.12 -0.06,0.09 -0.03,-0.03 -0.06,0 -0.06,0.06 0,0.06 0.03,0.12 0.09,0.15 0.06,0.03 0.03,0.09 -0.09,0.18 -0.12,0.09 -0.15,0.15 -0.12,0.15 0.12,0 0.12,0.31 0,0.31 -0.06,0 -0.09,0.06 -0.09,0.09 0,0.06 -0.03,0.18 -0.06,0.24 -0.03,0.09 -0.03,0.12 0.03,0.09 0.06,-0.03 0.09,-0.06 0.09,-0.03 0,0.12 -0.25,0.98 -0.28,1.01 -0.03,0 -0.09,0.18 -0.15,0.34 -0.06,0.18 -0.12,0.31 -0.15,0.27 -0.06,-0.03 -0.06,0 -0.03,0.06 0,0.06 0,0.15 -0.03,0.21l-0.06 0.12c-0.09,0.31 -0.15,0.4 -0.28,0.43 -0.06,0.03 -0.12,0.06 -0.09,0.12 0.03,0.03 0.09,0.03 0.12,0 0.09,-0.06 0.06,0.03 -0.06,0.28 -0.06,0.12 -0.18,0.21 -0.24,0.21 -0.06,-0 -0.06,0.06 -0.03,0.18 0,0.09 -0,0.21 -0.06,0.24 -0.03,0.03 -0.06,0 -0.03,-0.03 0.03,-0.06 0.03,-0.09 -0.06,-0.06 -0.06,0.03 -0.09,0.09 -0.06,0.21 0.03,0.09 0,0.12 -0.03,0.06 -0.06,-0.09 -0.18,-0.03 -0.21,0.12 -0.03,0.06 -0,0.09 0.09,0.06 0.06,-0.03 0.09,-0.03 0.09,0 0,0.06 -0.06,0.09 -0.15,0.12 -0.09,0.03 -0.22,0.15 -0.28,0.27 -0.09,0.15 -0.18,0.24 -0.22,0.21 -0.06,0 -0.06,0.03 -0.06,0.06 0.03,0.03 -0.06,0.24 -0.15,0.49 -0.12,0.22 -0.25,0.49 -0.25,0.61 0,0.12 -0.03,0.31 -0.06,0.4 -0.06,0.06 -0.06,0.15 -0.06,0.18 0.03,0.03 0.09,-0.03 0.09,-0.09l0.31 -0.4c0.12,-0.15 0.24,-0.31 0.24,-0.34 0,-0.03 0.06,-0.15 0.15,-0.24 0.22,-0.34 0.68,-1.16 0.68,-1.28 0,-0.06 0.06,-0.21 0.15,-0.31 0.12,-0.12 0.21,-0.31 0.24,-0.43 0.03,-0.12 0.06,-0.22 0.12,-0.22 0.03,0 0.06,-0.03 0.06,-0.09 0,-0.06 0.06,-0.21 0.15,-0.37 0.06,-0.12 0.22,-0.46 0.31,-0.73l0.37 -1.04c0.22,-0.58 0.43,-1.22 0.46,-1.38 0.09,-0.46 0.12,-0.58 0.19,-0.61 0.09,-0.06 -0.34,1.59 -0.59,2.3l-0.28 0.73c-0.06,0.15 -0.12,0.34 -0.19,0.43l-0.15 0.43c-0.09,0.12 -0.12,0.28 -0.12,0.31 0,0.06 -0.09,0.21 -0.15,0.37 -0.09,0.15 -0.15,0.34 -0.15,0.4 0,0.03 -0.03,0.09 -0.06,0.09 -0.03,0 -0.09,0.06 -0.12,0.12 -0.03,0.15 -0.31,0.64 -0.83,1.47 -0.22,0.34 -0.4,0.64 -0.4,0.67 0,0.03 -0.09,0.18 -0.22,0.37 -0.12,0.18 -0.18,0.31 -0.15,0.31 0.03,0 0.18,-0.15 0.31,-0.34 0.15,-0.21 0.28,-0.37 0.28,-0.4l0.34 -0.55c0.15,-0.28 0.34,-0.58 0.4,-0.64 0.28,-0.34 1.48,-2.91 1.38,-3 0,0 0.03,-0.06 0.09,-0.12zm-3.03 -3.22c0.06,0 0.15,-0.06 0.22,-0.18 0.06,-0.09 0.09,-0.18 0.03,-0.18 -0.03,0 -0.09,0.06 -0.12,0.15l-0.12 0.18c-0.06,0.03 -0.06,0.03 0,0.03zm-0.18 0.31c0.06,-0.09 0.15,-0.15 0.15,-0.18 0,-0.06 -0.31,0.15 -0.34,0.24 -0.06,0.12 -0,0.12 0.18,-0.06zm0.14 8.24c-0.12,0.12 -0.24,0.27 -0.24,0.31 0,0.03 -0.03,0.09 -0.09,0.12 -0.06,0 -0.06,0.03 0,0.03 0.06,0 0.18,-0.12 0.31,-0.24 0.31,-0.34 0.31,-0.52 0.03,-0.21zm-0.46 0.06l0.15 -0.15c0.09,-0.09 0.15,-0.18 0.15,-0.21 0,-0.09 -0.15,0.03 -0.24,0.21l-0.06 0.15zm-0.03 -0.83c0.03,-0.09 0.09,-0.21 0.18,-0.31 0.09,-0.12 0.15,-0.21 0.15,-0.27 0,-0.03 -0.09,0.03 -0.18,0.15 -0.12,0.09 -0.18,0.15 -0.18,0.12 0,-0.06 -0.22,0.31 -0.22,0.37 -0.03,0.12 0.21,0.06 0.24,-0.06zm-0.45 -5.85c0,0.12 0.12,-0.12 0.12,-0.24 0,-0.06 -0.03,-0.03 -0.06,0.03 -0.06,0.06 -0.06,0.15 -0.06,0.21zm-0.12 -0.43c0.06,0.09 0.09,0.06 0.09,-0.06 0,-0.06 -0.03,-0.09 -0.06,-0.06 -0.03,0.03 -0.06,0.09 -0.03,0.12zm-0.19 1.9c0.06,-0.06 0.12,-0.15 0.15,-0.24 0.03,-0.09 0.09,-0.12 0.18,-0.09 0.06,0.03 0.09,0 0.09,-0.09 0,-0.06 0.15,-0.24 0.37,-0.43l0.55 -0.64c0.09,-0.15 0.28,-0.4 0.37,-0.49l0.34 -0.43 0.65 -0.76c0.24,-0.31 0.46,-0.61 0.49,-0.76 0,-0.12 0.06,-0.28 0.09,-0.37 0.03,-0.06 -0.15,0.09 -0.43,0.37 -0.64,0.67 -0.71,0.73 -0.8,0.92 -0.09,0.18 -0.31,0.46 -0.77,0.95 -0.22,0.21 -0.4,0.46 -0.46,0.49 -0.43,0.52 -1.17,1.93 -0.83,1.59zm-0.15 -1.41c0.06,0 0.15,-0.09 0.18,-0.21 0.09,-0.18 0.09,-0.22 0,-0.12 -0.18,0.15 -0.28,0.34 -0.18,0.34zm0.57 6.1c-0.06,0.06 -0.15,0.18 -0.15,0.21 0,0.03 -0.12,0.18 -0.28,0.31 -0.15,0.15 -0.22,0.24 -0.18,0.24 0.06,0 0.21,-0.09 0.37,-0.21 0.34,-0.37 0.58,-0.83 0.25,-0.55zm-0.52 -15.77c-0.12,0.09 -0.31,0.61 -0.25,0.61 0.03,0 0.12,-0.12 0.19,-0.24 0.09,-0.27 0.12,-0.46 0.06,-0.37zm-0.15 15.77c0.15,0.06 0.18,0.03 0.15,-0.06 -0.03,-0.06 0.03,-0.18 0.25,-0.31 0.15,-0.12 0.46,-0.43 0.65,-0.7 0.18,-0.24 0.4,-0.55 0.49,-0.64 0.09,-0.12 0.18,-0.21 0.18,-0.24 0,-0.03 0.12,-0.28 0.28,-0.49 0.58,-0.89 1.29,-2.36 1.72,-3.4 0.12,-0.37 0.28,-0.73 0.34,-0.86 0.06,-0.12 0.15,-0.34 0.18,-0.49l0.22 -0.8c0.06,-0.31 0.15,-0.58 0.15,-0.61 0,-0.03 -0.18,0.09 -0.4,0.24 -0.43,0.37 -0.95,0.89 -0.95,0.95 0,0.03 -0.09,0.15 -0.18,0.28 -0.12,0.12 -0.37,0.4 -0.52,0.61 -0.18,0.21 -0.37,0.37 -0.4,0.37 -0.09,0 -0.74,0.67 -0.74,0.79 0,0.06 -0.03,0.09 -0.06,0.09 -0.03,0 -0.09,0.09 -0.12,0.18 -0.03,0.09 -0.06,0.18 -0.09,0.18 -0.03,0 -0.09,0.06 -0.12,0.12 0,0.06 -0.12,0.31 -0.25,0.49l-0.68 1.19c-0.12,0.24 -0.31,0.83 -0.52,1.62l-0.12 0.98c-0.03,0.61 -0,0.67 0.24,0.52 0.06,-0.03 0.18,-0.06 0.31,-0.03zm-0.22 0.37c0,-0.03 0,-0.03 -0.06,-0 -0.03,0.03 -0.09,0.09 -0.12,0.09 -0.28,0 -0.28,0.03 -0.15,0.12 0.15,0.12 0.18,0.12 0.24,0 0.06,-0.06 0.09,-0.15 0.09,-0.21zm0.09 -15.43c-0.09,0.03 -0.4,1.07 -0.46,1.53l-0.09 0.64c0,0.18 -0,0.34 0.03,0.34 0.06,0 0.09,-0.06 0.06,-0.09 0,-0.22 0.12,-0.98 0.22,-1.07 0.03,-0.06 0.06,-0.09 0.03,-0.09 -0.03,0 0.03,-0.31 0.12,-0.64 0.09,-0.34 0.12,-0.61 0.09,-0.61zm-0.79 10.53c0.09,0.15 0.24,0.03 0.24,-0.21 0,-0.12 0.06,-0.31 0.12,-0.37 0.06,-0.06 0.12,-0.15 0.12,-0.22 0,-0.06 0.03,-0.09 0.09,-0.06 0.06,0 0.09,-0.06 0.06,-0.12 0,-0.06 0.03,-0.12 0.06,-0.12 0.03,0.03 0.06,0 0.06,-0.03 0.03,-0.06 0.06,-0.09 0.12,-0.12 0.06,-0.06 0,-0.21 -0.09,-0.21 -0.03,-0 -0.12,0.09 -0.15,0.24l-0.15 0.28c-0.15,0.09 -0.37,0.64 -0.34,0.8 0.06,0.15 0.03,0.15 -0.03,0.09 -0.06,-0.12 -0.18,-0.06 -0.12,0.06zm-0.09 0.21c0,0.12 0.03,0.15 0.03,0.09 0.03,-0.03 0.03,-0.12 0,-0.18 0,-0.03 -0.03,0 -0.03,0.09zm0.32 -9.89c0.03,-0.09 0.03,-0.12 -0.03,-0.09 -0.12,0.06 -0.28,0.64 -0.28,1.04 -0,0.31 0.03,0.31 0.09,0l0.09 -0.52 0.12 -0.43zm0.07 10.32c0.06,-0.03 0.03,-0.06 -0.03,-0.06 -0.09,0 -0.06,-0.03 0.03,-0.09 0.06,-0.06 0.15,-0.15 0.15,-0.21 0,-0.06 0.09,-0.24 0.22,-0.43 0.18,-0.28 0.31,-0.86 0.19,-0.77 -0.03,0.03 -0.06,0.09 -0.06,0.15 0,0.06 -0.06,0.09 -0.09,0.09 -0.06,0 -0.06,0.03 -0.03,0.06 0,0.03 -0.03,0.12 -0.12,0.24 -0.06,0.12 -0.12,0.21 -0.12,0.24 0,0.03 -0.12,0.28 -0.28,0.58 -0.31,0.61 -0.34,0.8 -0.09,0.58 0.12,-0.06 0.18,-0.15 0.18,-0.21 -0.03,-0.06 0,-0.15 0.06,-0.18zm9.79 -10.85l0.06 0c0.03,0.03 0.09,0.03 0.09,0 0,-0.03 0.09,-0.12 0.21,-0.21 0.15,-0.09 0.18,-0.15 0.12,-0.18 -0.06,-0.03 0,-0.06 0.09,-0.06 0.12,0.03 0.18,0 0.18,-0.06 -0.03,-0.06 0.03,-0.06 0.09,-0.03 0.09,0.03 0.12,0.03 0.06,-0.06 -0.03,-0.06 -0.03,-0.06 0.03,-0.03 0.03,0.03 0.18,-0.03 0.28,-0.15l0.12 -0.09 -0.09 -0.09 0.06 0c0.03,0.03 0.03,0.03 0.03,-0.03 0,-0.06 0.09,-0.09 0.18,-0.09 0.09,0 0.21,-0.06 0.22,-0.15 0.03,-0.06 0.09,-0.09 0.15,-0.09 0.03,0.03 0.12,0 0.15,-0.06 0.09,-0.15 0.4,-0.21 0.46,-0.12 0.03,0.06 0,0.09 -0.03,0.09 -0.03,0 -0.06,0.03 -0.09,0.09 0.06,0 0.12,0.03 0.12,0.09 0,0.03 -0.03,0.06 -0.09,0.03 0,-0.03 -0.03,-0.03 -0.03,-0.03l0 0.03c0,0.09 -0.03,0.18 -0.06,0.18 -0.03,0 -0.06,-0.03 -0.06,-0.09l-0.03 -0.03c-0.06,0 -0.09,0 -0.09,0.03 0,0.03 -0.22,0.18 -0.49,0.3 -0.24,0.12 -0.55,0.34 -0.67,0.46 -0.15,0.09 -0.25,0.18 -0.25,0.15 0,-0.03 -0.06,0 -0.15,0.09 -0.22,0.18 -0.19,0.27 0.06,0.12 0.12,-0.09 0.37,-0.21 0.58,-0.34 0.12,-0.06 0.06,-0.12 0.18,-0.21l0.12 -0.09 0.06 0c0.03,0.03 0.18,-0.03 0.34,-0.09l0.31 -0.15 0.18 -0.15 0.03 -0.03c0,-0.09 0.03,-0.12 0.09,-0.06 0.03,-0.03 0.06,-0.06 0.06,-0.09 0,-0.06 0.06,-0.12 0.18,-0.18l0.18 -0.09 0.22 -0.12c0.31,-0.18 0.7,-0.46 0.7,-0.49 0,-0.06 0.06,-0.06 0.12,-0.03 0.06,0.03 0.09,0 0.09,-0.03 0,-0.06 0.06,-0.12 0.15,-0.12 0.12,0 0.12,0 0,-0.03 -0.12,-0.03 -0.12,-0.06 0.03,-0.22 0.06,-0.09 0.18,-0.15 0.24,-0.15 0.03,0 0.09,-0.06 0.12,-0.09 0.03,-0.06 0.12,-0.12 0.22,-0.15 0.37,-0.03 0.24,0.28 -0.19,0.64 -0.24,0.15 -1.1,0.82 -1.1,0.86 -0,0.06 -0.06,0.06 -0.09,0.03l-0.03 -0.03 0 0.06c0,0.06 0,0.06 -0.06,0.09l-0.09 0.12c0.03,-0.03 0.06,-0.03 0.09,-0.03 0.06,0 0.25,-0.12 0.37,-0.24 0.4,-0.43 1.47,-1.07 1.32,-0.73 -0.12,0.21 -1.6,1.68 -1.69,1.68 -0.03,0 -0.03,0.03 -0.03,0.06 0.03,0.09 -0.64,0.64 -0.7,0.61 -0.03,-0.03 -0.06,-0.03 -0.06,0.03 0,0.03 -0.06,0.09 -0.18,0.21l-0.21 -0.03 -0.06 -0.24c0.03,0.43 -0.06,0.43 -0.12,0.27 0.06,0.55 -0.64,0.52 -0.92,0.61 -0.09,0.12 -0.83,0.64 -1.1,0.83 -0.09,0.03 -0.21,0.15 -0.28,0.21l-0.4 0.24c-0.12,0.09 -0.25,0.18 -0.25,0.28 -0.03,0.06 -0.18,0.27 -0.37,0.46 -0.28,0.31 -0.34,0.43 -0.49,1.01 -0.06,0.37 -0.19,0.73 -0.22,0.8 -0.06,0.15 -0.19,0.7 -0.4,1.9 -0.06,0.31 -0.19,0.73 -0.25,0.95l-0.16 0.67c-0.12,0.4 -0.28,0.95 -0.43,1.32l-0.28 0.83c-0.22,0.55 -1.08,2.26 -1.14,2.26 -0.03,0 -0.12,0.15 -0.22,0.31 -0.06,0.15 -0.15,0.31 -0.18,0.31 -0.03,0 -0.06,0.03 -0.06,0.06 -0,0.09 -0.34,0.64 -0.89,1.44 -0.34,0.52 -1.32,1.31 -1.84,1.5 -0.4,0.15 -1.26,0.24 -1.5,0.18l-0.24 -0.12c-0.03,-0.06 -0.15,-0.15 -0.24,-0.22 -0.61,-0.37 -1.07,-0.89 -1.19,-1.29 -0.06,-0.15 -0.12,-0.34 -0.15,-0.37 -0.06,-0.09 -0.15,-1.01 -0.15,-1.56 0,-0.52 0.25,-1.25 0.77,-2.33 0.09,-0.18 0.15,-0.37 0.15,-0.4 0,-0.06 0,-0.09 0.03,-0.09 0.06,0 0.15,-0.15 0.25,-0.31 0.31,-0.58 0.8,-1.38 1.11,-1.74 0.06,-0.03 0.09,-0.09 0.09,-0.12 0,-0.03 0.64,-0.92 0.74,-0.98l0.83 -1.04c0.06,-0.09 0.12,-0.15 0.12,-0.15 0,0.03 0.31,-0.24 0.67,-0.64 0.67,-0.67 0.86,-0.79 0.77,-0.55 -0.03,0.09 0.03,0.06 0.18,-0.09 0.34,-0.31 0.37,-0.37 0.28,-0.46 -0.06,-0.06 -0.03,-0.09 0.06,-0.09 0.06,0 0.09,-0.03 0.09,-0.06 0.03,-0.09 0.67,-0.76 0.77,-0.76 0.09,0 0.06,0.18 -0.06,0.28 -0.12,0.09 -0.12,0.09 0,0.06 0.15,-0.06 0.31,-0.34 0.18,-0.34 -0.06,0 0.03,-0.12 0.22,-0.27 0.24,-0.24 0.31,-0.37 0.43,-0.83 0.25,-1.04 0.68,-2.6 0.83,-2.94 0.06,-0.12 0.09,-0.24 0.06,-0.28 -0.03,-0.03 -0.4,0.37 -0.74,0.79 -0.09,0.15 -0.43,0.55 -0.74,0.83 -1.04,1.07 -1.78,1.87 -2.12,2.23 -0.55,0.7 -1.75,1.19 -2.39,1.07 -0.37,-0.09 -0.83,-0.43 -1.01,-0.74 -0.09,-0.15 -0.27,-0.4 -0.4,-0.52 -0.31,-0.34 -0.49,-0.86 -0.49,-1.44 0,-0.61 0.31,-1.93 0.68,-2.97l0.58 -1.62 0.4 -1.22c0.09,-0.24 0.15,-0.46 0.19,-0.49 0.09,-0.06 0.31,-0.8 0.34,-1.19l0.12 -0.55c0.12,-0.37 0.22,-1.71 0.16,-1.87 -0.09,-0.18 0,-0.58 0.15,-0.67 0.09,-0.06 0.18,-0.03 0.27,0 0.09,0.06 0.24,0.12 0.37,0.12 0.22,0.06 1.04,0.74 1.04,0.89 0,0.06 0.03,0.12 0.09,0.15 0.06,0.03 0.15,0.15 0.18,0.28 0.21,0.4 -0.07,2.48 -0.5,3.74l-0.49 1.44 -0.34 0.92c-0.03,0.09 -0.06,0.18 -0.06,0.22 0,0.06 -0.06,0.21 -0.12,0.37l-0.25 0.55c-0.09,0.15 -0.19,0.49 -0.28,0.73 -0.06,0.24 -0.15,0.49 -0.18,0.52 -0.03,0.03 -0.06,0.15 -0.06,0.25 0,0.09 -0.03,0.18 -0.06,0.18 -0.03,0.03 -0.09,0.24 -0.12,0.49 -0.03,0.22 -0.06,0.49 -0.09,0.58 -0.03,0.15 -0.03,0.18 0.12,0.12 0.37,-0.12 0.8,-0.46 1.59,-1.25 0.46,-0.46 0.86,-0.82 0.89,-0.79 0.03,0.03 0.03,0.03 0.03,0 -0.03,-0.09 0.28,-0.52 0.37,-0.52 0.03,0 0.12,-0.09 0.22,-0.21 0.09,-0.12 0.22,-0.18 0.28,-0.18 0.06,0.03 0.06,0 0.03,-0.09 0,-0.12 0,-0.15 0.06,-0.12 0.03,0.03 0.09,0.03 0.12,-0.03 0.03,-0.03 0.06,-0.06 0.12,-0.03 0.03,0.03 0.06,0.03 0.03,0 0,-0.03 0.09,-0.18 0.18,-0.31 0.12,-0.09 0.34,-0.37 0.55,-0.61 0.18,-0.18 0.34,-0.4 0.34,-0.43 0,-0.03 0.15,-0.21 0.31,-0.43 0.18,-0.18 0.34,-0.34 0.34,-0.37 0,-0.03 0.06,-0.09 0.64,-0.7 0.22,-0.21 0.37,-0.43 0.4,-0.46 0,-0.06 0.09,-0.12 0.18,-0.18 0.09,-0.03 0.18,-0.15 0.22,-0.21 0.03,-0.09 0.09,-0.15 0.15,-0.15 0.06,0 0.12,-0.09 0.15,-0.18 0.03,-0.12 0.06,-0.18 0.12,-0.15 0.03,0.03 0.09,-0.06 0.15,-0.21 0.06,-0.12 0.12,-0.21 0.15,-0.21 0.06,0.03 0.28,-0.18 0.25,-0.21 0,0 0.06,-0.15 0.15,-0.27 0.15,-0.21 0.15,-0.21 0.12,-0.09 -0.03,0.18 -0.03,0.18 0.06,0.06 0.06,-0.09 0.12,-0.18 0.12,-0.21 0,-0.06 0.77,-1.19 0.95,-1.38 0.03,-0.03 0.09,-0.12 0.09,-0.18 0,-0.15 0.31,-0.27 0.7,-0.3 0.28,-0.03 0.28,-0.03 0.15,0.09 -0.15,0.09 -0.12,0.09 0.15,0.09 0.18,0 0.31,0.03 0.31,0.09 0,0.03 0.12,0.09 0.31,0.12 0.21,0.06 0.28,0.12 0.31,0.31 0.03,0.09 0.03,0.22 -0.03,0.24 -0.03,0.06 -0.06,0.21 -0.06,0.37 -0,0.15 -0.03,0.28 -0.06,0.31 -0.06,0.03 -0.12,0.15 -0.18,0.27 -0.06,0.15 -0.25,0.4 -0.37,0.61 -0.15,0.18 -0.28,0.43 -0.31,0.55l-0.15 0.4c-0.06,0.12 -0.12,0.34 -0.15,0.46 -0.03,0.12 -0.06,0.24 -0.09,0.24l-0.25 0.46c-0.4,0.83 -1.41,2.91 -1.44,3.06 -0.15,0.37 -0.4,1.16 -0.34,1.19 0,0.03 0.03,-0.03 0.06,-0.09 0.03,-0.15 0.34,-0.37 0.52,-0.4 -0.09,0.03 -0.28,0.15 -0.34,0.24 -0.09,0.09 -0.03,0.09 0.12,-0.03 0.12,-0.09 0.24,-0.18 0.24,-0.21z"/>
     <path class="fil1" d="M125.75 55.17c-0.03,0.03 -0.06,0.06 -0.06,0.09 0,0 0.03,-0.03 0.06,-0.09zm-0.09 0.12c-0.03,0 -0.18,-0.15 -0.15,-0.09 0,0.06 -0.03,0.12 -0.06,0.12 -0.03,0 -0.24,0.21 -0.49,0.46 -0.37,0.4 -0.4,0.43 -0.24,0.46 0.12,0.03 0.15,0.03 0.06,-0.06 -0.06,-0.06 -0.06,-0.09 0.03,-0.09 0.09,0 0.46,-0.4 0.86,-0.8zm-2.27 1.19c-0.46,0.24 -0.49,0.37 -0.03,0.15 0.12,-0.06 0.24,-0.15 0.28,-0.21 0.03,-0.03 -0.09,0 -0.25,0.06zm-0.43 0.3c0,-0.03 -0.03,-0.06 -0.06,-0.03 -0.03,0 -0.06,0.03 -0.06,0.06 0,0.06 0.03,0.06 0.06,0.03 0.06,-0.03 0.06,-0.06 0.06,-0.06zm-1.31 -2.45c-0,0.12 0.03,0.12 0.09,0.03 0,-0.03 0,-0.09 -0.03,-0.12 -0.03,0 -0.06,0.03 -0.06,0.09zm0.58 0.92c0.12,-0.73 0.12,-1.1 0,-1.87 -0.12,-0.67 -0.27,-0.74 -0.18,-0.09 0.12,0.8 -0,2.39 -0.16,2.39 -0.03,0 -0.06,0.03 -0.03,0.06 0.06,0.06 -0.06,0.64 -0.19,0.98 -0.09,0.18 -0.06,0.21 0.03,0.22 0.03,0 0.12,-0.03 0.12,-0.09 0.03,-0.03 0.09,-0.03 0.12,-0.03 0.06,0.03 0.06,0.03 0.03,-0.03 -0.03,-0.03 -0.03,-0.15 0.03,-0.24 0.06,-0.09 0.09,-0.27 0.09,-0.43 0,-0.15 0.06,-0.52 0.12,-0.86zm-0.58 -1.93c0,-0.03 0,-0.09 -0.03,-0.12 -0.03,-0.03 -0.03,0.03 -0.03,0.09 0.03,0.09 0.03,0.09 0.06,0.03zm-0.34 2.6c0,-0.06 -0.03,-0.03 -0.06,0.06 -0.03,0.12 0,0.15 0.03,0.09 0.06,-0.03 0.06,-0.12 0.03,-0.15zm-0.15 -0.7c-0.03,-0.03 -0.03,0 -0.03,0.09 0.03,0.09 0.03,0.09 0.06,0.03 0,-0.06 0,-0.12 -0.03,-0.12zm-0.3 -1.38c-0.03,-0.09 0,-0.12 0.03,-0.09 0,0.03 0.03,0.09 0,0.12 0,0.06 -0.03,0.06 -0.03,-0.03zm-0.12 -1.04c0,-0.06 0,-0.12 0.03,-0.09 0.03,0.03 0.03,0.09 0.03,0.15 -0.03,0.06 -0.03,0.03 -0.06,-0.06zm-0.03 -1.84l0.06 0.24c0.27,1.07 0.36,1.75 0.33,2.7 -0,0.4 -0.09,0.7 -0.22,0.67 -0.06,-0.06 -0.06,0.06 0.03,0.21 0.03,0.12 0.06,0.09 0.15,-0.09 0.03,-0.12 0.06,-0.21 0.06,-0.21 -0.03,0 0,-0.09 0.06,-0.18 0.12,-0.24 0.15,-0.64 0.1,-1.41 -0.09,-0.8 -0.21,-1.26 -0.43,-1.62l-0.15 -0.31zm0.11 4.32c0,-0.06 -0.03,-0.09 -0.06,-0.06 -0.06,0 -0.09,0.03 -0.06,0.09 0,0.06 0.03,0.09 0.06,0.09 0.06,-0.03 0.06,-0.09 0.06,-0.12zm-0.15 -3.22c-0.03,-0.06 0,-0.12 0.03,-0.09 0.03,0.03 0.03,0.09 -0,0.15 0,0.06 -0.03,0.03 -0.03,-0.06zm-0.07 3.61c0,-0.03 -0.03,0.03 -0.03,0.09 0.03,0.09 0.06,0.09 0.06,0.03 0.03,-0.03 0,-0.09 -0.03,-0.12zm-0.09 0.89c0,-0.03 -0.06,0.03 -0.12,0.15 -0.06,0.15 -0.12,0.28 -0.12,0.31 0,0.06 0.06,-0.03 0.12,-0.15 0.09,-0.12 0.12,-0.24 0.12,-0.31zm0.73 2.08c-0.09,-0.03 -0.18,0.03 -0.28,0.27 -0.06,0.15 -0.18,0.37 -0.25,0.46 -0.06,0.09 -0.12,0.21 -0.12,0.24 0,0.03 -0.12,0.24 -0.25,0.46 -0.15,0.21 -0.28,0.43 -0.25,0.46 0,0.03 -0.06,0.09 -0.12,0.09 -0.06,0.03 -0.06,0.12 -0.03,0.18 0.06,0.12 0.28,0 0.43,-0.31l0.4 -0.52c0.15,-0.15 0.25,-0.34 0.25,-0.43 0,-0.12 0,-0.12 0.09,-0.03 0.06,0.09 0.06,0.09 0.06,-0.06 -0.03,-0.15 0.06,-0.4 0.22,-0.58 0.09,-0.12 0.03,-0.21 -0.15,-0.24zm-1.32 0.21c0,0 0.09,-0.12 0.15,-0.24 0.03,-0.12 0.06,-0.21 0.03,-0.21 -0.03,0 -0.09,0.12 -0.15,0.24 -0.06,0.12 -0.06,0.21 -0.03,0.21zm-0.18 0.18l-0.22 0.37c-0.12,0.21 -0.12,0.21 0.03,0.12 0.06,-0.06 0.09,-0.12 0.09,-0.15 -0.03,-0.03 -0.03,-0.06 0,-0.06 0.06,0 0.12,-0.09 0.15,-0.21 0.06,-0.22 0.06,-0.22 -0.06,-0.06zm-0.06 0.98c-0.03,-0.03 -0.06,0 -0.09,0.12 -0.03,0.12 -0.06,0.18 -0.09,0.18 -0.09,-0.06 -0.22,0.09 -0.18,0.28 0,0.06 0.03,0.12 0.03,0.12 0,0 0.12,-0.15 0.22,-0.31 0.15,-0.21 0.18,-0.34 0.12,-0.4zm-0.27 -0.18c0.06,-0.09 0.06,-0.15 0.03,-0.15 -0.06,0 -0.12,0.06 -0.15,0.15 -0.03,0.09 -0.06,0.15 -0.03,0.15 0,0 0.09,-0.06 0.15,-0.15zm-0.19 0.86c-0.03,-0.03 -0.06,0.03 -0.09,0.09 -0.03,0.09 -0.03,0.12 0.03,0.03 0.06,-0.06 0.06,-0.09 0.06,-0.12zm0.99 -3.92c0.09,-0.18 0.15,-0.43 0.15,-0.52 0.03,-0.09 0.09,-0.15 0.15,-0.12 0.09,0.03 0.12,0 0.06,-0.18 -0.06,-0.12 -0.06,-0.28 -0.03,-0.34 0.06,-0.12 0.09,-0.12 0.15,0.03 0.09,0.18 0.09,0.18 0.12,0 0,-0.09 0,-0.12 -0.03,-0.12 -0.03,0.03 -0.09,0 -0.12,-0.09 -0.06,-0.15 0.06,-0.61 0.15,-0.55 0.03,0.03 0.03,0 0,-0.09 -0.06,-0.18 -0.03,-0.67 0.06,-0.55 0.09,0.15 0.15,-0.27 0.06,-0.67 0,-0.15 -0.03,-0.15 -0.06,-0.03 -0.06,0.15 -0.06,0.15 -0.06,-0.03 -0.03,-0.09 0,-0.21 0.06,-0.27 0.12,-0.12 0.09,-0.7 -0.03,-0.67 -0.03,-0 -0.09,-0.03 -0.09,-0.09 0,-0.03 0.03,-0.06 0.09,-0.03 0.12,0.06 -0.09,-0.95 -0.24,-1.04 -0.06,-0.03 -0.09,-0.12 -0.12,-0.15 0,-0.06 -0.03,-0.06 -0.06,-0.03 -0.03,-0 -0.09,-0 -0.09,-0.09 0,-0.06 -0.03,-0.09 -0.09,-0.09 -0.06,0 -0.03,-0.03 0,-0.12 0.09,-0.12 0.09,-0.12 -0.09,-0.06 -0.24,0.09 -0.64,0.46 -0.64,0.61 -0.03,0.09 -0.09,0.24 -0.15,0.34 -0.09,0.15 -0.09,0.24 -0.03,0.52 0.09,0.4 0.03,0.58 -0.46,1.16 -0.37,0.46 -0.37,0.49 -0.34,0.89 0.06,0.64 0.4,1.72 0.61,2.08 0.52,0.8 0.89,0.92 1.07,0.34zm-1.75 4.74c-0.06,-0.03 -0.18,0.03 -0.28,0.12l-0.12 0.18 0.28 -0.15c0.18,-0.09 0.22,-0.15 0.12,-0.15zm0.74 -2.05c-0.03,-0.03 0.09,-0.24 0.22,-0.46l0.25 -0.55c0,-0.09 0.06,-0.18 0.09,-0.18 0.03,-0.03 -0.09,-0.15 -0.24,-0.25 -0.37,-0.22 -1.07,-0.8 -1.07,-0.89 0,-0.03 -0.03,-0.06 -0.06,-0.09 -0.03,0 -0.24,-0.25 -0.43,-0.52l-0.55 -0.67 -0.18 -0.18 -0.31 0.43c-0.15,0.21 -0.31,0.49 -0.34,0.58l-0.24 0.49c-0.28,0.52 -0.68,1.56 -0.68,1.71 0,0.06 -0.06,0.34 -0.15,0.64l-0.19 0.67c0,0.09 -0.03,0.18 -0.03,0.21 -0.09,0.12 0.06,1.41 0.24,1.75l0.15 0.37 0.4 -0.06c0.34,-0.06 0.52,-0.12 0.8,-0.34 0.22,-0.15 0.49,-0.37 0.64,-0.52 0.43,-0.43 1.23,-1.38 1.26,-1.53 0,-0.09 0.06,-0.12 0.12,-0.09 0.03,0 0.06,0 0,-0.06 -0.03,-0.03 0.03,-0.15 0.12,-0.24 0.09,-0.09 0.18,-0.18 0.18,-0.21zm-4.96 -2.15c0,0.12 0.06,0.09 0.09,-0.06 0.03,-0.06 0,-0.09 -0.03,-0.06 -0.03,0.03 -0.06,0.09 -0.06,0.12zm0.18 0.43c-0.03,0 -0.06,0.09 -0.09,0.22 0,0.12 -0.06,0.31 -0.12,0.43 -0.15,0.27 -0.37,1.59 -0.28,1.59 0.03,0 0.06,-0.15 0.06,-0.31 0,-0.18 0.06,-0.4 0.12,-0.52 0.03,-0.12 0.06,-0.21 0.03,-0.21 -0.03,-0 -0.03,-0.03 0,-0.09 0.12,-0.15 0.37,-1.1 0.28,-1.1zm-0.52 2.36c-0.03,-0.03 -0.03,0.03 -0.03,0.15 0.03,0.12 0.06,0.15 0.06,0.09 0,-0.09 0,-0.18 -0.03,-0.24zm-0.03 -1.53c0.03,-0.12 0.06,-0.31 0.06,-0.37 0,0 0.06,-0.18 0.12,-0.4 0.06,-0.18 0.09,-0.34 0.06,-0.31 -0.21,0.15 -0.49,1.84 -0.43,2.36 0.03,0.22 0.03,0.22 0.06,0.06 0,-0.09 0,-0.37 0.03,-0.58 0.03,-0.24 0.03,-0.46 0.06,-0.52 0,-0.06 0,-0.18 0.03,-0.24zm12.96 -4.11c-0.18,0.15 -0.4,0.58 -0.34,0.64 0.03,0.03 0.09,0 0.12,-0.09 0.15,-0.21 0.21,-0.15 0.09,0.09 -0.12,0.21 -0.18,0.34 -0.37,0.55 -0.15,0.21 -0.12,0.28 0.06,0.09 0.06,-0.09 0.18,-0.18 0.24,-0.24 0.09,-0.03 0.09,-0.03 0,0.09l-0.22 0.28 -0.77 0.83c-0.37,0.37 -0.64,0.46 -0.83,0.61 -0.15,0.18 -0.4,0.09 -0.43,0.12 -0.09,0.15 -0.61,0.52 -0.67,0.52 -0.06,0 -0.15,0.09 -0.25,0.21 -0.15,0.18 -0.67,0.37 -1.41,0.52l-0.4 0.06 -0.09 0.4c-0.03,0.18 -0.19,0.55 -0.31,0.8 -0.12,0.24 -0.24,0.43 -0.22,0.46 0,0.03 -0.09,0.12 -0.18,0.24 -0.09,0.09 -0.15,0.22 -0.15,0.24 0,0.03 -0.12,0.18 -0.25,0.37 -0.15,0.21 -0.28,0.37 -0.28,0.4 0.03,0.09 -1.01,1.28 -1.32,1.53 -0.55,0.43 -1.59,0.7 -2.3,0.61 -0.77,-0.12 -1.01,-0.22 -1.19,-0.37 -0.12,-0.09 -0.27,-0.15 -0.34,-0.15 -0.06,0 -0.73,-0.71 -0.76,-0.83 0,-0.03 -0.12,-0.28 -0.31,-0.52 -0.52,-0.86 -0.67,-1.23 -0.73,-1.87 -0.06,-0.74 0,-1.5 0.19,-2.3 0.06,-0.31 0.12,-0.64 0.12,-0.7 0,-0.06 0.03,-0.18 0.09,-0.22 0.06,-0.12 0.15,-0.37 0.15,-0.46 0,0 0.06,-0.15 0.15,-0.34 0.09,-0.15 0.22,-0.43 0.28,-0.61 0.19,-0.46 0.74,-1.44 1.17,-2.02 0.77,-1.1 0.86,-1.25 1.32,-1.84 0.25,-0.31 0.46,-0.58 0.43,-0.61 -0.03,0 0.19,-0.52 0.28,-0.58 0.03,-0.03 0.24,-0.12 0.46,-0.18l0.46 -0.21c0.06,-0.06 0.4,-0.09 0.8,-0.09 0.58,0 0.74,0.03 1.16,0.22 0.58,0.25 1.5,1.01 1.8,1.44 0.21,0.37 0.21,0.4 0.4,1.78 0.12,0.86 0.15,1.16 0.09,1.5 -0.06,0.21 -0.12,0.61 -0.15,0.83l-0.19 0.92c-0.03,0.09 0,0.09 0.09,0.06 0.28,-0.09 1.23,-0.37 2.24,-1.31 0.43,-0.43 1.23,-0.79 1.53,-1.01l0.28 -0.18 -0.15 0.21c-0.09,0.09 -0.18,0.18 -0.22,0.18 -0.03,0 -0.15,0.09 -0.24,0.21 -0.15,0.18 -0.15,0.18 -0.03,0.15 0.15,-0.03 0.15,-0.03 0.06,0.18l-0.06 0.09c0.37,-0.4 0.71,-0.83 0.74,-0.95 0.03,-0.15 0.15,-0.18 0.15,-0.03 0.03,0.06 0.03,0.06 0.09,-0.03 0.03,-0.09 0.06,-0.06 0.09,0.06 0.06,0.09 0.06,0.18 -0,0.24z"/>
     <path class="fil1" d="M141.13 54.83c0,-0.06 0.03,-0.12 0.06,-0.12 0.03,-0.03 0.06,0.03 0.03,0.09 -0.06,0.18 -0.12,0.18 -0.09,0.03zm-3.38 3.94c0.06,0.06 -0.15,0.34 -0.22,0.34 -0.03,0 0,-0.09 0.06,-0.18l0.15 -0.15zm0.34 -0.43c0.03,0 0.12,-0.09 0.15,-0.18 0.15,-0.27 0.12,-0.31 -0.09,-0.06 -0.09,0.15 -0.15,0.27 -0.15,0.34 0.06,0.15 -0.12,0.34 -0.22,0.27 -0.09,-0.03 -0.46,0.37 -0.46,0.52 0,0.03 0.03,0 0.06,-0.03 0.06,-0.09 0.09,-0.09 0.09,0 0.03,0.06 0.18,-0.09 0.37,-0.31 0.28,-0.34 0.34,-0.43 0.25,-0.49 -0.03,-0.03 -0.06,-0.06 0,-0.06zm-2.99 -5.27c0,-0.06 -0.31,0.43 -0.34,0.52 0,0.12 0.09,0.03 0.22,-0.21 0.06,-0.15 0.12,-0.27 0.12,-0.31zm-0.06 -0.21c0.15,-0.28 0.25,-0.55 0.22,-0.58 -0.09,-0.09 -0.18,0.06 -0.46,0.7 -0.31,0.7 -0.19,0.64 0.24,-0.12zm-0.74 2.26c-0.03,-0.03 -0.06,0.03 -0.09,0.09 -0.06,0.09 -0.06,0.09 0.03,0.03 0.06,-0.03 0.09,-0.09 0.06,-0.12zm-0.27 -0.37c0,0.03 0.03,0 0.09,-0.03 0.03,-0.06 0.06,-0.15 0.06,-0.18 0.03,-0.06 -0.03,-0.03 -0.06,0.03 -0.03,0.06 -0.09,0.12 -0.09,0.18zm-0.19 1.65c-0.03,-0.03 -0.03,0.03 -0.06,0.09 -0,0.09 0.03,0.12 0.06,0.06 0.03,-0.06 0.03,-0.12 0,-0.15zm-0.03 -0.52l-0.15 0.21 0.18 -0.12c0.12,-0.06 0.22,-0.12 0.22,-0.18 0,-0.03 0.03,-0.09 0.06,-0.18 0.09,-0.18 -0.12,-0.03 -0.31,0.27zm-0.31 1.16c-0.09,-0.09 -0.12,-0.09 -0.12,0.06 0,0.09 -0.06,0.24 -0.12,0.34 -0.12,0.12 -0.22,0.52 -0.31,1.32 -0.06,0.46 -0.06,0.49 0.06,0.37 0.06,-0.09 0.12,-0.21 0.12,-0.31 0,-0.09 0.09,-0.37 0.19,-0.64 0.28,-0.77 0.31,-0.98 0.19,-1.13zm-0.59 2.42l-0.09 -0.22 -0 0.34c0,0.18 0.03,0.37 0.03,0.43 0,0.15 0.06,0.06 0.12,-0.15 0.03,-0.09 0,-0.28 -0.06,-0.4zm-0.24 -3.09c-0.06,0.06 -0.12,0.15 -0.12,0.15 0,0.03 -0.03,0 -0.03,-0.03 0,-0.06 0.06,-0.12 0.15,-0.18 0.12,-0.09 0.12,-0.09 0,0.06zm-0.31 0.34c0,0.03 -0.03,0.09 -0.12,0.15 -0.12,0.12 -0.12,0.12 -0.03,-0.03 0.06,-0.09 0.12,-0.12 0.15,-0.12zm-0.77 0.92l0.15 -0.15 -0.12 0.21c-0.15,0.18 -0.21,0.24 -0.21,0.12 0,-0.03 0.09,-0.12 0.18,-0.18zm-0.46 2.39c0,0.03 -0.03,0.06 -0.06,0.06 -0.03,0 -0.09,-0.03 -0.06,-0.09 0,-0.03 0.03,-0.06 0.06,-0.06 0.03,0 0.06,0.03 0.06,0.09zm-0.24 -1.78c-0.03,0.03 0.03,0.03 0.09,-0.03 0.06,-0.03 0.12,-0.09 0.12,-0.15 0,-0.03 -0.03,-0.03 -0.12,0.03 -0.06,0.03 -0.09,0.09 -0.09,0.15zm2.09 -2.51c-0.03,-0.06 -0.03,-0.06 0.03,-0.03 0.03,0.03 0.12,-0.06 0.18,-0.24 0.03,-0.18 0.12,-0.43 0.19,-0.55 0.15,-0.43 0.03,-0.34 -0.15,0.09 -0.06,0.21 -0.18,0.4 -0.22,0.4 -0.03,0 -0.06,0.03 -0.06,0.09 0,0.09 -0.28,0.34 -0.31,0.28 -0.03,0 -0.03,0.06 -0.06,0.18 0,0.18 0,0.18 0.06,0.03 0.06,-0.09 0.12,-0.15 0.15,-0.15 0.03,0 0,0.06 -0.06,0.18 -0.12,0.15 -0.15,0.15 -0.24,0.06 -0.09,-0.09 -0.09,-0.06 -0.06,0.06 0,0.12 0,0.15 -0.06,0.12 -0.03,-0.03 -0.06,0 -0.03,0.09 0.03,0.12 0.03,0.12 -0.06,0.03 -0.09,-0.09 -0.09,-0.09 -0.06,0.03 0.03,0.06 -0.03,0.15 -0.12,0.21 -0.09,0.09 -0.15,0.15 -0.12,0.18 -0,0.03 -0.03,0.09 -0.12,0.12 -0.09,0.06 -0.15,0.12 -0.15,0.18 0,0.06 -0.06,0.15 -0.12,0.15 -0.06,0.03 -0.09,0.09 -0.06,0.15 0,0.09 0,0.09 -0.06,0.06 -0.03,-0.03 -0.09,0 -0.09,0.06 0,0.06 -0.03,0.12 -0.06,0.12 -0.06,0 -0.06,0.03 -0.06,0.06 0.03,0.03 0,0.09 -0.06,0.12 -0.12,0.03 -0.12,0.03 -0.03,0.18 0.12,0.12 0.12,0.12 -0.03,0.27 -0.22,0.18 -0.31,0.18 -0.34,0 0,-0.06 -0.03,-0.06 -0.03,0.06 0,0.09 0,0.18 -0.03,0.18 -0.12,-0.03 -0.43,0.34 -0.4,0.43 0,0.06 0,0.09 -0.03,0.06 -0.12,-0.06 -0.28,0.12 -0.28,0.34 0,0.06 -0.03,0.06 -0.06,-0.03 -0.06,-0.06 -0.09,-0.03 -0.15,0.12 -0.06,0.12 -0.12,0.24 -0.18,0.21 -0.09,-0 -0.31,0.21 -0.31,0.31 -0,0.15 0.31,-0.09 1.04,-0.76 0.77,-0.7 1.23,-1.22 2.15,-2.26 0.4,-0.49 0.61,-0.98 0.49,-1.22zm-6.68 3.42c-0.03,-0.03 -0.06,0.03 -0.06,0.09 0,0.09 0.03,0.09 0.06,0.06 0.03,-0.06 0.03,-0.12 0,-0.15zm0.77 -3.92l-0.09 0.21c-0.09,0.18 -0.34,1.1 -0.49,1.74l-0.09 0.37c-0.22,0.7 -0.37,1.41 -0.37,1.71 -0,0.21 -0,0.21 0.09,-0.15 0.06,-0.21 0.12,-0.37 0.15,-0.34 0.03,0.03 0.03,-0.06 0.03,-0.18 0,-0.15 0.06,-0.52 0.15,-0.86 0.19,-0.61 0.46,-1.75 0.56,-2.27l0.06 -0.24zm14.15 0.3c-0.06,0.09 -0.12,0.27 -0.12,0.37 0,0.12 -0.03,0.21 -0.06,0.24 -0.06,0.03 -0.06,0.09 -0.09,0.09 0,0.03 -0.06,0.21 -0.18,0.37 -0.09,0.15 -0.92,1.35 -0.92,1.38 -0.03,0.37 -1.29,2.11 -1.96,2.72 -0.28,0.24 -0.55,0.55 -0.64,0.67 -0.09,0.12 -0.18,0.21 -0.25,0.21 -0.06,0 -0.22,0.09 -0.37,0.24 -0.18,0.12 -0.49,0.3 -0.83,0.4 -0.55,0.15 -0.61,0.15 -1.04,0.06 -0.73,-0.12 -1.38,-0.62 -1.96,-1.47 -0.46,-0.71 -0.55,-0.98 -0.46,-1.69 0.03,-0.31 0.03,-0.55 0,-0.55 -0.03,0 -0.12,0.09 -0.18,0.21 -0.09,0.09 -0.4,0.4 -0.74,0.67 -0.4,0.37 -0.55,0.55 -0.52,0.64 0.03,0.09 0.03,0.12 -0.06,0.06 -0.06,-0.03 -0.06,-0.03 -0.03,0.03 0.06,0.09 -0.22,0.43 -0.34,0.43 -0.06,0 -0.09,0.03 -0.09,0.06 0,0.09 -0.64,0.64 -0.74,0.64 -0.06,-0.03 -0.12,-0 -0.12,0.03 -0.03,0.03 -0.15,0.15 -0.31,0.24 -0.25,0.15 -0.4,0.18 -0.86,0.18 -0.74,0.03 -1.07,-0.06 -1.62,-0.49 -0.46,-0.34 -0.79,-0.83 -1.19,-1.66 -0.24,-0.52 -0.27,-0.55 -0.21,-1.13 0,-0.34 0.09,-0.83 0.19,-1.1l0.34 -1.41c0.43,-1.84 0.8,-3.06 1.42,-4.62 0.22,-0.58 0.25,-0.73 0.31,-1.01 0.03,-0.18 0.34,-0.37 0.61,-0.34 0.15,0 0.31,0 0.34,-0.03 0.12,-0.06 0.55,0.03 0.8,0.19 0.12,0.06 0.24,0.12 0.31,0.12 0.09,0 0.18,0.22 0.33,0.92l0.12 0.52 -0.22 0.49c-0.12,0.28 -0.22,0.55 -0.22,0.58 0,0.06 -0.09,0.24 -0.22,0.46 -0.12,0.18 -0.28,0.61 -0.4,0.92 -0.34,0.98 -0.99,3.09 -0.99,3.21 0,0.09 -0.09,0.4 -0.19,0.73 -0.34,1.19 -0.49,2.27 -0.34,2.45 0,0 0.12,-0.03 0.25,-0.09 0.12,-0.03 0.24,-0.09 0.31,-0.09 0.09,0 0.89,-0.7 1.26,-1.1l0.49 -0.52c0.92,-0.95 2.61,-3 2.49,-3 -0.03,0 -0.03,-0.03 0,-0.06 0.09,-0.06 0.67,-0.83 0.67,-0.89 0,-0.03 0.18,-0.27 0.37,-0.55 0.4,-0.61 0.58,-0.89 0.71,-1.16 0.06,-0.09 0.12,-0.18 0.15,-0.18 0.03,0 0.09,-0.06 0.09,-0.12 0,-0.06 0.09,-0.31 0.25,-0.52 0.12,-0.24 0.31,-0.61 0.37,-0.8 0.15,-0.4 0.31,-0.58 0.61,-0.7 0.15,-0.06 0.18,-0.06 0.28,0.06 0.06,0.09 0.15,0.15 0.18,0.12 0,-0.03 0.03,0 0.03,0.06 -0,0.06 0.03,0.03 0.06,-0.06 0.09,-0.28 0.43,-0.27 0.67,0.03 0.12,0.12 0.24,0.24 0.31,0.24 0.03,0 0.06,0.03 0.06,0.09 -0.03,0.03 0.03,0.12 0.06,0.18 0.18,0.25 -0.03,1.16 -0.4,1.87 -0.18,0.31 -0.4,0.76 -0.52,1.01 -0.09,0.24 -0.25,0.55 -0.34,0.73 -0.15,0.31 -0.22,0.46 -0.37,1.07 -0.09,0.24 -0.31,0.98 -0.49,1.65 -0.43,1.41 -0.62,2.14 -0.62,2.75 0,0.25 -0,0.43 0.03,0.43 0,0.03 0.18,-0.06 0.37,-0.15 0.22,-0.09 0.7,-0.46 1.17,-0.89 0.98,-0.92 1.01,-0.95 1.81,-1.93 0.74,-0.95 1.63,-2.11 2.24,-2.81 0.28,-0.3 0.46,-0.61 0.65,-0.86 0.34,-0.46 0.43,-0.55 0.34,-0.28 0.03,0.25 0.18,0.58 -0.92,1.32 -0.24,0.31 -0.43,0.61 -0.43,0.73 -0.03,0.22 -0.22,0.46 -0.34,0.46 -0.06,0 -0.86,1.07 -0.89,1.13 0,0.09 -0.06,0.24 -0.15,0.4 -0.06,0.12 -0.09,0.21 -0.06,0.21 0.03,0 0.09,0 0.09,-0.03 0.06,-0.12 1.17,-1.53 1.47,-1.8 0.15,-0.15 0.28,-0.31 0.24,-0.31 -0.03,-0.03 0,-0.06 0.03,-0.06 0.06,0 0.09,-0.03 0.12,-0.12 0,-0.09 0,-0.09 0.06,0 0.06,0.09 0.06,0.09 0.06,-0.03 0,-0.15 0.43,-0.83 0.55,-0.83 0.03,0 -0,0.06 -0.09,0.15 -0.09,0.09 0,0.09 -0.06,0.18 -0.03,0.06 0.06,0 0.18,-0.15 0.18,-0.18 0.09,-0.18 0.06,-0.28 0,-0.09 0,-0.12 0.03,-0.06 0.03,0.06 0.06,0.06 0.09,0.06 0.12,-0.06 0.24,0.21 0.12,0.4z"/>
     <polygon class="fil1" points="0.79,60.85 3.8,47.31 6.74,47.31 3.73,60.85 "/>
     <path class="fil1" d="M14.98 60.85l-2.9 0 1.32 -6.05c0.1,-0.42 0.15,-0.79 0.15,-1.1 0,-0.76 -0.35,-1.14 -1.04,-1.14 -0.59,0 -1.13,0.35 -1.61,1.06 -0.48,0.7 -0.86,1.69 -1.14,2.95l-0.95 4.29 -2.9 0 2.29 -10.36 2.22 0 -0.2 1.92 0.06 0c0.94,-1.41 2.08,-2.11 3.42,-2.11 0.89,0 1.57,0.26 2.06,0.77 0.49,0.52 0.73,1.25 0.73,2.21 0,0.45 -0.07,1.01 -0.22,1.67l-1.28 5.9z"/>
     <path class="fil1" d="M25.21 57.44c0,1.16 -0.4,2.05 -1.2,2.67 -0.8,0.62 -1.91,0.93 -3.34,0.93 -0.69,0 -1.29,-0.05 -1.8,-0.14 -0.51,-0.09 -0.99,-0.25 -1.43,-0.46l0 -2.3c1.01,0.56 2.04,0.83 3.08,0.83 0.51,0 0.94,-0.1 1.26,-0.3 0.33,-0.2 0.49,-0.47 0.49,-0.82 0,-0.26 -0.12,-0.5 -0.36,-0.71 -0.24,-0.21 -0.66,-0.48 -1.26,-0.8 -0.78,-0.42 -1.32,-0.84 -1.63,-1.26 -0.31,-0.42 -0.46,-0.91 -0.46,-1.48 0,-1.05 0.36,-1.86 1.07,-2.44 0.71,-0.58 1.72,-0.87 3.04,-0.87 1.29,0 2.46,0.29 3.5,0.88l-0.95 1.99c-0.9,-0.52 -1.73,-0.78 -2.49,-0.78 -0.37,0 -0.66,0.08 -0.89,0.24 -0.23,0.16 -0.34,0.37 -0.34,0.63 0,0.24 0.1,0.45 0.31,0.63 0.21,0.18 0.59,0.41 1.16,0.69 0.79,0.39 1.36,0.81 1.72,1.27 0.35,0.46 0.53,0.98 0.53,1.58z"/>
     <path class="fil1" d="M32.7 52.56c-0.44,0 -0.86,0.21 -1.27,0.63 -0.41,0.42 -0.74,0.97 -0.98,1.67 -0.25,0.69 -0.37,1.46 -0.37,2.3 0,0.49 0.12,0.89 0.36,1.18 0.24,0.3 0.57,0.44 0.98,0.44 0.43,0 0.84,-0.21 1.23,-0.64 0.39,-0.43 0.71,-1.01 0.95,-1.76 0.24,-0.74 0.36,-1.48 0.36,-2.2 0,-1.09 -0.42,-1.63 -1.26,-1.63zm1.17 -2.26c0.94,0 1.68,0.33 2.22,1 0.54,0.66 0.81,1.59 0.81,2.78 0,1.18 -0.22,2.31 -0.66,3.4 -0.44,1.09 -1.04,1.95 -1.81,2.59 -0.76,0.64 -1.61,0.96 -2.53,0.96 -0.53,0 -0.99,-0.11 -1.38,-0.34 -0.39,-0.23 -0.74,-0.62 -1.07,-1.17l-0.08 0c-0.08,0.98 -0.22,1.89 -0.42,2.73l-0.69 3.15 -2.9 0 3.3 -14.91 2.22 0 -0.16 1.57 0.09 0c0.89,-1.18 1.91,-1.77 3.06,-1.77z"/>
     <path class="fil1" d="M40.35 48.07c0,-0.54 0.15,-0.94 0.46,-1.22 0.31,-0.27 0.74,-0.41 1.3,-0.41 0.47,0 0.83,0.1 1.07,0.29 0.24,0.19 0.37,0.47 0.37,0.82 0,0.49 -0.14,0.89 -0.42,1.2 -0.28,0.31 -0.72,0.46 -1.31,0.46 -0.97,0 -1.46,-0.38 -1.46,-1.14zm0.15 12.78l-2.9 0 2.29 -10.35 2.9 0 -2.29 10.35z"/>
     <path class="fil1" d="M50.96 50.3c0.38,0 0.69,0.03 0.93,0.1l-0.64 2.69c-0.29,-0.1 -0.61,-0.15 -0.96,-0.15 -0.75,0 -1.4,0.28 -1.96,0.85 -0.56,0.57 -0.96,1.38 -1.2,2.43l-1.02 4.63 -2.9 0 2.29 -10.35 2.22 0 -0.2 1.92 0.06 0c0.95,-1.41 2.08,-2.11 3.4,-2.11z"/>
     <path class="fil1" d="M57.59 52.31c-0.57,0 -1.1,0.25 -1.6,0.74 -0.5,0.49 -0.83,1.1 -0.98,1.81l0.43 0c1,0 1.77,-0.15 2.33,-0.45 0.56,-0.3 0.83,-0.71 0.83,-1.22 0,-0.59 -0.34,-0.88 -1.01,-0.88zm-1.58 8.73c-1.35,0 -2.4,-0.35 -3.14,-1.05 -0.75,-0.7 -1.12,-1.68 -1.12,-2.95 0,-1.28 0.27,-2.44 0.8,-3.5 0.53,-1.05 1.25,-1.86 2.16,-2.41 0.91,-0.55 1.93,-0.83 3.08,-0.83 1.14,0 2.03,0.25 2.66,0.75 0.64,0.5 0.95,1.19 0.95,2.07 0,1.15 -0.54,2.05 -1.61,2.67 -1.07,0.63 -2.61,0.94 -4.6,0.94l-0.49 0 -0.02 0.19 0 0.19c0,0.56 0.17,1 0.5,1.33 0.33,0.32 0.8,0.49 1.42,0.49 0.56,0 1.07,-0.06 1.52,-0.18 0.46,-0.12 1.01,-0.32 1.66,-0.62l0 2.1c-1.11,0.53 -2.36,0.8 -3.76,0.8z"/>
     <path class="fil1" d="M66.2 58.79c0.42,0 0.84,-0.21 1.24,-0.63 0.4,-0.42 0.72,-0.99 0.97,-1.69 0.24,-0.7 0.37,-1.46 0.37,-2.27 0,-0.49 -0.12,-0.89 -0.36,-1.19 -0.24,-0.3 -0.57,-0.44 -0.99,-0.44 -0.44,0 -0.85,0.22 -1.25,0.67 -0.4,0.44 -0.71,1.03 -0.95,1.76 -0.23,0.73 -0.35,1.45 -0.35,2.17 0,1.09 0.44,1.63 1.32,1.63zm-1.22 2.25c-0.95,0 -1.69,-0.33 -2.23,-0.99 -0.54,-0.66 -0.82,-1.59 -0.82,-2.78 0,-1.21 0.23,-2.37 0.69,-3.47 0.46,-1.1 1.07,-1.96 1.82,-2.57 0.75,-0.61 1.58,-0.92 2.49,-0.92 0.53,0 0.98,0.11 1.36,0.34 0.38,0.23 0.74,0.62 1.08,1.18l0.08 0 0.02 -0.26c0.04,-0.68 0.12,-1.28 0.24,-1.81l0.73 -3.32 2.9 0 -3.18 14.41 -2.21 0 0.13 -1.34 -0.04 0c-0.46,0.54 -0.93,0.93 -1.43,1.17 -0.5,0.24 -1.05,0.36 -1.64,0.36z"/>
     <path class="fil1" d="M81.94 52.56c-0.44,0 -0.86,0.2 -1.25,0.6 -0.4,0.4 -0.73,0.96 -0.98,1.67 -0.26,0.71 -0.39,1.49 -0.39,2.32 0,0.49 0.12,0.89 0.36,1.18 0.24,0.3 0.57,0.44 0.98,0.44 0.43,0 0.84,-0.21 1.23,-0.64 0.39,-0.43 0.71,-1.01 0.95,-1.76 0.24,-0.74 0.36,-1.48 0.36,-2.2 0,-1.09 -0.42,-1.63 -1.26,-1.63zm1.17 -2.26c0.94,0 1.68,0.33 2.22,1 0.54,0.67 0.82,1.59 0.82,2.76 0,1.17 -0.22,2.31 -0.66,3.4 -0.44,1.1 -1.04,1.96 -1.8,2.61 -0.76,0.64 -1.61,0.96 -2.54,0.96 -1.25,0 -2.14,-0.5 -2.66,-1.51l-0.08 0 -0.56 1.32 -2.23 0 3.18 -14.41 2.9 0 -0.6 2.67c-0.26,1.12 -0.53,2.05 -0.81,2.77l0.08 0c0.5,-0.6 0.96,-1.02 1.37,-1.24 0.41,-0.22 0.87,-0.33 1.35,-0.33z"/>
     <path class="fil1" d="M87.47 50.5l2.84 0 0.54 4.8c0.09,0.75 0.14,1.66 0.14,2.71l0.06 0c0.13,-0.32 0.27,-0.68 0.43,-1.11 0.15,-0.42 0.36,-0.9 0.63,-1.42l2.51 -4.98 3.15 0 -6.56 11.84c-1.14,2.05 -2.69,3.07 -4.66,3.07 -0.58,0 -1.05,-0.06 -1.42,-0.18l0 -2.22c0.44,0.08 0.81,0.12 1.12,0.12 0.54,0 1.01,-0.15 1.42,-0.44 0.41,-0.3 0.79,-0.76 1.13,-1.38l0.25 -0.45 -1.58 -10.35z"/>
    </g>
   </g>
  </g>
 </g>
</svg>
