<?xml version="1.0" encoding="UTF-8"?>
<!DOCTYPE svg PUBLIC "-//W3C//DTD SVG 1.1//EN" "http://www.w3.org/Graphics/SVG/1.1/DTD/svg11.dtd">
<!-- Creator: CorelDRAW -->
<svg xmlns="http://www.w3.org/2000/svg" xml:space="preserve" width="39.5022mm" height="8.4667mm" version="1.1" style="shape-rendering:geometricPrecision; text-rendering:geometricPrecision; image-rendering:optimizeQuality; fill-rule:evenodd; clip-rule:evenodd"
viewBox="0 0 1158.37 248.28"
 xmlns:xlink="http://www.w3.org/1999/xlink"
 xmlns:xodm="http://www.corel.com/coreldraw/odm/2003">
 <defs>
  <style type="text/css">
   <![CDATA[
    .fil0 {fill:#231815;fill-rule:nonzero}
    .fil1 {fill:#E60012;fill-rule:nonzero}
   ]]>
  </style>
 </defs>
 <g id="Layer_x0020_1">
  <metadata id="CorelCorpID_0Corel-Layer"/>
  <g id="_2460344993008">
   <g>
    <g>
     <path class="fil0" d="M807 207.35l49.42 0 -35.52 -61.2c19.69,-8.3 30.89,-24.13 30.89,-45.18 0,-31.27 -20.66,-51.93 -61.39,-51.93l-78.19 0 0 158.31 43.05 0 0 -54.83 21.81 0 29.93 54.83zm1.74 -106.38c0,11.2 -7.53,19.3 -23.55,19.3l-29.92 0 0 -38.42 29.92 0c16.03,0 23.55,7.91 23.55,19.11l0 0zm-173.37 -7.34l0 50.58c0,22.78 -11.2,30.89 -25.68,30.89 -14.48,0 -25.87,-8.11 -25.87,-30.7l0 -50.77 -43.82 0 0 52.9c0,41.7 22.98,64.48 69.89,64.48 47.11,0 69.7,-22.78 69.7,-64.29l0 -53.09 -44.21 0zm-51.74 -44.6l-43.83 0 0 29.73 43.83 0 0 -29.73zm51.74 29.93l43.82 0 0 -29.73 -43.82 0 0 29.73zm-276.66 74.91l-22.2 -104.83 -43.63 0 40.35 158.31 46.34 0 27.03 -103.29 27.03 103.29 46.34 0 40.35 -158.31 -43.63 0 -22.2 104.83 -27.61 -104.83 -40.54 0 -27.61 104.83zm755.64 -48.07l-53.28 0 0 -56.57 -43.82 0 0 158.31 43.82 0 0 -65.84 53.28 0 0 65.84 44.02 0 0 -158.31 -44.02 0 0 56.57zm-205.61 -22.2l0 123.75 43.82 0 0 -123.75 40.74 0 0 -34.56 -125.3 0 0 34.56 40.74 0z"/>
    </g>
    <path class="fil1" d="M226.85 97.3l-226.85 0 0 -97.3 94.41 0 0 38.23 38.03 -0 0 -38.22 94.41 0 0 97.3zm-94.41 112.94l0 38.03c54.25,-10.23 94.41,-57.53 94.41,-110.63l0 -1.93 -226.85 0 0 1.93c0,53.09 40.16,100.39 94.41,110.63l0 -38.03 38.03 0z"/>
   </g>
  </g>
 </g>
</svg>
