<?xml version="1.0" encoding="UTF-8"?>
<!DOCTYPE svg PUBLIC "-//W3C//DTD SVG 1.1//EN" "http://www.w3.org/Graphics/SVG/1.1/DTD/svg11.dtd">
<!-- Creator: CorelDRAW -->
<svg xmlns="http://www.w3.org/2000/svg" xml:space="preserve" width="55.3626mm" height="8.4667mm" version="1.1" style="shape-rendering:geometricPrecision; text-rendering:geometricPrecision; image-rendering:optimizeQuality; fill-rule:evenodd; clip-rule:evenodd"
viewBox="0 0 1245.76 190.52"
 xmlns:xlink="http://www.w3.org/1999/xlink"
 xmlns:xodm="http://www.corel.com/coreldraw/odm/2003">
 <defs>
  <style type="text/css">
   <![CDATA[
    .fil0 {fill:#E20714;fill-rule:nonzero}
   ]]>
  </style>
 </defs>
 <g id="Layer_x0020_1">
  <metadata id="CorelCorpID_0Corel-Layer"/>
  <g id="_2458629458416">
   <path class="fil0" d="M139.53 32.69c-9.45,-6.8 -20.82,-10.47 -32.47,-10.47 -0.79,0 -1.61,0.02 -2.4,0.05 -20.39,0 -42.36,7.8 -65.81,23.24l-0.6 0.47 0 -0 -2.38 1.51 -1.84 1.24c-4.71,3.24 -9.27,6.8 -13.6,10.56 -10.05,9.65 -21.2,25.62 -20.4,39.29 0.08,5.41 2.53,10.53 6.7,13.99 4.1,3.05 9.08,4.7 14.19,4.7 0.26,0 0.52,-0.01 0.77,-0.01 12.17,-1.06 23.89,-5.23 33.99,-12.09l1.71 -1.07 4.69 -3.11 1.58 -1.07c12.54,-9.25 26.3,-16.91 40.79,-22.64 3.3,-1.26 6.81,-1.96 10.35,-2.04 1.49,0 2.97,0.18 4.42,0.54 4.4,0.75 8.16,3.62 10.05,7.67 1.35,3.78 2.05,7.77 2.05,11.79 0,5.77 -1.43,11.46 -4.16,16.54 -7.86,15.76 -19.05,29.7 -32.75,40.79 -6.62,5.82 -13.83,11 -21.47,15.38l-0.61 -0c-3.2,1.89 -6.58,3.52 -10.05,4.88l-0.47 0.01c-0.93,0.39 -1.88,0.73 -2.85,1 -14.97,4.09 -5.86,-9.18 -5.86,-9.18 3.42,-3.57 7.1,-6.95 10.95,-10.05 2.04,-1.84 4.15,-3.82 6.26,-5.99l0.47 -0.47c3.55,-2.73 5.75,-6.88 5.99,-11.35 -1.12,-6.52 -6.78,-11.29 -13.4,-11.29 -0.07,0 -0.14,0 -0.2,0l-0.67 0c-5.92,0.45 -11.55,2.8 -16.04,6.7 -4.2,3.46 -7.87,7.58 -10.82,12.16 -4.22,6.33 -12.36,22.5 -4.22,35.36 3.3,4.91 8.83,7.86 14.74,7.86 0.48,0 0.96,-0.02 1.44,-0.06 6.37,-0.28 12.64,-1.64 18.55,-4.02 9.25,-3.54 18.18,-8.14 26.45,-13.6l2.18 -1.37c8.96,-5.61 17.54,-12.02 25.49,-19.03 16.91,-13.6 29.63,-31.77 36.64,-52.33 2.5,-7.07 3.79,-14.54 3.79,-22.04 0,-5.45 -0.69,-10.9 -2.02,-16.17 -3.23,-10.67 -10.01,-19.94 -19.19,-26.26l0 -0z"/>
   <path class="fil0" d="M737.75 166.48c-14,-1.07 -16.75,-7.2 -16.75,-17.48l0 -132.55 -34.09 5.83 0 124.68c0,29.5 16.04,42.23 42.9,42.23 4.33,-0.11 8.66,-0.59 12.92,-1.38l0 -21.13c-0.2,0 -0.43,0 -0.64,0 -1.45,0 -2.91,-0.07 -4.34,-0.21l0 0z"/>
   <path class="fil0" d="M614.18 77.29c14.97,0 17.15,16.24 17.15,26.32l-36.4 0c0.77,-13.03 5.93,-26.32 19.26,-26.32zm7.27 88.98c-0.53,0.03 -1.07,0.05 -1.6,0.05 -6.73,0 -13.19,-2.68 -17.93,-7.45 -6.06,-6.7 -8.77,-20.09 -8.04,-34.33l72.47 0 0 -3.35c-0.6,-47.59 -16.74,-69.12 -52.28,-69.12 -39.55,0 -54.99,36.44 -55.26,70.63 -0.03,0.9 -0.05,1.85 -0.05,2.77 0,20.15 8.43,39.39 23.23,53.06 9.81,7.58 21.89,11.71 34.3,11.71 0.53,0 1.07,-0.01 1.6,-0.02 0.04,-0 0.1,-0 0.14,-0 8.06,0 16.1,-1.19 23.8,-3.54 8.97,-2.83 17.5,-6.94 25.28,-12.23l-9.51 -19.59c-10.63,7.31 -23.24,11.3 -36.16,11.42l0 -0z"/>
   <polygon class="fil0" points="340.13,187.57 373.79,187.57 373.79,53.58 340.13,59.08 "/>
   <path class="fil0" d="M524.86 16.58l-34.5 5.69 0 125.29c0,28.06 16.38,41.33 43.84,41.33 4.3,-0.05 8.62,-0.47 12.86,-1.24l0 -20.86 -4.89 0c-14.47,-0.47 -17.35,-8.51 -17.35,-17.68l0 -70.73 22.24 0 0 -24.75 -22.24 0 0.03 -37.04z"/>
   <path class="fil0" d="M280.72 162.26c-5,2.9 -10.68,4.43 -16.46,4.43 -0.34,0 -0.68,-0.01 -1.02,-0.02 -13.6,0 -19.66,-10.42 -19.39,-22.57 -0,-0.08 -0,-0.18 -0,-0.26 0,-11.67 9.46,-21.13 21.13,-21.13 0.77,0 1.55,0.05 2.31,0.13l13.6 0 -0.17 39.42zm-13.6 -111.09c-15.83,0.33 -31.39,4.42 -45.34,11.89l-3.75 1.98 8.98 20.4 5.09 -2.44c9.9,-4.83 20.78,-7.37 31.81,-7.4 12.16,0.47 17.21,6.13 17.21,17.75l0 6.7 -20.33 0c-32.08,0 -52.01,16.98 -52.55,43.54 0.38,26 21.58,46.89 47.58,46.89 0.22,0 0.46,-0.01 0.67,-0.01l1.78 0c1.01,0.04 2.06,0.06 3.09,0.06 19.86,0 39.01,-7.53 53.55,-21.06l-0 -72c0,-34.86 -25.15,-46.28 -48.06,-46.28l0.27 -0z"/>
   <path class="fil0" d="M357.34 0c-0.05,0 -0.11,0 -0.17,0 -11.84,0 -21.46,9.56 -21.53,21.4l0 0c-0.01,0.28 -0.02,0.56 -0.02,0.85 0,11.82 9.58,21.4 21.4,21.4 11.82,0 21.4,-9.58 21.4,-21.4 0,-0.28 -0.01,-0.57 -0.02,-0.85 -0,-0.09 0,-0.19 0,-0.29 0,-5.35 -2.11,-10.5 -5.86,-14.31 -3.91,-4.27 -9.41,-6.73 -15.2,-6.8l-0 -0z"/>
   <path class="fil0" d="M400.71 77.56l0 110.11 33.99 0 0 -103.82c6.55,-5.26 14.65,-8.28 23.04,-8.57 0.76,-0.04 1.54,-0.06 2.31,-0.06 3.81,0 7.62,0.51 11.29,1.5l9.44 -21.26c-6.79,-2.71 -14.06,-4.1 -21.37,-4.1 -0.42,0 -0.86,0.01 -1.26,0.01 -21.96,0.28 -42.82,9.79 -57.44,26.19l-0 0z"/>
   <path class="fil0" d="M1183.36 20.4l-13.6 1.51 0 55.76c-0.04,0.44 -0.07,0.89 -0.07,1.33 0,7.77 6.3,14.07 14.07,14.07 0.7,0 1.41,-0.05 2.11,-0.16l1.64 0c0.18,0 0.38,0 0.57,0 2.48,0 4.95,-0.27 7.37,-0.81l0.4 0 0 -10.88 -0.37 0c-1.11,0.1 -2.24,0.16 -3.35,0.16 -1.11,0 -2.24,-0.05 -3.35,-0.16 -5.02,-0.34 -5.73,-3.35 -5.73,-6.13l0 -24.41 12.43 0 0 -12.16 -12.79 0 0.67 -18.12z"/>
   <path class="fil0" d="M805.67 29.2l12.66 0c4.75,0 12.79,1.44 12.79,11.22 0,7.54 -4.89,11.55 -14.13,11.55l-11.32 -0 0 -22.77zm0 35.97l12.02 0c17.62,0 27.66,-8.91 27.66,-24.55 0,-15.64 -9.51,-24.61 -26.09,-24.61l-27.19 0 0 76.29 13.6 0 0 -27.13z"/>
   <polygon class="fil0" points="908.85,111.35 923.05,111.35 952.15,39.15 952.42,38.41 938.22,38.41 925.03,71.6 911.03,38.68 910.89,38.41 896.49,38.41 918.23,87.91 "/>
   <path class="fil0" d="M1020.3 37.78c-0.1,0 -0.22,-0 -0.32,-0 -6.51,0 -12.73,2.71 -17.16,7.47 -3.39,-4.71 -8.86,-7.51 -14.67,-7.51 -0.41,0 -0.83,0.02 -1.24,0.04 -4.97,0.09 -9.76,1.87 -13.6,5.02l0 -4.42 -13.6 0 0 53.92 13.6 0 0 -26.79c0,-9.04 4.62,-15.1 11.55,-15.1 4.42,0 8.98,1.57 8.98,12.86l0 29.03 13.4 0 0 -26.79c0,-8.84 4.55,-15.1 11.09,-15.1 4.22,0 8.77,1 8.77,12.93l0 28.97 13.6 0 0 -31.14c-0.7,-15.44 -7.37,-23.38 -20.4,-23.38z"/>
   <path class="fil0" d="M1139.86 37.78c-0.06,0 -0.12,0 -0.18,0 -5.45,0 -10.75,1.82 -15.05,5.16l0 -4.55 -13.6 0 0 53.92 13.6 0 0 -27.19c0,-9.24 4.89,-14.97 12.73,-14.97 4.62,0 9.31,1.51 9.31,12.66l0 29.3 13.6 0 0 -30.94c-0.34,-14.94 -7.6,-23.37 -20.4,-23.37z"/>
   <path class="fil0" d="M1229.61 59.61l-2.31 -0.87c-4.96,-1.91 -7.6,-3.35 -7.6,-5.22 0,-1.88 2.51,-3.11 4.82,-3.11 4.19,0.03 8.22,1.63 11.29,4.49l2.25 1.91 6.7 -10.82 -1.84 -1.51c-5.02,-4.32 -11.43,-6.7 -18.05,-6.7 -0.12,0 -0.25,0 -0.37,0 -0.55,-0.05 -1.11,-0.08 -1.66,-0.08 -8.78,0 -16.13,6.65 -17,15.39l0 0.4c0,10.82 8.44,14.67 16.38,17.48l1.17 0.4 1.58 0.54c2.17,0.51 4.23,1.43 6.06,2.71 0.71,0.51 1.13,1.33 1.13,2.2 0,0.4 -0.09,0.79 -0.26,1.15 -0.26,0.65 -0.72,1.2 -1.31,1.57 -1.06,0.66 -2.28,1.01 -3.53,1.01 -0.03,0 -0.06,0 -0.09,0 -0.33,0.02 -0.67,0.03 -1.01,0.03 -2.41,0 -4.8,-0.46 -7.03,-1.37 -2.43,-0.94 -4.7,-2.28 -6.7,-3.95l-2.24 -2.11 -7.2 10.62 1.77 1.51c5.53,4.94 12.68,7.68 20.1,7.68 0.23,0 0.47,-0 0.7,-0.01 14.9,0 20.4,-8.91 20.4,-16.75 0.24,-10.38 -6.96,-13.13 -16.14,-16.58z"/>
   <path class="fil0" d="M861.76 75.65c-0.02,-0.16 -0.02,-0.32 -0.02,-0.48 0,-1.36 0.55,-2.66 1.53,-3.61 1.76,-1.46 3.98,-2.25 6.27,-2.25 0.14,0 0.29,0 0.43,0.01l9.31 0 0 11.75c-2.19,0.52 -4.44,0.82 -6.7,0.87l-0.81 0c-2.67,-0.02 -5.29,-0.8 -7.54,-2.25 -1.39,-0.91 -2.3,-2.4 -2.48,-4.05l0 0zm-7.87 12.16l0 0.34 0.54 0.4 0.8 -0 0.67 0.4c1.29,0.74 2.67,1.34 4.09,1.77l-0 0c2.91,0.87 5.94,1.43 8.97,1.64l3.05 0c5.92,-0.21 11.81,-1.19 17.48,-2.91l1.24 -0 0 -35.1c0.02,-0.12 0.02,-0.25 0.02,-0.37 0,-0.12 -0.01,-0.25 -0.02,-0.37l0 -3.35c0.02,-0.09 0.03,-0.18 0.03,-0.27 0,-0.09 -0.01,-0.18 -0.03,-0.27l0 -0.67 0 0 0 -1.51 0 0c-0.9,-1.83 -2.16,-3.47 -3.69,-4.82 -1.86,-1.63 -4.03,-2.89 -6.36,-3.72 -1.72,-0.57 -3.5,-0.99 -5.29,-1.24l-3.75 0c-6.21,0.03 -12.29,1.72 -17.62,4.89l-0.67 0.47 5.49 8.57 0.67 0c3.31,-1.7 6.96,-2.65 10.68,-2.78 5.63,0 8.71,2.91 9.11,4.96l0 0.4 0 0 0 4.15 -10.68 0c-12.36,0 -19.73,6.7 -19.73,17.75 -0,0.07 -0,0.16 -0,0.23 0,3.93 1.54,7.71 4.29,10.52 0.21,0.31 0.45,0.6 0.7,0.87l0 0z"/>
   <path class="fil0" d="M1063.81 59.11c1.01,-5.02 5.24,-8.77 10.35,-9.18 0.67,-0.12 1.35,-0.18 2.04,-0.18 5.58,0 10.4,3.9 11.56,9.35l-23.94 0zm12.09 -21.27c-2.68,0.05 -5.37,0.48 -7.94,1.24 -7.98,2.37 -14.26,8.57 -16.74,16.51 -1.08,3.12 -1.63,6.41 -1.63,9.72 0,6.1 1.88,12.07 5.38,17.07 4.75,6.67 12.45,10.64 20.64,10.64 0.35,0 0.71,-0.01 1.06,-0.02 2.24,-0.01 4.49,-0.2 6.7,-0.54 6.01,-0.93 11.48,-4.03 15.37,-8.71l0.34 0 -8.51 -7.87 -0.34 0.34c-3.3,3.38 -7.8,5.31 -12.52,5.36 -0.34,0.02 -0.68,0.04 -1.02,0.04 -6.45,0 -12.02,-4.54 -13.32,-10.85l0 -0.67 37.38 -0 0 -0.47c0.29,-1.77 0.44,-3.58 0.44,-5.38 0,-3.27 -0.49,-6.53 -1.45,-9.66 -3.6,-10.07 -13.15,-16.8 -23.84,-16.81l0 0.07z"/>
   <path class="fil0" d="M817.49 141.93l-11.82 0 0 -17.35 10.05 0c13.13,0 13.13,6.33 13.13,8.44 0.07,8.31 -8.84,8.91 -11.35,8.91zm-11.82 12.99l12.52 0c5.29,0 14.07,1.37 14.07,10.05 0,8.67 -9.04,9.44 -14.4,9.44l-12.19 0 0 -19.49zm29.84 -7.74c4.79,-3.59 7.61,-9.23 7.61,-15.22 0,-0.2 -0,-0.41 -0.01,-0.62 0,-12.86 -9.11,-19.93 -25.55,-19.93l-25.82 0 0 76.29 28.26 0c16.44,0 26.39,-8.17 26.39,-21.84 0.01,-0.28 0.02,-0.57 0.02,-0.86 0,-7.52 -4.21,-14.43 -10.9,-17.87l0 0.04z"/>
   <path class="fil0" d="M937.62 133.15c-0.07,-0 -0.15,-0 -0.23,-0 -5.46,0 -10.76,1.82 -15.08,5.16l0 -4.55 -13.6 0 0 53.92 13.6 0 0 -27.19c0,-9.24 4.89,-14.97 12.72,-14.97 4.62,0 9.31,1.51 9.31,12.66l0 29.3 13.6 0 0 -31.25c-0.23,-14.64 -7.47,-23.08 -20.33,-23.08z"/>
   <path class="fil0" d="M885.14 164.43l0 11.89c-2.2,0.52 -4.44,0.82 -6.7,0.87l-0.8 0c-0.02,-0 -0.04,-0 -0.05,-0 -2.66,0 -5.26,-0.78 -7.48,-2.24 -1.3,-0.94 -2.1,-2.42 -2.18,-4.02 -0.02,-0.16 -0.02,-0.32 -0.02,-0.47 0,-1.38 0.58,-2.69 1.6,-3.62 1.72,-1.46 3.9,-2.26 6.15,-2.26 0.18,0 0.36,0.01 0.54,0.02l8.94 -0.17zm12.72 -15.91c0.02,-0.09 0.03,-0.18 0.03,-0.27 0,-0.09 -0.01,-0.18 -0.03,-0.27l0 -1.81 -0.54 -2.04 0 0 0 -0.87 0 0 0 -0.43c-0.92,-1.84 -2.17,-3.51 -3.68,-4.89 -1.84,-1.64 -3.99,-2.9 -6.33,-3.68 -1.72,-0.64 -3.53,-1.06 -5.36,-1.24l-3.35 0c-0.02,-0 -0.04,-0 -0.05,-0 -6.19,0 -12.27,1.69 -17.56,4.89l-0.67 0.47 5.09 7.94 0 0.67 0.74 -0.34c3.31,-1.68 6.97,-2.61 10.68,-2.71 5.63,0 8.71,2.85 9.11,4.96l0 0c-0.02,0.05 -0.02,0.11 -0.02,0.16 0,0.06 0.01,0.11 0.02,0.17l0 1.07 0 0 0 3.35 -11.49 0c-12.36,0 -19.73,6.7 -19.73,17.75 -0,0.09 -0,0.19 -0,0.29 0,3.88 1.52,7.61 4.22,10.39 0.3,0.37 0.63,0.71 1.01,1.01l0.87 0.67 0.67 0.47 0 0 0.74 0.4c1.28,0.76 2.66,1.35 4.08,1.77l0.54 0c2.91,0.88 5.93,1.41 8.97,1.58l3.05 0c5.92,-0.21 11.81,-1.2 17.48,-2.92l0.87 0 0 -36.54 0.64 0z"/>
   <path class="fil0" d="M1035.84 123.71c-0.55,-0.29 -1.15,-0.46 -1.78,-0.47l-40.76 0c-2,-0 -3.62,1.62 -3.62,3.62 0,1.96 1.59,3.55 3.55,3.55l0 0 10.28 -0.54c0.79,1.71 1.28,3.55 1.44,5.42l-11.35 0c-1.85,-0 -3.35,1.5 -3.35,3.35l0 0c-0.02,0.16 -0.02,0.31 -0.02,0.47 0,0.16 0.01,0.32 0.02,0.47 0.45,1.31 1.67,2.2 3.05,2.24l10.75 -0.6 0 0c-1.98,7.4 -14.13,6.7 -14.13,6.7l-8.11 0 0 -36.57 -13.4 0 0 76.36 13.4 0 0 -26.79 4.75 0 11.15 15.77 7.4 10.95 16.74 0 -16.38 -23.64 -3.35 -4.62 0 0 0.87 -0.34c3.1,-0.99 5.96,-2.64 8.37,-4.82 3.81,-3.57 6.19,-8.4 6.7,-13.6l0 -0.67 11.08 -0.74c0.02,0 0.04,0 0.06,0 0.78,0 1.51,-0.41 1.91,-1.07 0.1,-0.26 0.15,-0.54 0.15,-0.82 0,-0.28 -0.05,-0.56 -0.14,-0.82 -0.33,-0.87 -1.17,-1.45 -2.1,-1.45 -0.07,0 -0.14,0 -0.21,0.01l-10.68 0c0.03,-0.48 0.05,-0.97 0.05,-1.46 0,-0.48 -0.02,-0.97 -0.05,-1.46 -0.08,-1.13 -0.26,-2.25 -0.54,-3.35l10.05 -0.6 6.19 -0.34c0.78,-0.09 1.5,-0.44 2.04,-1 0.26,-0.4 0.4,-0.87 0.4,-1.35 0,-0.01 0,-0.02 0,-0.03 0.01,-0.09 0.02,-0.19 0.02,-0.29 0,-0.53 -0.17,-1.05 -0.49,-1.49l0 0z"/>
  </g>
 </g>
</svg>
