<?xml version="1.0" encoding="UTF-8"?>
<!DOCTYPE svg PUBLIC "-//W3C//DTD SVG 1.1//EN" "http://www.w3.org/Graphics/SVG/1.1/DTD/svg11.dtd">
<!-- Creator: CorelDRAW -->
<svg xmlns="http://www.w3.org/2000/svg" xml:space="preserve" width="49.9612mm" height="8.4667mm" version="1.1" style="shape-rendering:geometricPrecision; text-rendering:geometricPrecision; image-rendering:optimizeQuality; fill-rule:evenodd; clip-rule:evenodd"
viewBox="0 0 5634.33 954.82"
 xmlns:xlink="http://www.w3.org/1999/xlink"
 xmlns:xodm="http://www.corel.com/coreldraw/odm/2003">
 <defs>
  <style type="text/css">
   <![CDATA[
    .fil0 {fill:#E5273C}
   ]]>
  </style>
 </defs>
 <g id="Layer_x0020_1">
  <metadata id="CorelCorpID_0Corel-Layer"/>
  <g id="_2460347532272">
   <polygon class="fil0" points="2012.69,686.52 2492.91,686.52 2526.65,504.57 2288.5,504.57 2301.47,432.48 2507.09,432.48 2538.15,262.61 2332.44,262.61 2344.75,197.76 2563.5,197.76 2596.13,15.87 2136.37,15.87 "/>
   <polygon class="fil0" points="2622.37,686.52 2869.12,686.52 2993.05,15.87 2746.34,15.87 "/>
   <path class="fil0" d="M3130.4 131.16c-61.03,71.37 -91.85,159.49 -91.85,259 0,93.92 37.4,180.07 102.32,236.42 57.95,50.61 133.11,77.88 216.52,77.88 41.29,0 81.63,-7.52 122.91,-22.57l44.96 -241.98c-43.14,27.16 -89.96,41.24 -127.65,41.24 -71.28,0 -117.08,-44.09 -117.08,-115.5 0,-83.39 59.96,-143.49 144.49,-143.49 44.07,0 87.26,14.18 133.12,40.46l41.38 -224.27c-50.74,-25.35 -106.88,-38.34 -170.63,-38.34 -122.03,0 -227.25,47.75 -298.48,131.16z"/>
   <polygon class="fil0" points="4070.17,247.69 3937.99,247.69 3980.13,15.87 3737.14,15.87 3613.33,686.52 3856.24,686.52 3901.24,445.46 4033.62,445.46 3988.38,686.52 4231.55,686.52 4356.31,15.87 4112.49,15.87 "/>
   <polygon class="fil0" points="4910.68,197.76 4943.41,15.87 4483.75,15.87 4359.84,686.52 4840.27,686.52 4874.08,504.57 4635.64,504.57 4648.79,432.48 4854.39,432.48 4885.25,262.61 4679.78,262.61 4691.93,197.76 "/>
   <path class="fil0" d="M5634.33 217.42c0,-130.25 -99.34,-201.55 -295.64,-201.55l-257.98 0 -123.71 670.66 241.96 0 44.99 -243.8 73.1 243.8 248.67 0 -96.52 -257.91c105.17,-22.54 165.15,-99.44 165.15,-211.19zm-349.07 95.81l-17.83 0 24.44 -130.34 14.12 0c60.19,0 87.16,16.78 87.16,56.09 0,51.67 -34.69,74.25 -107.89,74.25z"/>
   <path class="fil0" d="M1546.11 128.49c0,-12.69 -10.19,-22.78 -22.69,-22.78l-642.07 0.14c-12.38,0 -22.72,10.17 -22.72,22.65 0,12.65 10.34,22.72 22.72,22.72l642.07 -0.17c12.5,0 22.69,-9.9 22.69,-22.55z"/>
   <path class="fil0" d="M1697.39 308.05c0,-12.79 -10.12,-22.78 -22.72,-22.78l-525.73 0c-12.44,0 -22.52,10.24 -22.52,22.78 0,12.52 10.08,22.88 22.52,22.88l525.73 -0.2c12.61,0 22.71,-10.16 22.72,-22.68z"/>
   <path class="fil0" d="M1730.11 397.54c0,-12.31 -10.22,-22.58 -22.72,-22.58l-461.34 0c-12.3,0 -22.54,10.26 -22.54,22.83 0,12.77 10.24,22.77 22.54,22.77l461.34 0c12.51,0 22.72,-10.24 22.72,-23.02z"/>
   <path class="fil0" d="M1743.73 487.53c0,-12.62 -10.14,-22.71 -22.66,-22.71l-390.28 0c-12.65,0 -22.93,10.24 -22.93,22.71 0,12.56 10.27,22.81 22.93,22.81l390.28 0c12.52,0 22.66,-10.36 22.66,-22.81z"/>
   <path class="fil0" d="M1717.9 554.5l-309.37 0c-12.44,0 -22.84,10.44 -22.84,22.87 0,12.62 10.4,22.77 22.84,22.77l309.37 -0.15c12.51,0 22.66,-10 22.66,-22.62 0.01,-12.73 -10.15,-22.87 -22.66,-22.87z"/>
   <path class="fil0" d="M1691.6 644.13l-211.14 0.2c-12.51,0 -22.72,10.21 -22.72,22.84 0,12.55 10.22,22.66 22.72,22.66l211.14 0c12.51,0 22.78,-10.31 22.78,-22.66 0,-12.63 -10.27,-23.04 -22.78,-23.04z"/>
   <path class="fil0" d="M1640.31 218.17c0,-12.46 -10.04,-22.58 -22.66,-22.58l-581.51 0c-12.5,0 -22.87,10.12 -22.87,22.58 0,12.73 10.38,22.88 22.87,22.88l581.51 -0.1c12.62,0 22.66,-10.21 22.66,-22.78z"/>
   <path class="fil0" d="M618.54 479.68c-7.54,-0.5 -16.89,5.03 -22.05,16.03 -7.34,15.34 -24.91,33.64 -55.85,40.98 -40.09,9.25 -81.06,-1.04 -113.07,10.42 -30,10.88 -93.59,36.13 -98.27,39.1 -4.07,2.56 -6.92,8.09 -8.19,11.37 0,0 -3.8,17.83 -28.8,17.78 -2.91,0 -26.59,1.18 -38.53,1.27 -24.6,1.84 -20.37,-12.82 -18.49,-15.15 1.17,-1.3 46.25,-32.88 46.25,-32.88 4.09,-2.89 5.41,-11.3 1.27,-17.49 -4.32,-6.21 -12.87,-7.79 -19.02,-3.51 0,0 -68.17,48.81 -70.22,49.71 -5.58,2.88 -9.11,-2.66 -9.11,-2.66 -11.04,-12.77 -9.68,-36.97 -16.52,-62.63 -7.29,-28.9 12.07,-52.73 25.9,-62.94l179.89 -154.91c-1.79,-16.48 4.53,-29.9 24.29,-43.6 1.75,-1.24 283.48,-212.02 287.62,-215.74 38.72,-30.63 39.97,2.3 33.96,11.69 -4.05,5.7 -2.29,17.05 7.29,20.83 5.27,2.1 13.16,1.15 32.14,-7 23.27,-9.79 78.51,-18.84 102.03,-18.84l444.38 0c12.53,0 22.61,-10.26 22.61,-22.81 0,-12.56 -10.08,-22.75 -22.61,-22.75l-806.38 -0.29c-275.68,0 -499.04,190.4 -499.04,466.58 0,276.57 223.52,472.52 474.28,472.52l363.89 0.06c10.8,0 19.84,-9.01 19.84,-19.86 0,-7.33 -7.78,-14.38 -11.8,-18.55 -147.03,-125.03 -163.87,-432.86 -227.67,-436.73z"/>
  </g>
 </g>
</svg>
