<?xml version="1.0" encoding="UTF-8"?>
<!DOCTYPE svg PUBLIC "-//W3C//DTD SVG 1.1//EN" "http://www.w3.org/Graphics/SVG/1.1/DTD/svg11.dtd">
<!-- Creator: CorelDRAW -->
<svg xmlns="http://www.w3.org/2000/svg" xml:space="preserve" width="24.9781mm" height="8.4667mm" version="1.1" style="shape-rendering:geometricPrecision; text-rendering:geometricPrecision; image-rendering:optimizeQuality; fill-rule:evenodd; clip-rule:evenodd"
viewBox="0 0 979.56 332.04"
 xmlns:xlink="http://www.w3.org/1999/xlink"
 xmlns:xodm="http://www.corel.com/coreldraw/odm/2003">
 <defs>
  <style type="text/css">
   <![CDATA[
    .fil0 {fill:black}
   ]]>
  </style>
 </defs>
 <g id="Layer_x0020_1">
  <metadata id="CorelCorpID_0Corel-Layer"/>
  <g id="_2460352691696">
   <path class="fil0" d="M965.94 13.62c-8.66,-8.72 -20.47,-13.62 -32.76,-13.62 -0.04,0 -0.09,0 -0.12,0l-886.56 0c-25.64,0 -46.5,20.86 -46.5,46.5l0 239.04c0,0.03 0,0.08 0,0.12 0,12.29 4.9,24.08 13.61,32.76 8.67,8.71 20.46,13.62 32.76,13.62 0.04,0 0.08,0 0.12,0l886.56 0c12.42,0 24.09,-4.84 32.88,-13.62 8.78,-8.78 13.62,-20.46 13.62,-32.88l0 -239.04c0,-0.04 0,-0.09 0,-0.14 0,-12.29 -4.91,-24.08 -13.62,-32.74l-0 0zm10.97 271.91c0,24.17 -19.67,43.84 -43.85,43.84l-886.56 0c-0.04,0 -0.07,0 -0.11,0 -11.59,0 -22.72,-4.63 -30.89,-12.84 -8.22,-8.18 -12.84,-19.29 -12.84,-30.89 0,-0.03 0,-0.08 0,-0.11l0 -239.04c0,-0.04 0,-0.09 0,-0.12 0,-11.59 4.63,-22.71 12.84,-30.88 8.17,-8.22 19.29,-12.84 30.88,-12.84 0.04,0 0.08,0 0.12,0l886.56 0c11.71,0 22.73,4.56 31.01,12.84 8.22,8.17 12.84,19.29 12.84,30.89 0,0.03 0,0.08 0,0.11l0 239.04 0 0z"/>
   <path class="fil0" d="M564.24 223.91l-32.77 0 0 -18.41 86.51 0 0 18.41 -32.77 0 0 87.19 -20.98 0 0 -87.19zm93.02 26.49c-15.38,0 -20.71,11.09 -20.71,24.55l0 36.14 -19.31 0 0 -76.46 18.28 0 2.24 9.15 0.29 0c3.85,-9.61 13.35,-11.12 19.36,-11.23l-0.15 17.84 0 0zm67.62 43.68l0 -39.78c0,-18.34 -16.66,-21.74 -31.89,-21.74 -13.87,0 -31.12,5.92 -32.3,25.59l17.36 0c1.63,-8.11 5.91,-11.53 13.9,-11.53 7.4,0 13.61,1.33 13.61,10.35 0,8.58 -10.86,7.85 -23.73,9.78 -13.01,1.78 -24.91,6.2 -24.91,23.5 0,15.67 11.53,22.92 26.03,22.92 9.32,0 16.84,-0.84 23.49,-7.79 0.14,2.51 2.36,4.6 3.15,5.71l17.94 0c-1.92,-3.11 -2.65,-10.06 -2.65,-17.01l0 0zm-19.32 -12.57c0,4.58 -0.59,17.6 -17.02,17.6 -6.8,0 -12.86,-1.93 -12.86,-9.76 0,-7.69 5.91,-9.91 12.42,-11.24 6.51,-1.19 13.9,-1.34 17.46,-4.44l0 7.85zm64.43 29.58l-20.86 0 -26.17 -76.46 20.63 0 16.13 52.21 0.29 0 16.12 -52.21 19.74 0 -25.88 76.46 0 0zm58.71 -78.53c-23.22,0 -39.04,17.46 -39.04,40.37 0,23.66 14.94,40.23 39.04,40.23 17.3,0 29.87,-7.69 35.79,-25.73l-18.48 0c-1.33,4.73 -8.13,9.91 -16.56,9.91 -11.69,0 -18.18,-6.07 -18.78,-19.37l55.16 0c1.47,-23.51 -11.09,-45.41 -37.12,-45.41l0 0zm-18.04 32.1c0.29,-5.91 4.14,-16.27 17.45,-16.27 10.21,0 14.79,5.62 16.71,16.27l-34.16 0zm60.32 -59.16l19.89 0 0 105.6 -19.89 0 0 -105.6zm2.51 -54.05l0 -15.68 61.62 0 0 -41.45 -39.77 0 -21.85 36.13 0 -52.93 61.62 0 0 -41.46 -83.22 0c0,0 -0,0 -0,0 -11.58,0 -20.97,9.39 -20.97,20.97 0,0 0,0 0,0l0 114.89c0,0 0,0.01 0,0.01 0,11.58 9.39,20.97 20.97,20.97 0,0 0,0 0,0l65.29 0 24.93 -41.45 -68.62 0 0 0z"/>
   <path class="fil0" d="M688.63 160.42l-25.48 -106.71c-3.35,-14.84 -12.32,-17.65 -22.12,-17.65l-23.8 0 -22.68 39.97 0 -39.97 -42.57 0 0 115.4 -44.26 0 0 -115.4 -43.41 0 0 131.72 -12.6 -55.82c-3.36,-14.84 -12.32,-17.64 -22.13,-17.64l-41.18 0 -18.48 32.57 0 -49.37 67.78 0 23.24 -41.46 -114.87 0c0,0 0,0 0,0 -11.58,0 -20.97,9.39 -20.97,20.97 0,0 0,0 0,0l0 114.9c0,0 0,0 0,0 0,11.57 9.38,20.96 20.96,20.96 0,0 0,0 0,0l51.29 0 19.37 -34.97 15.36 66.9 45.09 0 -9.29 -41.16c3.89,5.77 10.4,9.23 17.36,9.23 0.01,0 0.02,0 0.02,0l44.84 0 21.85 -39.42 0 18.46c0,0 0,0 0,0 0,11.58 9.39,20.96 20.96,20.96 0,0 0,0 0,0l94.42 0c25.77,0 23.8,-21.29 21.29,-32.49l0 0zm-318.72 -8.96l0 -15.68 41.73 0 3.6 15.68 -45.33 0zm224.63 0l0 -73.94 29.4 0 17.64 73.94 -47.04 0zm-378.67 -115.4l-23.81 0 -19.88 35.04 0 -35.04 -42.57 0 0 115.4 -40.33 0 0 -115.4 -44.81 0 0 135.87c0,0 0,0 0,0 0,11.58 9.39,20.97 20.97,20.97 0,0 0.01,0 0.01,0l106.74 0 0 -115.38 26.61 0 26.6 115.39 44.25 0 -31.65 -139.2c-3.37,-14.84 -12.33,-17.65 -22.13,-17.65l0 0zm728.69 134.52c-6.34,0 -11.45,5.11 -11.45,11.44 0,6.33 5.11,11.44 11.45,11.44 6.34,0 11.44,-5.11 11.44,-11.44 0,-0 0,-0.02 0,-0.02 0,-6.31 -5.12,-11.42 -11.42,-11.42 -0.01,0 -0.02,0 -0.02,0l0 0zm0.03 21.87c-5.84,0 -10.3,-4.65 -10.3,-10.43 0,-5.91 4.4,-10.44 10.3,-10.44 5.87,0 10.24,4.56 10.24,10.41 0,5.77 -4.4,10.46 -10.24,10.46l0 0z"/>
   <path class="fil0" d="M946.39 182.57c1.93,-0.31 3.49,-1.38 3.49,-3.58 0,-2.45 -1.34,-3.73 -4.41,-3.73l-5.07 0 0 13.52 1.16 0 0 -6.24 3.53 0 4.06 6.24 1.29 0 -4.05 -6.21zm-1.95 -1.04l-2.88 0 0 -5.26 3.74 0c1.62,0 3.43,0.61 3.43,2.69 0,2.36 -2.24,2.57 -4.28,2.57l0 0zm-673.11 11.38l42.57 0 0 -156.84 -42.57 0 0 156.84 0 0zm548.39 -94.91l0 -40.96c0,0 0,-0 0,-0 0,-11.58 -9.39,-20.97 -20.97,-20.97 0,0 -0,0 -0,0l-40.4 0 -20.41 34.17 0 -34.17 -42.57 0 0 156.84 103.38 0c0,0 0,0 0,0 11.58,0 20.97,-9.39 20.97,-20.97 0,0 0,0 0,0l0 -43.2c0,-6.3 -2.77,-11.11 -7.16,-14.95 4.55,-3.98 7.16,-9.73 7.16,-15.77 0,-0.01 0,-0.02 0,-0.02l0 0zm-41.73 53.46l-40.04 0 0 -16.8 40.04 0 0 16.8zm0 -57.13l-40.04 0 0 -16.8 40.04 0 0 16.8z"/>
  </g>
 </g>
</svg>
