<?xml version="1.0" encoding="UTF-8"?>
<!DOCTYPE svg PUBLIC "-//W3C//DTD SVG 1.1//EN" "http://www.w3.org/Graphics/SVG/1.1/DTD/svg11.dtd">
<!-- Creator: CorelDRAW -->
<svg xmlns="http://www.w3.org/2000/svg" xml:space="preserve" width="12.194mm" height="8.4668mm" version="1.1" style="shape-rendering:geometricPrecision; text-rendering:geometricPrecision; image-rendering:optimizeQuality; fill-rule:evenodd; clip-rule:evenodd"
viewBox="0 0 123.33 85.63"
 xmlns:xlink="http://www.w3.org/1999/xlink"
 xmlns:xodm="http://www.corel.com/coreldraw/odm/2003">
 <defs>
  <style type="text/css">
   <![CDATA[
    .fil1 {fill:#E53124}
    .fil2 {fill:#008CCB}
    .fil0 {fill:#16488B}
   ]]>
  </style>
 </defs>
 <g id="Layer_x0020_1">
  <metadata id="CorelCorpID_0Corel-Layer"/>
  <g id="_2460354395872">
   <polygon class="fil0" points="39.82,58.5 78.64,58.5 59.23,29.31 "/>
   <polygon class="fil1" points="39.85,0 -0,0 39.82,58.5 59.23,29.31 "/>
   <polygon class="fil2" points="78.76,0 59.23,29.31 78.64,58.5 118.61,0 "/>
   <path class="fil0" d="M83.89 56.35l0 -0.68 2.52 0 0 0.68 -0.85 0 0 2.17 -0.83 0 0 -2.17 -0.84 0zm3.96 -0.68l0 0 0.52 1.64 0.51 -1.64 1.18 0 0 2.85 -0.75 0 0 -2.06 -0.62 2.06 -0.65 0 -0.62 -2.05 0 2.05 -0.76 0 0 -2.85 1.18 0z"/>
   <g>
    <polygon class="fil0" points="17.62,67.44 12.95,79.33 8.22,67.44 2.52,67.44 10.14,85.6 15.53,85.6 23.07,67.44 "/>
    <polygon class="fil0" points="36.06,85.62 41.1,85.62 41.1,67.31 36.06,67.31 "/>
    <polygon class="fil0" points="73.3,85.62 78.34,85.62 78.34,67.31 73.3,67.31 "/>
    <polygon class="fil0" points="52.53,71.32 49.83,80.79 47.1,71.32 41.78,71.31 46.55,85.62 52.69,85.62 57.43,71.32 "/>
    <polygon class="fil0" points="79.93,85.62 84.98,85.62 84.98,71.32 79.93,71.32 "/>
    <polygon class="fil0" points="79.93,70 84.98,70 84.98,67.31 79.93,67.31 "/>
    <path class="fil0" d="M96.42 71.32l-9.84 0 0 14.3 5.03 0 0 -11.34 3.78 0 0 11.34 5.05 0 0 -10.66c0,-2.86 -1.81,-3.64 -4.03,-3.64z"/>
    <path class="fil0" d="M68.02 85.62c2.46,0 3.68,-1.19 3.68,-3.37 0,-1.95 0.01,-7.41 0.01,-7.41 0,-2.92 -1.94,-3.52 -3.74,-3.52l-6.57 0c-1.8,0 -3.74,0.59 -3.74,3.52 0,0 0.01,5.46 0.01,7.41 0,2.19 1.22,3.37 3.69,3.37l6.67 0zm-5.27 -2.97l0 0 0 -8.31 3.87 -0.08 0 8.39 -3.87 0z"/>
    <path class="fil0" d="M34.41 74.97c0,-2.87 -1.82,-3.65 -4.3,-3.65l-7.2 0 -1.12 2.69c1.38,0 7.6,0 7.6,0l0 2.04 -5.1 0c-2.07,0 -4.01,0.68 -4.01,3.65 0,1.73 0,2.78 0,2.78 0,2.13 1.27,3.14 3.89,3.14 2,0 10.23,-0.01 10.23,-0.01l0 -10.64zm-5.02 7.68l0 0 -4.28 0 0 -3.91 4.28 0 0 3.91z"/>
    <path class="fil0" d="M101.94 75.16c0,1.92 0,6.8 0,6.8 0,1.31 0.46,2.09 0.76,2.44 0.66,0.75 1.7,1.22 3.56,1.22l8.04 0 0.72 -2.7c-1.39,0 -8.05,0 -8.05,0l0 -2.31 5.35 0c2.22,0 3.58,-0.83 3.58,-3.32 0,-1.73 0,-2.66 0,-2.66 0,-2.59 -1.71,-3.31 -3.96,-3.31 -1.32,0 -3.41,0 -5.7,0 -2.52,0 -4.29,1.09 -4.29,3.84zm5.02 -0.88l0 0 4.28 0 0 3.64 -4.28 0 0 -3.64z"/>
    <path class="fil0" d="M117.16 83.46l0 -0.68 2.52 0 0 0.68 -0.85 0 0 2.17 -0.83 0 0 -2.17 -0.83 0zm3.95 -0.68l0 0 0.52 1.64 0.51 -1.64 1.18 0 0 2.85 -0.75 0 0 -2.06 -0.63 2.06 -0.64 0 -0.62 -2.06 0 2.06 -0.76 0 0 -2.85 1.18 0z"/>
   </g>
  </g>
 </g>
</svg>
