<?xml version="1.0" encoding="UTF-8"?>
<!DOCTYPE svg PUBLIC "-//W3C//DTD SVG 1.1//EN" "http://www.w3.org/Graphics/SVG/1.1/DTD/svg11.dtd">
<!-- Creator: CorelDRAW -->
<svg xmlns="http://www.w3.org/2000/svg" xml:space="preserve" width="23.7062mm" height="8.4668mm" version="1.1" style="shape-rendering:geometricPrecision; text-rendering:geometricPrecision; image-rendering:optimizeQuality; fill-rule:evenodd; clip-rule:evenodd"
viewBox="0 0 370.22 132.23"
 xmlns:xlink="http://www.w3.org/1999/xlink"
 xmlns:xodm="http://www.corel.com/coreldraw/odm/2003">
 <defs>
  <style type="text/css">
   <![CDATA[
    .fil0 {fill:#E31E24}
   ]]>
  </style>
 </defs>
 <g id="Layer_x0020_1">
  <metadata id="CorelCorpID_0Corel-Layer"/>
  <g>
   <path class="fil0" d="M310.06 59.35l4.97 -36.59c1.77,-13.05 12.58,-22.76 25.32,-22.76l10.69 0c5.55,-0 10.83,2.48 14.47,6.8 3.64,4.33 5.29,10.11 4.52,15.79l-4.29 31.62 -12.79 0 0.62 -4.55c0.2,-1.52 -0.24,-3.05 -1.21,-4.21 -0.97,-1.16 -2.37,-1.82 -3.86,-1.82l-19.08 0c-2.55,0 -4.71,1.94 -5.06,4.55l-0.9 6.61c-0.2,1.52 0.24,3.05 1.21,4.21 0.97,1.16 2.37,1.82 3.86,1.82l24.54 0c2.96,-0 5.78,1.32 7.72,3.63 1.94,2.31 2.82,5.39 2.41,8.42l-4.97 36.59c-1.77,13.05 -12.58,22.76 -25.32,22.76l-10.69 0c-5.55,0.01 -10.83,-2.48 -14.47,-6.8 -3.65,-4.33 -5.29,-10.11 -4.52,-15.79l4.3 -31.62 12.79 0 -0.62 4.55c-0.21,1.52 0.24,3.05 1.21,4.21 0.97,1.15 2.37,1.82 3.86,1.82l19.08 0c2.55,-0 4.71,-1.94 5.06,-4.55l0.9 -6.61c0.21,-1.52 -0.24,-3.05 -1.21,-4.21 -0.97,-1.16 -2.37,-1.82 -3.86,-1.82l-24.54 0c-2.96,0 -5.78,-1.32 -7.72,-3.63 -1.94,-2.31 -2.82,-5.39 -2.41,-8.42zm-59 25.82l5.03 -37.02c0.15,-1.14 -0.18,-2.29 -0.91,-3.16 -0.73,-0.87 -1.78,-1.36 -2.89,-1.36l-0.7 0 5.93 -43.64 32.92 0c5.55,-0 10.83,2.48 14.47,6.81 3.64,4.33 5.29,10.11 4.52,15.79l-11.8 86.87c-1.77,13.05 -12.58,22.76 -25.32,22.76l-32.75 0 5.93 -43.63 1.78 0c1.91,-0 3.53,-1.46 3.8,-3.41zm12.32 3.41l6.11 -44.96 16.94 0c1.85,-0 3.61,0.83 4.82,2.27 1.22,1.44 1.76,3.37 1.51,5.26l-3.85 28.32c-0.71,5.22 -5.03,9.1 -10.13,9.11l-15.4 0zm-72.4 -44.96l5.93 -43.64 32.92 0c5.55,-0 10.83,2.48 14.47,6.81 3.65,4.33 5.29,10.11 4.52,15.79l-11.8 86.87c-1.77,13.05 -12.58,22.76 -25.33,22.76l-32.75 0 5.93 -43.63 1.78 0c1.91,-0 3.54,-1.46 3.8,-3.41l5.03 -37.02c0.15,-1.14 -0.18,-2.29 -0.91,-3.16 -0.73,-0.87 -2.48,-1.36 -3.59,-1.36zm11.79 44.96l6.11 -44.96 16.94 0c1.85,-0 3.61,0.83 4.83,2.27 1.21,1.44 1.76,3.37 1.5,5.26l-3.85 28.32c-0.71,5.22 -5.03,9.1 -10.13,9.11l-15.4 0zm-31.48 20.87c-1.77,13.05 -12.58,22.76 -25.32,22.76l-0.46 0c-5.55,0.01 -10.83,-2.48 -14.47,-6.8 -3.64,-4.33 -5.29,-10.11 -4.52,-15.79l8.35 -61.48c0.15,-1.14 -0.18,-2.29 -0.91,-3.16 -0.73,-0.87 -1.78,-1.36 -2.89,-1.36l-0.7 0 5.93 -43.63 23.65 0 -5.93 43.63 -2.42 0c-1.91,0 -3.53,1.45 -3.8,3.42l-4.62 34.01c-0.26,1.9 0.3,3.81 1.51,5.26 1.22,1.44 2.97,2.27 4.82,2.27l2.93 0c5.1,-0 9.42,-3.88 10.13,-9.11l4.26 -31.33c0.15,-1.14 -0.18,-2.29 -0.91,-3.16 -0.73,-0.87 -1.78,-1.36 -2.89,-1.36l-1.34 0 5.93 -43.63 23.66 0 -5.93 43.63 -1.78 0c-1.91,0 -3.53,1.45 -3.8,3.42l-8.48 62.41zm-101.42 22.76l5.93 -43.63 8.95 0 5.49 -40.44c0.15,-1.14 -0.18,-2.29 -0.91,-3.16 -0.73,-0.87 -1.78,-1.36 -2.89,-1.36l-0.56 0c-1.91,0 -3.53,1.45 -3.8,3.42l-0.97 7.16 -12.79 0 4.27 -31.45c1.77,-13.05 12.58,-22.76 25.32,-22.76l10.69 0c5.55,-0 10.83,2.48 14.47,6.8 3.64,4.33 5.29,10.11 4.52,15.79l-4.3 31.62 -12.79 0 0.82 -6.06c0.15,-1.14 -0.18,-2.29 -0.91,-3.16 -0.73,-0.87 -1.78,-1.36 -2.89,-1.36l-0.56 0c-1.91,0 -3.53,1.45 -3.8,3.42l-5.64 41.54 8.95 0 -5.93 43.63 -30.69 0zm-44.39 -71.4c-1.48,0 -2.89,-0.66 -3.86,-1.81 -0.97,-1.15 -1.41,-2.7 -1.21,-4.21l0.9 -6.61c0.35,-2.61 2.52,-4.55 5.06,-4.55l19.08 0c1.48,-0 2.89,0.66 3.86,1.81 0.97,1.15 1.41,2.7 1.21,4.21l-0.62 4.55 12.79 0 4.3 -31.62c0.77,-5.69 -0.88,-11.45 -4.53,-15.78 -3.65,-4.33 -8.9,-6.82 -14.46,-6.82l-10.69 0c-12.75,0.01 -23.56,9.7 -25.32,22.76l-4.97 36.59c-0.41,3.03 0.47,6.1 2.42,8.42 1.95,2.31 4.75,3.64 7.71,3.63l24.55 0c1.48,-0 2.89,0.66 3.86,1.81 0.97,1.15 1.41,2.7 1.21,4.21l-0.9 6.61c-0.35,2.61 -2.52,4.55 -5.06,4.55l-19.08 0c-1.48,0 -2.89,-0.66 -3.86,-1.81 -0.97,-1.15 -1.41,-2.7 -1.21,-4.21l0.62 -4.55 -12.79 0 -4.3 31.62c-0.77,5.69 0.89,11.45 4.53,15.78 3.65,4.33 8.9,6.82 14.46,6.81l10.69 0c12.76,-0 23.56,-9.7 25.32,-22.76l4.97 -36.59c0.41,-3.03 -0.47,-6.1 -2.42,-8.42 -1.95,-2.31 -4.75,-3.64 -7.71,-3.63l-24.55 0zm166.19 -17.19l0 0 0 0zm-0.7 0l0.7 0 -0.7 0z"/>
  </g>
 </g>
</svg>
