<?xml version="1.0" encoding="UTF-8"?>
<!DOCTYPE svg PUBLIC "-//W3C//DTD SVG 1.1//EN" "http://www.w3.org/Graphics/SVG/1.1/DTD/svg11.dtd">
<!-- Creator: CorelDRAW -->
<svg xmlns="http://www.w3.org/2000/svg" xml:space="preserve" width="32.298mm" height="8.5047mm" version="1.1" style="shape-rendering:geometricPrecision; text-rendering:geometricPrecision; image-rendering:optimizeQuality; fill-rule:evenodd; clip-rule:evenodd"
viewBox="0 0 506.34 133.33"
 xmlns:xlink="http://www.w3.org/1999/xlink"
 xmlns:xodm="http://www.corel.com/coreldraw/odm/2003">
 <defs>
  <style type="text/css">
   <![CDATA[
    .str0 {stroke:#2B2A29;stroke-width:1.19;stroke-miterlimit:22.9256}
    .fil0 {fill:#FEFEFE}
    .fil1 {fill:#2B2A29}
    .fil2 {fill:url(#id0)}
   ]]>
  </style>
  <linearGradient id="id0" gradientUnits="userSpaceOnUse" x1="462.94" y1="53.16" x2="99.77" y2="54.81">
   <stop offset="0" style="stop-opacity:1; stop-color:#EC1C24"/>
   <stop offset="1" style="stop-opacity:1; stop-color:#262261"/>
  </linearGradient>
 </defs>
 <g id="Layer_x0020_1">
  <metadata id="CorelCorpID_0Corel-Layer"/>
  <g id="_2460355878304">
   <path class="fil0" d="M68.15 38.92l-19.83 -0.22c-0.09,0 -0.21,0 -0.35,0 -0.16,0 -0.33,0 -0.51,0 -0.2,0 -0.44,0 -0.73,0 -0.29,0 -0.58,0 -0.87,0.01 -3.31,-0.08 -6.31,-0.45 -9,-1.13 -2.66,-0.66 -4.01,-2.7 -4.02,-6.1 -0,-1.18 0.24,-2.1 0.72,-2.77 0.47,-0.69 1.09,-1.23 1.87,-1.61 0.89,-0.5 1.93,-0.85 3.14,-1.05 1.16,-0.2 2.35,-0.34 3.56,-0.45 0.05,0 0.11,0 0.16,-0 0.92,-0 1.85,-0.04 2.77,-0.09 0.98,-0.04 1.9,-0.12 2.77,-0.22 1.36,-0.02 2.7,-0.04 4.02,-0.08 1.3,-0.06 2.59,-0.14 3.86,-0.23 1.56,-0 3.06,-0.04 4.51,-0.1 1.46,-0.06 2.98,-0.09 4.53,-0.1 2.34,-0.01 4.69,-0.02 7.06,-0.03 2.39,-0.02 4.8,0.03 7.23,0.13 3.11,0.08 5.51,0.62 7.18,1.63 1.65,1.02 2.59,3.09 2.8,6.2 0.09,0.39 0.26,0.69 0.5,0.93 0.25,0.25 0.57,0.38 0.95,0.37l29.04 -0.12c0.49,0 0.85,-0.15 1.08,-0.44 0.25,-0.29 0.37,-0.64 0.37,-1.03 0,-0.19 -0,-0.4 -0,-0.65 0,-0.24 0,-0.51 0,-0.82 -0.01,-1.35 -0.07,-2.79 -0.18,-4.29 -0.1,-1.5 -0.25,-2.99 -0.45,-4.45 -0.19,-1.56 -0.51,-3.09 -0.97,-4.59 -0.44,-1.5 -1.05,-2.98 -1.84,-4.44 -2.74,-4.55 -6.24,-7.63 -10.53,-9.22 -4.3,-1.58 -8.73,-2.56 -13.3,-2.94 -1.67,-0.08 -3.27,-0.14 -4.81,-0.2 -1.56,-0.05 -3.12,-0.06 -4.67,-0.06 -0.11,0 -0.18,0 -0.21,0 -0.06,0 -0.13,0 -0.22,0l-20.73 -0.18c-2.73,0.01 -6.02,0.04 -9.86,0.1 -3.84,0.06 -7.79,0.21 -11.87,0.42 -4.18,0.22 -8.27,0.53 -12.28,0.92 -3.98,0.4 -7.33,0.94 -10.04,1.65l0.14 0c-8.25,2.17 -13.52,5.84 -15.79,11.01 -2.26,5.17 -3.37,11.45 -3.34,18.83 0.04,9.44 1.94,16.55 5.72,21.36 3.77,4.8 10.66,7.52 20.67,8.14 8.17,0.45 16.34,0.71 24.51,0.76 8.16,0.07 16.29,0.09 24.36,0.06l4.84 -0.02c3.4,-0.01 6.3,0.38 8.67,1.18 2.4,0.82 3.6,2.8 3.61,5.91 0,1.85 -0.28,3.19 -0.88,4.02 -0.58,0.82 -1.35,1.43 -2.3,1.83 -0.97,0.5 -2.07,0.79 -3.28,0.89 -1.23,0.09 -2.57,0.2 -4.02,0.31 -0.2,0 -0.39,0.01 -0.57,0.01 -0.22,0 -0.54,0 -0.73,0 -3.31,0.21 -6.6,0.37 -9.86,0.48 -3.26,0.1 -6.54,0.17 -9.83,0.18l-14.02 -0.08c-0.09,0 -0.21,0 -0.38,0 -0.15,0 -0.31,0 -0.49,0 -3.4,-0.18 -6.4,-0.61 -9,-1.29 -2.57,-0.66 -3.86,-2.74 -3.88,-6.26 0,-0.29 0,-0.58 0,-0.87 -0,-0.29 -0.05,-0.62 -0.15,-1 -0.11,-0.4 -0.28,-0.7 -0.52,-0.9 -0.25,-0.18 -0.57,-0.27 -0.95,-0.26l-29.18 0.12c-0.4,0 -0.74,0.12 -1.03,0.36 -0.29,0.25 -0.43,0.62 -0.43,1.08l0.02 5.84c0.02,5.65 0.79,10.23 2.31,13.71 1.54,3.5 3.81,6.22 6.83,8.15 2.83,1.83 6.21,3.06 10.15,3.68 3.95,0.61 8.21,1.06 12.77,1.32 3.42,0.18 6.76,0.27 10.08,0.32 3.32,0.04 6.62,0.05 9.92,0.04 2.14,-0.01 4.26,-0.02 6.36,-0.03 2.09,-0 4.19,-0.06 6.33,-0.16 4.18,-0.01 8.4,-0.11 12.63,-0.27 4.23,-0.16 8.49,-0.42 12.76,-0.73 11.38,-0.81 19.92,-3.13 25.64,-6.95 5.73,-3.81 8.56,-12 8.51,-24.55 -0.03,-6.43 -0.87,-11.7 -2.54,-15.82 -1.67,-4.12 -4.21,-7.34 -7.62,-9.66 -3.32,-2.23 -7.3,-3.7 -11.92,-4.4 -4.62,-0.71 -9.75,-1.05 -15.4,-1.02l-19.56 -0.08z"/>
   <path class="fil0" d="M178.63 1.84l-53.85 97.56c0,0.09 -0.05,0.19 -0.16,0.28 -0.09,0.4 0.01,0.79 0.3,1.16 0.29,0.4 0.68,0.59 1.17,0.59l32.98 0c0.29,-0.09 0.55,-0.21 0.79,-0.36 0.25,-0.14 0.42,-0.32 0.51,-0.51l9.14 -16.82 61.12 -0.27 8.82 16.89c0.2,0.11 0.4,0.23 0.6,0.37 0.2,0.14 0.44,0.22 0.73,0.22l32.68 -0c0.49,-0.1 0.88,-0.34 1.17,-0.74 0.29,-0.38 0.38,-0.78 0.29,-1.17 -0.11,-0.09 -0.16,-0.18 -0.17,-0.27l-53.52 -97.1c-0.09,-0.2 -0.26,-0.37 -0.52,-0.51 -0.24,-0.14 -0.5,-0.22 -0.79,-0.21l-39.98 0.17c-0.29,0 -0.53,0.08 -0.73,0.22 -0.2,0.15 -0.39,0.33 -0.57,0.52zm-1.05 59.55l20.69 -38.61c0.2,-0.3 0.39,-0.54 0.57,-0.68 0.2,-0.14 0.44,-0.21 0.73,-0.21 0.29,0 0.56,0.07 0.81,0.21 0.23,0.15 0.41,0.37 0.52,0.68l21.03 38.43c0,0.09 0.05,0.18 0.14,0.27 0.09,0.5 -0.01,0.94 -0.29,1.33 -0.29,0.39 -0.68,0.58 -1.17,0.58l-41.72 0.17c-0.49,0 -0.88,-0.18 -1.17,-0.56 -0.29,-0.4 -0.39,-0.84 -0.3,-1.33 0.11,-0.08 0.16,-0.18 0.16,-0.27z"/>
   <path class="fil0" d="M282.37 2.13l0.41 97.29c0,0.4 0.16,0.72 0.47,0.95 0.29,0.26 0.63,0.37 1.01,0.37l108.54 -0.32c0.49,-0.1 0.86,-0.27 1.11,-0.52 0.23,-0.23 0.35,-0.55 0.34,-0.95l-0.09 -22.04c-0,-0.47 -0.13,-0.83 -0.36,-1.08 -0.26,-0.24 -0.63,-0.35 -1.12,-0.35l-77.47 0.33 -0.06 -14.31 72.22 -0.31c0.49,0 0.85,-0.15 1.09,-0.44 0.25,-0.29 0.37,-0.62 0.37,-1l-0.08 -19.26c-0,-0.48 -0.13,-0.86 -0.39,-1.11 -0.24,-0.23 -0.6,-0.35 -1.09,-0.34l-72.22 0.3 -0.06 -13.72 77.47 -0.33c0.49,-0 0.86,-0.15 1.11,-0.43 0.24,-0.3 0.35,-0.64 0.35,-1.04l-0.09 -22.16c-0,-0.49 -0.12,-0.85 -0.36,-1.08 -0.25,-0.25 -0.63,-0.38 -1.12,-0.38l-108.54 0.47c-0.38,0 -0.72,0.13 -1,0.38 -0.31,0.24 -0.46,0.6 -0.46,1.09z"/>
   <path class="fil0" d="M406.12 1.6l0.42 97.3c0,0.4 0.14,0.71 0.44,0.94 0.29,0.25 0.62,0.38 1,0.38l96.89 -0.28c0.49,-0.1 0.85,-0.27 1.08,-0.53 0.25,-0.23 0.38,-0.55 0.38,-0.95l-0.11 -24.36c0,-0.47 -0.13,-0.84 -0.38,-1.09 -0.24,-0.23 -0.6,-0.35 -1.09,-0.35l-65.82 0.28 -0.3 -71.5c0,-0.49 -0.12,-0.85 -0.36,-1.08 -0.23,-0.25 -0.6,-0.38 -1.08,-0.38l-29.64 0.13c-0.38,0 -0.71,0.13 -1,0.39 -0.29,0.23 -0.43,0.6 -0.43,1.08z"/>
   <path class="fil1 str0" d="M0.96 130.87l0.89 -2.28c1.12,1.01 2.89,1.72 4.6,1.71 2.17,-0.01 3.09,-0.87 3.08,-2.07 -0.02,-3.38 -8.29,-1.15 -8.33,-6.99 -0.01,-2.55 1.77,-4.71 5.6,-4.72 1.66,-0 3.43,0.48 4.63,1.37l-0.8 2.28c-1.25,-0.83 -2.62,-1.22 -3.84,-1.22 -2.15,0 -3.04,0.96 -3.03,2.13 0.02,3.38 8.29,1.14 8.33,6.96 0.01,2.52 -1.8,4.68 -5.63,4.69 -2.17,0 -4.35,-0.76 -5.5,-1.86zm13.57 -5.26l-0.05 -8.89 2.59 -0 0.05 8.8c0.02,3.23 1.33,4.64 3.58,4.64 2.23,-0 3.5,-1.43 3.48,-4.65l-0.05 -8.8 2.56 -0.01 0.05 8.89c0.02,4.62 -2.24,7.11 -6.05,7.12 -3.83,0.01 -6.13,-2.47 -6.15,-7.09l0 0zm14.68 5.19l0.88 -2.28c1.12,1.01 2.92,1.72 4.63,1.71 2.15,-0 3.07,-0.87 3.06,-2.07 -0.02,-3.38 -8.3,-1.15 -8.33,-6.99 -0.01,-2.56 1.77,-4.72 5.6,-4.73 1.69,-0 3.43,0.49 4.65,1.37l-0.8 2.28c-1.25,-0.83 -2.64,-1.23 -3.87,-1.22 -2.14,0 -3.01,0.97 -3.01,2.13 0.02,3.38 8.27,1.14 8.3,6.96 0.01,2.52 -1.8,4.68 -5.6,4.69 -2.18,0 -4.36,-0.76 -5.53,-1.86zm16.27 -11.67l-4.62 0.01 -0.01 -2.49 11.85 -0.03 0.01 2.49 -4.62 0.01 0.08 13.29 -2.61 0.01 -0.07 -13.3zm17.59 9.61l-6.99 0.02 -1.36 3.64 -2.66 0 6.19 -15.8 2.56 -0.01 6.39 15.76 -2.72 0.01 -1.41 -3.63zm-0.88 -2.28l-2.64 -6.91 -2.57 6.93 5.22 -0.01zm6.66 -9.86l2.61 -0.01 0.08 15.78 -2.61 0 -0.09 -15.78zm18.76 -0.05l0.08 15.78 -2.12 0.01 -7.75 -10.66 0.06 10.67 -2.58 0.01 -0.09 -15.78 2.15 -0 7.75 10.68 -0.06 -10.71 2.56 -0zm12.84 12.11l-6.96 0.02 -1.37 3.64 -2.66 0 6.19 -15.8 2.56 -0 6.36 15.76 -2.72 0.01 -1.4 -3.63zm-0.86 -2.28l-2.68 -6.91 -2.57 6.93 5.25 -0.02zm19.14 1.61c0.02,2.71 -1.85,4.28 -5.44,4.29l-6.93 0.02 -0.08 -15.78 6.52 -0.02c3.34,-0 5.15,1.59 5.16,4.08 0.01,1.63 -0.69,2.83 -1.78,3.48 1.5,0.55 2.54,1.87 2.55,3.93zm-9.86 -9.17l0.02 4.34 3.67 -0.01c1.8,-0 2.8,-0.71 2.79,-2.16 -0.01,-1.48 -1.02,-2.18 -2.81,-2.18l-3.67 0.01zm7.25 8.87c-0.01,-1.57 -1.07,-2.27 -3.03,-2.27l-4.18 0.01 0.02 4.55 4.19 -0.01c1.95,-0.01 3.01,-0.68 3,-2.29zm5.32 -11.21l2.58 -0 0.07 13.29 7.29 -0.02 0.01 2.49 -9.87 0.03 -0.09 -15.78zm22.45 13.26l0.01 2.46 -10.44 0.03 -0.08 -15.78 10.16 -0.03 0.01 2.46 -7.58 0.02 0.02 4.09 6.74 -0.02 0.01 2.43 -6.74 0.02 0.02 4.34 7.86 -0.02zm18.85 2.65l-1.75 -1.9c-1.24,1.2 -2.84,1.88 -4.66,1.88 -2.96,0.01 -5.1,-1.71 -5.11,-4.2 -0.01,-1.94 0.93,-3.33 3.18,-4.78 -1.12,-1.29 -1.56,-2.3 -1.57,-3.47 -0.01,-2.22 1.58,-3.73 4.03,-3.73 2.26,-0 3.73,1.31 3.74,3.47 0.01,1.63 -0.83,2.8 -2.83,4.1l3.03 3.22c0.32,-0.74 0.59,-1.64 0.78,-2.65l2.01 0.73c-0.26,1.39 -0.66,2.59 -1.26,3.6l1.77 1.91 -1.37 1.81zm-7.66 -12.53c0,0.71 0.28,1.22 1.29,2.36 1.6,-1.02 2.11,-1.66 2.1,-2.53 -0,-0.89 -0.58,-1.5 -1.61,-1.5 -1.11,0 -1.79,0.71 -1.79,1.67zm4.4 9l-3.69 -3.96c-1.63,1.02 -2.17,1.85 -2.16,2.96 0,1.32 1.13,2.22 2.84,2.21 1.15,-0 2.17,-0.41 3.01,-1.21zm21.39 -0.42l-6.99 0.02 -1.34 3.66 -2.69 0 6.2 -15.79 2.56 -0.01 6.39 15.76 -2.72 0.01 -1.41 -3.65zm-0.88 -2.31l-2.64 -6.88 -2.58 6.89 5.22 -0.01zm9.28 -7.41l0.03 4.8 6.72 -0.02 0.01 2.49 -6.71 0.02 0.03 6.06 -2.61 0 -0.08 -15.81 10.19 -0.03 0.01 2.47 -7.58 0.01zm12.7 -0.03l0.02 4.8 6.74 -0.02 0.01 2.49 -6.74 0.02 0.03 6.06 -2.58 0.01 -0.09 -15.81 10.17 -0.03 0.01 2.46 -7.59 0.02zm8.97 5.42c-0.03,-4.67 3.16,-8.13 7.48,-8.14 4.32,-0.01 7.52,3.43 7.55,8.1 0.03,4.67 -3.14,8.13 -7.46,8.14 -4.32,0.01 -7.55,-3.43 -7.57,-8.1zm12.42 -0.03c-0.02,-3.23 -2.12,-5.53 -4.93,-5.53 -2.82,0.01 -4.91,2.32 -4.89,5.56 0.02,3.22 2.12,5.52 4.95,5.52 2.8,-0.01 4.88,-2.32 4.86,-5.55zm14.53 7.86l-2.88 -4.64c-0.19,0.03 -0.35,0.03 -0.54,0.03l-3.15 0.01 0.02 4.61 -2.58 0.01 -0.08 -15.81 5.73 -0.01c3.67,-0.01 5.96,2.11 5.98,5.61 0.01,2.4 -1.07,4.15 -2.96,4.99l3.24 5.19 -2.78 0.01zm-3.58 -13.31l-3.01 0.01 0.03 6.31 3.02 -0c2.28,-0.01 3.45,-1.21 3.44,-3.18 -0.01,-2 -1.19,-3.14 -3.47,-3.13zm8.96 -2.51l6.09 -0.02c4.51,-0.01 7.63,3.15 7.66,7.88 0.02,4.74 -3.06,7.92 -7.57,7.93l-6.09 0.02 -0.08 -15.81zm6.02 13.28c3.13,-0.01 5.13,-2.17 5.11,-5.44 -0.01,-3.26 -2.04,-5.41 -5.16,-5.4l-3.37 0.01 0.06 10.83 3.37 -0zm19.32 -1.23l-6.98 0.02 -1.34 3.66 -2.69 0.01 6.2 -15.8 2.55 -0.01 6.39 15.76 -2.72 0.01 -1.41 -3.66zm-0.85 -2.3l-2.67 -6.88 -2.57 6.9 5.24 -0.01zm19.15 1.61c0.01,2.7 -1.85,4.28 -5.44,4.28l-6.93 0.02 -0.08 -15.78 6.52 -0.02c3.34,-0.01 5.15,1.58 5.16,4.11 0,1.6 -0.69,2.8 -1.78,3.48 1.5,0.52 2.54,1.84 2.55,3.9zm-9.86 -9.17l0.02 4.34 3.67 -0.01c1.8,-0 2.8,-0.71 2.79,-2.16 -0.01,-1.48 -1.02,-2.18 -2.81,-2.17l-3.67 0.01zm7.23 8.9c-0.01,-1.6 -1.05,-2.27 -3.01,-2.27l-4.18 0.01 0.02 4.55 4.19 -0.01c1.95,-0 2.99,-0.71 2.98,-2.29zm5.32 -11.24l2.61 -0.01 0.07 13.32 7.29 -0.01 0.01 2.46 -9.89 0.03 -0.09 -15.78zm22.47 13.29l0.01 2.43 -10.46 0.03 -0.08 -15.78 10.19 -0.03 0.01 2.46 -7.59 0.02 0.02 4.12 6.72 -0.02 0.01 2.4 -6.71 0.02 0.02 4.37 7.86 -0.02zm18.84 -0.05l0.01 2.43 -10.46 0.03 -0.08 -15.78 10.19 -0.03 0.01 2.46 -7.61 0.02 0.02 4.12 6.74 -0.02 0.01 2.4 -6.74 0.02 0.02 4.37 7.88 -0.02zm15.23 -13.39l0.08 15.78 -2.14 0 -7.75 -10.65 0.06 10.67 -2.55 0 -0.09 -15.78 2.12 -0 7.75 10.68 -0.06 -10.7 2.59 -0.01zm14.29 13.31l0.01 2.43 -10.46 0.03 -0.09 -15.78 10.17 -0.03 0.01 2.46 -7.58 0.02 0.02 4.12 6.74 -0.02 0.01 2.4 -6.74 0.02 0.02 4.36 7.88 -0.02zm12.03 2.39l-2.88 -4.6c-0.16,0.03 -0.36,0.03 -0.52,0.03l-3.15 0.01 0.02 4.58 -2.59 0.01 -0.08 -15.78 5.73 -0.01c3.65,-0.01 5.94,2.1 5.96,5.61 0.01,2.4 -1.07,4.16 -2.93,4.99l3.23 5.16 -2.8 0zm-3.58 -13.28l-3.04 0.01 0.03 6.28 3.05 -0.01c2.25,0 3.45,-1.18 3.44,-3.14 -0.01,-2 -1.21,-3.14 -3.47,-3.13zm18.49 5.18l2.44 -0 0.04 6.31c-1.43,1.33 -3.47,2.01 -5.43,2.01 -4.32,0.02 -7.55,-3.39 -7.58,-8.1 -0.02,-4.71 3.17,-8.13 7.52,-8.14 2.34,-0.01 4.3,0.88 5.61,2.57l-1.62 1.8c-1.09,-1.23 -2.37,-1.78 -3.87,-1.78 -2.96,0 -5.04,2.29 -5.03,5.55 0.02,3.2 2.13,5.53 5.09,5.52 0.98,0 1.95,-0.22 2.85,-0.81l-0.02 -4.92zm11.89 2.46l0.03 5.57 -2.59 0 -0.03 -5.51 -5.55 -10.26 2.77 -0.01 4.12 7.68 4.09 -7.7 2.56 -0.01 -5.41 10.23zm15.21 -7.79l0.02 4.79 6.72 -0.02 0.01 2.5 -6.72 0.02 0.03 6.03 -2.61 0 -0.09 -15.78 10.2 -0.03 0.01 2.46 -7.58 0.02zm8.97 5.42c-0.03,-4.67 3.14,-8.13 7.46,-8.14 4.35,-0.01 7.55,3.39 7.57,8.11 0.03,4.67 -3.14,8.12 -7.49,8.14 -4.32,0.01 -7.52,-3.46 -7.54,-8.1zm12.42 -0.03c-0.02,-3.23 -2.13,-5.56 -4.95,-5.55 -2.8,0 -4.88,2.35 -4.86,5.58 0.02,3.2 2.12,5.53 4.92,5.52 2.83,-0.01 4.91,-2.35 4.89,-5.55zm14.53 7.83l-2.88 -4.6c-0.19,0.03 -0.36,0.03 -0.54,0.03l-3.15 0.01 0.02 4.58 -2.58 0.01 -0.09 -15.78 5.74 -0.01c3.67,-0.01 5.94,2.11 5.95,5.62 0.01,2.37 -1.04,4.13 -2.93,4.99l3.23 5.16 -2.77 0zm-3.58 -13.28l-3.01 0.01 0.03 6.28 3.02 -0.01c2.28,-0 3.44,-1.18 3.43,-3.15 -0.01,-2 -1.19,-3.13 -3.47,-3.13zm14.45 -2.53l2.58 -0 0.08 13.32 7.29 -0.02 0.01 2.46 -9.87 0.03 -0.08 -15.78zm11.93 -0.03l2.59 -0 0.08 15.78 -2.58 0.01 -0.09 -15.78zm8.96 2.44l0.02 4.8 6.74 -0.02 0.01 2.5 -6.74 0.02 0.03 6.02 -2.58 0.01 -0.09 -15.78 10.17 -0.03 0.01 2.46 -7.58 0.02zm20.63 10.8l0.01 2.46 -10.46 0.03 -0.08 -15.78 10.17 -0.03 0.01 2.46 -7.58 0.02 0.02 4.12 6.74 -0.02 0.01 2.4 -6.74 0.02 0.02 4.34 7.88 -0.03z"/>
   <path class="fil2" d="M438.64 1.46l0.3 71.5 65.82 -0.28c0.49,0 0.85,0.12 1.09,0.35 0.25,0.25 0.38,0.61 0.38,1.08l0.11 24.36c0,0.4 -0.13,0.72 -0.38,0.95 -0.23,0.26 -0.59,0.43 -1.08,0.53l-96.89 0.28c-0.38,0 -0.71,-0.13 -1,-0.38 -0.29,-0.23 -0.44,-0.55 -0.44,-0.94l-0.42 -97.3c-0,-0.49 0.14,-0.85 0.43,-1.08 0.29,-0.26 0.62,-0.38 1,-0.39l29.64 -0.13c0.49,0 0.85,0.13 1.08,0.38 0.24,0.23 0.36,0.59 0.36,1.08zm-155.85 97.97l-0.42 -97.29c-0,-0.49 0.15,-0.86 0.46,-1.09 0.28,-0.26 0.62,-0.38 1,-0.38l108.55 -0.47c0.49,0 0.86,0.13 1.11,0.38 0.24,0.23 0.36,0.59 0.36,1.08l0.09 22.16c0,0.4 -0.12,0.74 -0.35,1.04 -0.25,0.29 -0.62,0.43 -1.11,0.43l-77.47 0.33 0.06 13.72 72.22 -0.3c0.49,-0.01 0.85,0.11 1.09,0.34 0.26,0.25 0.38,0.62 0.38,1.11l0.08 19.26c0,0.38 -0.12,0.71 -0.37,1 -0.24,0.29 -0.6,0.44 -1.09,0.44l-72.22 0.31 0.06 14.31 77.47 -0.34c0.49,0 0.86,0.12 1.12,0.35 0.24,0.25 0.36,0.61 0.36,1.08l0.1 22.03c0,0.4 -0.12,0.71 -0.35,0.95 -0.25,0.25 -0.62,0.42 -1.11,0.52l-108.54 0.32c-0.38,0 -0.72,-0.12 -1.01,-0.37 -0.31,-0.24 -0.46,-0.56 -0.46,-0.95zm-81.88 -76.65c-0.11,-0.31 -0.28,-0.54 -0.52,-0.68 -0.25,-0.14 -0.52,-0.21 -0.81,-0.21 -0.29,0 -0.54,0.08 -0.73,0.21 -0.18,0.15 -0.37,0.38 -0.57,0.68l-20.69 38.61c0,0.09 -0.06,0.19 -0.16,0.28 -0.09,0.49 0.01,0.93 0.3,1.33 0.29,0.38 0.68,0.57 1.17,0.56l41.72 -0.18c0.49,0 0.88,-0.19 1.17,-0.58 0.29,-0.4 0.38,-0.84 0.29,-1.33 -0.09,-0.08 -0.13,-0.17 -0.13,-0.27l-21.03 -38.42zm29.7 60.69l-61.12 0.27 -9.14 16.82c-0.09,0.2 -0.26,0.37 -0.51,0.51 -0.23,0.15 -0.5,0.27 -0.79,0.36l-32.98 0c-0.49,0 -0.88,-0.2 -1.17,-0.59 -0.29,-0.38 -0.39,-0.77 -0.3,-1.17 0.11,-0.09 0.16,-0.19 0.16,-0.28l53.85 -97.56c0.18,-0.2 0.37,-0.37 0.57,-0.52 0.2,-0.14 0.45,-0.21 0.73,-0.22l39.98 -0.17c0.29,-0 0.55,0.07 0.79,0.22 0.25,0.14 0.42,0.31 0.52,0.51l53.52 97.1c0,0.09 0.05,0.18 0.16,0.27 0.09,0.39 -0.01,0.78 -0.29,1.17 -0.29,0.4 -0.68,0.64 -1.16,0.74l-32.68 0c-0.29,0 -0.53,-0.08 -0.73,-0.22 -0.2,-0.14 -0.4,-0.27 -0.6,-0.37l-8.82 -16.89zm-228.27 -15.35l29.18 -0.12c0.38,-0 0.7,0.09 0.95,0.26 0.24,0.2 0.41,0.5 0.52,0.9 0.09,0.38 0.13,0.71 0.14,1 0,0.29 0,0.58 0,0.87 0.02,3.52 1.31,5.6 3.88,6.26 2.59,0.68 5.59,1.11 9,1.29 0.18,0 0.34,0 0.49,-0 0.16,0 0.29,0 0.38,0l14.02 0.08c3.29,-0.02 6.57,-0.08 9.83,-0.18 3.26,-0.1 6.55,-0.27 9.86,-0.48 0.19,0 0.51,0 0.73,0 0.18,0 0.37,-0.01 0.57,-0.01 1.45,-0.11 2.78,-0.22 4.02,-0.31 1.21,-0.1 2.3,-0.39 3.28,-0.89 0.96,-0.4 1.72,-1.01 2.3,-1.83 0.59,-0.83 0.88,-2.18 0.88,-4.02 -0.01,-3.11 -1.22,-5.08 -3.61,-5.91 -2.37,-0.8 -5.27,-1.2 -8.67,-1.19l-4.84 0.02c-8.08,0.03 -16.2,0.01 -24.36,-0.06 -8.17,-0.05 -16.34,-0.31 -24.51,-0.76 -10.01,-0.63 -16.91,-3.34 -20.67,-8.14 -3.77,-4.81 -5.67,-11.92 -5.72,-21.36 -0.03,-7.38 1.08,-13.67 3.34,-18.83 2.28,-5.17 7.54,-8.84 15.79,-11.01l-0.14 0c2.71,-0.7 6.06,-1.25 10.04,-1.65 4,-0.4 8.09,-0.71 12.27,-0.92 4.07,-0.22 8.03,-0.37 11.87,-0.43 3.84,-0.06 7.13,-0.09 9.86,-0.1l20.73 0.18c0.09,0 0.16,0 0.22,0 0.03,0 0.11,0 0.21,0 1.56,-0.01 3.12,0.01 4.67,0.06 1.54,0.05 3.14,0.11 4.81,0.2 4.57,0.37 9,1.36 13.3,2.93 4.28,1.59 7.79,4.67 10.53,9.22 0.79,1.46 1.4,2.94 1.84,4.44 0.46,1.5 0.79,3.03 0.97,4.59 0.21,1.47 0.36,2.96 0.45,4.46 0.11,1.5 0.17,2.93 0.18,4.29 0,0.31 0,0.58 0,0.82 0,0.25 0,0.47 0,0.65 0,0.4 -0.12,0.74 -0.37,1.03 -0.24,0.29 -0.6,0.44 -1.09,0.44l-29.04 0.12c-0.38,0 -0.7,-0.12 -0.95,-0.37 -0.23,-0.24 -0.4,-0.54 -0.49,-0.93 -0.21,-3.11 -1.14,-5.18 -2.8,-6.2 -1.67,-1.01 -4.07,-1.55 -7.18,-1.63 -2.43,-0.1 -4.84,-0.14 -7.23,-0.13 -2.37,0.01 -4.72,0.01 -7.06,0.03 -1.56,0 -3.07,0.04 -4.53,0.1 -1.45,0.06 -2.95,0.09 -4.51,0.1 -1.27,0.1 -2.55,0.17 -3.86,0.23 -1.32,0.04 -2.66,0.06 -4.02,0.08 -0.87,0.11 -1.79,0.19 -2.77,0.23 -0.98,0.05 -1.95,0.09 -2.93,0.09l0.16 0c-1.27,0.09 -2.51,0.24 -3.72,0.45 -1.21,0.21 -2.26,0.55 -3.14,1.05 -0.78,0.38 -1.4,0.92 -1.87,1.61 -0.49,0.67 -0.73,1.59 -0.72,2.77 0.01,3.4 1.36,5.43 4.02,6.1 2.68,0.68 5.68,1.05 9,1.13 0.29,-0.01 0.58,-0.01 0.87,-0.01 0.29,0 0.53,-0 0.73,-0 0.18,0 0.36,0 0.51,0 0.14,0 0.27,0 0.35,0l19.83 0.21 19.56 0.08c5.65,-0.02 10.79,0.32 15.4,1.02 4.62,0.7 8.59,2.17 11.92,4.4 3.42,2.32 5.95,5.54 7.62,9.66 1.66,4.12 2.51,9.4 2.54,15.82 0.05,12.55 -2.78,20.73 -8.51,24.54 -5.72,3.83 -14.26,6.15 -25.64,6.96 -4.27,0.32 -8.53,0.57 -12.76,0.73 -4.24,0.15 -8.45,0.25 -12.63,0.27 -2.14,0.1 -4.24,0.15 -6.33,0.16 -2.1,0.01 -4.22,0.02 -6.36,0.03 -3.3,0.01 -6.6,0 -9.91,-0.04 -3.32,-0.04 -6.66,-0.13 -10.08,-0.32 -4.57,-0.26 -8.82,-0.71 -12.77,-1.32 -3.93,-0.62 -7.31,-1.85 -10.15,-3.68 -3.01,-1.93 -5.29,-4.64 -6.83,-8.15 -1.52,-3.49 -2.29,-8.06 -2.31,-13.71l-0.02 -5.84c-0,-0.47 0.14,-0.83 0.43,-1.08 0.29,-0.24 0.63,-0.36 1.03,-0.37z"/>
  </g>
 </g>
</svg>
