<?xml version="1.0" encoding="UTF-8"?>
<!DOCTYPE svg PUBLIC "-//W3C//DTD SVG 1.1//EN" "http://www.w3.org/Graphics/SVG/1.1/DTD/svg11.dtd">
<!-- Creator: CorelDRAW -->
<svg xmlns="http://www.w3.org/2000/svg" xml:space="preserve" width="15.4548mm" height="10.067mm" version="1.1" style="shape-rendering:geometricPrecision; text-rendering:geometricPrecision; image-rendering:optimizeQuality; fill-rule:evenodd; clip-rule:evenodd"
viewBox="0 0 86.25 56.18"
 xmlns:xlink="http://www.w3.org/1999/xlink"
 xmlns:xodm="http://www.corel.com/coreldraw/odm/2003">
 <defs>
  <style type="text/css">
   <![CDATA[
    .fil2 {fill:#2B2A29;fill-rule:nonzero}
    .fil3 {fill:#E23B4D;fill-rule:nonzero}
    .fil1 {fill:#51B050;fill-rule:nonzero}
    .fil0 {fill:#078D58;fill-rule:nonzero}
   ]]>
  </style>
 </defs>
 <g id="Layer_x0020_1">
  <metadata id="CorelCorpID_0Corel-Layer"/>
  <g id="_2460354347008">
   <polygon class="fil0" points="34.63,27.37 32.49,21.57 29.07,21.57 33.21,31.56 36.12,31.56 "/>
   <polygon class="fil1" points="33.23,31.57 36.12,31.56 42.87,13.4 38.84,13.4 "/>
   <path class="fil2" d="M51.32 27.58c-0.64,0.73 -1.46,1.09 -2.45,1.09 -1,0 -1.82,-0.36 -2.46,-1.08 -0.64,-0.72 -0.95,-1.64 -0.95,-2.75 0,-1.1 0.32,-2.01 0.96,-2.74 0.65,-0.73 1.46,-1.09 2.45,-1.09 0.97,0 1.78,0.36 2.43,1.1 0.65,0.73 0.98,1.64 0.98,2.74 0,1.1 -0.32,2.02 -0.96,2.74zm4 -5.38c-0.35,-0.83 -0.85,-1.56 -1.5,-2.2 -0.65,-0.64 -1.41,-1.14 -2.27,-1.48 -0.86,-0.35 -1.75,-0.52 -2.68,-0.52 -0.93,0 -1.83,0.17 -2.68,0.52 -0.85,0.35 -1.6,0.84 -2.25,1.48 -0.67,0.65 -1.18,1.38 -1.53,2.21 -0.35,0.82 -0.52,1.7 -0.52,2.63 0,0.93 0.17,1.8 0.52,2.63 0.35,0.83 0.86,1.56 1.53,2.21 0.65,0.64 1.4,1.14 2.25,1.48 0.85,0.35 1.74,0.52 2.68,0.52 0.92,0 1.81,-0.17 2.66,-0.52 0.85,-0.35 1.62,-0.84 2.28,-1.48 0.66,-0.65 1.16,-1.38 1.51,-2.2 0.34,-0.82 0.52,-1.7 0.52,-2.64 0,-0.93 -0.17,-1.81 -0.52,-2.64z"/>
   <path class="fil2" d="M78.4 27.58c-0.64,0.73 -1.46,1.09 -2.44,1.09 -1,0 -1.82,-0.36 -2.46,-1.08 -0.63,-0.72 -0.95,-1.64 -0.95,-2.75 0,-1.1 0.32,-2.01 0.97,-2.74 0.64,-0.73 1.46,-1.09 2.44,-1.09 0.97,0 1.78,0.36 2.43,1.1 0.65,0.73 0.98,1.64 0.98,2.74 0,1.1 -0.32,2.02 -0.97,2.74zm4 -5.38c-0.35,-0.83 -0.85,-1.56 -1.5,-2.2 -0.65,-0.64 -1.41,-1.14 -2.27,-1.48 -0.86,-0.35 -1.75,-0.52 -2.68,-0.52 -0.93,0 -1.82,0.17 -2.68,0.52 -0.85,0.35 -1.6,0.84 -2.25,1.48 -0.67,0.65 -1.18,1.38 -1.53,2.21 -0.35,0.82 -0.52,1.7 -0.52,2.63 0,0.93 0.17,1.8 0.52,2.63 0.35,0.83 0.86,1.56 1.53,2.21 0.65,0.64 1.4,1.14 2.25,1.48 0.85,0.35 1.75,0.52 2.68,0.52 0.92,0 1.81,-0.17 2.66,-0.52 0.85,-0.35 1.62,-0.84 2.28,-1.48 0.66,-0.65 1.16,-1.38 1.51,-2.2 0.34,-0.82 0.52,-1.7 0.52,-2.64 0,-0.93 -0.17,-1.81 -0.52,-2.64z"/>
   <path class="fil2" d="M64.78 28.69c-2.13,0 -3.84,-1.73 -3.84,-3.87 0,-2.14 1.7,-3.87 3.83,-3.87 1.05,0 1.98,0.42 2.66,1.1l0 -3.25c-0.68,-0.27 -1.08,-0.48 -1.63,-0.62 -0.56,-0.14 -1.1,-0.2 -1.67,-0.2 -0.95,0 -1.8,0.16 -2.58,0.47 -0.78,0.31 -1.47,0.79 -2.08,1.42 -0.65,0.67 -1.14,1.41 -1.46,2.22 -0.32,0.82 -0.48,1.72 -0.48,2.72 0,1.24 0.26,2.36 0.77,3.35 0.51,0.99 1.25,1.81 2.23,2.47 0.5,0.34 1.06,0.6 1.66,0.77 0.6,0.17 1.26,0.25 1.97,0.25 0.57,0 1.09,-0.07 1.65,-0.2 0.56,-0.14 0.95,-0.34 1.63,-0.61l0 -3.25c-0.68,0.68 -1.6,1.1 -2.65,1.1z"/>
   <path class="fil3" d="M23.81 21.56l0 2.18 0 0.89c0,0.93 0.01,1.6 -0.03,2.01 -0.05,0.41 -0.11,0.75 -0.22,1.02 -0.14,0.33 -0.37,0.59 -0.71,0.76 -0.34,0.17 -0.74,0.26 -1.23,0.26 -0.49,0 -0.9,-0.09 -1.24,-0.26 -0.34,-0.18 -0.58,-0.43 -0.71,-0.76 -0.11,-0.27 -0.24,-0.61 -0.28,-1.02 -0.05,-0.41 -0.11,-1.08 -0.11,-2.01l0 -6.34 -3.63 0 0 5.54 0 1.35c0,1.43 0.18,2.49 0.35,3.17 0.18,0.68 0.51,1.26 0.91,1.74 0.45,0.53 1.09,0.93 1.86,1.19 0.78,0.27 1.73,0.4 2.85,0.4 1.11,0 2.06,-0.13 2.84,-0.4 0.78,-0.26 1.39,-0.66 1.84,-1.19 0.41,-0.48 0.6,-1.06 0.77,-1.74 0.17,-0.68 0.16,-1.74 0.16,-3.17l0 -3.62 -3.41 0z"/>
   <polygon class="fil3" points="27.23,20.88 25.51,18.46 23.79,20.88 "/>
   <path class="fil1" d="M70.97 16.61l1.01 0c-5.22,-9.78 -16.86,-16.61 -30.35,-16.61 -13.31,0 -24.82,6.65 -30.14,16.22 -0.08,0.13 -0.16,0.26 -0.23,0.39l0.02 0 1.01 0 0 0c4.98,-8.1 15.03,-13.64 26.59,-13.64 11.56,0 21.61,5.55 26.59,13.64l1.03 0c-5.04,-8.6 -15.53,-14.53 -27.62,-14.53 -5.59,0 -10.84,1.27 -15.36,3.48 5.17,-2.95 11.4,-4.67 18.11,-4.67 12.96,0 24.17,6.44 29.34,15.72z"/>
   <path class="fil1" d="M71.98 39.57l-0.02 0 -1.01 0 -0 0c-4.98,8.1 -15.03,13.64 -26.59,13.64 -11.56,0 -21.61,-5.55 -26.59,-13.64l-1.03 0c5.04,8.6 15.53,14.53 27.62,14.53 5.59,0 10.84,-1.27 15.36,-3.48 -5.17,2.95 -11.4,4.67 -18.1,4.67 -12.96,0 -24.17,-6.44 -29.34,-15.72l-1.01 0c5.22,9.78 16.86,16.61 30.35,16.61 13.31,0 24.82,-6.65 30.14,-16.22 0.08,-0.13 0.16,-0.26 0.23,-0.39z"/>
   <path class="fil2" d="M1.07 35.81c-0.71,-0.19 -1.07,-0.62 -1.07,-1.25 0,-0.78 0.58,-1.42 1.87,-1.42 0.67,0 1.32,0.18 1.68,0.37l-0.28 0.9c-0.34,-0.22 -0.93,-0.39 -1.44,-0.39 -0.59,0 -0.84,0.19 -0.84,0.45 0,0.25 0.17,0.36 0.51,0.45l0.87 0.25c0.85,0.24 1.26,0.63 1.26,1.29 0,0.88 -0.78,1.48 -1.9,1.48 -0.68,0 -1.35,-0.23 -1.65,-0.41l0.23 -0.91c0.34,0.22 0.88,0.44 1.44,0.44 0.56,0 0.88,-0.21 0.88,-0.52 0,-0.25 -0.25,-0.38 -0.67,-0.5l-0.89 -0.24z"/>
   <path class="fil2" d="M5.78 32.99l0 1.71c0.25,-0.3 0.65,-0.49 1.16,-0.49 0.93,0 1.33,0.7 1.33,1.59l0 0.96c0,0.21 0.06,0.36 0.25,0.36 0.12,0 0.23,-0.05 0.36,-0.11l0.04 0.76c-0.17,0.08 -0.46,0.16 -0.78,0.16 -0.54,0 -0.83,-0.28 -0.83,-0.95l0 -1.03c0,-0.53 -0.25,-0.86 -0.73,-0.86 -0.41,0 -0.69,0.34 -0.8,0.63l0 2.14 -0.96 0 0 -4.88 0.96 0z"/>
   <path class="fil2" d="M12.39 35.38c-0.16,-0.17 -0.48,-0.32 -0.8,-0.32 -0.6,0 -0.98,0.41 -0.98,1.03 0,0.61 0.39,1.02 0.98,1.02 0.32,0 0.61,-0.14 0.8,-0.32l0 -1.4zm0.96 1.39c0,0.21 0.05,0.36 0.25,0.36 0.14,0 0.25,-0.05 0.36,-0.11l0.04 0.76c-0.18,0.08 -0.47,0.16 -0.78,0.16 -0.41,0 -0.66,-0.17 -0.76,-0.52 -0.25,0.29 -0.65,0.52 -1.14,0.52 -1,0 -1.68,-0.77 -1.68,-1.85 0,-1.09 0.68,-1.87 1.68,-1.87 0.47,0 0.83,0.13 1.07,0.37l0 -0.31 0.96 0 0 2.49z"/>
   <path class="fil2" d="M16.15 35.39l0 1.4c0.19,0.18 0.49,0.32 0.8,0.32 0.59,0 0.98,-0.41 0.98,-1.02 0,-0.62 -0.39,-1.03 -0.98,-1.03 -0.33,0 -0.65,0.16 -0.8,0.33zm-0.96 3.78l0 -3.77c0,-0.22 -0.05,-0.36 -0.25,-0.36 -0.14,0 -0.31,0.06 -0.36,0.11l-0.04 -0.77c0.05,-0.03 0.4,-0.16 0.78,-0.16 0.38,0 0.64,0.14 0.76,0.47 0.24,-0.28 0.62,-0.46 1.15,-0.46 1,0 1.69,0.78 1.69,1.87 0,1.08 -0.69,1.86 -1.69,1.86 -0.46,0 -0.82,-0.14 -1.07,-0.36l0 1.58 -0.96 0z"/>
   <path class="fil2" d="M20.97 36.77c0,0.21 0.05,0.36 0.25,0.36 0.14,0 0.31,-0.08 0.36,-0.11l0.05 0.76c-0.05,0.04 -0.41,0.16 -0.79,0.16 -0.53,0 -0.82,-0.28 -0.82,-0.95l0 -2.72 0.96 0 0 2.49zm-0.47 -3.98c0.33,0 0.55,0.12 0.55,0.47 0,0.35 -0.22,0.48 -0.55,0.48 -0.34,0 -0.56,-0.13 -0.56,-0.48 0,-0.35 0.23,-0.47 0.56,-0.47z"/>
   <path class="fil2" d="M23.57 34.28l0 0.44c0.25,-0.3 0.65,-0.5 1.16,-0.5 0.93,0 1.33,0.7 1.33,1.59l0 0.96c0,0.21 0.06,0.36 0.25,0.36 0.12,0 0.25,-0.05 0.36,-0.11l0.04 0.76c-0.18,0.09 -0.47,0.16 -0.78,0.16 -0.54,0 -0.83,-0.28 -0.83,-0.95l0 -1.03c0,-0.53 -0.25,-0.86 -0.73,-0.86 -0.41,0 -0.69,0.34 -0.8,0.63l0 2.14 -0.96 0 0 -3.6 0.96 0z"/>
   <path class="fil2" d="M29.31 36.83c0.32,0 0.63,-0.14 0.81,-0.33l0 -1.11c-0.17,-0.17 -0.48,-0.34 -0.81,-0.34 -0.6,0 -0.97,0.37 -0.97,0.89 0,0.52 0.38,0.88 0.97,0.88zm-0.27 -2.61c0.48,0 0.84,0.14 1.08,0.36l0 -0.3 0.96 0 0 3.15c0,1.2 -0.76,1.81 -1.84,1.81 -0.72,0 -1.16,-0.24 -1.4,-0.36l0.21 -0.85c0.23,0.14 0.66,0.36 1.2,0.36 0.46,0 0.88,-0.16 0.88,-0.76l0 -0.32c-0.25,0.22 -0.62,0.36 -1.08,0.36 -1,0 -1.68,-0.78 -1.68,-1.72 0,-0.96 0.68,-1.73 1.68,-1.73z"/>
   <path class="fil2" d="M37.15 35.38c-0.16,-0.17 -0.48,-0.32 -0.8,-0.32 -0.6,0 -0.98,0.41 -0.98,1.03 0,0.61 0.39,1.02 0.98,1.02 0.32,0 0.61,-0.14 0.8,-0.32l0 -1.4zm0.96 1.39c0,0.21 0.05,0.36 0.25,0.36 0.14,0 0.25,-0.05 0.36,-0.11l0.04 0.76c-0.18,0.08 -0.47,0.16 -0.78,0.16 -0.41,0 -0.66,-0.17 -0.76,-0.52 -0.25,0.29 -0.65,0.52 -1.14,0.52 -1,0 -1.68,-0.77 -1.68,-1.85 0,-1.09 0.68,-1.87 1.68,-1.87 0.47,0 0.83,0.13 1.07,0.37l0 -0.31 0.96 0 0 2.49z"/>
   <path class="fil2" d="M42.89 34.28l0 0.44c0.25,-0.3 0.65,-0.5 1.16,-0.5 0.93,0 1.33,0.7 1.33,1.59l0 0.96c0,0.21 0.06,0.36 0.25,0.36 0.12,0 0.25,-0.05 0.36,-0.11l0.04 0.76c-0.18,0.09 -0.47,0.16 -0.78,0.16 -0.54,0 -0.83,-0.28 -0.83,-0.95l0 -1.03c0,-0.53 -0.25,-0.86 -0.73,-0.86 -0.41,0 -0.69,0.34 -0.8,0.63l0 2.14 -0.96 0 0 -3.6 0.96 0z"/>
   <path class="fil2" d="M49.32 35.52c0,-0.29 -0.22,-0.54 -0.71,-0.54 -0.52,0 -0.79,0.31 -0.86,0.66l1.56 0c0.01,-0.03 0.01,-0.09 0.01,-0.12zm0.89 1.97c-0.37,0.3 -0.9,0.49 -1.51,0.49 -1.35,0 -1.96,-0.82 -1.96,-1.88 0,-1.07 0.74,-1.9 1.9,-1.9 1.09,0 1.61,0.67 1.61,1.5 0,0.22 -0.03,0.56 -0.08,0.7l-2.44 0c0.09,0.5 0.41,0.78 1,0.78 0.45,0 0.87,-0.19 1.12,-0.37l0.36 0.69z"/>
   <path class="fil2" d="M54.96 34.28l0 1.95c0,0.5 0.19,0.83 0.65,0.83 0.51,0 0.76,-0.41 0.76,-0.98 0,-0.76 -0.27,-1.43 -0.43,-1.81l1.02 0c0.11,0.29 0.37,1.02 0.37,1.89 0,1.07 -0.61,1.77 -1.66,1.77 -0.65,0 -1,-0.21 -1.22,-0.67 -0.23,0.45 -0.67,0.67 -1.29,0.67 -1.01,0 -1.5,-0.61 -1.5,-1.59l0 -0.96c0,-0.22 -0.04,-0.36 -0.25,-0.36 -0.14,0 -0.3,0.06 -0.36,0.11l-0.04 -0.77c0.23,-0.08 0.5,-0.15 0.82,-0.15 0.59,0 0.8,0.38 0.8,0.93l0 1.07c0,0.57 0.21,0.85 0.65,0.85 0.45,0 0.72,-0.32 0.72,-0.89l0 -1.9 0.96 0z"/>
   <path class="fil2" d="M64.24 34.28l0 1.95c0,0.5 0.19,0.83 0.65,0.83 0.51,0 0.76,-0.41 0.76,-0.98 0,-0.76 -0.27,-1.43 -0.43,-1.81l1.02 0c0.11,0.29 0.37,1.02 0.37,1.89 0,1.07 -0.61,1.77 -1.66,1.77 -0.65,0 -1,-0.21 -1.22,-0.67 -0.23,0.45 -0.67,0.67 -1.29,0.67 -1.01,0 -1.5,-0.61 -1.5,-1.59l0 -0.96c0,-0.22 -0.04,-0.36 -0.26,-0.36 -0.14,0 -0.3,0.06 -0.36,0.11l-0.04 -0.77c0.23,-0.08 0.5,-0.15 0.82,-0.15 0.59,0 0.8,0.38 0.8,0.93l0 1.07c0,0.57 0.21,0.85 0.65,0.85 0.45,0 0.72,-0.32 0.72,-0.89l0 -1.9 0.96 0z"/>
   <path class="fil2" d="M69.52 37.09c0.61,0 1.01,-0.44 1.01,-1 0,-0.58 -0.41,-1.02 -1.01,-1.02 -0.59,0 -1,0.45 -1,1.02 0,0.56 0.41,1 1,1zm0 -2.91c1.13,0 1.94,0.81 1.94,1.9 0,1.08 -0.81,1.88 -1.94,1.88 -1.11,0 -1.92,-0.81 -1.92,-1.88 0,-1.09 0.81,-1.9 1.92,-1.9z"/>
   <path class="fil2" d="M72.82 35.39c0,-0.21 -0.05,-0.36 -0.25,-0.36 -0.14,0 -0.31,0.07 -0.36,0.1l-0.04 -0.76c0.05,-0.05 0.41,-0.16 0.78,-0.16 0.41,0 0.68,0.16 0.78,0.54 0.17,-0.34 0.43,-0.54 0.9,-0.54 0.34,0 0.6,0.12 0.65,0.21l-0.14 0.87c-0.05,-0.08 -0.33,-0.19 -0.66,-0.19 -0.46,0 -0.64,0.4 -0.7,0.82l0 1.95 -0.96 0 0 -2.48z"/>
   <path class="fil2" d="M77.14 32.99l0 3.75c0,0.25 0.1,0.39 0.3,0.39 0.14,0 0.26,-0.05 0.39,-0.11l0.05 0.76c-0.17,0.07 -0.47,0.16 -0.81,0.16 -0.54,0 -0.88,-0.26 -0.88,-0.97l0 -3.98 0.96 0z"/>
   <path class="fil2" d="M80.53 37.11c0.32,0 0.64,-0.16 0.8,-0.32l0 -1.4c-0.19,-0.19 -0.49,-0.33 -0.8,-0.33 -0.59,0 -0.98,0.41 -0.98,1.02 0,0.62 0.39,1.03 0.98,1.03zm1.77 -4.11l0 3.77c0,0.21 0.05,0.36 0.25,0.36 0.11,0 0.23,-0.05 0.36,-0.11l0.05 0.76c-0.17,0.08 -0.49,0.16 -0.79,0.16 -0.38,0 -0.64,-0.14 -0.76,-0.46 -0.23,0.28 -0.61,0.46 -1.15,0.46 -1,0 -1.68,-0.78 -1.68,-1.87 0,-1.09 0.69,-1.86 1.68,-1.86 0.46,0 0.83,0.14 1.08,0.36l0 -1.59 0.96 0z"/>
   <path class="fil2" d="M9.68 18.29l0 6.44c0,0.33 0.02,0.7 0.05,1.12 0.01,0.19 0.03,0.39 0.05,0.6l-2.92 -3.95 -3.09 -4.21 -3.43 0 0 13.04 3.43 0 0 -6.44c0,-0.33 -0.02,-0.7 -0.05,-1.12 -0.02,-0.21 -0.04,-0.43 -0.06,-0.66l5.78 7.93 0.01 -0.01 0.23 0.31 3.41 0 0 -13.04 -3.41 0z"/>
   <path class="fil2" d="M84.61 16.56c0.26,0 0.41,-0.13 0.41,-0.35 0,-0.22 -0.15,-0.34 -0.41,-0.34l-0.39 0 0 0.69 0.39 0zm0.33 0.18l0.39 0.56 -0.33 0 -0.31 -0.51 -0.07 0 -0.39 0 0 0.51 -0.28 0 0 -1.68 0.68 0c0.44,0 0.68,0.21 0.68,0.58 0,0.26 -0.12,0.45 -0.35,0.54zm1.03 -0.23c0,-0.76 -0.61,-1.39 -1.4,-1.39 -0.79,0 -1.4,0.64 -1.4,1.4 0,0.76 0.6,1.39 1.39,1.39 0.79,0 1.41,-0.64 1.41,-1.4zm0.28 0c0,0.92 -0.74,1.69 -1.69,1.69 -0.94,0 -1.67,-0.76 -1.67,-1.68 0,-0.92 0.74,-1.69 1.68,-1.69 0.94,0 1.68,0.76 1.68,1.68z"/>
  </g>
 </g>
</svg>
