<?xml version="1.0" encoding="UTF-8"?>
<!DOCTYPE svg PUBLIC "-//W3C//DTD SVG 1.1//EN" "http://www.w3.org/Graphics/SVG/1.1/DTD/svg11.dtd">
<!-- Creator: CorelDRAW -->
<svg xmlns="http://www.w3.org/2000/svg" xml:space="preserve" width="25.9286mm" height="8.4667mm" version="1.1" style="shape-rendering:geometricPrecision; text-rendering:geometricPrecision; image-rendering:optimizeQuality; fill-rule:evenodd; clip-rule:evenodd"
viewBox="0 0 228.13 74.49"
 xmlns:xlink="http://www.w3.org/1999/xlink"
 xmlns:xodm="http://www.corel.com/coreldraw/odm/2003">
 <defs>
  <style type="text/css">
   <![CDATA[
    .fil1 {fill:#848688;fill-rule:nonzero}
    .fil0 {fill:#ED3237;fill-rule:nonzero}
   ]]>
  </style>
 </defs>
 <g id="Layer_x0020_1">
  <metadata id="CorelCorpID_0Corel-Layer"/>
  <g id="shree-cement-seeklogo.svg">
   <g>
    <path id="path218" class="fil0" d="M66.45 24.05l0 44.14c0.03,3.41 1.89,5.01 4.58,5.22l16.3 -0c1.03,-0.04 0.97,-2.88 -0.8,-2.69 -2.47,0.26 -3.7,-0.96 -3.63,-3.8l0 -43.2c-0.11,-1.94 -1.34,-2.71 -3.33,-2.67l-10.13 0c-2.05,-0.05 -3.06,0.95 -3,3.01zm-23.41 -18.03c-0.21,-4.11 1.9,-6.11 6.33,-6.01l13.56 0c3.29,0 5.18,1.93 4.94,5.37l0 10.61c-0.09,1.91 -2.83,1.75 -2.87,0l0 -8.45c0,-4.87 -5.84,-4.99 -5.84,0.08l0 60.57c-0.04,1.39 2.65,1.55 2.7,0l0 -11.24c-0.05,-2.03 2.98,-2.46 3.02,0l0 11.81c0,3.11 -2.63,4.6 -5.55,4.49l-10.92 0c-3.8,-0.26 -5.7,-3.59 -5.7,-7.59l0.32 -59.64zm-16.74 24.47c-2.39,-1.85 -3.83,-3.94 -3.91,-5.93 -0.11,-2.62 2.65,-4.02 4.73,-2.73 2.03,1.26 3.19,2.94 3.34,5.14 0.15,2.09 -1.7,5.42 -4.16,3.52zm-22.91 16.9l11.32 -4.98 8.37 9.05c4.3,4.65 6.3,11.14 -1.08,14.4l-10.3 4.55c-1.44,0.88 -0.69,3.07 1.1,2.69 9.44,-3.15 18.12,-6.96 25.22,-12.12 9.66,-7.01 0.23,-20.55 -6.55,-25.53 5.07,-8.31 2.93,-15.84 -5.57,-19.23 -6.76,-2.69 -15.23,0.29 -18.47,6.89 -2.69,5.38 -1.16,10.76 4.59,16.13l-11.41 5.8c-2.04,1.06 1.45,2.93 2.77,2.35z"/>
    <g>
     <path id="path222" class="fil1" d="M101.61 35.12l6.87 -0.43c0.15,1.12 0.45,1.97 0.91,2.56 0.74,0.95 1.81,1.42 3.19,1.42 1.03,0 1.83,-0.24 2.39,-0.72 0.56,-0.48 0.83,-1.05 0.83,-1.68 0,-0.6 -0.26,-1.15 -0.8,-1.63 -0.53,-0.48 -1.76,-0.93 -3.7,-1.35 -3.17,-0.71 -5.43,-1.66 -6.77,-2.83 -1.36,-1.18 -2.04,-2.68 -2.04,-4.51 0,-1.2 0.35,-2.34 1.04,-3.41 0.7,-1.07 1.75,-1.9 3.14,-2.52 1.4,-0.61 3.31,-0.91 5.75,-0.91 2.99,0 5.27,0.55 6.84,1.67 1.57,1.11 2.5,2.88 2.8,5.3l-6.81 0.4c-0.18,-1.05 -0.56,-1.82 -1.14,-2.3 -0.58,-0.47 -1.37,-0.71 -2.39,-0.71 -0.84,0 -1.48,0.17 -1.9,0.53 -0.42,0.36 -0.63,0.79 -0.63,1.3 0,0.37 0.17,0.7 0.52,1 0.35,0.31 1.15,0.59 2.42,0.86 3.16,0.68 5.42,1.37 6.79,2.07 1.37,0.7 2.36,1.55 2.98,2.59 0.62,1.03 0.94,2.18 0.94,3.46 0,1.5 -0.42,2.88 -1.25,4.14 -0.83,1.27 -1.99,2.23 -3.48,2.88 -1.49,0.65 -3.36,0.98 -5.63,0.98 -3.98,0 -6.73,-0.76 -8.26,-2.29 -1.55,-1.53 -2.41,-3.48 -2.61,-5.84z"/>
     <path id="path226" class="fil1" d="M125.45 19.48l6.49 0 0 8.61c0.88,-0.91 1.76,-1.57 2.63,-1.96 0.87,-0.39 1.91,-0.59 3.1,-0.59 1.76,0 3.15,0.54 4.17,1.61 1.01,1.07 1.52,2.72 1.52,4.94l0 10.77 -6.52 -0 0 -9.31c0,-1.06 -0.2,-1.81 -0.59,-2.25 -0.4,-0.44 -0.95,-0.66 -1.66,-0.66 -0.78,0 -1.43,0.3 -1.91,0.89 -0.49,0.59 -0.74,1.67 -0.74,3.21l0 8.13 -6.49 0 0 -23.37 -0 0z"/>
     <path id="path230" class="fil1" d="M146.64 25.92l6.07 0 0 2.77c0.59,-1.2 1.19,-2.03 1.82,-2.48 0.62,-0.45 1.39,-0.68 2.3,-0.68 0.96,0 2,0.3 3.14,0.9l-2.01 4.63c-0.76,-0.32 -1.37,-0.48 -1.82,-0.48 -0.85,0 -1.51,0.35 -1.98,1.05 -0.67,0.99 -1.01,2.84 -1.01,5.55l0 5.67 -6.52 0 0 -16.93 0 0z"/>
     <path id="path234" class="fil1" d="M173.32 32.89c-0.13,-1.26 -0.46,-2.16 -1.01,-2.69 -0.55,-0.54 -1.27,-0.82 -2.16,-0.82 -1.03,0 -1.85,0.41 -2.48,1.23 -0.39,0.51 -0.64,1.27 -0.75,2.28l6.4 0zm6.6 3.11l-13.01 0c0.11,1.05 0.4,1.82 0.84,2.33 0.63,0.73 1.45,1.1 2.46,1.1 0.64,0 1.25,-0.16 1.82,-0.48 0.35,-0.2 0.73,-0.56 1.13,-1.07l6.4 0.59c-0.98,1.7 -2.15,2.92 -3.53,3.66 -1.38,0.74 -3.36,1.11 -5.95,1.11 -2.24,0 -4,-0.32 -5.29,-0.95 -1.28,-0.63 -2.35,-1.64 -3.19,-3.02 -0.84,-1.38 -1.27,-3 -1.27,-4.86 0,-2.64 0.85,-4.79 2.54,-6.42 1.7,-1.64 4.04,-2.46 7.03,-2.46 2.42,0 4.34,0.37 5.74,1.1 1.4,0.73 2.48,1.8 3.21,3.19 0.73,1.39 1.1,3.21 1.1,5.44l-0.01 0.73z"/>
     <path id="path238" class="fil1" d="M194.18 32.89c-0.13,-1.26 -0.47,-2.16 -1.01,-2.69 -0.55,-0.54 -1.27,-0.82 -2.16,-0.82 -1.04,0 -1.86,0.41 -2.48,1.23 -0.39,0.51 -0.64,1.27 -0.75,2.28l6.39 0zm6.6 3.11l-13.01 0c0.11,1.05 0.4,1.82 0.84,2.33 0.63,0.73 1.45,1.1 2.46,1.1 0.63,0 1.25,-0.16 1.82,-0.48 0.35,-0.2 0.73,-0.56 1.13,-1.07l6.4 0.59c-0.98,1.7 -2.16,2.92 -3.54,3.66 -1.38,0.74 -3.37,1.11 -5.95,1.11 -2.24,0 -4,-0.32 -5.3,-0.95 -1.28,-0.63 -2.35,-1.64 -3.19,-3.02 -0.84,-1.38 -1.27,-3 -1.27,-4.86 0,-2.64 0.85,-4.79 2.54,-6.42 1.7,-1.64 4.04,-2.46 7.03,-2.46 2.42,0 4.34,0.37 5.73,1.1 1.41,0.73 2.48,1.8 3.21,3.19 0.73,1.39 1.1,3.21 1.1,5.44l0 0.73z"/>
    </g>
    <g>
     <path id="path242" class="fil1" d="M117.43 64.89l6.1 1.85c-0.42,1.71 -1.06,3.14 -1.94,4.29 -0.88,1.15 -1.98,2.01 -3.29,2.6 -1.31,0.59 -2.98,0.87 -4.99,0.87 -2.45,0 -4.45,-0.35 -6,-1.07 -1.55,-0.71 -2.89,-1.97 -4.02,-3.76 -1.12,-1.79 -1.69,-4.09 -1.69,-6.89 0,-3.73 1,-6.6 2.98,-8.6 1.98,-2.01 4.8,-3.01 8.42,-3.01 2.84,0 5.07,0.57 6.7,1.72 1.63,1.14 2.83,2.91 3.62,5.29l-6.15 1.37c-0.21,-0.69 -0.44,-1.19 -0.67,-1.51 -0.39,-0.53 -0.86,-0.94 -1.42,-1.23 -0.57,-0.29 -1.2,-0.43 -1.9,-0.43 -1.57,0 -2.78,0.63 -3.62,1.9 -0.63,0.95 -0.95,2.43 -0.95,4.45 0,2.5 0.38,4.21 1.14,5.14 0.76,0.93 1.82,1.39 3.19,1.39 1.33,0 2.34,-0.37 3.03,-1.12 0.68,-0.74 1.18,-1.83 1.49,-3.25z"/>
     <path id="path246" class="fil1" d="M138.01 64.48c-0.12,-1.21 -0.45,-2.08 -0.98,-2.6 -0.53,-0.52 -1.22,-0.79 -2.08,-0.79 -1,0 -1.79,0.4 -2.39,1.18 -0.38,0.5 -0.62,1.22 -0.72,2.2l6.16 0 0 0zm6.37 3l-12.55 0c0.11,1 0.39,1.75 0.81,2.25 0.6,0.71 1.4,1.06 2.36,1.06 0.62,0 1.21,-0.15 1.76,-0.46 0.34,-0.19 0.7,-0.54 1.09,-1.03l6.16 0.56c-0.94,1.64 -2.07,2.82 -3.4,3.53 -1.34,0.71 -3.25,1.06 -5.74,1.06 -2.16,0 -3.87,-0.3 -5.11,-0.91 -1.24,-0.61 -2.27,-1.58 -3.08,-2.91 -0.81,-1.33 -1.22,-2.89 -1.22,-4.68 0,-2.55 0.82,-4.62 2.45,-6.19 1.64,-1.58 3.89,-2.37 6.77,-2.37 2.33,0 4.18,0.36 5.53,1.06 1.35,0.7 2.39,1.73 3.09,3.07 0.71,1.34 1.06,3.09 1.06,5.24l-0 0.71z"/>
     <path id="path250" class="fil1" d="M146.4 57.77l5.84 0 0 2.38c0.85,-0.99 1.69,-1.7 2.55,-2.12 0.86,-0.42 1.89,-0.63 3.1,-0.63 1.3,0 2.33,0.23 3.09,0.69 0.76,0.46 1.38,1.15 1.86,2.06 0.98,-1.06 1.88,-1.79 2.69,-2.18 0.81,-0.38 1.81,-0.58 3,-0.58 1.76,0 3.12,0.52 4.1,1.56 0.99,1.04 1.47,2.67 1.47,4.88l0 10.25 -6.27 0 0 -9.3c0,-0.74 -0.14,-1.29 -0.43,-1.64 -0.42,-0.56 -0.94,-0.85 -1.57,-0.85 -0.73,0 -1.33,0.27 -1.79,0.8 -0.45,0.54 -0.67,1.39 -0.67,2.57l0 8.42 -6.28 0 0 -8.99c0,-0.72 -0.04,-1.2 -0.12,-1.45 -0.14,-0.41 -0.37,-0.74 -0.69,-1 -0.33,-0.25 -0.71,-0.38 -1.15,-0.38 -0.72,0 -1.31,0.27 -1.77,0.81 -0.46,0.54 -0.69,1.44 -0.69,2.67l0 8.33 -6.27 0 -0 -16.32z"/>
     <path id="path254" class="fil1" d="M188.33 64.48c-0.13,-1.21 -0.45,-2.08 -0.98,-2.6 -0.53,-0.52 -1.22,-0.79 -2.08,-0.79 -1,0 -1.79,0.4 -2.38,1.18 -0.38,0.5 -0.62,1.22 -0.72,2.2l6.16 0 0 0zm6.36 3l-12.54 0c0.11,1 0.38,1.75 0.81,2.25 0.61,0.71 1.4,1.06 2.37,1.06 0.61,0 1.2,-0.15 1.76,-0.46 0.34,-0.19 0.7,-0.54 1.09,-1.03l6.17 0.56c-0.94,1.64 -2.08,2.82 -3.41,3.53 -1.33,0.71 -3.24,1.06 -5.74,1.06 -2.16,0 -3.86,-0.3 -5.11,-0.91 -1.24,-0.61 -2.27,-1.58 -3.08,-2.91 -0.81,-1.33 -1.22,-2.89 -1.22,-4.68 0,-2.55 0.82,-4.62 2.45,-6.19 1.63,-1.58 3.9,-2.37 6.77,-2.37 2.34,0 4.18,0.36 5.53,1.06 1.36,0.7 2.39,1.73 3.1,3.07 0.71,1.34 1.06,3.09 1.06,5.24l0 0.71z"/>
     <path id="path258" class="fil1" d="M196.67 57.77l5.83 0 0 2.65c0.87,-1.08 1.75,-1.85 2.65,-2.32 0.89,-0.47 1.98,-0.7 3.26,-0.7 1.73,0 3.09,0.52 4.07,1.55 0.98,1.03 1.46,2.62 1.46,4.77l0 10.38 -6.28 0 0 -8.98c0,-1.03 -0.19,-1.75 -0.57,-2.17 -0.38,-0.43 -0.91,-0.64 -1.6,-0.64 -0.76,0 -1.37,0.29 -1.84,0.86 -0.48,0.57 -0.71,1.6 -0.71,3.09l0 7.84 -6.26 0 -0.01 -16.32z"/>
     <path id="path262" class="fil1" d="M224.46 51.56l0 6.21 3.44 0 0 4.57 -3.44 0 0 5.79c0,0.7 0.07,1.16 0.2,1.38 0.21,0.35 0.56,0.52 1.08,0.52 0.46,0 1.11,-0.14 1.94,-0.41l0.46 4.33c-1.55,0.34 -2.99,0.5 -4.33,0.5 -1.56,0 -2.71,-0.2 -3.44,-0.6 -0.74,-0.4 -1.29,-1 -1.63,-1.82 -0.36,-0.81 -0.53,-2.13 -0.53,-3.96l0 -5.75 -2.31 0 0 -4.57 2.31 0 0 -3 6.27 -3.21z"/>
    </g>
   </g>
  </g>
 </g>
</svg>
