<?xml version="1.0" encoding="UTF-8"?>
<!DOCTYPE svg PUBLIC "-//W3C//DTD SVG 1.1//EN" "http://www.w3.org/Graphics/SVG/1.1/DTD/svg11.dtd">
<!-- Creator: CorelDRAW -->
<svg xmlns="http://www.w3.org/2000/svg" xml:space="preserve" width="17.5183mm" height="8.4667mm" version="1.1" style="shape-rendering:geometricPrecision; text-rendering:geometricPrecision; image-rendering:optimizeQuality; fill-rule:evenodd; clip-rule:evenodd"
viewBox="0 0 157.34 76.04"
 xmlns:xlink="http://www.w3.org/1999/xlink"
 xmlns:xodm="http://www.corel.com/coreldraw/odm/2003">
 <defs>
  <style type="text/css">
   <![CDATA[
    .fil0 {fill:#FEFEFE}
    .fil5 {fill:#E0E0E0}
    .fil3 {fill:#3C3936}
    .fil2 {fill:#17783C}
    .fil1 {fill:#FEFEFE;fill-rule:nonzero}
    .fil4 {fill:#3C3936;fill-rule:nonzero}
   ]]>
  </style>
 </defs>
 <g id="Layer_x0020_1">
  <metadata id="CorelCorpID_0Corel-Layer"/>
  <g id="_2461210191712">
   <polygon class="fil0" points="-0,62 157.34,62 157.34,-0 -0,-0 "/>
   <polygon class="fil0" points="5.17,57.01 152.53,57.01 152.53,4.1 5.17,4.1 "/>
   <path class="fil1" d="M5.19 56.99l147.32 0 0 -52.87 -147.32 0 0 52.87zm147.34 0.04l-147.37 0 0 -52.95 147.39 0 0 52.95 -0.02 0z"/>
   <polygon class="fil2" points="3.43,59.24 154.48,59.24 154.48,54.87 3.43,54.87 "/>
   <polygon class="fil2" points="150.34,59.37 154.62,59.37 154.62,2.36 150.34,2.36 "/>
   <path class="fil3" d="M23.18 14.75l0 -3.74c-2.59,-1.38 -5.17,-1.51 -7.76,0.14 -2.14,1.65 -3.3,5.88 -0.49,9.27 2.41,2.85 6.06,4.23 3.75,6.68 -1.47,1.11 -3.25,0.23 -5.03,-0.94l0 4.55c3.39,1.96 9.58,1.29 10.39,-4.37 0.67,-5.62 -5.13,-7.17 -5.97,-9.36 -0.89,-2.54 0.71,-4.19 5.12,-2.23z"/>
   <polygon class="fil3" points="24.47,31.47 29.82,10.21 34.77,10.21 39.67,31.47 35.08,31.47 32.18,14.57 29.2,31.47 "/>
   <polygon class="fil3" points="41.28,10.21 51.04,10.21 51.04,14.04 45.64,14.04 45.64,31.38 41.28,31.38 "/>
   <polygon class="fil3" points="63.11,10.25 53.62,10.25 53.62,31.46 63.11,31.46 63.11,27.28 57.99,27.28 57.99,14.04 63.16,14.04 "/>
   <polygon class="fil3" points="65.79,10.21 70.51,20.77 65.34,31.51 70.51,31.51 72.79,24.12 75.59,31.56 80.45,31.56 75.19,20.73 80.05,10.21 75.33,10.21 72.87,16.98 70.47,10.12 "/>
   <path class="fil3" d="M81.97 10.16l6.28 0c3.43,0.45 5.8,2.19 5.88,6.87 -0.71,4.1 -3.2,5.75 -7.75,5.7l0.04 8.6 -4.46 0.13 0 -21.31z"/>
   <path class="fil3" d="M96.36 10.25l6.33 0c3.39,0.4 5.75,2.18 5.84,6.82 -0.71,4.15 -3.21,5.79 -7.75,5.7l0.09 8.6 -4.5 0.14 0 -21.26z"/>
   <polygon class="fil3" points="100.6,22.6 104.52,31.47 109.25,31.47 104.92,21.89 "/>
   <path class="fil4" d="M100.63 22.61l3.91 8.84 4.68 0 -4.31 -9.54 -4.28 0.71zm3.88 8.86l-3.93 -8.89c1.45,-0.24 2.91,-0.48 4.36,-0.72 1.46,3.2 2.9,6.42 4.35,9.63l-4.77 0 -0 -0.01z"/>
   <polygon class="fil3" points="120.21,10.03 110.72,10.03 110.72,31.25 120.21,31.25 120.21,27.06 115.08,27.06 115.08,13.82 120.25,13.82 "/>
   <path class="fil3" d="M132.2 14.53l0 -3.75c-2.54,-1.38 -5.13,-1.51 -7.71,0.13 -2.14,1.65 -3.29,5.89 -0.49,9.27 2.41,2.85 6.06,4.23 3.74,6.68 -1.47,1.12 -3.25,0.22 -5.03,-0.94l0 4.54c3.39,1.96 9.58,1.3 10.39,-4.37 0.67,-5.62 -5.13,-7.17 -5.97,-9.36 -0.89,-2.54 0.67,-4.19 5.08,-2.23z"/>
   <path class="fil3" d="M144.33 14.75l0 -3.74c-2.59,-1.38 -5.17,-1.51 -7.72,0.14 -2.14,1.65 -3.29,5.88 -0.53,9.27 2.45,2.85 6.11,4.23 3.74,6.68 -1.47,1.11 -3.21,0.23 -5.03,-0.94l0 4.55c3.39,1.96 9.58,1.29 10.39,-4.37 0.71,-5.62 -5.08,-7.17 -5.97,-9.36 -0.89,-2.54 0.71,-4.19 5.13,-2.23z"/>
   <path class="fil2" d="M24.34 24.12c13.24,-3.88 28.22,-6.06 46,-6.96 -14.31,2.94 -27.37,6.65 -37.8,12.79 -2.49,-2.27 -5.26,-4.23 -8.2,-5.84z"/>
   <path class="fil4" d="M24.2 24.43l0.05 -0.63 0.19 0.35 -0.24 0.28zm4.19 2.63c-1.34,-0.98 -2.72,-1.83 -4.19,-2.63l0.31 -0.58c1.47,0.76 2.9,1.69 4.28,2.67l-0.4 0.53zm3.92 3.12c-1.25,-1.11 -2.54,-2.14 -3.92,-3.12l0.4 -0.53c1.38,0.98 2.72,2.05 3.97,3.16l-0.16 0.24 -0.29 0.25zm0.4 0.05l-0.23 0.13 -0.18 -0.18 0.25 -0.26 0.15 0.31zm17.38 -7.58c-6.33,2.1 -12.21,4.51 -17.38,7.58l-0.36 -0.58c5.26,-3.08 11.14,-5.52 17.52,-7.62l0.22 0.62zm20.28 -5.17c-7.13,1.47 -13.95,3.12 -20.28,5.17l-0.22 -0.62c6.37,-2.05 13.19,-3.75 20.37,-5.21l0.13 0.66zm-0.09 -0.66l0.09 0.66 -0.04 -0.31 -0.04 -0.35zm-24.7 2.41c7.62,-1.16 15.82,-1.96 24.7,-2.41l0.04 0.66c-8.87,0.45 -17.07,1.25 -24.65,2.41l-0.09 -0.67zm-21.35 4.59c6.64,-1.92 13.68,-3.47 21.35,-4.59l0.09 0.67c-7.62,1.11 -14.66,2.63 -21.26,4.59l-0.18 -0.67z"/>
   <path class="fil5" d="M23.89 40.47c12.88,-4.59 27.81,-6.51 45.2,-8.02 -14.04,3.43 -26.83,7.58 -36.87,14.22 -2.63,-2.1 -5.35,-4.81 -8.33,-6.2z"/>
   <path class="fil0" d="M100.78 13.59l0 5.8c2.18,0.27 3.29,-0.76 3.34,-3.12 0.04,-1.92 -1.07,-2.85 -3.34,-2.67z"/>
   <path class="fil2" d="M78.54 23.94c13.19,-3.88 28.17,-6.06 45.91,-7 -14.3,2.94 -27.32,6.64 -37.75,12.8 -2.49,-2.23 -5.21,-4.24 -8.15,-5.8z"/>
   <path class="fil4" d="M78.36 24.25l0.09 -0.63 0.09 0.32 -0.18 0.31zm4.23 2.59c-1.34,-0.94 -2.76,-1.83 -4.23,-2.59l0.31 -0.63c1.52,0.81 2.94,1.7 4.33,2.68l-0.4 0.53zm3.88 3.16c-1.2,-1.11 -2.54,-2.18 -3.88,-3.16l0.4 -0.53c1.38,0.98 2.67,2.05 3.92,3.16l-0.45 0.53zm0.4 0.05l-0.21 0.13 -0.18 -0.18 0.23 -0.31 0.17 0.35zm17.34 -7.58c-6.33,2.05 -12.13,4.5 -17.34,7.58l-0.31 -0.58c5.21,-3.12 11.09,-5.57 17.47,-7.62l0.18 0.63zm20.32 -5.22c-7.13,1.47 -13.95,3.17 -20.32,5.22l-0.18 -0.63c6.33,-2.1 13.19,-3.75 20.37,-5.21l0.13 0.62zm-0.09 -0.67l0.09 0.67 -0.09 -0.31 0 -0.35zm-24.74 2.41c7.67,-1.16 15.87,-1.92 24.74,-2.41l0.04 0.71c-8.87,0.44 -17.07,1.2 -24.69,2.36l-0.09 -0.66zm-21.26 4.63c6.6,-1.96 13.68,-3.47 21.26,-4.63l0.09 0.66c-7.53,1.16 -14.58,2.68 -21.17,4.59l-0.18 -0.63z"/>
   <path class="fil5" d="M78.63 40.38c12.88,-4.59 27.77,-6.51 45.15,-8.02 -14.04,3.43 -26.83,7.58 -36.82,14.22 -2.63,-2.1 -5.35,-4.81 -8.33,-6.19z"/>
   <polygon class="fil2" points="2.59,6.77 154.67,6.77 154.67,2.36 2.59,2.36 "/>
   <path class="fil3" d="M30.05 49.92c-0.05,-0.54 -0.36,-1.29 -1.07,-1.29 -0.63,0 -1.12,0.67 -1.12,1.96 0,1.25 0.45,1.92 1.12,1.92 0.62,0 0.93,-0.54 1.07,-1.34l-0.54 0c-0.04,0.45 -0.27,0.67 -0.53,0.67 -0.45,0 -0.63,-0.58 -0.63,-1.25 0,-1.07 0.4,-1.29 0.63,-1.29 0.4,0 0.49,0.4 0.53,0.63l0.54 0zm-7.58 -1.2l-1.83 0 0 3.7 1.87 0 0 -0.67 -1.38 0 0 -0.94 1.2 0 0 -0.67 -1.2 0 0 -0.76 1.34 0 0 -0.66zm-5.03 2.05l0 1.65 0.49 0 0 -3.7 -0.49 0 0 1.38 -0.94 0 0 -1.38 -0.53 0 0 3.7 0.53 0 0 -1.65 0.94 0zm16.27 -2.14l0 0.63c-0.27,0 -0.67,0.27 -0.67,1.33 0,1.03 0.4,1.29 0.67,1.29l0 0.63c-0.36,0 -1.21,-0.18 -1.21,-1.92 0,-1.78 0.85,-1.96 1.21,-1.96zm-20.95 0.76l0.71 0 0 -0.66 -1.96 0 0 0.66 0.71 0 0 3.04 0.54 0 0 -3.04zm27.05 -0.66l-0.71 0 -0.44 2.94 -0.45 -2.94 -0.76 0 0 3.7 0.49 0 0 -3.08 0.45 3.08 0.49 0 0.45 -3.08 0.04 0 0 3.08 0.44 0 0 -3.7zm-6.1 3.79l0 -0.63c0.27,0 0.67,-0.27 0.67,-1.29 0,-1.07 -0.4,-1.33 -0.67,-1.33l0 -0.63c0.31,0 1.16,0.18 1.16,1.96 0,1.74 -0.85,1.92 -1.16,1.92zm9.76 -3.79l0 0.63 -0.45 0 0 1.11 0.45 0 0 0.63 -0.45 0 0 1.34 -0.49 0 0 -3.7 0.94 0zm24.38 0l-0.49 0 0 3.7 1.74 0 0 -0.67 -1.25 0 0 -3.03zm-6.01 0l-1.78 0 0 3.7 1.83 0 0 -0.67 -1.34 0 0 -0.94 1.21 0 0 -0.67 -1.21 0 0 -0.76 1.3 0 0 -0.66zm-5.04 0.66l0.76 0 0 -0.66 -2.01 0 0 0.66 0.76 0 0 3.04 0.49 0 0 -3.04zm-3.7 -0.66l-1.83 0 0 3.7 1.87 0 0 -0.67 -1.33 0 0 -0.94 1.16 0 0 -0.67 -1.16 0 0 -0.76 1.29 0 0 -0.66zm-5.57 0l-0.53 0 0 3.7 1.74 0 0 -0.67 -1.2 0 0 -3.03zm-4.06 2.36l0 -0.63 0.04 0c0.36,0 0.36,-0.45 0.36,-0.58 0,-0.36 -0.09,-0.53 -0.4,-0.53l0 -0.63 0.18 0c0.45,0 0.76,0.45 0.76,1.2 0,0.32 -0.14,1.16 -0.8,1.16l-0.14 0zm29.24 -2.45l0 0.63c-0.27,0 -0.67,0.27 -0.67,1.33 0,1.03 0.4,1.29 0.67,1.29l0 0.63c-0.31,0 -1.16,-0.18 -1.16,-1.92 0,-1.78 0.85,-1.96 1.16,-1.96zm35.52 2.68c0,0.45 0.14,1.2 1.03,1.2 0.22,0 0.98,-0.09 0.98,-1.2 0,-0.67 -0.32,-0.85 -0.67,-0.98l-0.58 -0.22c-0.09,-0.04 -0.27,-0.09 -0.27,-0.4 0,-0.32 0.22,-0.45 0.45,-0.45 0.45,0 0.49,0.4 0.49,0.58l0.49 0c0,-0.49 -0.23,-1.2 -0.94,-1.2 -0.8,0 -0.94,0.72 -0.94,1.11 0,0.85 0.36,0.98 0.76,1.12l0.27 0.09c0.27,0.09 0.45,0.18 0.45,0.45 0,0.4 -0.27,0.49 -0.54,0.49 -0.44,0 -0.49,-0.4 -0.49,-0.58l-0.49 0zm-7.31 0c0,0.45 0.14,1.2 1.03,1.2 0.22,0 0.98,-0.09 0.98,-1.2 0,-0.67 -0.31,-0.85 -0.67,-0.98l-0.58 -0.22c-0.09,-0.04 -0.26,-0.09 -0.26,-0.4 0,-0.32 0.22,-0.45 0.44,-0.45 0.45,0 0.49,0.4 0.49,0.58l0.49 0c0,-0.49 -0.22,-1.2 -0.94,-1.2 -0.8,0 -0.94,0.72 -0.94,1.11 0,0.85 0.36,0.98 0.76,1.12l0.27 0.09c0.27,0.09 0.44,0.18 0.44,0.45 0,0.4 -0.26,0.49 -0.53,0.49 -0.44,0 -0.49,-0.4 -0.49,-0.58l-0.49 0zm-2.49 -1.38c0,-0.54 -0.32,-1.29 -1.03,-1.29 -0.62,0 -1.11,0.67 -1.11,1.96 0,1.25 0.44,1.92 1.11,1.92 0.58,0 0.94,-0.54 1.03,-1.34l-0.49 0c-0.09,0.45 -0.27,0.67 -0.54,0.67 -0.44,0 -0.62,-0.58 -0.62,-1.25 0,-1.07 0.35,-1.29 0.62,-1.29 0.4,0 0.49,0.4 0.54,0.63l0.49 0zm-4.68 -1.2l-0.54 0 0 3.7 0.54 0 0 -3.7zm-3.74 0.66l0.76 0 0 -0.66 -2 0 0 0.66 0.76 0 0 3.04 0.49 0 0 -3.04zm-5.62 1.92c0,0.45 0.13,1.2 1.03,1.2 0.22,0 0.98,-0.09 0.98,-1.2 0,-0.67 -0.31,-0.85 -0.67,-0.98l-0.58 -0.22c-0.09,-0.04 -0.27,-0.09 -0.27,-0.4 0,-0.32 0.22,-0.45 0.44,-0.45 0.45,0 0.49,0.4 0.49,0.58l0.49 0c0,-0.49 -0.22,-1.2 -0.94,-1.2 -0.8,0 -0.93,0.72 -0.93,1.11 0,0.85 0.35,0.98 0.75,1.12l0.27 0.09c0.27,0.09 0.45,0.18 0.45,0.45 0,0.4 -0.27,0.49 -0.54,0.49 -0.45,0 -0.49,-0.4 -0.49,-0.58l-0.49 0zm-2.59 -2.59l-0.49 0 0 3.7 0.49 0 0 -3.7zm-4.15 2.32l0.54 0c-0.09,0.76 -0.45,0.84 -0.58,0.84 -0.36,0 -0.72,-0.27 -0.72,-1.29 0,-0.93 0.36,-1.33 0.72,-1.33 0.35,0 0.53,0.49 0.53,0.63l0.49 0c0,-0.53 -0.31,-1.25 -1.07,-1.25 -0.8,0 -1.2,0.94 -1.2,1.96 0,1.29 0.53,1.92 1.16,1.92 0.45,0 0.63,-0.31 0.76,-0.54l0.05 0.45 0.31 0 0 -2.01 -0.98 0 0 0.63zm-4.94 1.47l0 -0.63c0.27,0 0.67,-0.27 0.67,-1.29 0,-1.07 -0.4,-1.33 -0.67,-1.33l0 -0.63c0.31,0 1.16,0.18 1.16,1.96 0,1.74 -0.84,1.92 -1.16,1.92zm41.18 -3.88l0 0.63c-0.27,0 -0.67,0.27 -0.67,1.33 0,1.03 0.4,1.29 0.67,1.29l0 0.63c-0.31,0 -1.16,-0.18 -1.16,-1.92 0,-1.78 0.84,-1.96 1.16,-1.96zm17.48 0.09l-0.49 0 0 3.7 0.49 0 0 -3.7zm-3.7 0.66l0.71 0 0 -0.66 -1.96 0 0 0.66 0.72 0 0 3.04 0.53 0 0 -3.04zm-3.75 -0.66l-0.54 0 0 2.45c0,0.45 -0.13,0.71 -0.48,0.71 -0.22,0 -0.45,-0.22 -0.45,-0.76l0 -2.41 -0.49 0 0 2.45c0,0.35 0.04,0.67 0.18,0.89 0.22,0.4 0.53,0.45 0.76,0.45 0.62,0 1.02,-0.4 1.02,-1.38l0 -2.41zm-5.75 0l-0.49 0 0 3.7 1.7 0 0 -0.67 -1.21 0 0 -3.03zm-4.28 3.79l0 -0.63c0.27,0 0.67,-0.27 0.67,-1.29 0,-1.07 -0.4,-1.33 -0.67,-1.33l0 -0.63c0.31,0 1.16,0.18 1.16,1.96 0,1.74 -0.84,1.92 -1.16,1.92zm21.22 -3.88l0 0.63c-0.27,0 -0.63,0.27 -0.63,1.33 0,1.03 0.36,1.29 0.63,1.29l0 0.63c-0.31,0 -1.16,-0.18 -1.16,-1.92 0,-1.78 0.84,-1.96 1.16,-1.96zm8.33 2.68c0,0.45 0.18,1.2 1.07,1.2 0.18,0 0.94,-0.09 0.94,-1.2 0,-0.67 -0.31,-0.85 -0.62,-0.98l-0.63 -0.22c-0.09,-0.04 -0.22,-0.09 -0.22,-0.4 0,-0.32 0.22,-0.45 0.4,-0.45 0.45,0 0.49,0.4 0.49,0.58l0.49 0c0,-0.49 -0.18,-1.2 -0.93,-1.2 -0.81,0 -0.94,0.72 -0.94,1.11 0,0.85 0.4,0.98 0.76,1.12l0.27 0.09c0.27,0.09 0.45,0.18 0.45,0.45 0,0.4 -0.27,0.49 -0.49,0.49 -0.45,0 -0.53,-0.4 -0.53,-0.58l-0.49 0zm-3.03 0l0 0 -0.98 -2.59 -0.53 0 0 3.7 0.49 0 0 -2.63 0.98 2.63 0.49 0 0 -3.7 -0.45 0 0 2.59zm-5.31 1.2l0 -0.63c0.31,0 0.67,-0.27 0.67,-1.29 0,-1.07 -0.35,-1.33 -0.67,-1.33l0 -0.63c0.35,0 1.2,0.18 1.2,1.96 0,1.74 -0.85,1.92 -1.2,1.92z"/>
   <path class="fil0" d="M86.38 13.5l0 5.8c2.14,0.32 3.25,-0.76 3.34,-3.07 0,-1.96 -1.11,-2.86 -3.34,-2.73z"/>
   <polygon class="fil3" points="81.48,6.95 151.72,6.95 151.72,5.44 81.48,5.44 "/>
   <path class="fil4" d="M81.5 6.93l70.21 0 0 -1.48 -70.21 0 0 1.48zm70.23 0.04l-70.26 0 0 -1.55 70.28 0 0 1.55 -0.02 0z"/>
   <polygon class="fil2" points="2.59,58.88 6.91,58.88 6.91,5.13 2.59,5.13 "/>
   <polygon class="fil3" points="150.34,54.87 151.85,54.87 151.85,5.44 150.34,5.44 "/>
   <path class="fil4" d="M150.36 54.85l1.48 0 0 -49.39 -1.48 0 0 49.39zm1.5 0.04l-1.53 0 0 -49.47 1.55 0 0 49.47 -0.02 0z"/>
   <polygon class="fil3" points="6.96,7.04 73.86,7.04 73.86,5.53 6.96,5.53 "/>
   <path class="fil4" d="M6.97 7.02l66.86 0 0 -1.48 -66.86 0 0 1.48zm66.88 0.04l-66.92 0 0 -1.55 66.94 0 0 1.55 -0.02 0z"/>
   <polygon class="fil3" points="82.77,2.5 83.71,2.5 81.52,6.95 80.59,6.95 "/>
   <path class="fil4" d="M82.77 2.48l0.97 0c-0.73,1.5 -1.47,3 -2.21,4.5l-0.97 0c0.74,-1.5 1.47,-3 2.2,-4.5l0.01 0zm0.91 0.04l-0.89 0 -2.16 4.42 0.89 0 2.17 -4.42z"/>
   <polygon class="fil0" points="75.41,2.19 82.95,2.19 80.45,7.22 72.92,7.22 "/>
   <polygon class="fil3" points="2.59,59.59 154.58,59.59 154.58,58.08 2.59,58.08 "/>
   <path class="fil4" d="M2.6 59.57l151.95 0 0 -1.48 -151.95 0 0 1.48zm151.97 0.04l-152.01 0 0 -1.55 152.03 0 0 1.55 -0.02 0z"/>
   <path class="fil4" d="M33.97 69.4l-0.27 0c-0.85,0.05 -1.38,0.27 -2.05,1.03l-0.04 0 0.22 -0.85 -2.99 0 -1.02 4.55 -0.4 1.74 0.4 0 2.63 0 0.53 -2.41c0.18,-0.8 0.67,-1.25 1.47,-1.25 0.4,0 0.58,0.14 0.84,0.32l0.4 -1.87 0.27 -1.25z"/>
   <path class="fil4" d="M50.99 72.83c-0.09,0.35 -0.22,0.76 -0.71,0.76 -0.49,0 -0.4,-0.4 -0.36,-0.76l0.76 -3.25 -3.03 0 -0.76 3.56c-0.45,2 1.07,2.9 2.85,2.9 1.83,0 3.75,-0.9 4.15,-2.9l0.81 -3.56 -2.99 0 -0.71 3.25z"/>
   <polygon class="fil4" points="34.85,69.58 33.7,74.66 33.43,75.86 33.7,75.86 36.46,75.86 37.84,69.58 "/>
   <path class="fil4" d="M43.01 72.7c-0.09,0.36 -0.4,0.76 -0.76,0.89 -0.09,0 -0.14,0.04 -0.22,0.04 -0.49,0 -0.67,-0.45 -0.58,-0.94 0.09,-0.4 0.4,-0.76 0.8,-0.84 0.04,0 0.09,-0.04 0.18,-0.04 0.45,0 0.66,0.45 0.58,0.89zm1.12 -3.3c-0.63,0 -1.34,0.36 -1.87,0.8 -0.09,0.09 -0.18,0.13 -0.22,0.22l-0.09 0 0.31 -0.98 0.14 -0.54 0.58 -2.67 -0.71 0 -2.27 0 -2.14 9.63 2.85 0 0.13 -0.94 0.09 0c0.27,0.53 0.71,0.94 1.34,1.07 0.14,0 0.27,0.05 0.45,0.05 1.69,0 2.94,-1.74 3.3,-3.25 0.31,-1.61 -0.14,-3.39 -1.87,-3.39z"/>
   <path class="fil4" d="M127.48 69.09c0.54,0 1.02,-0.14 1.43,-0.49 0.27,-0.22 0.49,-0.53 0.58,-0.98 0.14,-0.63 -0.09,-1.12 -0.58,-1.34 -0.22,-0.09 -0.49,-0.13 -0.76,-0.13 -0.94,0 -1.78,0.53 -2.01,1.47 -0.22,1.02 0.49,1.47 1.34,1.47z"/>
   <path class="fil4" d="M14.71 69.09c0.45,0 0.89,-0.09 1.25,-0.35 0.36,-0.23 0.63,-0.58 0.76,-1.12 0.18,-0.71 -0.18,-1.2 -0.76,-1.38 -0.18,-0.09 -0.35,-0.09 -0.58,-0.09 -0.94,0 -1.78,0.53 -2,1.47 -0.22,1.02 0.49,1.47 1.33,1.47z"/>
   <polygon class="fil4" points="59.99,70.87 60.3,69.58 59.99,69.62 59.28,69.67 59.73,67.53 56.7,67.53 56.21,69.67 55.49,69.58 54.96,72.03 55.72,71.94 54.87,75.86 57.9,75.86 58.75,71.94 59.77,72.03 "/>
   <path class="fil4" d="M8.25 71.49c-0.18,0.76 -0.63,1.25 -1.2,1.52 -0.31,0.13 -0.67,0.18 -1.03,0.18l-0.22 0 0.76 -3.48 0.22 0 0.27 0c0.98,0.09 1.47,0.67 1.2,1.78zm-1.03 -4.59l-0.17 0 -3.08 0 -1.96 8.96 4.06 0c0.35,0 0.67,0 0.98,-0.04 2.18,-0.4 3.92,-1.96 4.41,-4.28 0.71,-3.29 -1.25,-4.63 -4.23,-4.63z"/>
   <polygon class="fil4" points="16.13,69.58 15.95,69.58 13.1,69.58 11.72,75.86 14.75,75.86 15.95,70.43 "/>
   <polygon class="fil4" points="27.81,71.36 28.22,69.58 27.81,69.62 27.19,69.67 27.63,67.53 24.6,67.53 24.16,69.67 23.4,69.58 22.87,72.03 23.62,71.94 22.78,75.86 25.81,75.86 26.7,71.94 27.68,72.03 "/>
   <path class="fil4" d="M20.28 71.18c0.49,0 0.94,0.22 1.25,0.53l1.11 -1.78c-0.58,-0.36 -1.52,-0.54 -2.27,-0.54 -1.34,0 -3.03,0.67 -3.39,2.23 -0.27,1.2 0.58,1.61 1.56,1.74 0.22,0.05 0.58,0.05 0.54,0.4 -0.09,0.22 -0.36,0.36 -0.54,0.36 -0.53,0 -1.07,-0.31 -1.43,-0.58l-0.18 -0.13 -0.98 1.6 -0.18 0.31c0.04,0.05 0.09,0.05 0.18,0.09 0.76,0.36 1.61,0.63 2.5,0.63 1.43,0 3.16,-0.72 3.52,-2.32 0.27,-1.3 -0.49,-1.69 -1.56,-1.87 -0.4,-0.04 -0.71,-0.09 -0.66,-0.4 0.04,-0.22 0.31,-0.27 0.53,-0.27z"/>
   <path class="fil4" d="M36.46 69.09c0.49,0 1.03,-0.14 1.38,-0.49 0.27,-0.22 0.49,-0.53 0.58,-0.98 0.18,-0.63 -0.09,-1.12 -0.58,-1.34 -0.22,-0.09 -0.45,-0.13 -0.76,-0.13 -0.94,0 -1.78,0.53 -1.96,1.47 -0.22,1.02 0.45,1.47 1.33,1.47z"/>
   <polygon class="fil4" points="128.9,69.58 125.87,69.58 125.07,73.19 124.49,75.86 125.07,75.86 127.52,75.86 128.9,69.62 "/>
   <path class="fil4" d="M135.23 69.4c-0.98,0 -1.56,0.49 -2.27,1.16l-0.09 0 0.36 -0.98 -2.94 0 -1.38 6.29 2.98 0 0.72 -3.08c0.04,-0.36 0.17,-0.89 0.66,-0.89 0.54,0 0.4,0.53 0.32,0.89l-0.67 3.08 3.03 0 0.84 -3.88c0.32,-1.38 -0.04,-2.59 -1.56,-2.59z"/>
   <path class="fil4" d="M123.87 69.71l0.04 -0.26c0.09,-0.4 0.31,-0.85 0.84,-0.85 0.09,0 0.22,0.04 0.32,0.09 0.04,0 0.04,0.05 0.04,0.05l0.53 -2.45c-0.18,-0.04 -0.36,-0.09 -0.58,-0.09 -0.22,-0.04 -0.45,-0.04 -0.71,-0.04 -1.88,0 -2.9,1.02 -3.3,2.85l-0.14 0.67 -0.8 -0.09 -0.53 2.45 0.8 -0.09 -0.84 3.92 3.03 0 0.85 -3.92 0.98 0.09 0.53 -2.45 -1.07 0.13z"/>
   <path class="fil4" d="M142.23 71.94l-0.71 0 -0.71 0c0.09,-0.4 0.31,-0.76 0.71,-0.8 0.05,-0.04 0.09,-0.04 0.14,-0.04 0.45,0 0.67,0.4 0.58,0.84zm-0.31 -2.54c-0.13,0 -0.27,0.05 -0.4,0.05 -1.82,0.17 -3.47,1.43 -3.92,3.39 -0.45,2.18 1.11,3.21 3.08,3.21 0.27,0 0.53,-0.05 0.84,-0.09 1.25,-0.22 2.55,-0.94 3.12,-2.14l-2.94 0c-0.04,0.09 -0.09,0.18 -0.18,0.27 -0.14,0.13 -0.35,0.22 -0.53,0.22 -0.63,0 -0.58,-0.53 -0.49,-1.07l1.02 0 3.39 0c0.67,-2.36 -0.76,-3.84 -2.99,-3.84z"/>
   <polygon class="fil4" points="59.99,74.62 59.73,75.86 59.99,75.86 62.76,75.86 64.14,69.58 61.11,69.58 "/>
   <path class="fil4" d="M116.15 71.94l-0.71 0 -0.71 0c0.09,-0.4 0.35,-0.76 0.71,-0.8 0.04,-0.04 0.09,-0.04 0.13,-0.04 0.45,0 0.67,0.4 0.58,0.84zm-0.27 -2.54c-0.18,0 -0.31,0.05 -0.45,0.05 -1.61,0.13 -3.08,1.15 -3.7,2.76 -0.09,0.18 -0.13,0.4 -0.18,0.63 -0.18,0.76 -0.09,1.38 0.18,1.87 0.49,0.89 1.61,1.34 2.85,1.34 0.27,0 0.58,-0.05 0.85,-0.09 1.25,-0.22 2.54,-0.94 3.17,-2.14l-2.94 0c-0.04,0.09 -0.14,0.18 -0.22,0.27 -0.13,0.13 -0.32,0.22 -0.53,0.22 -0.63,0 -0.58,-0.53 -0.45,-1.07l0.98 0 3.39 0c0.67,-2.36 -0.76,-3.84 -2.94,-3.84z"/>
   <path class="fil4" d="M150.34 72.7c-0.09,0.36 -0.4,0.76 -0.75,0.89 -0.09,0 -0.14,0.04 -0.22,0.04 -0.49,0 -0.67,-0.45 -0.59,-0.94 0.1,-0.4 0.41,-0.76 0.81,-0.84 0.04,0 0.09,-0.04 0.18,-0.04 0.45,0 0.67,0.45 0.58,0.89zm1.34 -6.46l-0.58 2.67 -0.22 1.52 -0.09 0c-0.22,-0.49 -0.72,-0.81 -1.2,-0.94 -0.18,-0.04 -0.32,-0.09 -0.45,-0.09 -1.78,0 -2.99,1.78 -3.34,3.39 -0.32,1.51 0.18,3.25 1.87,3.25 0.67,0 1.33,-0.31 1.92,-0.76 0.09,-0.14 0.22,-0.22 0.35,-0.35l0.04 0 -0.27 0.94 2.86 0 2.13 -9.63 -3.03 0z"/>
   <path class="fil4" d="M107.69 72.7c-0.09,0.36 -0.4,0.76 -0.8,0.89 -0.04,0 -0.13,0.04 -0.22,0.04 -0.49,0 -0.67,-0.45 -0.53,-0.94 0.09,-0.4 0.35,-0.76 0.75,-0.84 0.05,0 0.14,-0.04 0.18,-0.04 0.49,0 0.71,0.45 0.62,0.89zm4.32 -6.46l-0.27 0 -2.76 0 -0.58 2.67 -0.18 1.52 -0.13 0c-0.22,-0.49 -0.67,-0.81 -1.21,-0.94 -0.13,-0.04 -0.26,-0.09 -0.44,-0.09 -1.74,0 -2.99,1.78 -3.34,3.39 -0.31,1.51 0.18,3.25 1.87,3.25 0.67,0 1.34,-0.31 1.92,-0.76 0.14,-0.14 0.27,-0.22 0.36,-0.35l0.09 0 -0.26 0.94 2.8 0 1.87 -8.38 0.27 -1.25z"/>
   <path class="fil4" d="M69.26 72.74c-0.09,0.44 -0.45,0.75 -0.84,0.84 -0.09,0.04 -0.14,0.04 -0.18,0.04 -0.49,0 -0.8,-0.4 -0.67,-0.89 0.09,-0.45 0.45,-0.8 0.85,-0.89 0.04,0 0.13,-0.04 0.18,-0.04 0.53,0 0.76,0.45 0.66,0.94zm-0.13 -3.35c-0.22,0 -0.49,0.05 -0.71,0.09 -1.78,0.22 -3.39,1.38 -3.79,3.3 -0.45,2.1 1.12,3.25 3.08,3.25 0.22,0 0.45,-0.05 0.71,-0.05 1.69,-0.27 3.34,-1.38 3.74,-3.21 0.49,-2.19 -0.98,-3.39 -3.03,-3.39z"/>
   <path class="fil4" d="M63.38 66.15c-0.93,0 -1.78,0.53 -2,1.47 -0.22,1.02 0.49,1.47 1.34,1.47 0.89,0 1.78,-0.45 2,-1.47 0.22,-0.94 -0.4,-1.47 -1.34,-1.47z"/>
   <path class="fil4" d="M78.8 69.4c-0.94,0 -1.51,0.49 -2.23,1.16l-0.09 0 0.35 -0.98 -2.94 0 -1.43 6.29 3.03 0 0.67 -3.08c0.09,-0.36 0.22,-0.89 0.71,-0.89 0.54,0 0.41,0.53 0.32,0.89l-0.67 3.08 3.03 0 0.85 -3.88c0.31,-1.38 -0.05,-2.59 -1.61,-2.59z"/>
   <path class="fil4" d="M91.42 70.11c-0.09,0.45 -0.35,0.67 -0.66,0.72 -0.18,0.04 -0.36,0.04 -0.54,0.04l-0.22 0 0.36 -1.52 0.4 0c0.44,0.04 0.8,0.14 0.66,0.76zm0.18 -3.21l-0.84 0 -3.04 0 -1.96 8.96 3.12 0 0.67 -2.85 0.04 0 0.76 2.85 0.4 0 3.29 0 -1.25 -2.9c-0.14,-0.27 -0.32,-0.4 -0.45,-0.54l0 -0.09c1.3,-0.4 1.96,-0.98 2.23,-2.32 0.53,-2.27 -0.98,-3.12 -2.99,-3.12z"/>
   <path class="fil4" d="M99.53 71.94l-0.71 0 -0.72 0c0.09,-0.4 0.36,-0.76 0.72,-0.8 0.04,-0.04 0.09,-0.04 0.13,-0.04 0.45,0 0.67,0.4 0.58,0.84zm-0.27 -2.54c-0.13,0 -0.31,0.05 -0.44,0.05 -1.83,0.17 -3.43,1.43 -3.83,3.39 -0.49,2.18 1.02,3.21 2.98,3.21 0.27,0 0.58,-0.05 0.85,-0.09 1.25,-0.22 2.54,-0.94 3.16,-2.14l-2.94 0c-0.04,0.09 -0.13,0.18 -0.22,0.27 -0.14,0.13 -0.31,0.22 -0.54,0.22 -0.63,0 -0.58,-0.53 -0.44,-1.07l0.98 0 3.39 0c0.67,-2.36 -0.76,-3.84 -2.94,-3.84z"/>
  </g>
 </g>
</svg>
