<?xml version="1.0" encoding="UTF-8"?>
<!DOCTYPE svg PUBLIC "-//W3C//DTD SVG 1.1//EN" "http://www.w3.org/Graphics/SVG/1.1/DTD/svg11.dtd">
<!-- Creator: CorelDRAW -->
<svg xmlns="http://www.w3.org/2000/svg" xml:space="preserve" width="28.0955mm" height="8.4667mm" version="1.1" style="shape-rendering:geometricPrecision; text-rendering:geometricPrecision; image-rendering:optimizeQuality; fill-rule:evenodd; clip-rule:evenodd"
viewBox="0 0 622.55 187.61"
 xmlns:xlink="http://www.w3.org/1999/xlink"
 xmlns:xodm="http://www.corel.com/coreldraw/odm/2003">
 <defs>
  <style type="text/css">
   <![CDATA[
    .fil1 {fill:#221F1F;fill-rule:nonzero}
    .fil0 {fill:#FF9900;fill-rule:nonzero}
   ]]>
  </style>
 </defs>
 <g id="Layer_x0020_1">
  <metadata id="CorelCorpID_0Corel-Layer"/>
  <g id="_2459723269360">
   <path id="path8" class="fil0" d="M386.22 146.72c-36.18,26.67 -88.62,40.89 -133.76,40.89 -63.3,0 -120.29,-23.41 -163.41,-62.35 -3.39,-3.06 -0.35,-7.24 3.71,-4.85 46.53,27.07 104.06,43.36 163.49,43.36 40.08,0 84.17,-8.29 124.71,-25.5 6.12,-2.6 11.25,4.01 5.26,8.46z"/>
   <path id="path10" class="fil0" d="M401.26 129.51c-4.61,-5.91 -30.57,-2.79 -42.22,-1.41 -3.55,0.43 -4.09,-2.66 -0.89,-4.88 20.68,-14.55 54.6,-10.35 58.56,-5.47 3.96,4.91 -1.03,38.91 -20.46,55.15 -2.98,2.49 -5.83,1.17 -4.5,-2.14 4.37,-10.9 14.15,-35.31 9.51,-41.25z"/>
   <g>
    <path id="path12" class="fil1" d="M359.85 20.49l0 -14.15c0,-2.14 1.63,-3.58 3.58,-3.58l63.33 0c2.03,0 3.66,1.46 3.66,3.58l0 12.11c-0.03,2.03 -1.73,4.69 -4.77,8.89l-32.82 46.86c12.19,-0.3 25.07,1.52 36.12,7.75 2.49,1.41 3.17,3.47 3.36,5.5l0 15.09c0,2.06 -2.28,4.47 -4.66,3.23 -19.49,-10.22 -45.36,-11.33 -66.91,0.11 -2.19,1.19 -4.5,-1.19 -4.5,-3.25l0 -14.34c0,-2.3 0.03,-6.23 2.33,-9.73l38.02 -54.52 -33.09 -0c-2.03,0 -3.66,-1.44 -3.66,-3.55l0 0zm0 0l0 0 0 0z"/>
   </g>
   <g>
    <path id="path14" class="fil1" d="M128.83 108.75l-19.27 0c-1.84,-0.14 -3.31,-1.52 -3.44,-3.28l0 -98.89c0,-1.98 1.65,-3.55 3.71,-3.55l17.97 0c1.87,0.08 3.36,1.52 3.5,3.31l0 12.93 0.35 0c4.69,-12.49 13.49,-18.32 25.36,-18.32 12.06,0 19.59,5.83 25.01,18.32 4.66,-12.49 15.26,-18.32 26.61,-18.32 8.07,0 16.91,3.33 22.3,10.81 6.1,8.32 4.85,20.41 4.85,31l-0.03 62.41c0,1.98 -1.65,3.58 -3.71,3.58l-19.24 0c-1.92,-0.14 -3.47,-1.68 -3.47,-3.58l0 -52.41c0,-4.17 0.38,-14.58 -0.54,-18.54 -1.44,-6.64 -5.75,-8.51 -11.33,-8.51 -4.66,0 -9.54,3.12 -11.52,8.1 -1.98,4.99 -1.79,13.33 -1.79,18.94l0 52.41c0,1.98 -1.65,3.58 -3.71,3.58l-19.24 0c-1.95,-0.14 -3.47,-1.68 -3.47,-3.58l-0.03 -52.41c0,-11.03 1.81,-27.26 -11.87,-27.26 -13.85,0 -13.31,15.83 -13.31,27.26l0 52.41c0,1.98 -1.65,3.58 -3.71,3.58l0 0zm0 0l0 0 0 0z"/>
   </g>
   <g>
    <path id="path16" class="fil1" d="M484.94 0.95c28.59,0 44.06,24.55 44.06,55.77 0,30.16 -17.1,54.09 -44.06,54.09 -28.07,0 -43.36,-24.55 -43.36,-55.15 0,-30.78 15.47,-54.71 43.36,-54.71l0 0zm0.16 20.19c-14.2,0 -15.09,19.35 -15.09,31.41 0,12.09 -0.19,37.88 14.93,37.88 14.93,0 15.64,-20.81 15.64,-33.49 0,-8.34 -0.35,-18.32 -2.87,-26.23 -2.17,-6.88 -6.48,-9.57 -12.6,-9.57l0 0zm0 0l0 0 0 0z"/>
   </g>
   <path id="path18" class="fil1" d="M566.08 108.75l-19.19 0c-1.92,-0.14 -3.47,-1.68 -3.47,-3.58l-0.03 -98.91c0.16,-1.82 1.76,-3.23 3.71,-3.23l17.86 0c1.68,0.08 3.06,1.22 3.44,2.77l0 15.12 0.35 0c5.39,-13.52 12.95,-19.97 26.26,-19.97 8.64,0 17.07,3.12 22.49,11.65 5.04,7.91 5.04,21.22 5.04,30.78l0 62.25c-0.21,1.73 -1.81,3.12 -3.71,3.12l-19.32 0c-1.76,-0.14 -3.22,-1.44 -3.41,-3.12l0 -53.71c0,-10.81 1.25,-26.64 -12.06,-26.64 -4.69,0 -9,3.14 -11.14,7.91 -2.71,6.04 -3.06,12.06 -3.06,18.73l0 53.25c-0.03,1.98 -1.71,3.58 -3.77,3.58z"/>
   <g>
    <g>
     <path class="fil1" d="M309.37 61.52l0 -4.17c-13.93,0 -28.64,2.98 -28.64,19.4 0,8.32 4.31,13.96 11.71,13.96 5.42,0 10.27,-3.33 13.33,-8.75 3.8,-6.67 3.61,-12.93 3.61,-20.43l0 0zm19.43 46.96c-1.27,1.14 -3.12,1.22 -4.55,0.46 -6.39,-5.31 -7.53,-7.78 -11.06,-12.84 -10.57,10.78 -18.05,14.01 -31.76,14.01 -16.2,0 -28.83,-10 -28.83,-30.02 0,-15.64 8.48,-26.29 20.54,-31.49 10.46,-4.61 25.07,-5.42 36.23,-6.69l0 -2.49c0,-4.58 0.35,-10 -2.33,-13.96 -2.36,-3.55 -6.86,-5.01 -10.81,-5.01 -7.35,0 -13.9,3.77 -15.5,11.57 -0.33,1.73 -1.6,3.44 -3.33,3.52l-18.7 -2.01c-1.57,-0.35 -3.31,-1.63 -2.87,-4.04 4.31,-22.66 24.77,-29.49 43.09,-29.49 9.38,0 21.63,2.5 29.02,9.59 9.38,8.75 8.48,20.43 8.48,33.14l0 30.03c0,9.02 3.74,12.98 7.26,17.86 1.25,1.73 1.52,3.82 -0.06,5.12 -3.93,3.28 -10.92,9.38 -14.77,12.79l-0.06 -0.06 0 0zm0 0l0 0 0 0z"/>
    </g>
   </g>
   <g>
    <path id="path30" class="fil1" d="M56.77 61.52l0 -4.17c-13.93,0 -28.64,2.98 -28.64,19.4 0,8.32 4.31,13.96 11.71,13.96 5.42,0 10.27,-3.33 13.33,-8.75 3.8,-6.67 3.61,-12.93 3.61,-20.43l0 0zm19.43 46.96c-1.27,1.14 -3.12,1.22 -4.55,0.46 -6.39,-5.31 -7.53,-7.78 -11.06,-12.84 -10.57,10.78 -18.05,14.01 -31.76,14.01 -16.2,0 -28.83,-10 -28.83,-30.02 0,-15.64 8.48,-26.29 20.54,-31.49 10.46,-4.61 25.07,-5.42 36.23,-6.69l0 -2.49c0,-4.58 0.35,-10 -2.33,-13.96 -2.36,-3.55 -6.86,-5.01 -10.81,-5.01 -7.35,0 -13.9,3.77 -15.5,11.57 -0.33,1.73 -1.6,3.44 -3.33,3.52l-18.7 -2.01c-1.57,-0.35 -3.31,-1.63 -2.87,-4.04 4.31,-22.66 24.77,-29.49 43.09,-29.49 9.38,0 21.63,2.5 29.02,9.59 9.38,8.75 8.48,20.43 8.48,33.14l0 30.03c0,9.02 3.74,12.98 7.26,17.86 1.25,1.73 1.52,3.82 -0.06,5.12 -3.93,3.28 -10.92,9.38 -14.77,12.79l-0.06 -0.06 0 0zm0 0l0 0 0 0z"/>
   </g>
  </g>
 </g>
</svg>
