<?xml version="1.0" encoding="UTF-8"?>
<!DOCTYPE svg PUBLIC "-//W3C//DTD SVG 1.1//EN" "http://www.w3.org/Graphics/SVG/1.1/DTD/svg11.dtd">
<!-- Creator: CorelDRAW -->
<svg xmlns="http://www.w3.org/2000/svg" xml:space="preserve" width="19.9478mm" height="8.4668mm" version="1.1" style="shape-rendering:geometricPrecision; text-rendering:geometricPrecision; image-rendering:optimizeQuality; fill-rule:evenodd; clip-rule:evenodd"
viewBox="0 0 3151.15 1337.5"
 xmlns:xlink="http://www.w3.org/1999/xlink"
 xmlns:xodm="http://www.corel.com/coreldraw/odm/2003">
 <defs>
  <style type="text/css">
   <![CDATA[
    .fil1 {fill:#FEFEFE}
    .fil3 {fill:#252422}
    .fil0 {fill:#FEFEFE;fill-rule:nonzero}
    .fil2 {fill:#E53026;fill-rule:nonzero}
   ]]>
  </style>
 </defs>
 <g id="Layer_x0020_1">
  <metadata id="CorelCorpID_0Corel-Layer"/>
  <g id="_2460206438192">
   <path class="fil0" d="M881.33 25.72l0 313.16c0,72.6 -41.94,87.83 -77.11,87.83 -49.98,0 -78.62,-31.97 -78.62,-87.83l0 -313.16 -159.41 0 0 315.47c0,137.59 80.34,207.34 238.8,207.34 158.11,0 234.95,-67.8 234.95,-207.34l0 -315.47 -158.62 0zm-703.19 402.11l0 -104.29c0,-4.87 3.98,-8.83 8.88,-8.83l46.02 0 21.58 0.81c19.9,1.56 67,5.28 67,57.12 0,57.97 -43.82,61.55 -64.88,63.28 0.17,-0.03 -22.18,0.79 -22.18,0.79l-47.53 0c-4.9,0 -8.88,-3.98 -8.88,-8.88zm0 -203.97l0 -98.12c0,-4.91 3.98,-8.88 8.88,-8.88l41.4 0 23.11 0.82c29.62,2.34 60.12,11.06 60.12,57.9 0,45.45 -29.68,53.99 -58.76,56.38 0.16,-0.05 -22.94,0.77 -22.94,0.77l-42.94 0c-4.9,0 -8.88,-3.97 -8.88,-8.88zm-159.36 -205.04l0 518.98 251.06 0c18.7,0 61.94,-1.48 81.43,-4.49 89.28,-15.64 132.81,-63.96 132.81,-147.64 0,-65.18 -32.12,-108.15 -90.42,-120.93l-3.68 -0.73c-4.12,-0.82 -7.14,-4.5 -7.14,-8.7l0 -8.42c0,-4.23 3.02,-7.88 7.14,-8.7l3.82 -0.77c43.68,-8.72 74.17,-49.62 74.17,-99.41 0,-65.26 -37.44,-102.76 -114.39,-114.65 -17.71,-2.97 -58.94,-4.53 -76.09,-4.53l-258.71 0zm1906.81 0l0 185.14c0,4.87 -3.98,8.83 -8.85,8.83l-136.47 0c-4.91,0 -8.88,-3.97 -8.88,-8.83l0 -185.14 -159.41 0 0 518.98 159.41 0 0 -196.61c0,-4.9 3.97,-8.88 8.88,-8.88l136.47 0c4.87,0 8.85,3.98 8.85,8.88l0 196.61 159.39 0 0 -518.98 -159.39 0zm269.88 0l0 518.98 365.64 0 0 -117.21 -197.4 0c-4.85,0 -8.83,-3.97 -8.83,-8.83l0 -75.18c0,-4.9 3.98,-8.83 8.83,-8.83l179.8 0 0 -104.96 -179.8 0c-4.85,0 -8.83,-3.98 -8.83,-8.88l0 -69c0,-4.9 3.98,-8.88 8.83,-8.88l186.67 0 0 -117.21 -354.91 0zm622.48 228.85l0 -110.42c0,-4.9 3.98,-8.86 8.89,-8.86l36.02 0 20.17 0.81c23.76,2.05 68.43,5.88 68.43,60.17 0,60.53 -46.49,64.63 -66.36,66.36 0.19,-0.03 -20.73,0.79 -20.73,0.79l-37.53 0c-4.91,0 -8.89,-3.98 -8.89,-8.85zm-160.13 -228.85l0 518.98 160.13 0 0 -175.88c0,-4.91 3.98,-8.88 8.89,-8.88l17.63 0c31.86,0 39.52,3.25 55.64,40.58 0,0.05 50.83,117.96 62.13,144.18l175.66 0c-16,-38.59 -66.47,-159.14 -84.01,-187.32 -14.82,-23.7 -27.99,-30.09 -37.88,-32.98 -3.78,-1.12 -6.35,-4.57 -6.35,-8.5l0 -6.13c0,-3.84 2.8,-7.33 6.43,-8.55l15.04 -4.98c16.74,-7.06 71.28,-36.25 71.28,-116.06 0,-74.36 -32.13,-119.44 -101.21,-141.83 -40,-12.64 -92.84,-12.64 -131.43,-12.64l-211.95 0zm-1535.75 265.66c0,167.31 101.01,263.3 277.13,263.3 77.47,0 108.37,-7.54 118.43,-10.87l0 -126.31c-30.33,9.18 -72.05,9.98 -85.46,9.98 -89.65,0 -145.32,-55.37 -145.32,-144.57 0,-92.36 52.67,-145.32 144.54,-145.32 37.14,0 68.01,7.01 83.98,11.47 0.11,-18.91 0.63,-111.97 0.66,-123.63 -14,-3.05 -50.53,-9.67 -103.01,-9.67 -184.89,0 -290.95,100.45 -290.95,275.61z"/>
   <path class="fil1" d="M2069.04 875.42c1.85,13.52 8.58,62.98 8.58,62.98 0,0 0.08,226.7 0.08,243.18l38.02 0 0 -312.62c-12.15,1.67 -35.87,4.93 -46.68,6.46zm-348.02 0c1.85,13.52 8.58,62.98 8.58,62.98l0.08 178.9c0,2.45 -1.04,4.79 -2.83,6.49 -17.23,16.02 -41.86,34.44 -79.89,34.44 -47.06,0 -70.9,-27.6 -70.9,-82.05l0 -207.22c-12.15,1.67 -35.84,4.93 -46.65,6.46 1.82,13.52 8.55,62.98 8.55,62.98l0.06 157.29c0,56.85 35.4,93.58 90.11,93.58 33.98,0 64.51,-12.56 90.77,-37.33 2.37,-2.23 5.83,-3 8.91,-1.93 3.13,1.04 5.39,3.71 5.91,6.95 0,0 3.11,18.56 4.82,28.89 10.11,-1.67 27.93,-4.61 37.82,-6.24 -1.82,-13.25 -8.59,-63.22 -8.59,-63.22 0,0 -0.06,-228.66 -0.11,-247.44 -12.13,1.67 -35.83,4.93 -46.63,6.46zm-657.39 33.82c-2.31,2.61 -5.88,3.62 -9.18,2.61 -3.3,-1 -5.75,-3.82 -6.24,-7.25 0,0 -3.38,-24.12 -5.01,-35.61 -10.22,1.71 -27.74,4.57 -37.6,6.21 1.83,13.25 8.63,63.2 8.63,63.2 0,0 0.08,226.7 0.08,243.18l37.99 0 0 -236.39c0,-2.48 1.03,-4.87 2.89,-6.52 24.41,-22.37 52,-32.87 87.69,-34.44l0 -37.03c-29.98,2.27 -55.53,15.39 -79.25,42.04zm178.44 198.28c0,-42.92 41.37,-53.39 72.49,-57.55l50.82 -7c2.56,-0.33 5.12,0.46 7.05,2.12 1.94,1.67 3.02,4.12 3.02,6.7l0 71.07c0,2.53 -1.07,4.94 -2.97,6.65 -18.91,16.71 -41.31,32.21 -76.95,32.21 -31.99,0 -53.46,-21.8 -53.46,-54.2zm-19.08 -218.44c3.82,7.84 8.72,17.79 12.59,25.62 19.79,-9.21 38.32,-16 63.42,-16 68.53,0 76.44,49.18 76.44,86.2l0 29.26c0,4.53 -3.38,8.33 -7.91,8.8l-58.53 6.29c-47.58,5.01 -104.24,23.87 -104.24,85.26 0,47.25 28.96,75.43 77.5,75.43 34.31,0 57.75,-15.45 82.44,-38.69 2.42,-2.27 5.88,-2.97 8.99,-1.9 3.13,1.07 5.39,3.82 5.88,7.09 0,0 2.75,18.89 4.27,29.37 10.25,-1.63 28.26,-4.57 38.21,-6.19 -1.93,-13.38 -9.16,-63.14 -9.16,-63.14 -0.08,-0.44 -0.11,-0.85 -0.11,-1.26l0 -155.38c0,-58.16 -38.53,-94.29 -100.55,-94.29 -32.75,0 -59.93,7.42 -89.24,23.54zm1000.69 142.5c0,100.2 48.35,157.69 132.58,157.69 27.38,0 52.94,-5.64 76.69,-15.34 -3.66,-8.83 -8.33,-19.98 -11.8,-28.37 -16.16,6.65 -33.13,12.67 -53.74,12.67 -70.12,0 -105.7,-45.68 -105.7,-135.71 0,-75.21 42.04,-123.82 107.1,-123.82 21.33,0 39.86,5.06 55.89,10.73 3.21,-9.24 8.1,-23.4 11.45,-32.91 -20.47,-7.05 -41.12,-10.98 -64.56,-10.98 -71.48,0 -147.92,43.63 -147.92,166.04zm294.96 -83.65c0,52.64 37.44,69.52 55.45,77.66 0.03,0 60.64,27.9 60.64,27.9 19.87,8.94 39.33,20.35 39.33,51.25 0,33.9 -26.78,54.15 -71.61,54.15 -20.65,0 -43.25,-5.42 -68.48,-15.89 -3.27,9.46 -7.91,23.02 -10.96,31.82 22.04,8.85 50.03,13.74 82.24,13.74 64.31,0 107.51,-37.31 107.51,-92.87 0,-32.65 -17.35,-55.31 -56.21,-73.5 -0.03,0 -62.05,-29.27 -62.05,-29.27 -13.89,-6.57 -39.22,-18.56 -39.22,-48.42 0,-17.9 8.74,-47.88 67.41,-47.88 25.92,0 46.76,6.4 65.37,13.96 3.54,-8.99 8.74,-22.32 12.31,-31.31 -24.9,-9.57 -47.33,-13.73 -76.99,-13.73 -48.28,0 -104.73,21.61 -104.73,82.4zm-2190.54 -72.68c6.75,17.35 113.49,292.48 113.49,292.48 0.41,1.03 0.6,2.1 0.6,3.22 0,1.07 -0.19,2.2 -0.6,3.27 -25.89,65.07 -76.43,107.74 -146.11,124.37 1.97,8.47 4.45,19.21 6.46,28.01 106.55,-24.06 147.4,-80.44 180.2,-169.2 0,0 84.2,-229.26 104.32,-284.19l-36.06 0c-3.97,11.22 -80.14,226.81 -80.14,226.81 -1.22,3.52 -4.57,5.86 -8.28,5.89 -3.71,0.05 -7.09,-2.26 -8.4,-5.75 0,0 -82.48,-220.79 -87.75,-234.93 -9.13,2.4 -26.89,7.12 -37.72,10.02zm1737.75 -117.39c0,17.68 13.85,31.56 31.56,31.56 17.27,0 30.82,-13.89 30.82,-31.56 0,-17.68 -13.55,-31.53 -30.82,-31.53 -17.71,0 -31.56,13.85 -31.56,31.53zm-171.51 -26.7c1.85,13.51 8.58,62.98 8.58,62.98 0,0 0.08,370.49 0.08,387.42l38.02 0 0 -456.86c-12.18,1.71 -35.87,4.98 -46.68,6.46zm-1209.09 293.43c0,-62.65 32,-125.9 103.61,-125.9 24.55,0 37.74,3.41 53.44,9.68 3.38,1.34 5.58,4.61 5.58,8.21l0 208.35c0,2.72 -1.23,5.28 -3.35,6.95 -16.44,13.03 -37.39,26.33 -68.21,26.33 -81.64,0 -91.07,-76.25 -91.07,-133.63zm153.37 -293.48c1.97,13.6 9.18,62.95 9.18,62.95 0.03,0.44 0.08,0.85 0.08,1.3l0 70.38c0,2.76 -1.3,5.36 -3.49,7.03 -2.2,1.71 -5.06,2.26 -7.72,1.48 -11.22,-3.08 -24.88,-4.53 -42.94,-4.53 -92.62,0 -147.92,64.4 -147.92,172.33 0,90.8 42.53,147.21 111.01,147.21 29.16,0 55.27,-10.43 82.11,-32.79 2.42,-2.04 5.77,-2.59 8.74,-1.52 2.97,1.11 5.15,3.71 5.69,6.82 0,0 2.51,14.93 4.11,24.25 9.78,-1.41 26.49,-3.78 36.41,-5.2 -1.83,-13.47 -8.59,-63.06 -8.59,-63.06 0,0 -0.03,-373.73 -0.06,-393.06 -12.12,1.66 -35.7,4.93 -46.59,6.41zm-828.63 0.05c1.82,13.51 8.55,62.98 8.55,62.98 0,0 0.06,370.49 0.06,387.42l38.04 0 0 -244.06c0,-2.53 1.07,-4.94 2.97,-6.62 18.31,-16.27 41.93,-32.91 78.37,-32.91 47.94,0 72.27,27.11 72.27,80.63l0 202.96 37.31 0 0 -222.45c0,-57.71 -34.23,-93.58 -89.38,-93.58 -31.64,0 -59.84,11.14 -86.17,34.09 -2.59,2.26 -6.3,2.78 -9.46,1.37 -3.16,-1.45 -5.2,-4.58 -5.2,-8.07 0,0 -0.6,-150.18 -0.68,-168.22 -12.1,1.66 -35.87,4.98 -46.68,6.46z"/>
   <path class="fil2" d="M2826.82 137.23l0 110.42 37.58 0c6.13,0 13,0 19.9,-0.79 26.11,-2.26 58.28,-8.42 58.28,-57.49 0,-44.45 -33.73,-49.07 -60.53,-51.36 -6.9,-0.79 -12.31,-0.79 -19.21,-0.79l-36.02 0zm-2639.79 186.33l0 104.26 47.5 0c6.92,0 13.82,0 21.47,-0.76 28.37,-2.29 56.76,-9.19 56.76,-54.44 0,-39.11 -29.9,-46.02 -59.02,-48.28 -7.69,-0.79 -13.82,-0.79 -20.73,-0.79l-45.99 0zm2769.35 223.1l-64.39 -149.49c-14.6,-33.76 -19.18,-35.29 -47.55,-35.29l-17.63 0 0 184.78 -177.86 0 0 -536.69 220.78 0c39.11,0 92.82,0 134.2,13.03 59.05,19.16 107.32,58.26 107.32,150.26 0,76.69 -47.5,111.94 -76.66,124.23 -5.37,2.31 -16.07,5.36 -16.07,5.36l0 6.16c12.99,3.82 27.58,12.24 42.89,36.81 21.47,34.5 89.73,200.84 89.73,200.84l-194.76 0zm-769.8 0l0 -536.69 372.65 0 0 134.95 -195.5 0 0 69 188.63 0 0 122.66 -188.63 0 0 75.15 206.23 0 0 134.92 -383.38 0zm-269.84 0l0 -205.46 -136.49 0 0 205.46 -177.12 0 0 -536.69 177.12 0 0 193.97 136.49 0 0 -193.97 177.1 0 0 536.69 -177.1 0zm-392.56 -392.56c0,0 -40.63,-14.56 -92.78,-14.56 -82.82,0 -135.71,45.24 -135.71,136.49 0,89.7 56.71,135.71 136.45,135.71 27.58,0 70.57,-3.08 94.32,-13.79l0 144.89c0,0 -21.45,13.81 -127.26,13.81 -170.99,0 -286,-92.78 -286,-272.18 0,-197.84 129.57,-284.46 299.78,-284.46 69.78,0 111.94,11.48 111.94,11.48l-0.74 142.62zm-719.19 403.33c-160.26,0 -247.65,-72.1 -247.65,-216.23l0 -324.33 177.12 0 0 322.02c0,44.45 19.94,78.97 69.74,78.97 52.92,0 68.26,-35.29 68.26,-78.97l0 -322.02 176.34 0 0 324.33c0,144.13 -78.95,216.23 -243.81,216.23zm-617.96 -431.67l0 98.12 42.9 0c6.9,0 14.6,0 22.24,-0.74 28.37,-2.34 50.61,-9.98 50.61,-47.56 0,-39.08 -23.02,-46.76 -52.13,-49.07 -7.69,-0.74 -15.34,-0.74 -22.24,-0.74l-41.39 0zm82.79 420.89l-259.94 0 0 -536.69 267.63 0c17.6,0 59,1.52 77.42,4.6 64.4,9.95 121.89,40.63 121.89,123.45 0,56.71 -35.27,98.9 -81.26,108.1l-3.85 0.74 0 8.44 3.85 0.77c62.87,13.82 97.39,61.37 97.39,129.58 0,105.03 -65.97,143.39 -140.32,156.42 -19.94,3.05 -62.87,4.58 -82.81,4.58z"/>
   <path class="fil3" d="M256.43 1190.46l0 -231.33c0,-67.6 -42.51,-102.44 -98.26,-102.44 -40.41,0 -70.34,17.42 -91.95,36.25l-0.71 -178.41 -65.51 9.05 9.76 71.8 0 395.08 55.75 0 0 -252.96c18.8,-16.71 40.41,-30.65 72.46,-30.65 44.59,0 63.42,24.37 63.42,71.77l0 211.84 55.04 0zm342.76 -326.11l-55.08 0 -82.22 232.75 -90.58 -242.48 -55.04 14.63 117.06 301.72c-21.61,54.33 -65.51,104.5 -148.4,121.21l10.43 45.32c113.58,-23 159.6,-80.82 195.09,-177.01l108.75 -296.15zm304.64 324.03l-9.76 -71.78 0 -402.06 -65.51 9.05 10.47 71.8 0 70.38c-12.56,-3.49 -27.19,-4.9 -45.32,-4.9 -98.94,0 -156.75,69 -156.75,181.19 0,96.87 48.05,156.11 119.85,156.11 38.32,0 66.88,-17.46 87.78,-34.88l5.58 32.75 53.66 -7.65zm-64.8 -63.39c-16.76,13.22 -35.54,24.36 -62.73,24.36 -61.32,0 -82.22,-45.97 -82.22,-124.7 0,-62.03 31.37,-117.07 94.77,-117.07 24.41,0 36.25,3.46 50.19,9.04l0 208.38zm312.7 -212.55l0 -55.04c-43.19,0 -72.46,20.92 -94.73,45.99l-6.29 -44.61 -55.07 9.07 9.76 71.78 0 250.84 55.75 0 0 -245.26c25.1,-22.98 52.95,-32.76 90.58,-32.76zm280.35 274.54l-10.46 -71.75 0 -155.39c0,-64.8 -43.9,-103.14 -109.38,-103.14 -41.81,0 -71.8,11.15 -101.05,28.56l20.2 41.12c21.61,-10.44 40.44,-18.8 67.6,-18.8 53.66,0 67.58,32.05 67.58,77.33l0 29.27 -58.53 6.27c-66.17,6.98 -112.19,35.54 -112.19,94.07 0,51.55 32.05,84.31 86.43,84.31 39.02,0 64.8,-18.8 88.49,-41.12l5.58 38.32 55.73 -9.05zm-65.51 -64.1c-18.12,16.05 -38.28,29.97 -71.07,29.97 -27.85,0 -44.61,-18.12 -44.61,-45.31 0,-29.94 23.02,-43.19 64.82,-48.77l50.87 -6.98 0 71.09zm419.71 64.1l-9.76 -71.75 0 -256.45 -65.48 9.07 9.76 71.78 0 177.67c-20.24,18.8 -42.53,32.05 -73.87,32.05 -43.9,0 -62.02,-25.07 -62.02,-73.16l0 -217.41 -65.51 9.07 9.76 71.78 0 156.06c0,66.92 43.9,102.48 98.94,102.48 40.41,0 72.46,-16.76 96.87,-39.75l6.27 37.61 55.04 -9.05zm163.59 3.49l0 -475.93 -65.51 9.05 9.73 71.8 0 395.08 55.78 0zm187.21 -432.6c0,-22.98 -18.07,-40.41 -39.7,-40.41 -22.32,0 -40.39,17.42 -40.39,40.41 0,22.98 18.07,40.41 40.39,40.41 21.63,0 39.7,-17.42 39.7,-40.41zm-12.54 432.6l0 -331.69 -65.48 9.07 9.76 71.78 0 250.84 55.72 0zm322.99 -319.84c-22.98,-9.07 -47.34,-13.93 -75.94,-13.93 -82.9,0 -156.77,55.05 -156.77,174.89 0,99.65 48.05,166.58 141.46,166.58 31.34,0 61.32,-6.29 88.46,-18.85l-18.78 -45.26c-18.13,7.65 -36.25,15.29 -58.54,15.29 -62.71,0 -96.85,-39.7 -96.85,-126.79 0,-69 36.92,-114.99 98.23,-114.99 23.03,0 43.19,6.24 61.32,13.22l17.41 -50.17zm274.09 225.06c0,-35.54 -18.13,-61.32 -61.32,-81.51l-62.02 -29.27c-13.25,-6.27 -34.12,-16 -34.12,-40.41 0,-27.88 22.98,-39.03 58.53,-39.03 26.48,0 48.09,6.98 70.38,16.76l18.83 -48.1c-27.9,-11.85 -53,-17.42 -88.51,-17.42 -59.22,0 -113.6,29.27 -113.6,91.29 0,56.46 39.03,75.95 60.64,85.68l60.61 27.88c21.56,9.78 34.12,19.51 34.12,43.2 0,30.68 -25.07,45.31 -62.68,45.31 -25.1,0 -50.88,-8.36 -73.87,-18.83l-16.71 48.8c26.44,12.53 59.9,17.38 93.36,17.38 69.68,0 116.36,-42.48 116.36,-101.72z"/>
  </g>
 </g>
</svg>
