<?xml version="1.0" encoding="UTF-8"?>
<!DOCTYPE svg PUBLIC "-//W3C//DTD SVG 1.1//EN" "http://www.w3.org/Graphics/SVG/1.1/DTD/svg11.dtd">
<!-- Creator: CorelDRAW -->
<svg xmlns="http://www.w3.org/2000/svg" xml:space="preserve" width="37.9175mm" height="8.4667mm" version="1.1" style="shape-rendering:geometricPrecision; text-rendering:geometricPrecision; image-rendering:optimizeQuality; fill-rule:evenodd; clip-rule:evenodd"
viewBox="0 0 4299.12 959.96"
 xmlns:xlink="http://www.w3.org/1999/xlink"
 xmlns:xodm="http://www.corel.com/coreldraw/odm/2003">
 <defs>
  <style type="text/css">
   <![CDATA[
    .fil0 {fill:#212E5C;fill-rule:nonzero}
   ]]>
  </style>
 </defs>
 <g id="Layer_x0020_1">
  <metadata id="CorelCorpID_0Corel-Layer"/>
  <g id="_2460204980352">
   <g id="g12">
    <g>
     <path id="path14" class="fil0" d="M277.76 644.04c-65.28,0 -119.5,-46.46 -131.69,-108.45l-146.07 28.22c24.91,130.59 139.98,229.07 277.76,229.07 78.56,0 149.38,-32.1 200.87,-83.56l-119.54 -92.39c-22.69,16.61 -50.9,27.11 -81.33,27.11l0 0zm0 -268.35c30.43,0 58.64,10.51 81.33,27.66l119.54 -92.39c-51.49,-51.45 -122.3,-83.55 -200.87,-83.55 -137.78,0 -252.85,98.49 -277.76,229.06l146.07 28.78c11.63,-62.53 65.86,-109.56 131.69,-109.56l0 0zm2015.08 288.28c-74.13,0 -128.36,-54.23 -136.66,-133.91l0 -42.04c8.3,-78.57 62.53,-132.78 136.66,-132.78 84.68,0 144.41,63.63 144.41,153.79 -0.56,91.32 -59.73,154.95 -144.41,154.95l0 0zm43.72 -436.56c-75.25,0 -137.76,32.64 -180.92,87.97l0 -75.8 -152.71 0 0 720.38 152.7 0 0 -256.16c42.62,56.44 105.68,89.08 180.93,89.08 144.41,0 248.97,-117.3 248.97,-283.3 0,-165.43 -104.56,-282.17 -248.97,-282.17l0 0zm605.31 436.56c-81.34,0 -149.39,-70.82 -149.39,-154.95 0,-83.54 68.05,-153.79 149.39,-153.79 80.22,0 148.29,70.26 148.29,153.79 0.54,84.13 -67.52,154.95 -148.29,154.95l0 0zm0 -436.56c-161,0 -296.01,128.37 -296.01,282.17 0,153.84 135.01,283.3 296.01,283.3 159.9,0 293.79,-129.47 293.79,-283.3 0,-153.8 -133.89,-282.17 -293.79,-282.17l0 0zm366.29 552.75l152.69 0 0 -730.38 -152.69 0 0 730.38zm732.55 -335.32c-73.04,-19.9 -95.16,-28.2 -95.16,-57.52 0,-18.82 26.01,-32.64 63.63,-32.64 45.91,0 102.35,17.7 151.6,48.12l61.42 -108.43c-59.76,-39.85 -136.13,-66.96 -213.02,-66.96 -127.26,0 -211.91,73.04 -211.36,175.39 1.11,106.78 86.87,137.24 197.52,164.35 55.35,14.38 95.16,24.9 95.16,58.63 0,23.8 -29.32,40.96 -70.26,40.96 -71.92,0 -132.78,-26.01 -180.93,-60.86l-65.28 105.12c64.74,52.02 156.6,81.34 243.46,81.34 132.79,0 219.65,-68.05 219.65,-174.29 0,-117.86 -103.46,-149.39 -196.42,-173.19l0 -0.01zm-479.7 335.32l152.7 0 0 -540.58 -152.7 0 0 540.58zm76.91 -779.6c-47.03,0 -83.55,38.72 -83.55,81.33 0,45.92 36.52,83.56 83.55,83.56 44.82,0 81.33,-37.64 81.33,-83.56 0.58,-42.61 -35.96,-81.33 -81.33,-81.33l0 0zm-1845.24 49.8l-152.71 0 -56.99 116.18 152.7 0 57 -116.18zm-249.54 399.47c19.93,-54.23 68.06,-87.97 125.6,-87.97 61.99,0 101.25,34.31 116.19,87.97l-241.8 0zm119.51 -222.97c-157.68,0 -278.3,118.39 -278.3,281.07 0,165.99 125.6,284.39 286.6,284.39 79.68,0 172.63,-33.2 220.78,-83.55l-97.39 -99.59c-29.32,28.22 -81.32,48.13 -124.48,48.13 -63.63,0 -110.67,-39.83 -128.37,-98.48l389.53 0c0,-203.05 -99.06,-331.97 -268.36,-331.97l0 0zm-546.1 0.54c-70.26,0 -130.57,30.98 -163.21,80.23l0 -68.05 -152.71 0 0 540.58 152.71 0 0 -320.37c0,-58.65 50.33,-104.02 113.96,-104.02 60.89,0 102.37,45.92 102.37,112.86l0 311.53 147.16 0 0 -344.17c0.58,-122.27 -82.97,-208.59 -200.28,-208.59l0 0zm-499.62 -227.41c-47.03,0 -83.55,38.73 -83.55,81.33 0,45.93 36.52,83.57 83.55,83.57 44.81,0 81.35,-37.64 81.35,-83.57 0,-42.6 -36.54,-81.33 -81.35,-81.33l0 0zm-77.46 780.16l152.71 0 0 -540.58 -152.71 0 0 540.58z"/>
    </g>
    <path id="path16" class="fil0" d="M4299.12 762.45c0,18.27 -14.4,32.64 -33.22,32.64 -18.8,0 -33.75,-14.38 -33.75,-32.64 0,-18.27 14.95,-32.64 33.75,-32.64 18.82,0.56 33.22,14.94 33.22,32.64zm-58.65 0c0,14.39 10.49,26.01 25.43,26.01 14.4,0 24.9,-11.62 24.9,-26.01 0,-14.4 -10.5,-26.01 -24.9,-26.01 -14.38,0 -25.43,11.61 -25.43,26.01zm20.45 17.15l-7.73 0 0 -32.65c2.76,-0.56 7.18,-1.11 12.71,-1.11 6.09,0 8.84,1.11 11.07,2.21 1.68,1.66 3.33,3.89 3.33,7.19 0,3.33 -2.79,6.1 -6.66,7.77l0 0.54c3.32,1.11 5,3.32 6.09,7.74 1.12,5 1.68,7.19 2.22,8.31l-8.31 0c-1.09,-1.12 -1.66,-4.44 -2.77,-7.76 -0.53,-3.32 -2.77,-4.98 -6.63,-4.98l-3.32 0 0 12.73zm0 -18.27l3.32 0c4.42,0 7.73,-1.66 7.73,-4.98 0,-2.77 -2.19,-4.99 -7.19,-4.99 -2.21,0 -3.31,0 -4.42,0.57l0.56 9.4z"/>
   </g>
  </g>
 </g>
</svg>
