<?xml version="1.0" encoding="UTF-8"?>
<!DOCTYPE svg PUBLIC "-//W3C//DTD SVG 1.1//EN" "http://www.w3.org/Graphics/SVG/1.1/DTD/svg11.dtd">
<!-- Creator: CorelDRAW -->
<svg xmlns="http://www.w3.org/2000/svg" xml:space="preserve" width="29.9106mm" height="8.4667mm" version="1.1" style="shape-rendering:geometricPrecision; text-rendering:geometricPrecision; image-rendering:optimizeQuality; fill-rule:evenodd; clip-rule:evenodd"
viewBox="0 0 591.04 167.3"
 xmlns:xlink="http://www.w3.org/1999/xlink"
 xmlns:xodm="http://www.corel.com/coreldraw/odm/2003">
 <defs>
  <style type="text/css">
   <![CDATA[
    .fil0 {fill:#E31E24}
   ]]>
  </style>
 </defs>
 <g id="Layer_x0020_1">
  <metadata id="CorelCorpID_0Corel-Layer"/>
  <g id="_2460216516608">
   <polygon class="fil0" points="106.09,166.78 15.29,166.78 15.29,55.91 -0,55.91 9.56,6.21 74.55,6.21 77.26,0 121.82,0 107.48,55.83 66,55.83 66,66.58 117.21,66.58 107.99,106.53 65.48,106.53 65.48,117.29 120.8,117.29 "/>
   <polygon class="fil0" points="575.31,166.78 484.51,166.78 484.51,55.91 469.22,55.91 478.78,6.21 543.77,6.21 546.48,0 591.04,0 576.7,55.83 535.22,55.83 535.22,66.58 586.43,66.58 577.22,106.53 534.71,106.53 534.71,117.29 590.02,117.29 "/>
   <polygon class="fil0" points="126.17,6.72 179.48,6.72 196.13,38.71 216.79,5.39 272.09,5.39 227.45,81.35 270.76,167.3 218.12,167.3 196.13,127.33 175.48,165.31 121.51,165.31 165.48,83.35 "/>
   <polygon class="fil0" points="325.4,166.64 278.09,166.64 278.09,56.7 266.09,56.7 281.42,6.72 326.06,6.72 "/>
   <path class="fil0" d="M345.31 166.64l0 -109.94 -11.99 0 15.32 -48.78 39.38 -0.38c51.24,0.39 76.94,26.12 80.31,72.32 -0.47,61.36 -32.24,85.13 -75.37,86.77 -15.67,0.82 -31.93,0.02 -47.65,0.02zm47.77 -109.47l-0.25 60.26c17.21,-0.84 30.59,-10.89 30.29,-35.2 -1.42,-19.31 -15.82,-28.31 -30.04,-25.06z"/>
  </g>
 </g>
</svg>
