<?xml version="1.0" encoding="UTF-8"?>
<!DOCTYPE svg PUBLIC "-//W3C//DTD SVG 1.1//EN" "http://www.w3.org/Graphics/SVG/1.1/DTD/svg11.dtd">
<!-- Creator: CorelDRAW -->
<svg xmlns="http://www.w3.org/2000/svg" xml:space="preserve" width="31.9555mm" height="10.1484mm" version="1.1" style="shape-rendering:geometricPrecision; text-rendering:geometricPrecision; image-rendering:optimizeQuality; fill-rule:evenodd; clip-rule:evenodd"
viewBox="0 0 463.53 147.21"
 xmlns:xlink="http://www.w3.org/1999/xlink"
 xmlns:xodm="http://www.corel.com/coreldraw/odm/2003">
 <defs>
  <style type="text/css">
   <![CDATA[
    .fil3 {fill:#010101;fill-rule:nonzero}
    .fil0 {fill:#37A58C;fill-rule:nonzero}
    .fil2 {fill:#4F4F4F;fill-rule:nonzero}
    .fil1 {fill:#DD0661;fill-rule:nonzero}
   ]]>
  </style>
 </defs>
 <g id="Layer_x0020_1">
  <metadata id="CorelCorpID_0Corel-Layer"/>
  <g id="REHAU">
   <path class="fil0" d="M33.24 6.62c-9.15,4.74 -18.47,9.64 -26.15,17.65 -7.19,7.36 -9.15,19.94 -4.74,29.43 4.67,9.25 10.74,17.76 17.98,25.17 -1.24,-6.39 -1.87,-12.92 -1.87,-19.44 0,-18.62 5.11,-36.91 14.78,-52.81l0 -0z"/>
   <path class="fil1" d="M25.72 83.62c8.99,5.72 17.82,11.12 28.12,13.57 11.28,2.62 21.91,-2.13 28.61,-11.12 5.26,-8.57 9.41,-17.83 12.27,-27.46 -18.69,16.14 -42.61,25.03 -67.3,25.03 -0.55,0 -1.14,-0.01 -1.68,-0.01l-0 -0z"/>
   <path class="fil2" d="M92.91 14.3c-4.42,-8.06 -12.58,-13.4 -21.74,-14.22 -1.37,-0.06 -2.81,-0.08 -4.19,-0.08 -8.77,0 -17.54,1.08 -26.05,3.19 22.4,7.19 44.63,25.83 56.07,47.24 0.49,-12.43 1.15,-25.67 -4.08,-36.13z"/>
   <polygon class="fil3" points="288.58,50.43 288.58,90.32 277.14,90.32 277.14,50.43 250.82,50.43 250.82,147.05 277.14,147.05 277.14,106.99 288.42,106.99 288.42,147.05 314.74,147.05 314.74,50.43 "/>
   <path class="fil3" d="M340.24 50.43c-8.34,0 -14.06,7.19 -14.06,15.86l0 80.76 26.15 0 0 -40.05 10.63 0 0 40.05 25.99 0 0 -96.61 -48.71 0zm22.72 39.89l-10.63 0 0 -19.62c0,-3.6 1.31,-4.9 4.58,-4.9l6.05 0 0 24.52z"/>
   <path class="fil3" d="M170.72 98.17c6.05,-0.65 13.08,-7.03 13.08,-15.53l0 -16.35c-0.16,-8.83 -6.7,-15.86 -13.57,-15.86l-49.86 0 0 96.61 25.99 0 0 -40.05 6.54 0c3.11,0 4.58,1.47 4.58,5.07l0 35.15 26.32 0 0 -33.18c0,-8.66 -6.87,-15.2 -13.08,-15.86zm-13.24 -12.75c0.16,2.94 -1.14,4.58 -3.27,4.9l-7.68 -0 0 -24.52 6.54 0c3.27,0 4.58,1.63 4.58,4.9l-0.16 14.71z"/>
   <polygon class="fil3" points="221.56,69.07 239.54,69.07 239.54,50.43 195.24,50.43 195.24,147.05 239.54,147.05 239.54,128.41 221.56,128.41 221.56,106.99 236.76,106.99 236.76,90.32 221.56,90.32 "/>
   <path class="fil3" d="M461.7 137.4c1.21,-3.26 1.83,-6.73 1.83,-10.21 0,-0.46 -0.01,-0.94 -0.03,-1.4l0 -75.2 -25.67 -0 0 74.54c0,0.04 0,0.09 0,0.13 0,2.92 -2.36,5.28 -5.28,5.28 -0.15,0 -0.3,-0.01 -0.44,-0.02l-0.16 0c-0.12,0.01 -0.24,0.01 -0.36,0.01 -2.96,0 -5.36,-2.4 -5.36,-5.36 0,-0.01 0,-0.03 0,-0.04l0 -74.54 -25.66 0 0 75.2c-0.03,0.53 -0.05,1.08 -0.05,1.61 0,3.41 0.63,6.8 1.84,9.99 2.13,4.51 6.14,7.86 10.95,9.15 1.83,0.35 3.69,0.53 5.55,0.53 0.49,0 0.99,-0.01 1.48,-0.04l23.54 0c0.17,-0 0.36,0 0.53,0 2.17,0 4.35,-0.17 6.5,-0.49 4.71,-1.42 8.62,-4.74 10.79,-9.15l0 0z"/>
  </g>
 </g>
</svg>
